<svg xmlns="http://www.w3.org/2000/svg" width="14" height="19" viewBox="0 0 14 19">
    <path fill="#0086DB" fill-rule="nonzero" d="M10.432 16.829H7.776C9.665 14.555 13.5 9.59 13.5 6.777a6.75 6.75 0 0 0-13.5 0C0 9.59 3.835 14.555 5.724 16.83H3.068a.607.607 0 0 0-.613.6c0 .33.274.6.613.6h7.364a.608.608 0 0 0 .613-.6c0-.332-.276-.6-.613-.6zM1.227 6.854C1.227 3.747 3.7 1.23 6.75 1.23s5.523 2.518 5.523 5.625S6.75 16.23 6.75 16.23s-5.523-6.27-5.523-9.375zM6.75 3.63c-1.695 0-3.068 1.343-3.068 2.999 0 1.657 1.373 3 3.068 3s3.068-1.343 3.068-3c0-1.656-1.373-3-3.068-3zm0 4.8c-1.017 0-1.84-.807-1.84-1.801 0-.994.823-1.8 1.84-1.8 1.016 0 1.84.806 1.84 1.8s-.824 1.8-1.84 1.8z"/>
</svg>
