<svg xmlns="http://www.w3.org/2000/svg" width="22" height="23" viewBox="0 0 22 23">
    <path fill="#FFF" fill-rule="evenodd" d="M19.462 16.113a.692.692 0 0 1-.688.695h-5.505V7.077h5.505c.38 0 .688.311.688.696v8.34zm-15.039-1.96h7.962v-9.73H4.423v9.73zm-.885 7.236c0 .401-.396.726-.884.726s-.885-.325-.885-.726V2.496c0-.402.397-.727.885-.727s.884.325.884.727v18.893zM19.815 5.75h-6.369V2.875h-9.2V1.437C4.246.644 3.612 0 2.831 0H1.415C.634 0 0 .644 0 1.438v20.125C0 22.357.634 23 1.415 23h1.416c.781 0 1.415-.643 1.415-1.438v-5.75h7.785v2.876h7.785c.781 0 1.415-.643 1.415-1.438V7.187c0-.793-.634-1.437-1.416-1.437z"/>
</svg>
