<svg xmlns="http://www.w3.org/2000/svg" width="16" height="18" viewBox="0 0 16 18">
    <path fill="#1589EE" fill-rule="nonzero" d="M14.336 5.547h-1.344c.239-.124.46-.279.658-.461a2.943 2.943 0 0 0 .915-2.148A2.831 2.831 0 0 0 13.65.864a3.172 3.172 0 0 0-4.352 0A5.819 5.819 0 0 0 8 3.666 5.818 5.818 0 0 0 6.683.901a3.172 3.172 0 0 0-4.352 0 2.831 2.831 0 0 0-.914 2.074c-.004.813.328 1.59.914 2.148.199.182.42.337.659.46H1.664A1.642 1.642 0 0 0 0 7.17v9.218c.02.907.764 1.628 1.664 1.613h12.672c.9.015 1.644-.706 1.664-1.613V7.169a1.656 1.656 0 0 0-.499-1.159 1.63 1.63 0 0 0-1.165-.463zm-5.11-1.06a5.99 5.99 0 0 1 1.05-2.572 1.82 1.82 0 0 1 1.262-.498c.447-.003.878.165 1.207.47.299.271.471.655.476 1.06-.005.437-.19.851-.512 1.143a6.795 6.795 0 0 1-2.743 1.014l-.96.221.22-.838zM3.3 1.878c.328-.305.76-.473 1.206-.47a1.82 1.82 0 0 1 1.262.498c.55.764.914 1.648 1.06 2.58l.257.84-.915-.222A6.804 6.804 0 0 1 3.43 4.09a1.563 1.563 0 0 1-.522-1.134c-.022-.398.12-.789.394-1.078zM1.37 16.387V7.169a.266.266 0 0 1 .293-.23h5.422v9.678H1.664a.266.266 0 0 1-.293-.23zm13.258 0a.266.266 0 0 1-.293.23H8.914V6.93h5.422a.275.275 0 0 1 .293.23v9.228z"/>
</svg>
