<svg xmlns="http://www.w3.org/2000/svg" xmlns:xlink="http://www.w3.org/1999/xlink" width="21" height="23" viewBox="0 0 21 23">
    <defs>
        <path id="a" d="M0 22.5h20V0H0z"/>
    </defs>
    <g fill="none" fill-rule="evenodd" transform="translate(1)">
        <path stroke="#FEFEFE" d="M17.058 22H2.652A2.151 2.151 0 0 1 .5 19.849V5.442A2.443 2.443 0 0 1 2.943 3h14.115A2.442 2.442 0 0 1 19.5 5.442v14.116A2.442 2.442 0 0 1 17.058 22zM.5 7h19"/>
        <path fill="#231F20" d="M6.999 1.003L7 1 6.999.996v-.02h-.004a.497.497 0 0 0-.991.005H6V1.002l.001 3.992L6 5l.001.005v.027h.006c.016.26.228.468.493.468.267 0 .48-.21.495-.474h.004v-.023L7 5l-.001-.004V1.003z"/>
        <path stroke="#FEFEFE" d="M6.999 1.003L7 1 6.999.996v-.02h-.004a.497.497 0 0 0-.991.005H6V1.002l.001 3.992L6 5l.001.005v.027h.006c.016.26.228.468.493.468.267 0 .48-.21.495-.474h.004v-.023L7 5l-.001-.004V1.003z"/>
        <path fill="#231F20" d="M13.999 1.003L14 1l-.001-.004v-.02h-.004a.497.497 0 0 0-.991.005H13V1.002l.001 3.992L13 5l.001.005v.027h.006c.016.26.228.468.493.468.267 0 .48-.21.495-.474h.004v-.023L14 5l-.001-.004V1.003z"/>
        <path stroke="#FEFEFE" d="M13.999 1.003L14 1l-.001-.004v-.02h-.004a.497.497 0 0 0-.991.005H13V1.002l.001 3.992L13 5l.001.005v.027h.006c.016.26.228.468.493.468.267 0 .48-.21.495-.474h.004v-.023L14 5l-.001-.004V1.003z"/>
        <mask id="b" fill="#fff">
            <use xlink:href="#a"/>
        </mask>
        <path fill="#FEFEFE" d="M3.875 12.625h2.25v-2.25h-2.25v2.25zm-.75.75h3.75v-3.75h-3.75v3.75zM8.875 12.625h2.25v-2.25h-2.25v2.25zm-.75.75h3.75v-3.75h-3.75v3.75zM13.875 12.625h2.25v-2.25h-2.25v2.25zm-.75.75h3.75v-3.75h-3.75v3.75z" mask="url(#b)"/>
        <path stroke="#FEFEFE" d="M13.875 12.625h2.25v-2.25h-2.25v2.25zm-.75.75h3.75v-3.75h-3.75v3.75z" mask="url(#b)"/>
        <path fill="#FEFEFE" d="M3.875 17.625h2.25v-2.25h-2.25v2.25zm-.75.75h3.75v-3.75h-3.75v3.75zM8.875 17.625h2.25v-2.25h-2.25v2.25zm-.75.75h3.75v-3.75h-3.75v3.75zM13.875 17.625h2.25v-2.25h-2.25v2.25zm-.75.75h3.75v-3.75h-3.75v3.75z" mask="url(#b)"/>
    </g>
</svg>
