<svg xmlns="http://www.w3.org/2000/svg" xmlns:xlink="http://www.w3.org/1999/xlink" width="20" height="26" viewBox="0 0 20 26">
    <defs>
        <path id="a" d="M0 26h20V0H0z"/>
    </defs>
    <g fill="none" fill-rule="evenodd">
        <path fill="#FEFEFE" d="M19 24a1 1 0 0 1-1 1H2a1 1 0 0 1-1-1V5a1 1 0 0 1 1-1h16a1 1 0 0 1 1 1v19zM18 3H2a2 2 0 0 0-2 2v19a2 2 0 0 0 2 2h16a2 2 0 0 0 2-2V5a2 2 0 0 0-2-2z"/>
        <path fill="#FEFEFE" d="M14 3v2a1 1 0 0 1-1 1H7a1 1 0 0 1-1-1V3H5v2a2 2 0 0 0 2 2h6a2 2 0 0 0 2-2V3h-1z"/>
        <mask id="b" fill="#fff">
            <use xlink:href="#a"/>
        </mask>
        <path fill="#FEFEFE" d="M3.875 17.125h2.25v-2.25h-2.25v2.25zm-.75.75h3.75v-3.75h-3.75v3.75zM3.875 22.125h2.25v-2.25h-2.25v2.25zm-.75.75h3.75v-3.75h-3.75v3.75zM16.5 12h-8a.5.5 0 0 1 0-1h8a.5.5 0 0 1 0 1M16.5 17h-8a.5.5 0 0 1 0-1h8a.5.5 0 0 1 0 1M16.5 22h-8a.5.5 0 0 1 0-1h8a.5.5 0 0 1 0 1M4.036 9.592l.283.283h1.806v.102l.75-.75v-.102h-3.75v.222a.968.968 0 0 1 .911.245M3.125 11.459v1.417h1.412zM6.008 12.875h.867v-.867z" mask="url(#b)"/>
        <path fill="#FEFEFE" d="M4.93 12.56a.496.496 0 0 0 .686 0L9 9.177a.483.483 0 0 0-.682-.682l-3.045 3.04-1.59-1.59a.482.482 0 0 0-.68.681l1.927 1.934z" mask="url(#b)"/>
        <path stroke="#FEFEFE" d="M4.93 12.56a.496.496 0 0 0 .686 0L9 9.177a.483.483 0 0 0-.682-.682l-3.045 3.04-1.59-1.59a.482.482 0 0 0-.68.681l1.927 1.934z" mask="url(#b)"/>
        <path fill="#FEFEFE" d="M7.667 3c0-1.104 1.044-2 2.332-2 1.29 0 2.335.896 2.335 2H7.667zm2.332-3C8.066 0 6.5 1.343 6.5 3h7c0-1.657-1.566-3-3.5-3z" mask="url(#b)"/>
    </g>
</svg>
