<svg xmlns="http://www.w3.org/2000/svg" width="16" height="23" viewBox="0 0 16 23">
    <g fill="none" fill-rule="evenodd">
        <path stroke="#FEFEFE" stroke-linecap="round" d="M1.5 2.5H15M1.5 17.5H15M8.7 20c0 .276-.202.5-.45.5s-.45-.224-.45-.5.202-.5.45-.5.45.224.45.5z"/>
        <path stroke="#FEFEFE" stroke-linecap="round" d="M3.134.5h10.232C14.269.5 15 1.313 15 2.316v18.368c0 1.003-.731 1.816-1.634 1.816H3.134c-.902 0-1.634-.813-1.634-1.816V2.316C1.5 1.313 2.232.5 3.134.5z"/>
        <path fill="#FEFEFE" d="M10.753 9.055a1.151 1.151 0 0 1-.217.526 13.451 13.451 0 0 1-2.669 2.678c-.144.108-.312.18-.487.213l-.061.012a1.099 1.099 0 0 1-.984-.296l-.513-.513a.316.316 0 0 1 .048-.476l.887-.64a.44.44 0 0 1 .569.036l.149.148a.31.31 0 0 0 .437-.007l.313-.313.43-.432.32-.318a.309.309 0 0 0 .007-.437l-.148-.149a.44.44 0 0 1-.037-.57l.64-.886a.315.315 0 0 1 .477-.048l.535.535c.243.243.356.59.304.937M10.27 6H6.23a1.98 1.98 0 0 0-1.98 1.98v4.04A1.98 1.98 0 0 0 6.23 14h4.04a1.98 1.98 0 0 0 1.98-1.98V7.98A1.98 1.98 0 0 0 10.27 6"/>
    </g>
</svg>
