<?xml version="1.0" encoding="UTF-8" standalone="no"?>
<svg width="48px" height="52px" viewBox="0 0 48 52" version="1.1" xmlns="http://www.w3.org/2000/svg" xmlns:xlink="http://www.w3.org/1999/xlink">
    <!-- Generator: sketchtool 3.8.2 (29753) - http://www.bohemiancoding.com/sketch -->
    <title>BB584655-388A-4E4F-B487-8BCC75DBCC6C</title>
    <desc>Created with sketchtool.</desc>
    <defs></defs>
    <g id="Welcome" stroke="none" stroke-width="1" fill="none" fill-rule="evenodd">
        <g id="Desktop-Homepage" transform="translate(-90.000000, -82.000000)" fill="#FEFEFE">
            <g id="Nav" transform="translate(90.000000, 81.000000)">
                <g id="Flower" transform="translate(0.000000, 0.253514)">
                    <path d="M43.3621323,31.56865 L41.2533927,40.6290562 L39.0405802,31.56865 L35.9961948,31.56865 L33.7490281,40.5259937 L31.7039448,31.56865 L28.3786635,31.56865 L32.058601,45.7165042 L35.3313406,45.7165042 L37.4916115,36.7682542 L39.6872469,45.7165042 L42.9023927,45.7165042 L42.9337156,45.597275 L46.639924,31.56865 L43.3621323,31.56865 Z M12.8606844,40.6088479 L5.16231979,31.56865 L1.90069479,31.56865 L1.90069479,45.7195354 L5.07643437,45.7195354 L5.07643437,36.6985354 L12.7545906,45.7195354 L16.036424,45.7195354 L16.036424,31.56865 L12.8606844,31.56865 L12.8606844,40.6088479 Z" id="Fill-41"></path>
                    <path d="M1.56200313,50.0570521 L1.56200313,50.0469479 C1.56200313,48.8192917 2.49966979,47.7795729 3.82028438,47.7795729 C4.58415938,47.7795729 5.05299271,47.9927708 5.50464896,48.3736979 L5.01661771,48.9577187 C4.67711771,48.6687396 4.34570104,48.4868646 3.78997188,48.4868646 C2.98264896,48.4868646 2.36932604,49.1941562 2.36932604,50.0348229 L2.36932604,50.0469479 C2.36932604,50.9472292 2.96345104,51.6110729 3.85868021,51.6110729 C4.27093021,51.6110729 4.64680521,51.4776979 4.91557604,51.2756146 L4.91557604,50.4591979 L3.79502396,50.4591979 L3.79502396,49.7872708 L5.66126354,49.7872708 L5.66126354,51.62825 C5.22880521,51.9970521 4.60941979,52.3123021 3.83341979,52.3123021 C2.46329479,52.3123021 1.56200313,51.3321979 1.56200313,50.0570521" id="Fill-42"></path>
                    <path d="M9.89844583,50.0570521 L9.89844583,50.0469479 C9.89844583,49.1941562 9.27805,48.4868646 8.40808125,48.4868646 C7.53912292,48.4868646 6.93287292,49.1810208 6.93287292,50.0348229 L6.93287292,50.0469479 C6.93287292,50.8977187 7.55124792,51.604 8.42121667,51.604 C9.29118542,51.604 9.89844583,50.9078229 9.89844583,50.0570521 M6.12555,50.0570521 L6.12555,50.0469479 C6.12555,48.8122187 7.0773625,47.7795729 8.42121667,47.7795729 C9.76709167,47.7795729 10.7047583,48.7990833 10.7047583,50.0348229 L10.7047583,50.0469479 C10.7047583,51.2756146 9.75496667,52.3123021 8.40808125,52.3123021 C7.06422708,52.3123021 6.12555,51.2927917 6.12555,50.0570521" id="Fill-43"></path>
                    <polygon id="Fill-44" points="10.6493875 47.8566677 11.5001583 47.8566677 12.8197625 51.2223656 14.1343146 47.8566677 14.9668979 47.8566677 13.1461271 52.2681469 12.4701583 52.2681469"></polygon>
                    <polygon id="Fill-45" points="15.4853427 47.8566677 18.7328219 47.8566677 18.7328219 48.543751 16.2552802 48.543751 16.2552802 49.683501 18.451926 49.683501 18.451926 50.3726052 16.2552802 50.3726052 16.2552802 51.5467094 18.7651552 51.5467094 18.7651552 52.2348031 15.4853427 52.2348031"></polygon>
                    <path d="M21.4067885,50.0274469 C21.9574656,50.0274469 22.3090906,49.7384677 22.3090906,49.2938844 L22.3090906,49.280749 C22.3090906,48.8119156 21.970601,48.5572906 21.400726,48.5572906 L20.280174,48.5572906 L20.280174,50.0274469 L21.4067885,50.0274469 Z M19.5122573,47.8570719 L21.4633719,47.8570719 C22.0150594,47.8570719 22.4454969,48.0187385 22.7274031,48.2945823 C22.959799,48.5310198 23.0901427,48.8553635 23.0901427,49.237301 L23.0901427,49.2504365 C23.0901427,49.9698531 22.6576844,50.4023115 22.0443615,50.5791344 L23.2285698,52.2352073 L22.3202052,52.2352073 L21.2441115,50.7084677 L20.280174,50.7084677 L20.280174,52.2352073 L19.5122573,52.2352073 L19.5122573,47.8570719 Z" id="Fill-46"></path>
                    <polygon id="Fill-47" points="23.7689406 47.8566677 24.4792635 47.8566677 26.8264615 50.883876 26.8264615 47.8566677 27.5852844 47.8566677 27.5852844 52.2348031 26.9396281 52.2348031 24.5247323 49.1176677 24.5247323 52.2348031 23.7689406 52.2348031"></polygon>
                    <polygon id="Fill-48" points="28.3662354 47.8566677 29.1856833 47.8566677 30.5184229 49.9280219 31.8501521 47.8566677 32.6716208 47.8566677 32.6716208 52.2348031 31.9016833 52.2348031 31.9016833 49.0944281 30.5184229 51.1597198 30.4921521 51.1597198 29.1250583 49.1075635 29.1250583 52.2348031 28.3662354 52.2348031"></polygon>
                    <polygon id="Fill-49" points="33.404476 47.8566677 36.6519552 47.8566677 36.6519552 48.543751 34.1744135 48.543751 34.1744135 49.683501 36.370049 49.683501 36.370049 50.3726052 34.1744135 50.3726052 34.1744135 51.5467094 36.6832781 51.5467094 36.6832781 52.2348031 33.404476 52.2348031"></polygon>
                    <polygon id="Fill-50" points="37.4411917 47.8566677 38.1545458 47.8566677 40.4997229 50.883876 40.4997229 47.8566677 41.2575354 47.8566677 41.2575354 52.2348031 40.6139 52.2348031 38.1990042 49.1176677 38.1990042 52.2348031 37.4411917 52.2348031"></polygon>
                    <polygon id="Fill-51" points="43.2574531 48.5701229 41.8661094 48.5701229 41.8661094 47.8567688 45.4207552 47.8567688 45.4207552 48.5701229 44.0334531 48.5701229 44.0334531 52.2349042 43.2574531 52.2349042"></polygon>
                    <path d="M16.9116469,43.7479094 L18.7799073,41.5098365 C20.0732406,42.5778469 21.4292198,43.2568469 23.0721573,43.2568469 C24.366501,43.2568469 25.1475531,42.7435552 25.1475531,41.9008677 L25.1475531,41.8584302 C25.1475531,41.0571698 24.6544698,40.6489615 22.251699,40.0315969 C19.3548344,39.2929823 17.486574,38.4907115 17.486574,35.6372948 L17.486574,35.5958677 C17.486574,32.9889927 19.5811677,31.2642115 22.518449,31.2642115 C24.6120323,31.2642115 26.3994594,31.9209823 27.8574906,33.0910448 L26.2155635,35.4736073 C24.9414281,34.5894927 23.6885115,34.0549823 22.4760115,34.0549823 C21.2645219,34.0549823 20.6289698,34.609701 20.6289698,35.307899 L20.6289698,35.349326 C20.6289698,36.295076 21.2443135,36.6022427 23.7299385,37.2388052 C26.646001,37.999649 28.2879281,39.0454302 28.2879281,41.5512635 L28.2879281,41.5916802 C28.2879281,44.4461073 26.112501,46.0476177 23.0115323,46.0476177 C20.833074,46.0476177 18.6364281,45.2877844 16.9116469,43.7479094" id="Fill-52"></path>
                    <path d="M9.46679583,4.71369479 C9.1677125,4.72379896 8.9919,4.89759063 8.92723333,5.24214271 C8.92723333,5.24214271 8.85549375,5.75846563 8.77466042,6.63449688 C8.7009,7.43474688 8.61198333,8.70787188 8.61198333,10.2204656 C8.61198333,13.6265802 9.05656667,18.4644552 11.1764208,22.176726 C12.8031917,25.0058927 15.1018896,26.5993198 17.6653167,26.682174 C16.667025,25.918299 15.4767542,24.6512365 14.8442333,22.6778927 C14.2470771,20.8096323 13.9449625,18.5968198 13.9449625,16.1051323 C13.9449625,12.665674 14.5198896,9.71626771 14.6977229,8.89479896 C14.7017646,8.87155938 14.7047958,8.86044479 14.7058063,8.85438229 C14.8098792,8.37342396 15.0867333,7.99249688 15.4565458,7.79849688 C12.8415875,6.11918438 10.5924,5.13402813 10.1579208,4.94811146 C9.89622292,4.82787188 9.755775,4.77735104 9.755775,4.77735104 L9.75072292,4.77634063 L9.74668125,4.77533021 C9.65170208,4.73390313 9.55672292,4.71470521 9.46679583,4.71369479" id="Fill-53"></path>
                    <path d="M31.7418354,8.69221042 C31.6751479,8.69221042 31.6023979,8.7215125 31.5205542,8.78516875 C31.5185333,8.78718958 31.4397208,8.84680417 31.2922,8.97411667 C31.1426583,9.09435625 30.9304708,9.27623125 30.6364396,9.53792917 C30.2443979,9.88652292 29.4451583,10.6261479 28.515575,11.6486896 C27.0413771,13.2916271 25.0872312,15.8772833 24.1576479,18.8731688 C23.6221271,20.6222 23.3543667,22.1358042 23.3644708,23.3725542 C23.3543667,24.2980958 23.5028979,25.0821792 23.8009708,25.7015646 C24.0848979,26.3078146 24.5193771,26.7382521 25.1266375,27.0181375 C25.3832833,27.1302938 25.7086375,27.1899083 26.0925958,27.1899083 L26.1117937,27.1899083 C27.8992208,27.1899083 30.8829812,25.6955021 31.9136062,22.3793146 C32.4663042,20.5898667 32.7472,18.4791063 32.7472,16.1056375 C32.7472,13.1582521 32.3197937,10.5887625 32.1358979,9.62179375 C32.0641583,9.26511667 32.0217208,9.07111667 32.0217208,9.07111667 C31.9782729,8.90136667 31.8933979,8.69221042 31.7418354,8.69221042" id="Fill-54"></path>
                    <path d="M16.004899,8.69221042 C15.8482844,8.69221042 15.7533052,8.89934583 15.701774,9.07616875 C15.694701,9.1095125 15.6563052,9.29947083 15.5906281,9.62381458 C15.5411177,9.87035625 15.4420969,10.3957729 15.3360031,11.1434813 C15.1672635,12.3074813 14.9682115,14.1130958 14.9682115,16.1056375 C14.9682115,18.5185125 15.2521385,20.6242208 15.8119094,22.3661792 C16.8627427,25.6924708 19.921274,27.1899083 21.7582115,27.1899083 L21.7753885,27.1899083 C22.1633885,27.1899083 22.5018781,27.1262521 22.7858052,27.0060125 C22.9363573,26.9443771 23.0808469,26.8655646 23.243524,26.75745 C23.1081281,26.5715333 22.988899,26.3704604 22.8787635,26.1400854 C22.5220865,25.3974292 22.3422323,24.4941167 22.3311177,23.374575 C22.3422323,21.9943458 22.630201,20.3807104 23.1889615,18.5750958 C23.2384719,18.4093875 23.2950552,18.2416583 23.352649,18.0769604 C23.3738677,18.0143146 23.3981177,17.9476271 23.4193365,17.8829604 C21.4692323,13.0359917 16.9860135,9.38131458 16.4797948,8.97815833 C16.3191385,8.84781458 16.2372948,8.78718958 16.2362844,8.78718958 C16.1473677,8.72454375 16.0675448,8.69221042 16.004899,8.69221042" id="Fill-55"></path>
                    <path d="M23.8577562,0.756903125 C23.7496417,0.756903125 23.636475,0.841778125 23.5263396,1.01152813 C23.5222979,1.01556979 23.4313604,1.14591354 23.2838396,1.39447604 C23.0585167,1.76833021 22.8453187,2.13309063 22.6280792,2.50896563 C22.1451,3.36680938 21.4105271,4.75108021 20.6567562,6.47384063 C20.1374021,7.64794479 19.6665479,8.87155938 19.2532875,10.1103302 C20.7052562,11.5612885 22.6533396,13.8256323 23.9486937,16.5729552 C24.9490062,14.4197573 26.4706937,12.2756531 28.4723292,10.1941948 C27.1062458,6.04542396 25.1874646,2.66355938 24.4225792,1.39548646 C24.2599021,1.14086146 24.1770479,1.00748646 24.1770479,1.00748646 C24.0224542,0.775090625 23.8941312,0.756903125 23.8577562,0.756903125" id="Fill-56"></path>
                    <path d="M38.2286094,4.71369479 C38.1710156,4.71470521 38.0770469,4.72581979 37.9578177,4.77533021 L37.9547865,4.77634063 L37.9527656,4.77735104 C37.9497344,4.77735104 37.8092865,4.82787188 37.5526406,4.94609063 C37.3020573,5.04915313 36.971651,5.20475729 36.5523281,5.40077813 L36.4048073,5.46948646 C35.1145052,6.09392396 33.8575469,6.79212188 32.6682865,7.54185104 C32.5328906,7.61965313 32.3974948,7.70553854 32.2641198,7.79243438 C32.6319115,7.97734063 32.9138177,8.36433021 33.018901,8.84730938 C33.0209219,8.86044479 33.0249635,8.87358021 33.0290052,8.89580938 C33.2017865,9.71626771 33.770651,12.6666844 33.770651,16.1051323 C33.770651,18.5836844 33.474599,20.7934656 32.8936094,22.6778927 C32.2691719,24.6583094 31.1082031,25.9213302 30.1311302,26.6781323 C32.6581823,26.5619344 34.9215156,24.972549 36.5290885,22.1747052 C38.6489427,18.4644552 39.093526,13.6265802 39.093526,10.2204656 C39.093526,9.01604896 39.0379531,7.80658021 38.930849,6.62540313 C38.8500156,5.75644479 38.7792865,5.24214271 38.778276,5.23709063 C38.7136094,4.89759063 38.5337552,4.72379896 38.2286094,4.71369479" id="Fill-57"></path>
                    <path d="M31.2188438,1.83441146 C31.1855,1.83441146 31.1521563,1.83643229 31.1178021,1.84249479 L31.1137604,1.84249479 L31.1107292,1.84249479 C31.0319167,1.85057813 30.9520938,1.88392188 30.8692396,1.94050521 L30.8662083,1.94252604 L30.8611563,1.94454688 C30.8571146,1.94858854 30.3034063,2.28808854 29.4465729,2.90444271 C28.9706667,3.24293229 28.2168958,3.80573438 27.2953958,4.56960938 C27.9642917,5.96095313 28.5644792,7.38159896 29.0818125,8.79719271 C30.1831667,7.92823438 31.3906146,7.10272396 32.7607396,6.27418229 C32.37375,4.30892188 31.9291667,2.84482813 31.7533542,2.30223438 C31.7472917,2.28202604 31.7442604,2.26990104 31.7402188,2.25979688 C31.6331146,1.97789063 31.4573021,1.83441146 31.2188438,1.83441146" id="Fill-58"></path>
                    <path d="M16.4873729,1.83441146 C16.2489146,1.83441146 16.0720917,1.97789063 15.9649875,2.25979688 C15.9619563,2.26990104 15.9579146,2.28202604 15.9518521,2.30223438 C15.77705,2.84482813 15.3324667,4.30892188 14.9434563,6.27418229 C16.3156021,7.10272396 17.5220396,7.92823438 18.6233938,8.79719271 C19.1144563,7.42302604 19.7146438,6.00238021 20.4098104,4.56859896 C19.6823104,3.96335938 18.9578417,3.40459896 18.2596438,2.90444271 C17.4028104,2.28808854 16.8480917,1.94858854 16.8430396,1.94454688 L16.8389979,1.94252604 L16.8349563,1.94050521 C16.7541229,1.88392188 16.6732896,1.85057813 16.5954875,1.84249479 L16.5924563,1.84249479 L16.589425,1.84249479 C16.55305,1.83643229 16.5197063,1.83441146 16.4873729,1.83441146" id="Fill-59"></path>
                    <path d="M4.11815521,11.0366802 C3.37650938,11.0366802 2.94506146,11.0599198 2.94101979,11.0599198 C2.64799896,11.0770969 2.37821771,11.2367427 2.20038438,11.499451 C2.09631146,11.6560656 2.04174896,11.851076 2.04983229,12.045076 C2.10237396,12.5563469 2.44389479,14.4084406 4.65468646,17.1971906 C5.78736354,16.635399 6.91296771,16.1402948 8.00320729,15.7270344 C7.77586354,14.3356906 7.64046771,12.8190552 7.60207188,11.2124927 C6.24912396,11.0841698 5.18313438,11.0488052 4.52030104,11.0397115 C4.37783229,11.0376906 4.24344688,11.0366802 4.11815521,11.0366802" id="Fill-60"></path>
                    <path d="M43.5851313,11.0366802 C43.4588292,11.0366802 43.3264646,11.0376906 43.1850063,11.0397115 C42.5211625,11.0488052 41.4561833,11.0841698 40.1032354,11.2124927 C40.06585,12.7594406 39.9314646,14.2770865 39.7031104,15.7270344 C40.7923396,16.1402948 41.9179438,16.6343885 43.0526417,17.1971906 C45.2684854,14.4013677 45.6059646,12.5462427 45.6574958,12.0410344 C45.6726521,11.8692635 45.5786833,11.6045344 45.5069438,11.5014719 C45.3281,11.2367427 45.0573083,11.0770969 44.7652979,11.0599198 C44.7612563,11.0599198 44.321725,11.0366802 43.5851313,11.0366802" id="Fill-61"></path>
                    <path d="M39.5183052,16.7587708 C39.0656385,19.0392813 38.356326,21.0328333 37.4115865,22.6838542 C36.4264302,24.4167188 35.1957427,25.72925 33.743774,26.5951771 C44.268274,26.0253021 47.2378885,22.6383854 47.5460656,22.2463438 L47.5480865,22.2453333 C47.6521594,22.0856875 47.7057115,21.9118958 47.7057115,21.7219375 C47.7057115,21.4198229 47.5632427,21.1268021 47.3328677,20.9550313 C47.3328677,20.9550313 47.2106073,20.8741979 46.989326,20.7226354 L46.9852844,20.7206146 L46.9832635,20.7196042 C46.8155344,20.5933021 46.5750552,20.4346667 46.2709198,20.2346042 C46.1900865,20.1820625 46.1052115,20.1254792 46.0162948,20.0688958 C45.262524,19.5838958 44.0530552,18.8493229 42.5667323,18.1086875 C41.540149,17.5903438 40.5155865,17.1376771 39.5183052,16.7587708" id="Fill-62"></path>
                    <path d="M8.18750729,16.7587708 C4.63791354,18.1036354 1.78247604,19.9729063 0.708403125,20.7226354 C0.495205208,20.8752083 0.371934375,20.9570521 0.366882292,20.9600833 C0.142569792,21.1268021 0.000101041667,21.4198229 0.000101041667,21.7219375 C0.000101041667,21.9108854 0.0526427083,22.0846771 0.155705208,22.2423021 C0.163788542,22.2534167 0.169851042,22.2615 0.173892708,22.2695833 C0.197132292,22.2938333 0.217340625,22.3190938 0.243611458,22.3494063 C0.255736458,22.3665833 0.269882292,22.3817396 0.285038542,22.4009375 C0.356778125,22.4807604 0.525517708,22.6545521 0.789236458,22.8738125 C1.23280937,23.2547396 2.02800729,23.8246146 3.31022604,24.4025729 C5.95852812,25.6029479 9.63240312,26.3617708 13.9620385,26.6052813 C12.5272469,25.741375 11.2672573,24.3985313 10.2932156,22.6838542 C9.34847604,21.0328333 8.64118437,19.0392813 8.18750729,16.7587708" id="Fill-63"></path>
                    <path d="M38.1990042,27.3651146 C37.6604521,27.3651146 36.8622229,27.47525 35.654775,27.6419687 C35.4779521,27.6652083 35.2890042,27.6904687 35.0929833,27.7187604 C34.5645354,27.7945417 33.9209,27.826875 33.0670979,27.826875 C32.5447125,27.826875 32.0021187,27.8157604 31.4282021,27.802625 L31.3776812,27.8016146 C30.8320562,27.7894896 30.2136812,27.7733229 29.592275,27.7733229 C28.3039937,27.7733229 26.6368062,27.826875 25.16665,28.2371042 C25.0928896,28.2593333 25.0403479,28.3391562 25.0474208,28.3906875 C25.0555042,28.4381771 25.1454312,28.4553542 25.2212125,28.4553542 C25.2434417,28.4553542 25.2656708,28.4513125 25.2909312,28.4513125 C25.8729312,28.3987708 26.4367437,28.3735104 26.9682229,28.3735104 C28.8859937,28.3735104 30.1944833,28.7029062 31.4605354,29.0232083 C32.6518167,29.3253229 33.7764104,29.60925 35.339525,29.60925 C37.0067125,29.60925 38.3273271,29.2525729 38.8709312,28.6584479 C39.0538167,28.4583854 39.1366708,28.2401354 39.1144417,28.0107708 C39.0709937,27.5641667 38.928525,27.3651146 38.1990042,27.3651146" id="Fill-64"></path>
                    <path d="M9.50226146,27.3651146 C8.77577188,27.3651146 8.63431354,27.5641667 8.59086563,28.0127917 C8.56762604,28.2401354 8.64744896,28.4583854 8.82730313,28.6533958 C9.35979271,29.2424687 10.7157719,29.60925 12.3647719,29.60925 C13.9288969,29.60925 15.0534906,29.3253229 16.2447719,29.0232083 C17.510824,28.7029062 18.820324,28.3735104 20.7380948,28.3735104 C21.2685635,28.3735104 21.8333865,28.3987708 22.414376,28.4513125 C22.4396365,28.4513125 22.462876,28.4553542 22.4840948,28.4553542 C22.559876,28.4553542 22.651824,28.4381771 22.6578865,28.3906875 C22.6659698,28.3391562 22.6124177,28.2593333 22.535626,28.2371042 C21.0695115,27.826875 19.402324,27.7733229 18.1140427,27.7733229 L18.1120219,27.7733229 C17.4936469,27.7733229 16.873251,27.7894896 16.327626,27.8016146 L16.2760948,27.802625 C15.7021781,27.8157604 15.1616052,27.826875 14.6382094,27.826875 C13.7854177,27.826875 13.1407719,27.7945417 12.612324,27.7187604 C12.411251,27.6904687 12.2192719,27.6652083 12.0363865,27.6379271 C10.8339906,27.4742396 10.0398031,27.3651146 9.50226146,27.3651146" id="Fill-65"></path>
                </g>
            </g>
        </g>
    </g>
</svg>