<?xml version="1.0" encoding="utf-8"?>
<!-- Generator: Adobe Illustrator 14.0.0, SVG Export Plug-In . SVG Version: 6.00 Build 43363)  -->
<!DOCTYPE svg PUBLIC "-//W3C//DTD SVG 1.1//EN" "http://www.w3.org/Graphics/SVG/1.1/DTD/svg11.dtd">
<svg version="1.1" id="Layer_1" xmlns="http://www.w3.org/2000/svg" xmlns:xlink="http://www.w3.org/1999/xlink" x="0px" y="0px"
	 width="133px" height="50px" viewBox="0 0 133 50" enable-background="new 0 0 133 50" xml:space="preserve">
<g>
	<path fill="#FFFFFF" d="M4.176,34.925c-0.734,0-1.437-0.125-2.107-0.374c-0.671-0.249-1.292-0.632-1.862-1.148l1.005-1.196
		c0.463,0.398,0.929,0.704,1.4,0.917c0.471,0.215,1.006,0.319,1.604,0.319c0.517,0,0.927-0.108,1.231-0.325
		c0.304-0.218,0.455-0.508,0.455-0.871v-0.027c0-0.172-0.03-0.323-0.088-0.455c-0.06-0.131-0.168-0.255-0.327-0.374
		c-0.159-0.117-0.377-0.225-0.655-0.325c-0.276-0.1-0.637-0.199-1.083-0.299c-0.509-0.118-0.961-0.253-1.356-0.402
		c-0.396-0.148-0.727-0.33-0.995-0.543c-0.268-0.214-0.473-0.474-0.613-0.782c-0.142-0.308-0.211-0.68-0.211-1.115v-0.026
		c0-0.408,0.081-0.782,0.243-1.123c0.161-0.338,0.383-0.629,0.667-0.868c0.282-0.241,0.623-0.429,1.021-0.564
		c0.397-0.137,0.832-0.205,1.303-0.205c0.699,0,1.326,0.102,1.883,0.307c0.558,0.203,1.082,0.501,1.571,0.889l-0.897,1.265
		c-0.435-0.317-0.866-0.558-1.292-0.728c-0.426-0.168-0.857-0.25-1.292-0.25c-0.489,0-0.87,0.108-1.142,0.326
		c-0.271,0.218-0.408,0.483-0.408,0.802v0.027c0,0.182,0.032,0.342,0.096,0.481c0.063,0.143,0.179,0.268,0.348,0.382
		c0.168,0.112,0.399,0.22,0.694,0.318c0.296,0.101,0.67,0.204,1.125,0.313c0.5,0.127,0.943,0.267,1.33,0.421
		c0.386,0.155,0.706,0.343,0.96,0.565c0.254,0.222,0.448,0.479,0.58,0.773c0.131,0.294,0.198,0.637,0.198,1.026v0.027
		c0,0.445-0.084,0.844-0.25,1.196c-0.166,0.353-0.398,0.652-0.694,0.898c-0.296,0.244-0.652,0.43-1.069,0.556
		C5.132,34.86,4.674,34.925,4.176,34.925z"/>
	<path fill="#FFFFFF" d="M10.851,34.925c-0.299,0-0.577-0.038-0.833-0.109c-0.255-0.072-0.478-0.19-0.666-0.354
		c-0.187-0.162-0.331-0.377-0.432-0.645c-0.1-0.267-0.15-0.601-0.15-0.999v-3.779H7.86v-1.414h0.911v-1.971h1.658v1.971h1.931v1.414
		h-1.931v3.521c0,0.317,0.078,0.547,0.232,0.688c0.153,0.14,0.371,0.21,0.652,0.21c0.354,0,0.693-0.081,1.02-0.246v1.347
		c-0.209,0.118-0.431,0.209-0.667,0.272C11.431,34.894,11.158,34.925,10.851,34.925z"/>
	<path fill="#FFFFFF" d="M17.946,34.774v-0.883c-0.244,0.29-0.556,0.534-0.938,0.733c-0.38,0.199-0.843,0.3-1.387,0.3
		c-0.344,0-0.67-0.05-0.978-0.145c-0.309-0.093-0.578-0.234-0.809-0.421c-0.232-0.185-0.418-0.416-0.558-0.691
		c-0.141-0.278-0.211-0.598-0.211-0.96v-0.027c0-0.398,0.072-0.744,0.217-1.04c0.145-0.294,0.347-0.539,0.605-0.733
		c0.259-0.194,0.567-0.34,0.925-0.436c0.358-0.095,0.745-0.143,1.163-0.143c0.436,0,0.804,0.028,1.108,0.082
		c0.304,0.054,0.596,0.126,0.877,0.217v-0.135c0-0.499-0.152-0.88-0.457-1.142c-0.303-0.265-0.74-0.396-1.31-0.396
		c-0.408,0-0.771,0.042-1.088,0.122c-0.317,0.082-0.639,0.191-0.966,0.326l-0.448-1.318c0.399-0.18,0.808-0.325,1.224-0.435
		c0.416-0.108,0.919-0.164,1.508-0.164c1.071,0,1.863,0.267,2.38,0.796c0.516,0.53,0.774,1.276,0.774,2.237v4.254H17.946z
		 M17.987,31.771c-0.208-0.081-0.455-0.149-0.741-0.204c-0.286-0.054-0.587-0.082-0.904-0.082c-0.516,0-0.919,0.101-1.209,0.301
		c-0.29,0.197-0.436,0.471-0.436,0.814v0.027c0,0.345,0.134,0.607,0.402,0.787c0.267,0.184,0.596,0.273,0.985,0.273
		c0.271,0,0.523-0.037,0.754-0.109s0.433-0.174,0.604-0.306c0.172-0.132,0.306-0.291,0.401-0.477
		c0.095-0.186,0.143-0.391,0.143-0.618V31.771z"/>
	<path fill="#FFFFFF" d="M23.274,34.925c-0.299,0-0.576-0.038-0.832-0.109c-0.256-0.072-0.478-0.19-0.666-0.354
		c-0.187-0.162-0.331-0.377-0.431-0.645c-0.1-0.267-0.15-0.601-0.15-0.999v-3.779h-0.911v-1.414h0.911v-1.971h1.658v1.971h1.931
		v1.414h-1.931v3.521c0,0.317,0.078,0.547,0.232,0.688c0.153,0.14,0.371,0.21,0.652,0.21c0.354,0,0.693-0.081,1.02-0.246v1.347
		c-0.208,0.118-0.431,0.209-0.667,0.272C23.855,34.894,23.583,34.925,23.274,34.925z"/>
	<path fill="#FFFFFF" d="M29.026,34.925c-0.517,0-0.999-0.091-1.448-0.272c-0.448-0.182-0.837-0.435-1.169-0.761
		c-0.33-0.326-0.592-0.718-0.781-1.176c-0.19-0.459-0.286-0.965-0.286-1.517v-0.026c0-0.516,0.086-1.002,0.258-1.453
		c0.173-0.455,0.415-0.852,0.727-1.191c0.313-0.34,0.682-0.607,1.109-0.803c0.425-0.194,0.897-0.292,1.414-0.292
		c0.571,0,1.072,0.105,1.501,0.313c0.431,0.209,0.789,0.489,1.074,0.843c0.286,0.353,0.5,0.764,0.646,1.23
		c0.145,0.467,0.217,0.957,0.217,1.475c0,0.072-0.002,0.147-0.006,0.225c-0.005,0.077-0.012,0.156-0.021,0.237h-5.274
		c0.09,0.589,0.324,1.041,0.701,1.353c0.376,0.313,0.832,0.469,1.365,0.469c0.408,0,0.762-0.072,1.061-0.217
		c0.298-0.146,0.594-0.358,0.884-0.639l0.965,0.855c-0.344,0.409-0.754,0.735-1.23,0.979C30.257,34.802,29.688,34.925,29.026,34.925
		z M30.657,30.67c-0.027-0.264-0.086-0.51-0.176-0.741c-0.09-0.231-0.213-0.43-0.368-0.599c-0.154-0.168-0.337-0.301-0.551-0.4
		c-0.212-0.1-0.455-0.148-0.727-0.148c-0.507,0-0.926,0.173-1.258,0.521c-0.33,0.351-0.533,0.805-0.605,1.367H30.657z"/>
	<path fill="#FFFFFF" d="M37.127,25.409h1.659v9.516h-1.659V25.409z"/>
	<path fill="#FFFFFF" d="M40.484,27.747h1.659v1.125c0.116-0.172,0.245-0.336,0.385-0.485c0.14-0.152,0.303-0.286,0.488-0.404
		c0.185-0.119,0.389-0.213,0.61-0.282s0.472-0.104,0.752-0.104c0.813,0,1.441,0.249,1.884,0.749
		c0.443,0.498,0.665,1.168,0.665,2.012v4.567h-1.659v-4.069c0-0.561-0.133-0.992-0.397-1.295c-0.265-0.304-0.64-0.454-1.125-0.454
		c-0.476,0-0.862,0.155-1.159,0.469c-0.295,0.311-0.443,0.746-0.443,1.309v4.041h-1.659V27.747z"/>
	<path fill="#FFFFFF" d="M50.741,34.925c-0.516,0-1.04-0.092-1.57-0.275c-0.53-0.183-1.021-0.452-1.475-0.811l0.734-1.116
		c0.39,0.289,0.786,0.509,1.189,0.659c0.403,0.149,0.791,0.224,1.163,0.224c0.354,0,0.627-0.07,0.822-0.21
		c0.195-0.14,0.293-0.327,0.293-0.562v-0.028c0-0.136-0.043-0.253-0.129-0.353c-0.085-0.099-0.204-0.186-0.354-0.259
		c-0.149-0.071-0.322-0.14-0.516-0.201c-0.194-0.064-0.397-0.128-0.605-0.19c-0.263-0.072-0.527-0.159-0.795-0.259
		c-0.267-0.1-0.508-0.228-0.72-0.386c-0.213-0.159-0.388-0.355-0.523-0.59c-0.137-0.236-0.205-0.524-0.205-0.869v-0.027
		c0-0.334,0.065-0.637,0.198-0.908c0.131-0.271,0.313-0.501,0.543-0.692c0.23-0.189,0.503-0.335,0.815-0.435
		c0.313-0.098,0.645-0.148,1-0.148c0.453,0,0.911,0.073,1.373,0.22c0.462,0.147,0.883,0.349,1.265,0.604l-0.653,1.175
		c-0.344-0.208-0.693-0.373-1.046-0.495c-0.354-0.124-0.68-0.186-0.979-0.186c-0.318,0-0.565,0.067-0.741,0.204
		s-0.265,0.308-0.265,0.516v0.027c0,0.126,0.045,0.237,0.137,0.331c0.089,0.096,0.209,0.183,0.359,0.259
		c0.15,0.077,0.322,0.149,0.517,0.218c0.195,0.067,0.396,0.132,0.605,0.196c0.263,0.081,0.525,0.177,0.788,0.284
		c0.263,0.108,0.501,0.243,0.714,0.4c0.212,0.157,0.387,0.351,0.523,0.577c0.136,0.225,0.203,0.501,0.203,0.827v0.027
		c0,0.379-0.067,0.71-0.203,0.989c-0.136,0.28-0.324,0.515-0.565,0.698c-0.239,0.187-0.523,0.326-0.85,0.421
		C51.462,34.877,51.113,34.925,50.741,34.925z"/>
	<path fill="#FFFFFF" d="M57.002,34.925c-0.814,0-1.442-0.25-1.885-0.747c-0.443-0.499-0.665-1.171-0.665-2.014v-4.567h1.659v4.069
		c0,0.561,0.132,0.992,0.398,1.296c0.265,0.302,0.641,0.452,1.125,0.452c0.477,0,0.863-0.154,1.159-0.467
		c0.296-0.312,0.445-0.748,0.445-1.309v-4.042h1.659v7.178h-1.659v-1.126c-0.234,0.347-0.529,0.647-0.881,0.898
		C58.005,34.798,57.553,34.925,57.002,34.925z"/>
	<path fill="#FFFFFF" d="M62.425,27.747h1.659v1.617c0.227-0.544,0.547-0.979,0.965-1.304c0.416-0.328,0.941-0.477,1.574-0.45v1.741
		h-0.093c-0.362,0-0.694,0.059-0.993,0.176c-0.298,0.118-0.557,0.295-0.775,0.53c-0.217,0.235-0.385,0.533-0.503,0.891
		c-0.118,0.358-0.176,0.772-0.176,1.243v2.733h-1.659V27.747z"/>
	<path fill="#FFFFFF" d="M71.744,34.774v-0.883c-0.245,0.29-0.559,0.534-0.938,0.733c-0.381,0.199-0.845,0.3-1.389,0.3
		c-0.345,0-0.668-0.05-0.978-0.145c-0.308-0.093-0.578-0.234-0.808-0.421c-0.231-0.185-0.418-0.416-0.558-0.691
		c-0.143-0.278-0.212-0.598-0.212-0.96v-0.027c0-0.398,0.074-0.744,0.218-1.04c0.146-0.294,0.348-0.539,0.604-0.733
		c0.26-0.194,0.565-0.34,0.926-0.436c0.357-0.095,0.742-0.143,1.164-0.143c0.432,0,0.8,0.028,1.104,0.082
		c0.306,0.054,0.598,0.126,0.88,0.217v-0.135c0-0.499-0.152-0.88-0.458-1.142c-0.304-0.265-0.741-0.396-1.311-0.396
		c-0.408,0-0.771,0.042-1.087,0.122c-0.319,0.082-0.641,0.191-0.966,0.326l-0.448-1.318c0.4-0.18,0.807-0.325,1.223-0.435
		c0.416-0.108,0.921-0.164,1.509-0.164c1.068,0,1.863,0.267,2.378,0.796c0.517,0.53,0.776,1.276,0.776,2.237v4.254H71.744z
		 M71.785,31.771c-0.209-0.081-0.457-0.149-0.741-0.204c-0.284-0.054-0.588-0.082-0.905-0.082c-0.515,0-0.921,0.101-1.211,0.301
		c-0.289,0.197-0.436,0.471-0.436,0.814v0.027c0,0.345,0.135,0.607,0.404,0.787c0.267,0.184,0.596,0.273,0.984,0.273
		c0.271,0,0.522-0.037,0.753-0.109c0.232-0.072,0.434-0.174,0.605-0.306c0.173-0.132,0.306-0.291,0.402-0.477
		c0.095-0.186,0.144-0.391,0.144-0.618V31.771z"/>
	<path fill="#FFFFFF" d="M74.682,27.747h1.658v1.125c0.116-0.172,0.242-0.336,0.387-0.485c0.14-0.152,0.302-0.286,0.486-0.404
		c0.186-0.119,0.389-0.213,0.611-0.282c0.219-0.069,0.472-0.104,0.752-0.104c0.813,0,1.443,0.249,1.885,0.749
		c0.443,0.498,0.664,1.168,0.664,2.012v4.567h-1.658v-4.069c0-0.561-0.134-0.992-0.398-1.295c-0.266-0.304-0.639-0.454-1.126-0.454
		c-0.477,0-0.861,0.155-1.157,0.469c-0.3,0.311-0.445,0.746-0.445,1.309v4.041h-1.658V27.747z"/>
	<path fill="#FFFFFF" d="M85.877,34.925c-0.534,0-1.027-0.098-1.48-0.292c-0.454-0.195-0.846-0.461-1.18-0.796
		c-0.335-0.335-0.595-0.729-0.782-1.183c-0.189-0.453-0.282-0.934-0.282-1.441v-0.027c0-0.508,0.093-0.989,0.282-1.447
		c0.188-0.457,0.447-0.856,0.782-1.196c0.334-0.34,0.729-0.61,1.186-0.81c0.457-0.198,0.954-0.299,1.49-0.299
		c0.677,0,1.242,0.115,1.69,0.341c0.449,0.227,0.844,0.525,1.177,0.896l-1.02,1.102c-0.254-0.261-0.524-0.479-0.811-0.645
		c-0.284-0.168-0.637-0.253-1.053-0.253c-0.298,0-0.575,0.063-0.828,0.186c-0.254,0.121-0.474,0.285-0.652,0.488
		c-0.182,0.204-0.323,0.447-0.428,0.728s-0.158,0.576-0.158,0.884v0.026c0,0.318,0.054,0.617,0.158,0.897
		c0.104,0.281,0.252,0.526,0.439,0.734c0.191,0.208,0.418,0.374,0.682,0.496c0.263,0.122,0.553,0.183,0.872,0.183
		c0.389,0,0.731-0.083,1.023-0.25c0.294-0.168,0.575-0.384,0.838-0.646l0.991,0.979c-0.354,0.399-0.757,0.724-1.21,0.973
		C87.15,34.8,86.575,34.925,85.877,34.925z"/>
	<path fill="#FFFFFF" d="M93.054,34.925c-0.519,0-0.999-0.091-1.447-0.272c-0.449-0.182-0.84-0.435-1.171-0.761
		s-0.59-0.718-0.782-1.176c-0.189-0.459-0.284-0.965-0.284-1.517v-0.026c0-0.516,0.087-1.002,0.256-1.453
		c0.174-0.455,0.416-0.852,0.729-1.191s0.683-0.607,1.108-0.803c0.426-0.194,0.896-0.292,1.414-0.292c0.571,0,1.07,0.105,1.5,0.313
		c0.432,0.209,0.791,0.489,1.077,0.843c0.283,0.353,0.496,0.764,0.643,1.23c0.147,0.467,0.219,0.957,0.219,1.475
		c0,0.072-0.002,0.147-0.006,0.225c-0.006,0.077-0.012,0.156-0.021,0.237h-5.272c0.091,0.589,0.321,1.041,0.699,1.353
		c0.375,0.313,0.83,0.469,1.365,0.469c0.41,0,0.761-0.072,1.061-0.217c0.298-0.146,0.594-0.358,0.883-0.639l0.967,0.855
		c-0.346,0.409-0.758,0.735-1.23,0.979C94.282,34.802,93.715,34.925,93.054,34.925z M94.683,30.67
		c-0.025-0.264-0.085-0.51-0.176-0.741c-0.09-0.231-0.213-0.43-0.366-0.599c-0.154-0.168-0.339-0.301-0.552-0.4
		c-0.214-0.1-0.454-0.148-0.727-0.148c-0.508,0-0.926,0.173-1.256,0.521c-0.331,0.351-0.534,0.805-0.604,1.367H94.683z"/>
	<path fill="#FFFFFF" d="M0.769,38.275H5.01c0.598,0,1.128,0.084,1.589,0.252c0.463,0.167,0.849,0.399,1.156,0.698
		c0.254,0.263,0.448,0.567,0.585,0.911c0.136,0.347,0.203,0.727,0.203,1.143v0.026c0,0.39-0.056,0.741-0.169,1.055
		c-0.113,0.313-0.271,0.59-0.469,0.829c-0.2,0.241-0.438,0.444-0.714,0.613c-0.277,0.167-0.583,0.296-0.917,0.385l2.568,3.604h-1.97
		l-2.346-3.316H4.5H2.428v3.316H0.769V38.275z M4.882,42.994c0.6,0,1.077-0.146,1.432-0.431c0.355-0.287,0.532-0.677,0.532-1.169
		v-0.026c0-0.519-0.173-0.912-0.519-1.18c-0.345-0.269-0.832-0.405-1.459-0.405h-2.44v3.211H4.882z"/>
	<path fill="#FFFFFF" d="M13.059,47.791c-0.516,0-0.999-0.09-1.448-0.273c-0.448-0.179-0.837-0.434-1.168-0.76
		c-0.331-0.326-0.593-0.717-0.782-1.176c-0.19-0.458-0.286-0.964-0.286-1.515v-0.028c0-0.515,0.087-1.002,0.26-1.453
		c0.171-0.453,0.415-0.851,0.727-1.191c0.313-0.339,0.681-0.606,1.107-0.802c0.427-0.195,0.898-0.293,1.415-0.293
		c0.57,0,1.071,0.107,1.501,0.313c0.431,0.209,0.789,0.489,1.074,0.844c0.286,0.353,0.5,0.764,0.646,1.229
		c0.146,0.467,0.217,0.959,0.217,1.476c0,0.072-0.001,0.146-0.006,0.225c-0.005,0.077-0.011,0.157-0.02,0.237h-5.274
		c0.09,0.588,0.324,1.04,0.7,1.353c0.376,0.313,0.831,0.469,1.366,0.469c0.408,0,0.761-0.072,1.06-0.217
		c0.299-0.146,0.594-0.357,0.884-0.639l0.965,0.855c-0.345,0.407-0.755,0.734-1.23,0.98C14.29,47.669,13.721,47.791,13.059,47.791z
		 M14.691,43.536c-0.027-0.263-0.086-0.51-0.177-0.74c-0.09-0.231-0.212-0.43-0.367-0.599c-0.154-0.169-0.337-0.301-0.55-0.401
		c-0.213-0.1-0.456-0.148-0.728-0.148c-0.507,0-0.927,0.175-1.258,0.522c-0.33,0.349-0.532,0.805-0.604,1.366H14.691z"/>
	<path fill="#FFFFFF" d="M20.592,49.858c-1.196,0-2.265-0.283-3.208-0.848l0.611-1.231c0.381,0.234,0.78,0.42,1.197,0.557
		c0.417,0.137,0.87,0.204,1.359,0.204c0.734,0,1.296-0.188,1.686-0.561c0.39-0.375,0.585-0.925,0.585-1.654v-0.558
		c-0.298,0.388-0.647,0.705-1.047,0.949c-0.399,0.244-0.893,0.367-1.482,0.367c-0.426,0-0.834-0.076-1.223-0.229
		c-0.39-0.154-0.737-0.374-1.04-0.659c-0.304-0.287-0.546-0.639-0.727-1.055c-0.182-0.417-0.272-0.887-0.272-1.413v-0.028
		c0-0.527,0.09-0.997,0.272-1.419c0.181-0.422,0.423-0.776,0.727-1.062c0.303-0.285,0.653-0.504,1.046-0.659
		c0.395-0.152,0.8-0.231,1.217-0.231c0.607,0,1.108,0.119,1.503,0.361c0.394,0.24,0.731,0.529,1.013,0.861v-1.073h1.644v5.71
		c0,1.195-0.304,2.1-0.91,2.704c-0.327,0.327-0.736,0.568-1.23,0.729C21.818,49.778,21.245,49.858,20.592,49.858z M20.729,45.699
		c0.28,0,0.55-0.049,0.809-0.146c0.259-0.093,0.482-0.23,0.673-0.406c0.191-0.177,0.342-0.385,0.456-0.626
		c0.113-0.238,0.17-0.504,0.17-0.794v-0.028c0-0.299-0.058-0.568-0.17-0.81c-0.114-0.238-0.265-0.447-0.456-0.625
		c-0.19-0.177-0.414-0.313-0.673-0.406c-0.259-0.095-0.528-0.145-0.809-0.145c-0.291,0-0.558,0.05-0.802,0.145
		c-0.245,0.093-0.46,0.229-0.646,0.4c-0.186,0.171-0.332,0.378-0.435,0.619c-0.105,0.24-0.156,0.509-0.156,0.809v0.026
		c0,0.299,0.054,0.57,0.162,0.809c0.109,0.241,0.253,0.449,0.435,0.626c0.182,0.176,0.396,0.313,0.646,0.406
		C20.183,45.65,20.448,45.699,20.729,45.699z"/>
	<path fill="#FFFFFF" d="M28.394,47.791c-0.813,0-1.442-0.248-1.884-0.747c-0.443-0.499-0.664-1.17-0.664-2.012v-4.568h1.658v4.07
		c0,0.561,0.132,0.99,0.398,1.295c0.264,0.301,0.64,0.453,1.125,0.453c0.476,0,0.862-0.155,1.159-0.468
		c0.296-0.313,0.444-0.748,0.444-1.31v-4.041h1.658v7.178H30.63v-1.126c-0.234,0.347-0.529,0.646-0.88,0.897
		C29.397,47.665,28.945,47.791,28.394,47.791z"/>
	<path fill="#FFFFFF" d="M33.938,37.867h1.659v9.924h-1.659V37.867z"/>
	<path fill="#FFFFFF" d="M41.307,47.642v-0.884c-0.244,0.29-0.557,0.534-0.938,0.735c-0.382,0.197-0.843,0.298-1.387,0.298
		c-0.345,0-0.67-0.048-0.979-0.141c-0.307-0.098-0.578-0.237-0.808-0.423c-0.231-0.186-0.417-0.416-0.558-0.694
		c-0.14-0.277-0.21-0.597-0.21-0.958v-0.027c0-0.397,0.072-0.746,0.218-1.042c0.145-0.292,0.346-0.537,0.604-0.732
		c0.259-0.194,0.566-0.34,0.926-0.435c0.357-0.095,0.744-0.142,1.162-0.142c0.435,0,0.803,0.026,1.107,0.079
		c0.303,0.057,0.596,0.129,0.877,0.22v-0.138c0-0.498-0.151-0.878-0.456-1.141s-0.74-0.396-1.312-0.396
		c-0.408,0-0.771,0.042-1.088,0.123c-0.316,0.081-0.639,0.189-0.965,0.325l-0.448-1.318c0.399-0.18,0.807-0.324,1.224-0.434
		c0.417-0.109,0.919-0.164,1.509-0.164c1.069,0,1.862,0.267,2.379,0.795c0.516,0.531,0.774,1.276,0.774,2.237v4.255H41.307z
		 M41.348,44.638c-0.209-0.082-0.456-0.15-0.741-0.204c-0.285-0.055-0.587-0.083-0.904-0.083c-0.516,0-0.919,0.102-1.209,0.301
		c-0.29,0.197-0.435,0.472-0.435,0.815v0.027c0,0.344,0.133,0.605,0.401,0.788c0.267,0.181,0.596,0.272,0.985,0.272
		c0.272,0,0.524-0.038,0.754-0.109c0.232-0.072,0.434-0.174,0.605-0.308c0.172-0.129,0.306-0.289,0.401-0.474
		c0.095-0.186,0.143-0.394,0.143-0.619V44.638z"/>
	<path fill="#FFFFFF" d="M46.697,47.791c-0.3,0-0.577-0.036-0.833-0.11c-0.256-0.07-0.479-0.188-0.666-0.352
		c-0.188-0.164-0.332-0.38-0.432-0.646c-0.101-0.268-0.15-0.602-0.15-0.998v-3.781h-0.911v-1.412h0.911v-1.972h1.658v1.972h1.932
		v1.412h-1.932v3.521c0,0.317,0.078,0.546,0.232,0.686c0.153,0.143,0.371,0.212,0.652,0.212c0.354,0,0.694-0.081,1.02-0.244v1.347
		c-0.208,0.117-0.43,0.208-0.667,0.271C47.276,47.76,47.004,47.791,46.697,47.791z"/>
	<path fill="#FFFFFF" d="M52.536,47.791c-0.543,0-1.048-0.099-1.515-0.292c-0.467-0.196-0.871-0.461-1.209-0.793
		c-0.34-0.338-0.606-0.73-0.796-1.184c-0.189-0.455-0.285-0.935-0.285-1.442v-0.027c0-0.517,0.097-1.001,0.293-1.455
		c0.194-0.451,0.461-0.85,0.802-1.188s0.743-0.61,1.21-0.808c0.466-0.2,0.976-0.302,1.529-0.302c0.554,0,1.063,0.098,1.529,0.293
		s0.87,0.463,1.21,0.802c0.339,0.341,0.604,0.734,0.794,1.184c0.19,0.448,0.287,0.932,0.287,1.448v0.026
		c0,0.508-0.099,0.988-0.294,1.441c-0.194,0.452-0.461,0.85-0.801,1.189c-0.341,0.34-0.747,0.608-1.217,0.81
		C53.602,47.691,53.089,47.791,52.536,47.791z M52.563,46.363c0.333,0,0.633-0.059,0.898-0.184c0.265-0.121,0.494-0.285,0.682-0.494
		c0.189-0.208,0.334-0.453,0.433-0.729c0.099-0.276,0.149-0.568,0.149-0.877v-0.027c0-0.317-0.056-0.616-0.163-0.897
		c-0.11-0.278-0.259-0.524-0.452-0.734c-0.194-0.207-0.425-0.372-0.689-0.495c-0.266-0.123-0.561-0.184-0.885-0.184
		c-0.324,0-0.62,0.061-0.885,0.184c-0.265,0.123-0.493,0.286-0.682,0.489c-0.189,0.204-0.333,0.445-0.432,0.727
		c-0.099,0.281-0.148,0.576-0.148,0.885v0.026c0,0.318,0.054,0.614,0.162,0.892c0.108,0.276,0.259,0.521,0.452,0.735
		c0.194,0.211,0.424,0.379,0.689,0.5C51.958,46.305,52.249,46.363,52.563,46.363z"/>
	<path fill="#FFFFFF" d="M57.431,40.613h1.659v1.618c0.227-0.544,0.548-0.979,0.965-1.306c0.417-0.326,0.942-0.476,1.577-0.448v1.74
		h-0.095c-0.362,0-0.694,0.059-0.992,0.177c-0.3,0.118-0.558,0.296-0.775,0.529c-0.217,0.236-0.385,0.533-0.503,0.893
		c-0.118,0.357-0.176,0.771-0.176,1.242v2.732h-1.659V40.613z"/>
	<path fill="#FFFFFF" d="M64.309,49.868c-0.345,0-0.65-0.039-0.917-0.115c-0.268-0.078-0.529-0.184-0.782-0.321l0.558-1.222
		c0.154,0.08,0.31,0.146,0.469,0.196c0.159,0.05,0.323,0.074,0.496,0.074c0.236,0,0.431-0.058,0.585-0.174
		c0.154-0.12,0.298-0.338,0.435-0.654l-2.991-7.178h1.754l2.039,5.329l1.864-5.329h1.71l-2.853,7.381
		c-0.145,0.372-0.293,0.685-0.45,0.938c-0.153,0.254-0.326,0.461-0.516,0.618c-0.191,0.159-0.398,0.273-0.625,0.349
		C64.858,49.83,64.599,49.868,64.309,49.868z"/>
	<path fill="#FFFFFF" d="M77.315,38.208h1.552l4.188,9.583h-1.769l-0.967-2.297h-4.499l-0.979,2.297H73.13L77.315,38.208z
		 M79.71,44.012l-1.645-3.806l-1.633,3.806H79.71z"/>
	<path fill="#FFFFFF" d="M86.214,47.791c-0.814,0-1.441-0.248-1.885-0.747c-0.441-0.499-0.666-1.17-0.666-2.012v-4.568h1.662v4.07
		c0,0.561,0.13,0.99,0.395,1.295c0.266,0.301,0.643,0.453,1.127,0.453c0.476,0,0.862-0.155,1.158-0.468
		c0.297-0.313,0.443-0.748,0.443-1.31v-4.041h1.662v7.178h-1.662v-1.126c-0.23,0.347-0.526,0.646-0.878,0.897
		C87.216,47.665,86.767,47.791,86.214,47.791z"/>
	<path fill="#FFFFFF" d="M94.017,47.791c-0.298,0-0.574-0.036-0.83-0.11c-0.259-0.07-0.479-0.188-0.667-0.352
		s-0.331-0.38-0.434-0.646c-0.099-0.268-0.149-0.602-0.149-0.998v-3.781h-0.909v-1.412h0.909v-1.972h1.658v1.972h1.932v1.412h-1.932
		v3.521c0,0.317,0.078,0.546,0.234,0.686c0.151,0.143,0.368,0.212,0.65,0.212c0.354,0,0.694-0.081,1.02-0.244v1.347
		c-0.209,0.117-0.43,0.208-0.666,0.271C94.598,47.76,94.326,47.791,94.017,47.791z"/>
	<path fill="#FFFFFF" d="M96.594,37.867h1.66v3.873c0.116-0.174,0.244-0.337,0.384-0.487c0.141-0.15,0.304-0.287,0.489-0.403
		c0.186-0.121,0.389-0.213,0.609-0.283c0.223-0.068,0.473-0.103,0.753-0.103c0.813,0,1.441,0.251,1.883,0.749
		c0.444,0.498,0.665,1.167,0.665,2.011v4.567h-1.658v-4.068c0-0.562-0.133-0.991-0.396-1.296c-0.265-0.304-0.641-0.454-1.128-0.454
		c-0.474,0-0.861,0.156-1.159,0.47c-0.294,0.311-0.441,0.746-0.441,1.308v4.041h-1.66V37.867z"/>
	<path fill="#FFFFFF" d="M107.903,47.791c-0.543,0-1.047-0.099-1.515-0.292c-0.467-0.196-0.871-0.461-1.209-0.793
		c-0.343-0.338-0.606-0.73-0.796-1.184c-0.193-0.455-0.286-0.935-0.286-1.442v-0.027c0-0.517,0.097-1.001,0.292-1.455
		c0.195-0.451,0.463-0.85,0.803-1.188c0.339-0.339,0.741-0.61,1.208-0.808c0.468-0.2,0.977-0.302,1.532-0.302
		c0.552,0,1.061,0.098,1.528,0.293c0.465,0.195,0.869,0.463,1.21,0.802c0.338,0.341,0.604,0.734,0.793,1.184
		c0.191,0.448,0.286,0.932,0.286,1.448v0.026c0,0.508-0.097,0.988-0.292,1.441c-0.193,0.452-0.461,0.85-0.801,1.189
		c-0.341,0.34-0.745,0.608-1.218,0.81C108.968,47.691,108.457,47.791,107.903,47.791z M107.933,46.363
		c0.331,0,0.631-0.059,0.896-0.184c0.268-0.121,0.494-0.285,0.684-0.494c0.188-0.208,0.331-0.453,0.432-0.729
		c0.099-0.276,0.15-0.568,0.15-0.877v-0.027c0-0.317-0.056-0.616-0.164-0.897c-0.106-0.278-0.258-0.524-0.451-0.734
		c-0.195-0.207-0.424-0.372-0.69-0.495c-0.264-0.123-0.56-0.184-0.883-0.184c-0.325,0-0.621,0.061-0.888,0.184
		c-0.266,0.123-0.493,0.286-0.68,0.489c-0.189,0.204-0.336,0.445-0.433,0.727c-0.101,0.281-0.149,0.576-0.149,0.885v0.026
		c0,0.318,0.053,0.614,0.162,0.892c0.108,0.276,0.26,0.521,0.451,0.735c0.195,0.211,0.424,0.379,0.69,0.5
		C107.325,46.305,107.617,46.363,107.933,46.363z"/>
	<path fill="#FFFFFF" d="M112.844,40.613h1.658v1.618c0.228-0.544,0.549-0.979,0.967-1.306c0.418-0.326,0.942-0.476,1.577-0.448
		v1.74h-0.095c-0.362,0-0.694,0.059-0.994,0.177c-0.299,0.118-0.556,0.296-0.774,0.529c-0.217,0.236-0.387,0.533-0.503,0.893
		c-0.118,0.357-0.178,0.771-0.178,1.242v2.732h-1.658V40.613z"/>
	<path fill="#FFFFFF" d="M117.722,37.949h1.779v1.563h-1.779V37.949z M117.787,40.613h1.66v7.178h-1.66V40.613z"/>
	<path fill="#FFFFFF" d="M123.377,47.791c-0.302,0-0.577-0.036-0.834-0.11c-0.256-0.07-0.479-0.188-0.666-0.352
		c-0.188-0.164-0.332-0.38-0.431-0.646c-0.101-0.268-0.149-0.602-0.149-0.998v-3.781h-0.913v-1.412h0.913v-1.972h1.658v1.972h1.929
		v1.412h-1.929v3.521c0,0.317,0.075,0.546,0.229,0.686c0.154,0.143,0.373,0.212,0.653,0.212c0.353,0,0.693-0.081,1.021-0.244v1.347
		c-0.211,0.117-0.43,0.208-0.668,0.271C123.955,47.76,123.685,47.791,123.377,47.791z"/>
	<path fill="#FFFFFF" d="M127.571,49.868c-0.344,0-0.649-0.039-0.919-0.115c-0.265-0.078-0.526-0.184-0.779-0.321l0.559-1.222
		c0.153,0.08,0.312,0.146,0.467,0.196c0.158,0.05,0.325,0.074,0.497,0.074c0.234,0,0.43-0.058,0.584-0.174
		c0.155-0.12,0.299-0.338,0.436-0.654l-2.991-7.178h1.755l2.038,5.329l1.861-5.329h1.716l-2.857,7.381
		c-0.146,0.372-0.295,0.685-0.447,0.938c-0.153,0.254-0.325,0.461-0.517,0.618c-0.191,0.159-0.398,0.273-0.627,0.349
		C128.121,49.83,127.862,49.868,127.571,49.868z"/>
</g>
</svg>
