<svg xmlns="http://www.w3.org/2000/svg" width="26" height="26" viewBox="0 0 26 26">
    <g fill="none" fill-rule="evenodd" transform="translate(1 1)">
        <path fill="#3B435B" fill-rule="nonzero" d="M9.088 12.884c-.364 0-.659-.313-.659-.701 0-.387.294-.701.66-.701h9.672c.363 0 .66.314.66.7 0 .389-.295.702-.66.702H9.088m0 4.705c-.364 0-.659-.313-.659-.7 0-.389.294-.701.66-.701h9.672c.363 0 .66.312.66.7 0 .388-.295.7-.66.7H9.088m0-9.411c-.364 0-.659-.314-.659-.7 0-.386.294-.7.66-.7h9.672c.363 0 .66.314.66.7 0 .387-.295.7-.66.7H9.088M5.181 12.884c-.06 0-.11-.313-.11-.701 0-.387.05-.701.11-.701h1.612c.061 0 .11.314.11.7 0 .389-.049.702-.11.702H5.181m0 4.705c-.06 0-.11-.313-.11-.7 0-.389.05-.701.11-.701h1.612c.061 0 .11.312.11.7 0 .388-.049.7-.11.7H5.181m0-9.411c-.06 0-.11-.314-.11-.7 0-.386.05-.7.11-.7h1.612c.061 0 .11.314.11.7 0 .387-.049.7-.11.7H5.181"/>
        <circle cx="12" cy="12" r="12" stroke="#3B435B" stroke-width="1.5"/>
    </g>
</svg>
