<svg xmlns="http://www.w3.org/2000/svg" width="21" height="25" viewBox="0 0 21 25">
    <path fill="#3B435B" fill-rule="nonzero" d="M16.5 1.174a4.093 4.093 0 0 0-1.153-.778A4.249 4.249 0 0 0 13.583 0H3.5C1.568 0 0 1.556 0 3.477v17.617c0 1.922 1.568 3.479 3.5 3.479h13.832c1.935 0 3.501-1.557 3.501-3.479V7.191a4.167 4.167 0 0 0-.407-1.757 4.173 4.173 0 0 0-.788-1.144L16.5 1.174m-.99.983l3.138 3.116c.14.137.35.414.51.754.162.342.276.746.275 1.165v13.902a2.094 2.094 0 0 1-2.099 2.087H3.503a2.095 2.095 0 0 1-2.1-2.087V3.476a2.097 2.097 0 0 1 2.1-2.086h10.08c.427 0 .834.11 1.176.268.34.156.616.364.752.5M5.18 14.883a.707.707 0 0 1-.714-.701c0-.387.318-.701.714-.701h10.478c.394 0 .716.314.716.7 0 .389-.32.702-.716.702H5.18m0 4.705a.706.706 0 0 1-.714-.7c0-.389.318-.701.714-.701h10.478c.394 0 .716.312.716.7 0 .388-.32.7-.716.7H5.18m0-9.411a.707.707 0 0 1-.714-.7c0-.386.318-.7.714-.7h10.478c.394 0 .716.314.716.7 0 .387-.32.7-.716.7H5.18"/>
</svg>
