<svg xmlns="http://www.w3.org/2000/svg" width="14" height="18" viewBox="0 0 14 18">
    <path fill="#FFF" fill-rule="nonzero" d="M11.088.847a2.751 2.751 0 0 0-.775-.561A2.693 2.693 0 0 0 9.128 0H2.352C1.053 0 0 1.123 0 2.51v12.713c0 1.387 1.053 2.51 2.352 2.51h9.295c1.3 0 2.353-1.123 2.353-2.51V5.19c0-.482-.12-.913-.274-1.267a3.025 3.025 0 0 0-.53-.826L11.089.846m-.664.71l2.108 2.25c.094.098.236.298.343.543.109.247.186.539.185.841v10.033c-.001.833-.63 1.505-1.41 1.506H2.353c-.78-.001-1.41-.673-1.411-1.506V2.51c.001-.831.631-1.504 1.411-1.506h6.774c.287 0 .56.08.79.194.228.112.414.262.506.36M3.48 10.74a.493.493 0 0 1-.48-.506c0-.28.214-.505.48-.505h7.042c.264 0 .48.226.48.505 0 .28-.214.506-.48.506H3.48m0 3.395a.493.493 0 0 1-.48-.505c0-.28.214-.505.48-.505h7.042c.264 0 .48.225.48.505s-.214.505-.48.505H3.48m0-6.792A.493.493 0 0 1 3 6.84c0-.279.214-.505.48-.505h7.042c.264 0 .48.226.48.505 0 .28-.214.505-.48.505H3.48"/>
</svg>
