<?xml version="1.0" encoding="UTF-8" standalone="no"?>
<svg width="106px" height="96px" viewBox="0 0 106 96" version="1.1" xmlns="http://www.w3.org/2000/svg" xmlns:xlink="http://www.w3.org/1999/xlink">
    <!-- Generator: sketchtool 46.2 (44496) - http://www.bohemiancoding.com/sketch -->
    <title>795D9DAD-32A5-44FE-87FC-B8B8FD0454BC</title>
    <desc>Created with sketchtool.</desc>
    <defs></defs>
    <g id="Application" stroke="none" stroke-width="1" fill="none" fill-rule="evenodd">
        <g id="Public-/-Dispute-App-/-Step-1-2-/-DCR-1332" transform="translate(-962.000000, -250.000000)" fill-rule="nonzero" fill="#C9C9C9">
            <g id="noun_1210584_cc" transform="translate(962.000000, 250.000000)">
                <path d="M106,13.5529412 C106,6.06785845 99.9415553,8.02495325e-15 92.4680851,0 L13.5319149,0 C6.05844466,0 1.0015629e-15,6.06785845 0,13.5529412 L0,82.4470588 C1.0015629e-15,89.9321416 6.05844466,96 13.5319149,96 L92.4680851,96 C99.9415553,96 106,89.9321416 106,82.4470588 L106,13.5529412 Z M13.5319149,4.51764706 L92.4680851,4.51764706 C97.4503986,4.51764706 101.489362,8.56288603 101.489362,13.5529412 L101.489362,75.1058824 L4.5106383,75.1058824 L4.5106383,13.5529412 C4.5106383,8.56288603 8.54960141,4.51764706 13.5319149,4.51764706 Z M92.4680851,91.4823529 L13.5319149,91.4823529 C8.54960141,91.4823529 4.5106383,87.437114 4.5106383,82.4470588 L4.5106383,79.6235294 L101.489362,79.6235294 L101.489362,82.4470588 C101.489362,87.437114 97.4503986,91.4823529 92.4680851,91.4823529 Z" id="Shape"></path>
                <path d="M28.3013699,22 L44.6986301,22 C45.9696416,22 47,20.8807119 47,19.5 C47,18.1192881 45.9696416,17 44.6986301,17 L28.3013699,17 C27.0303584,17 26,18.1192881 26,19.5 C26,20.8807119 27.0303584,22 28.3013699,22 Z" id="Shape"></path>
                <path d="M18.5,23 C19.8807119,23 21,22.0119388 21,20.7931034 L21,17.2068966 C21,15.9880612 19.8807119,15 18.5,15 C17.1192881,15 16,15.9880612 16,17.2068966 L16,20.7931034 C16,22.0119388 17.1192881,23 18.5,23 Z" id="Shape"></path>
                <path d="M72.3013699,22 L88.6986301,22 C89.9696416,22 91,20.8807119 91,19.5 C91,18.1192881 89.9696416,17 88.6986301,17 L72.3013699,17 C71.0303584,17 70,18.1192881 70,19.5 C70,20.8807119 71.0303584,22 72.3013699,22 Z" id="Shape"></path>
                <path d="M62.5,23 C63.8807119,23 65,22.0119388 65,20.7931034 L65,17.2068966 C65,15.9880612 63.8807119,15 62.5,15 C61.1192881,15 60,15.9880612 60,17.2068966 L60,20.7931034 C60,22.0119388 61.1192881,23 62.5,23 Z" id="Shape"></path>
                <path d="M28.3013699,42 L44.6986301,42 C45.9696416,42 47,40.8807119 47,39.5 C47,38.1192881 45.9696416,37 44.6986301,37 L28.3013699,37 C27.0303584,37 26,38.1192881 26,39.5 C26,40.8807119 27.0303584,42 28.3013699,42 Z" id="Shape"></path>
                <path d="M18.5,44 C19.8807119,44 21,43.0119388 21,41.7931034 L21,38.2068966 C21,36.9880612 19.8807119,36 18.5,36 C17.1192881,36 16,36.9880612 16,38.2068966 L16,41.7931034 C16,43.0119388 17.1192881,44 18.5,44 Z" id="Shape"></path>
                <path d="M72.3013699,42 L88.6986301,42 C89.9696416,42 91,40.8807119 91,39.5 C91,38.1192881 89.9696416,37 88.6986301,37 L72.3013699,37 C71.0303584,37 70,38.1192881 70,39.5 C70,40.8807119 71.0303584,42 72.3013699,42 Z" id="Shape"></path>
                <path d="M62.5,44 C63.8807119,44 65,43.0119388 65,41.7931034 L65,38.2068966 C65,36.9880612 63.8807119,36 62.5,36 C61.1192881,36 60,36.9880612 60,38.2068966 L60,41.7931034 C60,43.0119388 61.1192881,44 62.5,44 Z" id="Shape"></path>
                <path d="M28.3013699,63 L44.6986301,63 C45.9696416,63 47,61.8807119 47,60.5 C47,59.1192881 45.9696416,58 44.6986301,58 L28.3013699,58 C27.0303584,58 26,59.1192881 26,60.5 C26,61.8807119 27.0303584,63 28.3013699,63 Z" id="Shape"></path>
                <path d="M18.5,64 C19.8807119,64 21,63.0119388 21,61.7931034 L21,58.2068966 C21,56.9880612 19.8807119,56 18.5,56 C17.1192881,56 16,56.9880612 16,58.2068966 L16,61.7931034 C16,63.0119388 17.1192881,64 18.5,64 Z" id="Shape"></path>
                <path d="M72.3013699,63 L88.6986301,63 C89.9696416,63 91,61.8807119 91,60.5 C91,59.1192881 89.9696416,58 88.6986301,58 L72.3013699,58 C71.0303584,58 70,59.1192881 70,60.5 C70,61.8807119 71.0303584,63 72.3013699,63 Z" id="Shape"></path>
                <path d="M62.5,64 C63.8807119,64 65,63.0119388 65,61.7931034 L65,58.2068966 C65,56.9880612 63.8807119,56 62.5,56 C61.1192881,56 60,56.9880612 60,58.2068966 L60,61.7931034 C60,63.0119388 61.1192881,64 62.5,64 Z" id="Shape"></path>
            </g>
        </g>
    </g>
</svg>