<?xml version="1.0" encoding="UTF-8" standalone="no"?>
<svg width="97px" height="97px" viewBox="0 0 97 97" version="1.1" xmlns="http://www.w3.org/2000/svg" xmlns:xlink="http://www.w3.org/1999/xlink">
    <!-- Generator: sketchtool 46.2 (44496) - http://www.bohemiancoding.com/sketch -->
    <title>41818899-A034-4C40-A3A1-9F869AA90AC0</title>
    <desc>Created with sketchtool.</desc>
    <defs></defs>
    <g id="Application" stroke="none" stroke-width="1" fill="none" fill-rule="evenodd">
        <g id="Public-/-Dispute-App-/-Step-1-1-/-DCR-1332" transform="translate(-965.000000, -250.000000)" fill-rule="nonzero" fill="#C9C9C9">
            <g id="noun_184423_cc" transform="translate(965.000000, 250.000000)">
                <g id="Group">
                    <g id="Shape">
                        <path d="M48.5,97 C21.7567407,97 0,75.2432593 0,48.5 C0,21.7567407 21.7567407,0 48.5,0 C75.2432593,0 97,21.7567407 97,48.5 C97,75.2432593 75.2432593,97 48.5,97 L48.5,97 Z M48.5,3.59259259 C23.7380556,3.59259259 3.59259259,23.7380556 3.59259259,48.5 C3.59259259,73.2619444 23.7380556,93.4074074 48.5,93.4074074 C73.2619444,93.4074074 93.4074074,73.2619444 93.4074074,48.5 C93.4074074,23.7380556 73.2619444,3.59259259 48.5,3.59259259 L48.5,3.59259259 Z"></path>
                        <path d="M62.8703704,80.8333333 C58.9077407,80.8333333 55.6851852,77.6107778 55.6851852,73.6481481 L55.6851852,66.462963 L41.3148148,66.462963 L41.3148148,73.6481481 C41.3148148,77.6107778 38.0922593,80.8333333 34.1296296,80.8333333 C30.167,80.8333333 26.9444444,77.6107778 26.9444444,73.6481481 L26.9444444,66.462963 L21.5555556,66.462963 C17.5929259,66.462963 14.3703704,63.2404074 14.3703704,59.2777778 C14.3703704,55.3151481 17.5929259,52.0925926 21.5555556,52.0925926 L26.9444444,52.0925926 L26.9444444,44.9074074 L21.5555556,44.9074074 C17.5929259,44.9074074 14.3703704,41.6848519 14.3703704,37.7222222 C14.3703704,33.7595926 17.5929259,30.537037 21.5555556,30.537037 L26.9444444,30.537037 L26.9444444,23.3518519 C26.9444444,19.3892222 30.167,16.1666667 34.1296296,16.1666667 C38.0922593,16.1666667 41.3148148,19.3892222 41.3148148,23.3518519 L41.3148148,30.537037 L55.6851852,30.537037 L55.6851852,23.3518519 C55.6851852,19.3892222 58.9077407,16.1666667 62.8703704,16.1666667 C66.833,16.1666667 70.0555556,19.3892222 70.0555556,23.3518519 L70.0555556,30.537037 L75.4444444,30.537037 C79.4070741,30.537037 82.6296296,33.7595926 82.6296296,37.7222222 C82.6296296,41.6848519 79.4070741,44.9074074 75.4444444,44.9074074 L70.0555556,44.9074074 L70.0555556,52.0925926 L75.4444444,52.0925926 C79.4070741,52.0925926 82.6296296,55.3151481 82.6296296,59.2777778 C82.6296296,63.2404074 79.4070741,66.462963 75.4444444,66.462963 L70.0555556,66.462963 L70.0555556,73.6481481 C70.0555556,77.6107778 66.833,80.8333333 62.8703704,80.8333333 L62.8703704,80.8333333 Z M39.5185185,62.8703704 L57.4814815,62.8703704 C58.4748333,62.8703704 59.2777778,63.6751111 59.2777778,64.6666667 L59.2777778,73.6481481 C59.2777778,75.629463 60.8890556,77.2407407 62.8703704,77.2407407 C64.8516852,77.2407407 66.462963,75.629463 66.462963,73.6481481 L66.462963,64.6666667 C66.462963,63.6751111 67.2659074,62.8703704 68.2592593,62.8703704 L75.4444444,62.8703704 C77.4257593,62.8703704 79.037037,61.2590926 79.037037,59.2777778 C79.037037,57.296463 77.4257593,55.6851852 75.4444444,55.6851852 L68.2592593,55.6851852 C67.2659074,55.6851852 66.462963,54.8804444 66.462963,53.8888889 L66.462963,43.1111111 C66.462963,42.1195556 67.2659074,41.3148148 68.2592593,41.3148148 L75.4444444,41.3148148 C77.4257593,41.3148148 79.037037,39.703537 79.037037,37.7222222 C79.037037,35.7409074 77.4257593,34.1296296 75.4444444,34.1296296 L68.2592593,34.1296296 C67.2659074,34.1296296 66.462963,33.3248889 66.462963,32.3333333 L66.462963,23.3518519 C66.462963,21.370537 64.8516852,19.7592593 62.8703704,19.7592593 C60.8890556,19.7592593 59.2777778,21.370537 59.2777778,23.3518519 L59.2777778,32.3333333 C59.2777778,33.3248889 58.4748333,34.1296296 57.4814815,34.1296296 L39.5185185,34.1296296 C38.5251667,34.1296296 37.7222222,33.3248889 37.7222222,32.3333333 L37.7222222,23.3518519 C37.7222222,21.370537 36.1091481,19.7592593 34.1296296,19.7592593 C32.1483148,19.7592593 30.537037,21.370537 30.537037,23.3518519 L30.537037,32.3333333 C30.537037,33.3248889 29.7340926,34.1296296 28.7407407,34.1296296 L21.5555556,34.1296296 C19.5742407,34.1296296 17.962963,35.7409074 17.962963,37.7222222 C17.962963,39.703537 19.5742407,41.3148148 21.5555556,41.3148148 L28.7407407,41.3148148 C29.7340926,41.3148148 30.537037,42.1195556 30.537037,43.1111111 L30.537037,53.8888889 C30.537037,54.8804444 29.7340926,55.6851852 28.7407407,55.6851852 L21.5555556,55.6851852 C19.5742407,55.6851852 17.962963,57.296463 17.962963,59.2777778 C17.962963,61.2590926 19.5742407,62.8703704 21.5555556,62.8703704 L28.7407407,62.8703704 C29.7340926,62.8703704 30.537037,63.6751111 30.537037,64.6666667 L30.537037,73.6481481 C30.537037,75.629463 32.1483148,77.2407407 34.1296296,77.2407407 C36.1091481,77.2407407 37.7222222,75.629463 37.7222222,73.6481481 L37.7222222,64.6666667 C37.7222222,63.6751111 38.5251667,62.8703704 39.5185185,62.8703704 L39.5185185,62.8703704 Z M57.4814815,55.6851852 L39.5185185,55.6851852 C38.5251667,55.6851852 37.7222222,54.8804444 37.7222222,53.8888889 L37.7222222,43.1111111 C37.7222222,42.1195556 38.5251667,41.3148148 39.5185185,41.3148148 L57.4814815,41.3148148 C58.4748333,41.3148148 59.2777778,42.1195556 59.2777778,43.1111111 L59.2777778,53.8888889 C59.2777778,54.8804444 58.4748333,55.6851852 57.4814815,55.6851852 L57.4814815,55.6851852 Z M41.3148148,52.0925926 L55.6851852,52.0925926 L55.6851852,44.9074074 L41.3148148,44.9074074 L41.3148148,52.0925926 Z"></path>
                    </g>
                </g>
            </g>
        </g>
    </g>
</svg>