<?xml version="1.0" encoding="UTF-8" standalone="no"?>
<svg width="96px" height="96px" viewBox="0 0 96 96" version="1.1" xmlns="http://www.w3.org/2000/svg" xmlns:xlink="http://www.w3.org/1999/xlink">
    <!-- Generator: sketchtool 46.2 (44496) - http://www.bohemiancoding.com/sketch -->
    <title>506E8DE5-E042-4362-B0C5-1CA319F51970</title>
    <desc>Created with sketchtool.</desc>
    <defs></defs>
    <g id="M:-Public-Portal" stroke="none" stroke-width="1" fill="none" fill-rule="evenodd">
        <g id="Public-/-Contact-Us-Landing" transform="translate(-388.000000, -390.000000)">
            <g id="Group-2" transform="translate(390.000000, 392.000000)">
                <g id="noun_858313_cc" transform="translate(31.000000, 23.000000)" fill-rule="nonzero" fill="#6C5683">
                    <path d="M16.4895703,42 C14.0137279,42 12,43.7992512 12,46.0106971 C12,48.2107328 14.0137279,50 16.4895703,50 C18.977447,50 21,48.2107328 21,46.0106971 C21,43.7999643 18.977447,42 16.4895703,42 Z" id="Shape"></path>
                    <path d="M15.4897627,0 C6.94873749,0 0,6.27699243 0,13.993871 C0,15.4088456 1.26942031,16.5561992 2.83572118,16.5561992 C4.40044709,16.5561992 5.67065488,15.4095573 5.67065488,13.993871 C5.67065488,9.10338283 10.0766143,5.12465648 15.4905502,5.12465648 C20.9162983,5.12465648 25.3301326,9.10338283 25.3301326,13.993871 C25.3301326,18.8985943 20.9162983,22.887997 15.4905502,22.887997 C13.9250368,22.887997 12.6556165,24.0353506 12.6556165,25.451037 L12.6556165,33.4376718 C12.6556165,34.8526464 13.9242494,36 15.4905502,36 C17.0568511,36 18.3262714,34.8533581 18.3262714,33.4376718 L18.3262714,27.7663853 C25.527003,26.5578204 31,20.8466755 31,13.9931592 C30.998425,6.27699243 24.0426002,0 15.4897627,0 Z" id="Shape"></path>
                </g>
                <circle id="Oval" stroke="#6C5683" stroke-width="4" cx="46" cy="46" r="46"></circle>
            </g>
        </g>
    </g>
</svg>