<?xml version="1.0" encoding="UTF-8" standalone="no"?>
<svg width="115px" height="109px" viewBox="0 0 115 109" version="1.1" xmlns="http://www.w3.org/2000/svg" xmlns:xlink="http://www.w3.org/1999/xlink">
    <!-- Generator: sketchtool 46.2 (44496) - http://www.bohemiancoding.com/sketch -->
    <title>9E4D7641-E0D8-49ED-A520-BF8E7FBB3213</title>
    <desc>Created with sketchtool.</desc>
    <defs></defs>
    <g id="M:-Public-Portal" stroke="none" stroke-width="1" fill="none" fill-rule="evenodd">
        <g id="Public-/-Contact-Us-Landing" transform="translate(-758.000000, -381.000000)" stroke="#6C5683" fill-rule="nonzero" fill="#6C5683">
            <g id="noun_352952_cc" transform="translate(759.000000, 382.000000)">
                <g id="Group" transform="translate(0.000000, 5.000000)">
                    <path d="M96.2574754,102.440558 C95.464623,102.440558 94.6124918,102.004645 93.7140492,101.134668 L87.6972623,95.3126498 C87.6509508,95.2683197 82.6678361,90.5582482 75.9378525,90.5582482 L64.6730492,90.5582482 C61.4682951,90.5582482 55.4070492,88.6261954 55.4070492,81.3191198 L55.4070492,66.7086628 C55.4070492,65.9439688 56.0294754,65.3233476 56.7963934,65.3233476 C57.5633115,65.3233476 58.1857377,65.9439688 58.1857377,66.7086628 L58.1857377,81.3191198 C58.1857377,87.5567321 64.0135738,87.7820767 64.6786066,87.7876179 L75.9378525,87.7876179 C83.8200656,87.7876179 89.3996721,93.0998397 89.633082,93.3251843 L95.6498689,99.1472021 C95.7517541,99.2469448 95.8425246,99.3263695 95.9203279,99.3928646 C95.9388525,99.2598744 95.9518197,99.125037 95.9518197,99.0216002 L95.9518197,91.0200199 C95.9518197,88.6483604 97.8913443,87.7876179 99.193623,87.7876179 L107.475967,87.7876179 C109.585918,87.7876179 109.782279,86.0107204 109.791541,85.4658298 L109.791541,43.1453758 C109.791541,36.9077635 103.963705,36.6824189 103.298672,36.6768776 L72.4719016,36.6768776 C71.7049836,36.6768776 71.0825574,36.0562564 71.0825574,35.2915625 C71.0825574,34.5268685 71.7049836,33.9062473 72.4719016,33.9062473 L103.30423,33.9062473 C106.508984,33.9062473 112.57023,35.8364531 112.57023,43.1453758 L112.57023,85.4769123 C112.57023,87.5179433 111.21423,90.5564011 107.475967,90.5564011 L99.193623,90.5564011 C98.7305082,90.5785662 98.7305082,90.8112991 98.7305082,91.0181728 L98.7305082,99.0197531 C98.7305082,99.6200563 98.6138033,101.629687 97.0947869,102.268779 C96.8243279,102.385145 96.5446066,102.440558 96.2574754,102.440558 Z" id="Shape"></path>
                    <path d="M36.9658197,73.8993719 C30.2450984,73.8993719 23.6836885,72.0855326 17.9484754,68.6425627 L1.9117377,73.7885467 C1.59311475,73.9141486 1.2337377,73.9159957 0.907704918,73.7940879 C0.62242623,73.6869569 0.372344262,73.4893186 0.20747541,73.2159498 C-0.0389016393,72.8077436 -0.0574262295,72.3164185 0.137081967,71.9045181 L5.2702459,56.0047945 C1.82096721,50.2843665 0,43.7419848 0,37.0407537 C0,16.7172571 16.5832131,0.182135586 36.9658197,0.182135586 C57.3484262,0.182135586 73.9316393,16.7172571 73.9316393,37.0407537 C73.9316393,57.3642504 57.3484262,73.8993719 36.9658197,73.8993719 Z M18.1300164,65.7444834 C18.3875082,65.7444834 18.6431475,65.8165198 18.8672951,65.9550513 C24.2894426,69.3389144 30.5489016,71.1287416 36.9658197,71.1287416 C55.8164426,71.1287416 71.1529508,55.8367096 71.1529508,37.0407537 C71.1529508,18.2447979 55.8164426,2.95276587 36.9658197,2.95276587 C18.1151967,2.95276587 2.77868852,18.2447979 2.77868852,37.0407537 C2.77868852,43.4390626 4.57186885,49.678522 7.96742623,55.0886394 C8.18416393,55.4358917 8.23788525,55.8588746 8.11191803,56.2467628 L3.55857377,70.3529651 L17.7039508,65.8128256 C17.8428852,65.7648014 17.987377,65.7444834 18.1300164,65.7444834 Z" id="Shape"></path>
                    <path d="M83.9904918,66.6883448 C81.7471639,66.6883448 79.9243443,64.8689643 79.9243443,62.6321421 C79.9243443,60.3953199 81.7471639,58.5777864 83.9904918,58.5777864 C86.2319672,58.5777864 88.0547869,60.3953199 88.0547869,62.6321421 C88.0547869,64.8689643 86.2319672,66.6883448 83.9904918,66.6883448 Z M83.9904918,61.3465696 C83.2791475,61.3465696 82.7030328,61.9228607 82.7030328,62.630295 C82.7030328,63.3377293 83.281,63.9158674 83.9904918,63.9158674 C84.6999836,63.9158674 85.2760984,63.3395763 85.2760984,62.630295 C85.2760984,61.9210136 84.6999836,61.3465696 83.9904918,61.3465696 Z" id="Shape"></path>
                    <path d="M72.025459,66.6883448 C69.7821311,66.6883448 67.9593115,64.8689643 67.9593115,62.6321421 C67.9593115,60.3953199 69.7821311,58.5777864 72.025459,58.5777864 C74.2687869,58.5777864 76.0916066,60.3953199 76.0916066,62.6321421 C76.0916066,64.8689643 74.2687869,66.6883448 72.025459,66.6883448 Z M72.025459,61.3465696 C71.3141148,61.3465696 70.738,61.9228607 70.738,62.630295 C70.738,63.3377293 71.3159672,63.9158674 72.025459,63.9158674 C72.7349508,63.9158674 73.312918,63.3395763 73.312918,62.630295 C73.312918,61.9210136 72.7368033,61.3465696 72.025459,61.3465696 Z" id="Shape"></path>
                    <path d="M95.9518197,66.6883448 C93.7103443,66.6883448 91.8875246,64.8689643 91.8875246,62.6321421 C91.8875246,60.3953199 93.7103443,58.5777864 95.9518197,58.5777864 C98.1951475,58.5777864 100.017967,60.3953199 100.017967,62.6321421 C100.017967,64.8689643 98.1951475,66.6883448 95.9518197,66.6883448 Z M95.9518197,61.3465696 C95.2423279,61.3465696 94.6662131,61.9228607 94.6662131,62.630295 C94.6662131,63.3377293 95.2441803,63.9158674 95.9518197,63.9158674 C96.6631639,63.9158674 97.2392787,63.3395763 97.2392787,62.630295 C97.2392787,61.9210136 96.6631639,61.3465696 95.9518197,61.3465696 Z" id="Shape"></path>
                </g>
                <path d="M94.5907424,6.4077027 C94.0432033,5.862861 93.1585738,5.86472053 92.612897,6.40956222 L88.0519334,10.9728438 C88.035172,10.9877201 88.0128234,10.9932986 87.996062,11.0100344 C87.9774382,11.0267701 87.9718511,11.050944 87.9569521,11.0695393 L83.4090251,15.6198042 C82.8633483,16.1646459 82.8633483,17.0479217 83.4108874,17.5927634 C83.6827946,17.8642545 84.0403712,18 84.3960854,18 C84.753662,18 85.1131009,17.8642545 85.3850081,17.5909038 L94.5907424,8.38252139 C95.1364192,7.83582017 95.1364192,6.95254439 94.5907424,6.4077027 Z" id="Shape"></path>
                <path d="M75.9801412,1.32098765 C75.9781558,0.590828924 75.3130343,0 74.4910633,0 L74.4890779,0 C73.6671069,0 73,0.594356261 73.0019854,1.32451499 L73.0119126,7.45326279 C73.0099272,7.47089947 73,7.48677249 73,7.50440917 C73,7.52204586 73.0119126,7.53791887 73.0119126,7.55555556 L73.0218398,13.6790123 C73.0238252,14.4091711 73.6909321,15 74.5109177,15 C74.5129031,15 74.5129031,15 74.5129031,15 C75.3348741,15 76.001981,14.4056437 75.9999956,13.675485 L75.9801412,1.32098765 Z" id="Shape"></path>
                <path d="M99.6756916,26 L87.3243084,26 C86.5932902,26 86,26.672 86,27.5 C86,28.328 86.5932902,29 87.3243084,29 L99.6756916,29 C100.40671,29 101,28.328 101,27.5 C101,26.672 100.40671,26 99.6756916,26 Z" id="Shape"></path>
                <path d="M36.5,60 C26.3003455,60 18,51.7018903 18,41.5009131 C18,31.2999358 26.2985192,23 36.5,23 C46.7014808,23 55,31.2999358 55,41.5009131 C55,51.7000642 46.7014808,60 36.5,60 Z M36.5,25.7392528 C27.8106614,25.7392528 20.739388,32.8101772 20.739388,41.5009131 C20.739388,50.1898228 27.8106614,57.2607472 36.5,57.2607472 C45.1893386,57.2607472 52.260612,50.1898228 52.260612,41.5009131 C52.260612,32.8101772 45.1893386,25.7392528 36.5,25.7392528 Z" id="Shape"></path>
                <path d="M43.6171227,51 C43.262988,51 42.9088534,50.8728998 42.6395635,50.6169583 C39.8064863,47.9426308 35.1953581,47.9426308 32.362281,50.6169583 C31.8218567,51.1271002 30.9457424,51.1271002 30.4053182,50.6169583 C29.8648939,50.1068164 29.8648939,49.2797946 30.4053182,48.7696527 C34.3173993,45.0767824 40.6826007,45.0767824 44.5946818,48.7696527 C45.1351061,49.2797946 45.1351061,50.1068164 44.5946818,50.6169583 C44.3253919,50.8728998 43.9712573,51 43.6171227,51 Z" id="Shape"></path>
            </g>
        </g>
    </g>
</svg>