<?xml version="1.0" encoding="UTF-8" standalone="no"?>
<svg width="91px" height="82px" viewBox="0 0 91 82" version="1.1" xmlns="http://www.w3.org/2000/svg" xmlns:xlink="http://www.w3.org/1999/xlink">
    <!-- Generator: sketchtool 46.2 (44496) - http://www.bohemiancoding.com/sketch -->
    <title>91A1AE72-44EA-4C32-93C1-F4D09183947A</title>
    <desc>Created with sketchtool.</desc>
    <defs>
        <path d="M27.8698454,78.6097689 L27.8698454,70.0366774 C28.9020619,70.8476455 30.1636598,71.542761 31.7693299,72.2378766 C34.4072165,73.2805499 37.2744845,73.8598128 40.371134,73.8598128 L61.3595361,73.8598128 L71.7963918,73.8598128 L73.5167526,73.8598128 C77.4162371,73.8598128 80.6275773,70.7317929 80.6275773,66.7928049 C80.6275773,64.9391635 79.939433,63.2013746 78.6778351,61.9269962 C82.1185567,61.4635858 84.871134,58.4514185 84.871134,54.8599882 C84.871134,52.7746416 83.9536082,50.9210002 82.4626289,49.6466217 C85.1005155,48.6039484 86.935567,46.0551915 86.935567,43.0430242 C86.935567,40.9576776 86.0180412,39.1040362 84.5270619,37.8296577 C87.1649485,36.7869844 89,34.2382274 89,31.2260601 C89,27.2870721 85.7886598,24.1590522 81.8891753,24.1590522 L70.5347938,24.1590522 L69.9613402,24.1590522 L57.1159794,24.1590522 C59.6391753,15.7018132 59.6391753,9.21406827 57.1159794,4.81166989 C54.9368557,1.10438705 51.7255155,0.293418933 51.1520619,0.177566344 C50.693299,0.0617137554 48.8582474,-0.4016966 47.0231959,0.872681877 C45.0734536,2.26291294 44.0412371,5.15922766 44.0412371,9.56162603 C44.0412371,17.5554547 31.310567,24.50661 27.5257732,26.3602514 C27.2963918,26.1285462 26.9523196,25.896841 26.6082474,25.896841 L1.14690722,25.896841 C0.458762887,25.896841 0,26.3602514 0,27.0553669 L0,71.8903188 C0,76.4085697 3.55541237,80 8.02835052,80 L26.7229381,80 C27.4110825,79.7682948 27.8698454,79.3048845 27.8698454,78.6097689 Z M46.4497423,9.44577344 C46.4497423,5.04337507 47.4819588,3.30558624 48.3994845,2.7263233 C49.431701,2.03120776 50.4639175,2.37876553 50.5786082,2.37876553 C50.5786082,2.37876553 50.693299,2.37876553 50.693299,2.37876553 C50.693299,2.37876553 53.3311856,2.95802847 55.1662371,5.97019578 C56.7719072,8.75065791 58.0335052,14.3115822 54.4780928,24.9700203 C54.3634021,25.3175781 54.3634021,25.6651359 54.5927835,26.0126936 C54.8221649,26.3602514 55.1662371,26.476104 55.5103093,26.476104 L69.9613402,26.476104 L70.5347938,26.476104 L82.1185567,26.476104 C84.7564433,26.476104 86.935567,28.5614506 86.935567,31.2260601 C86.935567,33.8906697 84.7564433,35.9760163 82.1185567,35.9760163 L79.939433,35.9760163 L74.2048969,35.9760163 L72.1404639,35.9760163 C71.4523196,35.9760163 70.9935567,36.4394266 70.9935567,37.1345422 C70.9935567,37.8296577 71.4523196,38.293068 72.1404639,38.293068 L74.3195876,38.293068 L80.0541237,38.293068 C82.6920103,38.293068 84.871134,40.3784146 84.871134,43.0430242 C84.871134,45.7076337 82.6920103,47.7929803 80.0541237,47.7929803 L77.875,47.7929803 L73.1726804,47.7929803 L70.9935567,47.7929803 C70.3054124,47.7929803 69.8466495,48.2563907 69.8466495,48.9515062 C69.8466495,49.6466217 70.3054124,50.1100321 70.9935567,50.1100321 L73.1726804,50.1100321 L77.875,50.1100321 C80.5128866,50.1100321 82.6920103,52.1953787 82.6920103,54.8599882 C82.6920103,57.5245978 80.5128866,59.6099444 77.875,59.6099444 L73.6314433,59.6099444 L72.1404639,59.6099444 L69.9613402,59.6099444 C69.2731959,59.6099444 68.814433,60.0733547 68.814433,60.7684703 C68.814433,61.4635858 69.2731959,61.9269962 69.9613402,61.9269962 L72.1404639,61.9269962 L73.6314433,61.9269962 C76.2693299,61.9269962 78.4484536,64.0123428 78.4484536,66.6769523 C78.4484536,69.3415618 76.2693299,71.4269084 73.6314433,71.4269084 L71.9110825,71.4269084 L61.4742268,71.4269084 L40.371134,71.4269084 C37.503866,71.4269084 34.8659794,70.9634981 32.5721649,70.0366774 C30.2783505,69.1098567 28.6726804,67.9513308 28.0992268,66.7928049 C28.0992268,66.6769523 27.9845361,66.5610997 27.8698454,66.5610997 L27.8698454,28.6773032 C30.507732,27.4029247 46.4497423,19.5249487 46.4497423,9.44577344 Z M25.5760309,77.451243 L8.02835052,77.451243 C4.81701031,77.451243 2.29381443,74.9024861 2.29381443,71.6586136 L2.29381443,27.9821876 L25.5760309,27.9821876 L25.5760309,77.451243 L25.5760309,77.451243 Z" id="path-1"></path>
    </defs>
    <g id="M:-Public-Portal" stroke="none" stroke-width="1" fill="none" fill-rule="evenodd">
        <g id="Public-/-Contact-Us-Landing" transform="translate(-582.000000, -392.000000)" fill-rule="nonzero" stroke="#6C5683">
            <g id="noun_1052746_cc" transform="translate(583.000000, 393.000000)">
                <g id="Shape">
                    <use fill="#6C5683" fill-rule="evenodd" xlink:href="#path-1"></use>
                    <use xlink:href="#path-1"></use>
                    <use xlink:href="#path-1"></use>
                </g>
            </g>
        </g>
    </g>
</svg>