<?xml version="1.0" encoding="UTF-8" standalone="no"?>
<svg width="86px" height="97px" viewBox="0 0 86 97" version="1.1" xmlns="http://www.w3.org/2000/svg" xmlns:xlink="http://www.w3.org/1999/xlink">
    <!-- Generator: sketchtool 46.2 (44496) - http://www.bohemiancoding.com/sketch -->
    <title>3F8450E8-2235-42CF-B544-59E30F4D0BE9</title>
    <desc>Created with sketchtool.</desc>
    <defs></defs>
    <g id="M:-Public-Portal" stroke="none" stroke-width="1" fill="none" fill-rule="evenodd">
        <g id="Public-/-Contact-Us-Landing" transform="translate(-969.000000, -387.000000)" fill-rule="nonzero" fill="#6C5683">
            <g id="noun_122196" transform="translate(969.000000, 387.000000)">
                <path d="M64.9457364,97 L6.05426357,97 C2.75193798,97 0,94.2727273 0,91 L0,16 C0,12.7272727 2.75193798,10 6.05426357,10 L11.8333333,10 C12.9341085,10 13.8972868,10.9545455 13.8972868,12.0454545 C13.8972868,13.1363636 12.9341085,14.0909091 11.8333333,14.0909091 L6.05426357,14.0909091 C4.95348837,14.0909091 4.12790698,14.9090909 4.12790698,16 L4.12790698,91 C4.12790698,92.0909091 4.95348837,92.9090909 6.05426357,92.9090909 L64.9457364,92.9090909 C66.0465116,92.9090909 66.872093,92.0909091 66.872093,91 L66.872093,65.0909091 C66.872093,64 67.8352713,63.0454545 68.9360465,63.0454545 C70.0368217,63.0454545 71,64 71,65.0909091 L71,91 C71,94.4090909 68.3856589,97 64.9457364,97 Z" id="Shape"></path>
                <path d="M67.9207921,23 C66.8118812,23 65.8415842,22.0808081 65.8415842,21.030303 L65.8415842,15.7777778 C65.8415842,14.7272727 65.009901,13.9393939 63.9009901,13.9393939 L58.0792079,13.9393939 C56.970297,13.9393939 56,13.020202 56,11.969697 C56,10.9191919 56.970297,10 58.0792079,10 L63.9009901,10 C67.2277228,10 70,12.6262626 70,15.7777778 L70,21.030303 C70,22.0808081 69.1683168,23 67.9207921,23 Z" id="Shape"></path>
                <path d="M48.3355937,23 L21.7919492,23 C19.7605478,23 18,21.3764706 18,19.2117647 L18,9.2 C18,7.17058824 19.6251211,5.41176471 21.7919492,5.41176471 L27.8861533,5.41176471 C28.8341406,2.3 31.6781025,0 35.0637715,0 C38.4494404,0 41.4288291,2.3 42.2413896,5.41176471 L48.2001669,5.41176471 C50.2315683,5.41176471 51.9921161,7.03529412 51.9921161,9.2 L51.9921161,19.2117647 C52.1275429,21.3764706 50.5024218,23 48.3355937,23 Z M22.1982295,18.9411765 L48.0647402,18.9411765 L48.0647402,9.47058824 L40.6162685,9.47058824 C39.5328545,9.47058824 38.5848671,8.52352941 38.5848671,7.44117647 C38.5848671,5.54705882 37.0951728,4.05882353 35.1991982,4.05882353 C33.3032236,4.05882353 31.8135293,5.54705882 31.8135293,7.44117647 C31.8135293,8.52352941 30.865542,9.47058824 29.7821279,9.47058824 L22.1982295,9.47058824 L22.1982295,18.9411765 Z" id="Shape"></path>
                <path d="M27,64 L13,64 L13,51 L27,51 L27,64 Z M17.1584158,60.1386139 L22.8415842,60.1386139 L22.8415842,54.8613861 L17.1584158,54.8613861 L17.1584158,60.1386139 Z" id="Shape"></path>
                <path d="M42.9255319,60 L34.0744681,60 C32.9680851,60 32,59.0666667 32,58 C32,56.9333333 32.9680851,56 34.0744681,56 L42.9255319,56 C44.0319149,56 45,56.9333333 45,58 C45,59.0666667 44.0319149,60 42.9255319,60 Z" id="Shape"></path>
                <path d="M27,84 L13,84 L13,71 L27,71 L27,84 Z M17.1584158,80.1386139 L22.8415842,80.1386139 L22.8415842,74.8613861 L17.1584158,74.8613861 L17.1584158,80.1386139 Z" id="Shape"></path>
                <path d="M27,43 L13,43 L13,30 L27,30 L27,43 Z M17.1584158,39.1386139 L22.8415842,39.1386139 L22.8415842,33.8613861 L17.1584158,33.8613861 L17.1584158,39.1386139 Z" id="Shape"></path>
                <path d="M54.9166667,35 L34.0833333,35 C32.9722222,35 32,34.0666667 32,33 C32,31.9333333 32.9722222,31 34.0833333,31 L54.9166667,31 C56.0277778,31 57,31.9333333 57,33 C57,34.0666667 56.1666667,35 54.9166667,35 Z" id="Shape"></path>
                <path d="M48.8439716,43 L34.0212766,43 C32.9432624,43 32,42.0666667 32,41 C32,39.9333333 32.9432624,39 34.0212766,39 L48.9787234,39 C50.0567376,39 51,39.9333333 51,41 C51,42.0666667 50.0567376,43 48.8439716,43 Z" id="Shape"></path>
                <path d="M43.996143,82 C43.5867187,82 43.1772944,81.864185 42.9043449,81.592555 C42.221971,81.1851101 41.8125468,80.2344052 42.0854963,79.4195153 L44.5420421,69.0975763 C44.5420421,68.8259463 44.6785168,68.5543163 44.8149916,68.4185013 L70.0628233,31.6126399 C70.7451972,30.661935 71.9734701,30.390305 72.9287934,31.06938 C73.8841168,31.7484549 74.1570663,32.9707898 73.4746925,33.9214947 L48.2268608,70.5915411 L47.1350626,75.3450657 L51.2293056,72.6287659 L78.5242588,32.8349748 L73.8841168,29.7112301 C73.4746925,29.4396001 73.0652682,28.8963402 73.0652682,28.3530802 C72.9287934,27.8098203 73.0652682,27.2665603 73.3382177,26.8591154 L75.9312383,22.9204808 C76.6136121,21.9697759 77.841885,21.6981459 78.7972084,22.3772208 L85.0750476,26.7233004 C86.030371,27.4023753 86.3033205,28.6247102 85.6209467,29.5754151 C84.9385728,30.52612 83.7102999,30.79775 82.7549766,30.1186751 L78.1148345,26.9949304 L77.841885,27.4023753 L82.482027,30.52612 C82.8914513,30.79775 83.3008756,31.3410099 83.3008756,31.8842699 C83.4373504,32.4275298 83.3008756,32.9707898 83.0279261,33.3782347 L54.3682252,75.0734357 C54.2317505,75.3450657 54.0952757,75.4808806 53.8223262,75.6166956 L45.0879411,81.72837 C44.8149916,81.864185 44.4055673,82 43.996143,82 Z" id="Shape"></path>
            </g>
        </g>
    </g>
</svg>