<?xml version="1.0" encoding="UTF-8" standalone="no"?>
<svg width="160px" height="172px" viewBox="0 0 160 172" version="1.1" xmlns="http://www.w3.org/2000/svg" xmlns:xlink="http://www.w3.org/1999/xlink">
    <!-- Generator: sketchtool 46.2 (44496) - http://www.bohemiancoding.com/sketch -->
    <title>52A3FC70-F0A8-4676-9B7D-1793C280414B</title>
    <desc>Created with sketchtool.</desc>
    <defs></defs>
    <g id="M:-Public-Portal" stroke="none" stroke-width="1" fill="none" fill-rule="evenodd">
        <g id="Public-/-My-Applications-/-Menu-Step-4" transform="translate(-81.000000, -135.000000)" fill-rule="nonzero" fill="#3B435B">
            <g id="Group-23" transform="translate(81.000000, 135.000000)">
                <path d="M157.192982,137.388355 L145.964912,137.388355 C145.959298,132.750797 142.181053,128.979627 137.54386,128.976823 L137.54386,123.06632 C137.54386,117.253951 139.441404,112.336009 143.337544,108.020893 C146.843509,104.151588 148.77193,99.146727 148.77193,93.9287733 C148.77193,82.8059243 140.075789,73.6962352 129.122807,72.9700396 L129.122807,35.0676767 L93.7880702,0 L0,0 L0,171.034483 L129.122807,171.034483 L129.122807,159.819107 L150.571228,159.819107 C155.767018,159.819107 160,154.780599 160,148.592516 L160,140.192199 C160,138.641673 158.745263,137.388355 157.192982,137.388355 Z M143.157895,93.9287733 C143.157895,97.7532165 141.743158,101.423448 139.177544,104.263742 C134.363509,109.574223 131.929825,115.902499 131.929825,123.06632 L131.929825,134.584511 L137.532632,134.584511 C139.084912,134.584511 140.345263,135.837829 140.350877,137.388355 L115.087719,137.388355 C115.087719,135.837829 116.34807,134.584511 117.900351,134.584511 L123.508772,134.584511 L123.508772,123.069124 C123.508772,115.905302 121.069474,109.577027 116.261053,104.260938 C113.695439,101.426252 112.280702,97.7532165 112.280702,93.9287733 C112.280702,85.4247145 119.205614,78.5076314 127.719298,78.5076314 C136.227368,78.5076314 143.157895,85.4247145 143.157895,93.9287733 Z M119.534035,33.6461278 L95.4385965,33.6461278 L95.4385965,9.57232335 L119.534035,33.6461278 Z M123.508772,165.426795 L5.61403509,165.426795 L5.61403509,5.60768796 L89.8245614,5.60768796 L89.8245614,36.4499717 C89.8245614,37.9976936 91.0792982,39.2538157 92.6315789,39.2538157 L123.508772,39.2538157 L123.508772,73.3205201 C113.908772,75.2747993 106.666667,83.7704466 106.666667,93.9287733 C106.666667,99.146727 108.592281,104.151588 112.095439,108.018089 C115.997193,112.333205 117.894737,117.256755 117.894737,123.069124 L117.894737,128.976823 C113.25193,128.979627 109.473684,132.750797 109.473684,137.388355 L95.4385965,137.388355 C93.8863158,137.388355 92.6315789,138.641673 92.6315789,140.192199 L92.6315789,148.592516 C92.6315789,154.780599 96.8589474,159.819107 102.060351,159.819107 L123.508772,159.819107 L123.508772,165.426795 Z M154.385965,148.592516 C154.385965,151.584217 152.603509,154.211419 150.571228,154.211419 L102.060351,154.211419 C100.02807,154.211419 98.245614,151.584217 98.245614,148.592516 L98.245614,142.996043 L109.473684,142.996043 L145.964912,142.996043 L154.385965,142.996043 L154.385965,148.592516 Z" id="Shape"></path>
                <rect id="Rectangle-path" x="19.862069" y="122.482759" width="41.9310345" height="7.72413793"></rect>
                <rect id="Rectangle-path" x="19.862069" y="66.2068966" width="89.3793103" height="7.72413793"></rect>
                <rect id="Rectangle-path-Copy" x="19.862069" y="48.5517241" width="89.3793103" height="7.72413793"></rect>
                <path d="M19.862069,83.862069 L92.6896552,83.862069 L92.6896552,91.5862069 C66.2337394,91.5862069 48.2047163,91.5862069 38.602586,91.5862069 C29.0004557,91.5862069 22.7536167,91.5862069 19.862069,91.5862069 L19.862069,83.862069 Z" id="Rectangle-path"></path>
            </g>
        </g>
    </g>
</svg>