<?xml version="1.0" encoding="UTF-8" standalone="no"?>
<svg width="17px" height="17px" viewBox="0 0 17 17" version="1.1" xmlns="http://www.w3.org/2000/svg" xmlns:xlink="http://www.w3.org/1999/xlink">
    <!-- Generator: sketchtool 46.2 (44496) - http://www.bohemiancoding.com/sketch -->
    <title>87FF213B-FBBF-4F2E-8657-F8EB5FCB9327</title>
    <desc>Created with sketchtool.</desc>
    <defs></defs>
    <g id="M:-Public-Portal" stroke="none" stroke-width="1" fill="none" fill-rule="evenodd">
        <g id="Public-/-My-Applications-Step-1" transform="translate(-178.000000, -1511.000000)" fill-rule="nonzero" fill="#1589EE">
            <g id="noun_1035214_cc-(1)" transform="translate(178.000000, 1511.000000)">
                <path d="M16.3643587,5.27913551 C15.0577037,2.08606333 11.9500831,1.64119791e-16 8.5,0 C5.0499169,-2.46179687e-16 1.94229629,2.08606333 0.635641287,5.27913551 C0.622561775,5.30363511 0.612326111,5.32954973 0.60513368,5.35637458 C-0.201711227,7.37446798 -0.201711227,9.62553202 0.60513368,11.6436254 C0.612326111,11.6704503 0.622561775,11.6963649 0.635641287,11.7208645 C1.94229629,14.9139367 5.0499169,17 8.5,17 C11.9500831,17 15.0577037,14.9139367 16.3643587,11.7208645 C16.3774382,11.6963649 16.3876739,11.6704503 16.3948663,11.6436254 C17.2017112,9.62553202 17.2017112,7.37446798 16.3948663,5.35637458 C16.3876739,5.32954973 16.3774382,5.30363511 16.3643587,5.27913551 Z M8.5,16.2608568 C7.07671014,16.2608568 5.81108789,14.4660056 5.19712367,11.918469 L11.8028763,11.918469 C11.1889121,14.4660056 9.92328986,16.2608568 8.5,16.2608568 Z M5.04102118,11.1793392 C4.72545615,9.40704607 4.72545615,7.59294099 5.04102118,5.8206479 L11.9589788,5.8206479 C12.1176075,6.70491896 12.1968142,7.60160777 12.1956521,8.49999353 C12.1968142,9.3983793 12.1176075,10.2950681 11.9589788,11.1793392 L5.04102118,11.1793392 Z M0.739130633,8.49999353 C0.738322478,7.58568094 0.899856334,6.67848685 1.2162116,5.8206479 L4.28302261,5.8206479 C3.99261558,7.59507468 3.99261558,9.40491239 4.28302261,11.1793392 L1.2162116,11.1793392 C0.899856334,10.3215002 0.738322478,9.41430612 0.739130633,8.49999353 L0.739130633,8.49999353 Z M8.5,0.739130308 C9.92328986,0.739130308 11.1889121,2.53398145 11.8028763,5.08151806 L5.19712367,5.08151806 C5.81108789,2.53398145 7.07671014,0.739130308 8.5,0.739130308 Z M12.7169774,5.8206479 L15.7837884,5.8206479 C16.4198959,7.55024619 16.4198959,9.44974087 15.7837884,11.1793392 L12.7169774,11.1793392 C12.8635674,10.2937862 12.9364191,9.3975959 12.9347825,8.49999353 C12.9364191,7.60239116 12.8635674,6.70620088 12.7169774,5.8206479 L12.7169774,5.8206479 Z M15.4652694,5.08151806 L12.5730669,5.08151806 C12.1874754,3.355916 11.5154673,1.94267574 10.664621,1.04859288 C12.7587421,1.66177992 14.500007,3.12458048 15.4652694,5.08151806 Z M6.33537897,1.04859288 C5.48453269,1.94267574 4.81252455,3.355916 4.42693315,5.08151806 L1.53473061,5.08151806 C2.49999295,3.12458048 4.24125786,1.66177992 6.33537897,1.04859288 Z M1.53473061,11.918469 L4.42693315,11.918469 C4.81252455,13.6440711 5.48453823,15.0573113 6.33537897,15.9513942 C4.24125786,15.3382071 2.49999295,13.8754066 1.53473061,11.918469 L1.53473061,11.918469 Z M10.664621,15.9513942 C11.5154673,15.0573113 12.1874754,13.6440711 12.5730669,11.918469 L15.4652694,11.918469 C14.500007,13.8754066 12.7587421,15.3382071 10.664621,15.9513942 L10.664621,15.9513942 Z" id="Shape"></path>
            </g>
        </g>
    </g>
</svg>