<?xml version="1.0" encoding="UTF-8" standalone="no"?>
<svg width="20px" height="20px" viewBox="0 0 20 20" version="1.1" xmlns="http://www.w3.org/2000/svg" xmlns:xlink="http://www.w3.org/1999/xlink">
    <!-- Generator: sketchtool 46.2 (44496) - http://www.bohemiancoding.com/sketch -->
    <title>173FB647-7C1B-49CA-9658-E87C0D1319CE</title>
    <desc>Created with sketchtool.</desc>
    <defs></defs>
    <g id="M:-Public-Portal" stroke="none" stroke-width="1" fill="none" fill-rule="evenodd">
        <g id="Public-/-My-Applications-Step-1" transform="translate(-408.000000, -1510.000000)" fill-rule="nonzero" fill="#1589EE">
            <g id="Group" transform="translate(408.000000, 1510.000000)">
                <path d="M9.25125,0.44 C7.29203125,-0.27 5.05578125,0.0040625 3.415,1.1546875 C1.93078125,2.19546875 1.1134375,3.81234375 1.1134375,5.7075 C1.1134375,6.05265625 1.39328125,6.3325 1.7384375,6.3325 C2.08359375,6.3325 2.3634375,6.05265625 2.3634375,5.7075 C2.3634375,4.23171875 2.99171875,2.97828125 4.13265625,2.178125 C5.4453125,1.25765625 7.24375,1.04203125 8.8253125,1.61515625 C11.5896875,2.616875 12.7842187,5.693125 11.7303125,9.0953125 C11.2796875,10.5471875 10.41875,11.795 9.3065625,12.6090625 C8.0309375,13.5428125 7.02765625,14.9553125 6.405625,16.69375 C6.37484375,16.7801562 6.34015625,16.865625 6.30171875,16.9503125 C5.95640625,17.7085937 5.3403125,18.2926562 4.61140625,18.5520312 C3.97734375,18.7771875 3.305625,18.7425 2.7196875,18.451875 C1.6209375,17.91 1.03578125,16.5498437 1.32796875,15.2182812 C1.40203125,14.8810937 1.18859375,14.5478125 0.8515625,14.4740625 C0.51484375,14.3992187 0.18125,14.6132812 0.1071875,14.9504687 C-0.313125,16.8660937 0.53375,18.7671875 2.1659375,19.5725 C2.67234375,19.8232812 3.21921875,19.9496875 3.7725,19.9496875 C4.193125,19.9496875 4.6178125,19.8764062 5.030625,19.7296875 C6.07671875,19.3573437 6.9546875,18.5329687 7.43953125,17.4676562 C7.4925,17.3514062 7.54,17.2335937 7.5825,17.1151562 C8.12,15.6126562 8.97171875,14.4032812 10.0451562,13.6176562 C11.371875,12.6465625 12.3945312,11.1721875 12.9242187,9.46578125 C14.1857812,5.3925 12.6753125,1.6809375 9.25125,0.44 Z" id="Shape"></path>
                <path d="M5.896875,4.57734375 C6.72296875,3.95046875 8.0690625,3.88546875 8.75703125,4.78796875 C8.96578125,5.0621875 9.3575,5.11578125 9.6328125,4.90640625 C9.9075,4.6971875 9.96046875,4.30515625 9.75125,4.030625 C8.7003125,2.65109375 6.6325,2.44984375 5.14109375,3.581875 C3.56046875,4.781875 3.36171875,6.93921875 4.65734375,8.828125 C4.7784375,9.0046875 4.97421875,9.09953125 5.17328125,9.09953125 C5.295,9.09953125 5.418125,9.06390625 5.52625,8.99 C5.81078125,8.7946875 5.88328125,8.40578125 5.688125,8.12109375 C4.92796875,7.013125 4.6978125,5.48765625 5.896875,4.57734375 Z" id="Shape"></path>
                <path d="M3.15203125,11.1195312 C2.82609375,11.0042187 2.469375,11.1745312 2.35421875,11.4995312 C2.2025,11.926875 2.19265625,12.3964062 2.32625,12.821875 C2.46546875,13.2642187 2.754375,13.64125 3.13921875,13.8828125 C3.44859375,14.0779687 3.79875,14.1776562 4.158125,14.1776562 C4.326875,14.1776562 4.49765625,14.155625 4.666875,14.1110937 C5.18234375,13.9757812 5.625625,13.6467187 5.91375,13.185625 C5.93109375,13.158125 5.9475,13.1304687 5.963125,13.1026562 C5.978125,13.0760937 5.9925,13.0492187 6.00640625,13.0221875 C6.1328125,12.775 6.28265625,12.555625 6.45140625,12.3704687 C6.6259375,12.1795312 6.82125,12.0246875 7.03171875,11.910625 C7.35921875,11.733125 7.658125,11.4996875 7.9196875,11.2167187 C8.18734375,10.9271875 8.40828125,10.5939062 8.57640625,10.2259375 C8.9446875,9.41875 9.03875,8.56015625 8.84125,7.80859375 C8.62765625,6.99546875 8.0834375,6.34 7.30875,5.9628125 C6.9984375,5.81171875 6.624375,5.94046875 6.47328125,6.25125 C6.3221875,6.5615625 6.45125,6.93546875 6.76171875,7.08671875 C7.21,7.30484375 7.5109375,7.664375 7.6325,8.1265625 C7.75703125,8.60015625 7.6884375,9.16140625 7.4396875,9.70671875 C7.32671875,9.95375 7.17953125,10.1764062 7.001875,10.3684375 C6.83359375,10.550625 6.6434375,10.6998437 6.4365625,10.811875 C6.10265625,10.9928125 5.79734375,11.23375 5.5284375,11.528125 C5.28421875,11.7959375 5.070625,12.1071875 4.89375,12.4532812 L4.85484375,12.5217187 C4.73515625,12.7129687 4.5559375,12.8482812 4.34953125,12.9023437 C4.15703125,12.9526562 3.96421875,12.9254687 3.80484375,12.825 C3.63265625,12.7167187 3.5540625,12.559375 3.51859375,12.446875 C3.46578125,12.27875 3.47046875,12.090625 3.53203125,11.9171875 C3.64765625,11.5920312 3.47734375,11.2348437 3.15203125,11.1195312 Z" id="Shape"></path>
                <path d="M15.1298437,7.36890625 C14.8814062,7.60875 14.8746875,8.004375 15.1145312,8.2525 C15.4571875,8.60703125 15.6479687,9.076875 15.6515625,9.57578125 C15.6554687,10.0709375 15.4742187,10.5332813 15.1410937,10.8776563 C14.90125,11.1259375 14.9079687,11.5215625 15.1564062,11.7614063 C15.2775,11.87875 15.4340625,11.9370313 15.590625,11.9370313 C15.7542187,11.9370313 15.9175,11.8732813 16.0401562,11.7464063 C16.601875,11.165 16.9079687,10.390625 16.9015625,9.56625 C16.8954687,8.74546875 16.5803125,7.9703125 16.0135937,7.3840625 C15.773125,7.1353125 15.3776562,7.12890625 15.1298437,7.36890625 Z" id="Shape"></path>
                <path d="M19.9998437,9.5515625 C19.9998437,9.55 20,9.5484375 20,9.546875 C20,9.54515625 19.9995312,9.54359375 19.999375,9.541875 C20.0035937,8.7303125 19.860625,7.94046875 19.5726562,7.1940625 C19.2720312,6.41390625 18.8265625,5.715 18.2482812,5.11671875 C18.008125,4.868125 17.6120312,4.86140625 17.3645312,5.1015625 C17.1160937,5.34140625 17.109375,5.73703125 17.3492187,5.98515625 C17.810625,6.4625 18.1660937,7.0203125 18.40625,7.64359375 C18.639375,8.2475 18.7546875,8.8878125 18.7498437,9.54671875 C18.7498437,9.54828125 18.7503125,9.54984375 18.7503125,9.55140625 C18.7503125,9.55296875 18.7498437,9.55453125 18.7498437,9.55609375 C18.7546875,10.215 18.639375,10.8554687 18.40625,11.459375 C18.1660937,12.0825 17.810625,12.6403125 17.3492187,13.1176562 C17.109375,13.3657812 17.1160937,13.7614062 17.3645312,14.00125 C17.485625,14.1185937 17.6421875,14.176875 17.79875,14.176875 C17.9623437,14.176875 18.125625,14.113125 18.2482812,13.9860937 C18.8265625,13.3878125 19.2720312,12.6889062 19.5726562,11.9089062 C19.8604687,11.1625 20.0035937,10.3726562 19.9992187,9.56109375 C19.9992187,9.559375 19.9998437,9.55765625 19.9998437,9.5559375 C20,9.5546875 19.9998437,9.553125 19.9998437,9.5515625 Z" id="Shape"></path>
            </g>
        </g>
    </g>
</svg>