<?xml version="1.0" encoding="UTF-8" standalone="no"?>
<svg width="16px" height="16px" viewBox="0 0 16 16" version="1.1" xmlns="http://www.w3.org/2000/svg" xmlns:xlink="http://www.w3.org/1999/xlink">
    <!-- Generator: sketchtool 46.2 (44496) - http://www.bohemiancoding.com/sketch -->
    <title>036BDBCE-02D3-400B-AF71-97E3AFEB69C6</title>
    <desc>Created with sketchtool.</desc>
    <defs></defs>
    <g id="M:-Public-Portal" stroke="none" stroke-width="1" fill="none" fill-rule="evenodd">
        <g id="Public-/-My-Applications-Step-1" transform="translate(-635.000000, -1120.000000)" fill-rule="nonzero" fill="#0086DB">
            <path d="M642,1122 L640,1122 L640,1124 L642,1124 L642,1122 Z M639,1128 L637,1128 L637,1130 L639,1130 L639,1128 Z M642,1125 L640,1125 L640,1127 L642,1127 L642,1125 Z M637,1133 L639,1133 L639,1131 L637,1131 L637,1133 Z M640,1133 L642,1133 L642,1131 L640,1131 L640,1133 Z M636,1121.5 C636,1121.224 636.224,1121 636.5,1121 L642.5,1121 C642.776,1121 643,1121.224 643,1121.5 L643,1134 L644,1134 L644,1121 C644,1120.447 643.553,1120 643,1120 L636,1120 C635.448,1120 635,1120.447 635,1121 L635,1134 L636,1134 L636,1121.5 Z M642,1128 L640,1128 L640,1130 L642,1130 L642,1128 Z M639,1122 L637,1122 L637,1124 L639,1124 L639,1122 Z M647,1131 L649,1131 L649,1128.999 L647,1128.999 L647,1131 Z M650,1121 L646,1121 C645.447,1121 645,1121.447 645,1122 L645,1134 L646,1134 L646,1122.5 C646,1122.224 646.225,1122 646.5,1122 L649.5,1122 C649.775,1122 650,1122.224 650,1122.5 L650,1134 L651,1134 L651,1122 C651,1121.447 650.553,1121 650,1121 Z M649,1123 L647,1123 L647,1125 L649,1125 L649,1123 Z M650.5,1135 L635.5,1135 C635.224,1135 635,1135.224 635,1135.5 C635,1135.776 635.224,1136 635.5,1136 L650.5,1136 C650.775,1136 651,1135.776 651,1135.5 C651,1135.224 650.775,1135 650.5,1135 Z M647,1128 L649,1128 L649,1126 L647,1126 L647,1128 Z M639,1125 L637,1125 L637,1127 L639,1127 L639,1125 Z" id="Shape"></path>
        </g>
    </g>
</svg>