<?xml version="1.0" encoding="UTF-8" standalone="no"?>
<svg width="13px" height="16px" viewBox="0 0 13 16" version="1.1" xmlns="http://www.w3.org/2000/svg" xmlns:xlink="http://www.w3.org/1999/xlink">
    <!-- Generator: sketchtool 46.2 (44496) - http://www.bohemiancoding.com/sketch -->
    <title>C12A2799-656D-4147-8604-58CF031F48A5</title>
    <desc>Created with sketchtool.</desc>
    <defs></defs>
    <g id="M:-Public-Portal" stroke="none" stroke-width="1" fill="none" fill-rule="evenodd">
        <g id="Public-/-My-Applications-Step-1" transform="translate(-180.000000, -1120.000000)" fill-rule="nonzero" fill="#0086DB">
            <path d="M188.884417,1128.98453 C190.369667,1128.16107 191.375,1126.59733 191.375,1124.8 C191.375,1122.14933 189.191,1120 186.5,1120 C183.807917,1120 181.625,1122.14933 181.625,1124.8 C181.625,1126.59733 182.630333,1128.16107 184.1145,1128.98453 C181.70625,1129.92107 180,1132.22933 180,1134.93333 L180,1136 L181.083333,1136 L181.083333,1134.93333 C181.083333,1131.9872 183.508917,1129.6 186.5,1129.6 C189.492167,1129.6 191.916667,1131.9872 191.916667,1134.93333 L191.916667,1136 L193,1136 L193,1134.93333 C193,1132.22933 191.292667,1129.92107 188.884417,1128.98453 Z M182.708333,1124.8 C182.708333,1122.73813 184.405917,1121.06667 186.5,1121.06667 C188.595167,1121.06667 190.291667,1122.73813 190.291667,1124.8 C190.291667,1126.86187 188.595167,1128.53333 186.5,1128.53333 C184.405917,1128.53333 182.708333,1126.86187 182.708333,1124.8 Z" id="Shape"></path>
        </g>
    </g>
</svg>