<?xml version="1.0" encoding="UTF-8" standalone="no"?>
<svg width="23px" height="21px" viewBox="0 0 23 21" version="1.1" xmlns="http://www.w3.org/2000/svg" xmlns:xlink="http://www.w3.org/1999/xlink">
    <!-- Generator: sketchtool 46.2 (44496) - http://www.bohemiancoding.com/sketch -->
    <title>9CEA5DD9-7B43-4CE8-98CC-011BD3B7B3C4</title>
    <desc>Created with sketchtool.</desc>
    <defs></defs>
    <g id="M:-Public-Portal" stroke="none" stroke-width="1" fill="none" fill-rule="evenodd">
        <g id="Public-/-My-Applications-Step-1-4-(request-for-reply-sent)" transform="translate(-958.000000, -1186.000000)" fill-rule="nonzero" stroke="#BB0068" fill="#BB0068">
            <g id="Group-20" transform="translate(929.000000, 984.000000)">
                <g id="Group-17" transform="translate(30.000000, 203.000000)">
                    <g id="noun_938970_cc">
                        <g id="Group">
                            <path d="M11.4823477,0.558823529 C11.4823477,0.558823529 11.4823477,0.558823529 11.4823477,0.558823529 C11.2969991,0.18627451 10.9263019,0 10.5185349,0 C10.1107679,0 9.74007061,0.223529412 9.55472198,0.558823529 L0.139011474,17.3980392 C-0.046337158,17.7333333 -0.046337158,18.1431373 0.139011474,18.4411765 C0.324360106,18.7764706 0.69505737,19 1.10282436,19 L19.8971756,19 C20.3049426,19 20.6756399,18.7764706 20.8609885,18.4411765 C21.0463372,18.1058824 21.0463372,17.7333333 20.8609885,17.3980392 L11.4823477,0.558823529 Z M20.9663327,18.8085106 C20.8905814,18.9234043 20.7769544,19 20.6254518,19 L1.384616,19 C1.23311335,19 1.11948637,18.9234043 1.04373505,18.8085106 C1.00585939,18.7319149 0.967983724,18.6170213 1.04373505,18.4638298 L10.6641529,1.19148936 C10.7399043,1.07659574 10.8535313,1 11.0050339,1 C11.1565365,1 11.2701635,1.07659574 11.3459148,1.19148936 L11.3459148,1.19148936 L20.9663327,18.5021277 C21.0420841,18.6170213 20.9663327,18.7702128 20.9663327,18.8085106 Z" id="Shape"></path>
                            <path d="M11.5,7 C11.2,7 11,7.15300546 11,7.38251366 L11,13.6174863 C11,13.8469945 11.2,14 11.5,14 C11.8,14 12,13.8469945 12,13.6174863 L12,7.38251366 C12,7.19125683 11.8,7 11.5,7 Z" id="Shape"></path>
                            <path d="M11.5,14 C11.2,14 11,14.137931 11,14.3448276 L11,14.6551724 C11,14.862069 11.2,15 11.5,15 C11.8,15 12,14.862069 12,14.6551724 L12,14.3448276 C12,14.137931 11.8,14 11.5,14 Z" id="Shape"></path>
                        </g>
                    </g>
                </g>
            </g>
        </g>
    </g>
</svg>