<?xml version="1.0" encoding="UTF-8" standalone="no"?>
<svg width="16px" height="13px" viewBox="0 0 16 13" version="1.1" xmlns="http://www.w3.org/2000/svg" xmlns:xlink="http://www.w3.org/1999/xlink">
    <!-- Generator: sketchtool 46.2 (44496) - http://www.bohemiancoding.com/sketch -->
    <title>ABD021D6-07E1-4D8E-9363-418341BFF49D</title>
    <desc>Created with sketchtool.</desc>
    <defs></defs>
    <g id="M:-Public-Portal" stroke="none" stroke-width="1" fill="none" fill-rule="evenodd">
        <g id="Public-/-My-Applications-Step-1" transform="translate(-411.000000, -1358.000000)" fill-rule="nonzero" fill="#0086DB">
            <path d="M426.997996,1358.49092 C426.997996,1358.48393 426.993988,1358.47893 426.993988,1358.47193 C426.987976,1358.35595 426.940882,1358.25196 426.868737,1358.16997 C426.860721,1358.16098 426.864729,1358.14698 426.854709,1358.13798 C426.844689,1358.12698 426.827655,1358.13098 426.815631,1358.12098 C426.741483,1358.05799 426.649299,1358.019 426.54509,1358.01 C426.52505,1358.008 426.512024,1358 426.491984,1358 L411.507014,1358 C411.486974,1358 411.472946,1358.008 411.452906,1358.01 C411.350701,1358.021 411.258517,1358.05999 411.184369,1358.12198 C411.172345,1358.13198 411.154309,1358.12798 411.144289,1358.13898 C411.135271,1358.14698 411.138277,1358.16198 411.130261,1358.17097 C411.058116,1358.25296 411.012024,1358.35595 411.00501,1358.47293 C411.00501,1358.47993 411.002004,1358.48493 411.002004,1358.49192 C411.002004,1358.49592 411,1358.49892 411,1358.50192 L411,1370.50008 C411,1370.77603 411.223447,1371 411.5,1371 L426.498998,1371 C426.776553,1371 427,1370.77603 427,1370.50008 L427,1358.50092 C427,1358.49792 426.997996,1358.49492 426.997996,1358.49092 Z M425.084168,1359.00085 L419,1363.8701 L412.915832,1359.00085 L425.084168,1359.00085 Z M426,1369.49923 C426,1369.77519 425.776553,1369.99915 425.498998,1369.99915 L412.5,1369.99915 C412.223447,1369.99915 412,1369.77519 412,1369.49923 L412,1359.51977 L418.630261,1364.82695 C418.637275,1364.83495 418.634269,1364.84595 418.641283,1364.85295 C418.741483,1364.95093 418.870741,1364.99492 419,1364.99192 C419.129259,1364.99492 419.260521,1364.95093 419.357715,1364.85195 C419.366733,1364.84495 419.362725,1364.83395 419.370741,1364.82595 L426.001002,1359.51877 L426.001002,1369.49923 L426,1369.49923 Z" id="Shape"></path>
        </g>
    </g>
</svg>