<?xml version="1.0" encoding="UTF-8" standalone="no"?>
<svg width="40px" height="50px" viewBox="0 0 40 50" version="1.1" xmlns="http://www.w3.org/2000/svg" xmlns:xlink="http://www.w3.org/1999/xlink">
    <!-- Generator: sketchtool 46.2 (44496) - http://www.bohemiancoding.com/sketch -->
    <title>0AADE0A7-69CE-41C0-8B05-10DD62896FF1</title>
    <desc>Created with sketchtool.</desc>
    <defs></defs>
    <g id="M:-Public-Portal" stroke="none" stroke-width="1" fill="none" fill-rule="evenodd">
        <g id="Public-/-My-Applications-Step-1" transform="translate(-178.000000, -1699.000000)" fill-rule="nonzero" fill="#1589EE">
            <g id="Group-50" transform="translate(148.000000, 1627.000000)">
                <g id="Group-47" transform="translate(2.000000, 0.000000)">
                    <g id="Group-46" transform="translate(0.000000, 43.000000)">
                        <g id="Group-37" transform="translate(28.000000, 29.000000)">
                            <g id="noun_1120946_cc">
                                <path d="M31.6811125,2.38790448 C31.159158,1.8399264 30.4143252,1.27194912 29.4656634,0.805967761 C28.5208115,0.347986081 27.3664158,0 26.0786742,0 L6.72064006,0 C3.00981046,0 0,3.16587337 0,7.07571697 L0,42.9222831 C0,46.8321267 3.00981046,50 6.72064006,50 L33.277455,50 C36.9920945,50 40,46.8321267 40,42.9222831 L40,14.6314147 C39.9980951,13.2714691 39.6571102,12.0555178 39.2170683,11.0575577 C38.7655967,10.0595976 38.2226879,9.27762889 37.7045433,8.72965081 L31.6811125,2.38790448 M30.3852659,4.54995264 L36.4747322,10.8410536 C36.7462739,11.1169095 37.1564751,11.6765595 37.4646075,12.3632222 C37.7804432,13.0538541 38.0019134,13.8695142 37.9999875,14.7149429 L37.9999875,42.7867485 C37.9961359,45.1166389 36.1781548,46.9960309 33.9249367,47 L7.07697665,47 C4.82375857,46.9960309 3.00385165,45.1166389 3,42.7867485 L3,7.21325154 C3.00385165,4.8873303 4.82375857,3.00595372 7.07697665,3 L26.6433832,3 C27.471489,3 28.2610783,3.22425691 28.9254887,3.54178882 C29.5841217,3.85733616 30.1214276,4.27608137 30.3852659,4.54995264 M10.37977,30 C9.61706382,30 9,29.3309958 9,28.5 C9,27.671108 9.61514748,27 10.37977,27 L30.6183136,27 C31.3791035,27 32,27.671108 32,28.5 C32,29.3309958 31.3829362,30 30.6183136,30 L10.37977,30 M10.37977,40 C9.61706382,40 9,39.3305263 9,38.5010526 C9,37.6694737 9.61514748,37 10.37977,37 L30.6183136,37 C31.3791035,37 32,37.6694737 32,38.5010526 C32,39.3305263 31.3829362,40 30.6183136,40 L10.37977,40 M10.37977,21 C9.61706382,21 9,20.3279494 9,19.5 C9,18.6720506 9.61514748,18 10.37977,18 L30.6183136,18 C31.3791035,18 32,18.6720506 32,19.5 C32,20.3300562 31.3829362,21 30.6183136,21 L10.37977,21" id="Shape"></path>
                            </g>
                        </g>
                    </g>
                </g>
            </g>
        </g>
    </g>
</svg>