<?xml version="1.0" encoding="UTF-8" standalone="no"?>
<svg width="16px" height="21px" viewBox="0 0 16 21" version="1.1" xmlns="http://www.w3.org/2000/svg" xmlns:xlink="http://www.w3.org/1999/xlink">
    <!-- Generator: sketchtool 46.2 (44496) - http://www.bohemiancoding.com/sketch -->
    <title>6239A301-1082-44B9-873B-1414ACD78475</title>
    <desc>Created with sketchtool.</desc>
    <defs></defs>
    <g id="M:-Public-Portal" stroke="none" stroke-width="1" fill="none" fill-rule="evenodd">
        <g id="Public-/-My-Applications-Step-1" transform="translate(-179.000000, -1192.000000)" fill-rule="nonzero" fill="#0086DB">
            <path d="M191.363636,1211.6 L188.216,1211.6 C190.454545,1208.947 195,1203.1552 195,1199.8736 C195,1195.5252 191.417455,1192 187,1192 C182.581091,1192 179,1195.5252 179,1199.8736 C179,1203.1552 183.545455,1208.947 185.784,1211.6 L182.636364,1211.6 C182.234909,1211.6 181.909091,1211.9136 181.909091,1212.3 C181.909091,1212.6864 182.234909,1213 182.636364,1213 L191.363636,1213 C191.763636,1213 192.090909,1212.6864 192.090909,1212.3 C192.090909,1211.9136 191.763636,1211.6 191.363636,1211.6 Z M180.454545,1199.9632 C180.454545,1196.3386 183.385455,1193.4 187,1193.4 C190.614545,1193.4 193.545455,1196.3386 193.545455,1199.9632 C193.545455,1203.5878 187,1210.9 187,1210.9 C187,1210.9 180.454545,1203.5864 180.454545,1199.9632 Z M187,1196.2014 C184.991273,1196.2014 183.363636,1197.768 183.363636,1199.7 C183.363636,1201.6334 184.991273,1203.2014 187,1203.2014 C189.008727,1203.2014 190.636364,1201.6334 190.636364,1199.7 C190.636364,1197.768 189.008727,1196.2014 187,1196.2014 Z M187,1201.8014 C185.794182,1201.8014 184.818182,1200.8606 184.818182,1199.7 C184.818182,1198.5408 185.794182,1197.6014 187,1197.6014 C188.204364,1197.6014 189.181818,1198.5408 189.181818,1199.7 C189.181818,1200.8606 188.204364,1201.8014 187,1201.8014 Z" id="Shape-Copy"></path>
        </g>
    </g>
</svg>