<?xml version="1.0" encoding="UTF-8" standalone="no"?>
<svg width="16px" height="17px" viewBox="0 0 16 17" version="1.1" xmlns="http://www.w3.org/2000/svg" xmlns:xlink="http://www.w3.org/1999/xlink">
    <!-- Generator: sketchtool 46.2 (44496) - http://www.bohemiancoding.com/sketch -->
    <title>21D74304-0B04-4E8D-BBDE-57FE01B504EA</title>
    <desc>Created with sketchtool.</desc>
    <defs></defs>
    <g id="M:-Public-Portal" stroke="none" stroke-width="1" fill="none" fill-rule="evenodd">
        <g id="Public-/-My-Applications-Step-1" transform="translate(-411.000000, -1120.000000)" fill-rule="nonzero" fill="#0086DB">
            <path d="M424.865399,1131.68783 L421.665692,1131.68783 L421.665692,1134.87513 L424.865399,1134.87513 L424.865399,1131.68783 Z M423.79883,1133.8127 L422.732261,1133.8127 L422.732261,1132.75027 L423.79883,1132.75027 L423.79883,1133.8127 Z M424.865399,1127.4381 L421.665692,1127.4381 L421.665692,1130.6254 L424.865399,1130.6254 L424.865399,1127.4381 Z M423.79883,1129.56296 L422.732261,1129.56296 L422.732261,1128.50053 L423.79883,1128.50053 L423.79883,1129.56296 Z M426.465253,1121.0635 L422.732261,1121.0635 L422.732261,1120 L421.665692,1120 L421.665692,1121.0635 L416.332846,1121.0635 L416.332846,1120 L415.266277,1120 L415.266277,1121.0635 L412.066569,1121.0635 C411.477823,1121.0635 411,1121.5384 411,1122.12593 L411,1124.2508 L411,1125.31323 L411,1135.93757 C411,1136.52509 411.477823,1137 412.066569,1137 L425.931968,1137 C426.521781,1137 426.998537,1136.52509 426.998537,1135.93757 L426.998537,1125.31323 L426.998537,1124.2508 L426.998537,1122.12593 C426.998537,1121.5384 427.055066,1121.0635 426.465253,1121.0635 Z M425.931968,1135.40635 C425.931968,1135.69958 425.69199,1135.93757 425.398684,1135.93757 L412.599854,1135.93757 C412.305481,1135.93757 412.066569,1135.69958 412.066569,1135.40635 L412.066569,1125.31323 L425.931968,1125.31323 L425.931968,1135.40635 Z M425.931968,1124.2508 L412.066569,1124.2508 L412.066569,1122.65715 C412.066569,1122.36391 412.305481,1122.12593 412.599854,1122.12593 L415.266277,1122.12593 L415.266277,1123.18836 L416.332846,1123.18836 L416.332846,1122.12593 L421.665692,1122.12593 L421.665692,1123.18836 L422.732261,1123.18836 L422.732261,1122.12593 L425.398684,1122.12593 C425.69199,1122.12593 425.931968,1122.36391 425.931968,1122.65715 L425.931968,1124.2508 Z M416.332846,1131.68783 L413.133138,1131.68783 L413.133138,1134.87513 L416.332846,1134.87513 L416.332846,1131.68783 Z M415.266277,1133.8127 L414.199707,1133.8127 L414.199707,1132.75027 L415.266277,1132.75027 L415.266277,1133.8127 Z M420.599122,1131.68783 L417.399415,1131.68783 L417.399415,1134.87513 L420.599122,1134.87513 L420.599122,1131.68783 Z M419.532553,1133.8127 L418.465984,1133.8127 L418.465984,1132.75027 L419.532553,1132.75027 L419.532553,1133.8127 Z M416.332846,1127.4381 L413.133138,1127.4381 L413.133138,1130.6254 L416.332846,1130.6254 L416.332846,1127.4381 Z M415.266277,1129.56296 L414.199707,1129.56296 L414.199707,1128.50053 L415.266277,1128.50053 L415.266277,1129.56296 Z M420.599122,1127.4381 L417.399415,1127.4381 L417.399415,1130.6254 L420.599122,1130.6254 L420.599122,1127.4381 Z M419.532553,1129.56296 L418.465984,1129.56296 L418.465984,1128.50053 L419.532553,1128.50053 L419.532553,1129.56296 Z" id="Shape"></path>
        </g>
    </g>
</svg>