<?xml version="1.0" encoding="UTF-8" standalone="no"?>
<svg width="40px" height="50px" viewBox="0 0 40 50" version="1.1" xmlns="http://www.w3.org/2000/svg" xmlns:xlink="http://www.w3.org/1999/xlink">
    <!-- Generator: sketchtool 46.2 (44496) - http://www.bohemiancoding.com/sketch -->
    <title>896AE034-CAB0-40FB-B7BA-EAC1E95984AC</title>
    <desc>Created with sketchtool.</desc>
    <defs></defs>
    <g id="M:-Public-Portal" stroke="none" stroke-width="1" fill="none" fill-rule="evenodd">
        <g id="Public-/-My-Applications-Step-1" transform="translate(-178.000000, -2358.000000)" fill-rule="nonzero" fill="#1589EE">
            <g id="Group-50" transform="translate(148.000000, 1627.000000)">
                <g id="Group-49" transform="translate(0.000000, 701.000000)">
                    <g id="Group-48">
                        <g id="Group-15" transform="translate(30.000000, 30.000000)">
                            <g id="Group-37-Copy">
                                <g id="noun_1120946_cc">
                                    <path d="M31.6811125,2.38790448 C31.159158,1.8399264 30.4143252,1.27194912 29.4656634,0.805967761 C28.5208115,0.347986081 27.3664158,0 26.0786742,0 L6.72064006,0 C3.00981046,0 0,3.16587337 0,7.07571697 L0,42.9222831 C0,46.8321267 3.00981046,50 6.72064006,50 L33.277455,50 C36.9920945,50 40,46.8321267 40,42.9222831 L40,14.6314147 C39.9980951,13.2714691 39.6571102,12.0555178 39.2170683,11.0575577 C38.7655967,10.0595976 38.2226879,9.27762889 37.7045433,8.72965081 L31.6811125,2.38790448 M30.3852659,4.54995264 L36.4747322,10.8410536 C36.7462739,11.1169095 37.1564751,11.6765595 37.4646075,12.3632222 C37.7804432,13.0538541 38.0019134,13.8695142 37.9999875,14.7149429 L37.9999875,42.7867485 C37.9961359,45.1166389 36.1781548,46.9960309 33.9249367,47 L7.07697665,47 C4.82375857,46.9960309 3.00385165,45.1166389 3,42.7867485 L3,7.21325154 C3.00385165,4.8873303 4.82375857,3.00595372 7.07697665,3 L26.6433832,3 C27.471489,3 28.2610783,3.22425691 28.9254887,3.54178882 C29.5841217,3.85733616 30.1214276,4.27608137 30.3852659,4.54995264" id="Shape"></path>
                                </g>
                            </g>
                            <g id="noun_858313_cc-copy" transform="translate(12.000000, 11.000000)">
                                <path d="M8.49420574,24 C7.11873774,24 6,25.124532 6,26.5066857 C6,27.881708 7.11873774,29 8.49420574,29 C9.87635942,29 11,27.881708 11,26.5066857 C11,25.1249777 9.87635942,24 8.49420574,24 Z M8.49591436,27 C8.2225015,27 8,26.7777428 8,26.5045583 C8,26.2263439 8.2225015,26 8.49591436,26 C8.77404123,26 8.99999967,26.2266583 8.99999967,26.5045583 C9.00031394,26.7777428 8.77404123,27 8.49591436,27 Z" id="Shape"></path>
                                <path d="M8.49438602,0 C3.81059798,0 0,3.66157892 0,8.1630914 C0,8.98849325 0.696133719,9.65778287 1.55507291,9.65778287 C2.4131484,9.65778287 3.10971397,8.98890844 3.10971397,8.1630914 C3.10971397,5.31030665 5.52588528,2.98938295 8.49481786,2.98938295 C11.4702281,2.98938295 13.8907179,5.31030665 13.8907179,8.1630914 C13.8907179,11.02418 11.4702281,13.3513316 8.49481786,13.3513316 C7.63631052,13.3513316 6.9401768,14.0206212 6.9401768,14.8464382 L6.9401768,19.5053085 C6.9401768,20.3307104 7.63587868,21 8.49481786,21 C9.35375705,21 10.0498908,20.3311256 10.0498908,19.5053085 L10.0498908,16.1970581 C13.9986791,15.4920619 17,12.1605607 17,8.16267621 C16.9991363,3.66157892 13.1846517,0 8.49438602,0 Z" id="Shape"></path>
                            </g>
                        </g>
                    </g>
                </g>
            </g>
        </g>
    </g>
</svg>