<?xml version="1.0" encoding="UTF-8" standalone="no"?>
<svg width="18px" height="18px" viewBox="0 0 18 18" version="1.1" xmlns="http://www.w3.org/2000/svg" xmlns:xlink="http://www.w3.org/1999/xlink">
    <!-- Generator: sketchtool 46.2 (44496) - http://www.bohemiancoding.com/sketch -->
    <title>CDAF4215-3A55-4D3E-A7B8-C790C0FBC4D9</title>
    <desc>Created with sketchtool.</desc>
    <defs></defs>
    <g id="M:-Public-Portal" stroke="none" stroke-width="1" fill="none" fill-rule="evenodd">
        <g id="Public-/-My-Applications-Step-1" transform="translate(-179.000000, -1356.000000)" fill-rule="nonzero" fill="#0086DB">
            <path d="M194.360225,1356.29715 C193.647654,1355.80059 192.867542,1355.98187 192.548968,1356.43339 C192.355347,1356.70812 190.350469,1359.71446 190.126454,1360.08265 C190.027392,1360.24479 189.978987,1360.43959 189.978987,1360.6524 C189.978987,1360.92713 190.057786,1361.23227 190.21651,1361.5284 C190.36848,1361.81777 190.869418,1362.69378 191.113696,1363.1239 C190.84803,1363.5011 190.165853,1364.38836 188.764353,1365.78682 C187.371857,1367.17626 186.474672,1367.8631 186.093058,1368.12996 C185.663039,1367.88562 184.784991,1367.38682 184.495685,1367.23481 C183.949718,1366.94769 183.403752,1366.91616 183.036773,1367.14924 C182.690056,1367.36768 179.697936,1369.35952 179.413133,1369.56444 C179.145216,1369.75811 179,1370.10491 179,1370.48211 C179,1370.77936 179.090056,1371.09351 179.2803,1371.36712 C179.299437,1371.39302 181.183865,1374.03567 182.276923,1373.99963 C185.345591,1373.9028 188.951219,1370.92912 191.435647,1368.45198 C193.920075,1365.97485 196.900938,1362.37851 197,1359.30574 L197,1359.28096 C197.001125,1358.20566 194.38499,1356.31516 194.360225,1356.29715 Z M190.6409,1367.65818 C187.359475,1370.92799 184.401126,1372.77908 182.29606,1372.87592 C181.897561,1372.73405 180.877674,1371.70378 180.169606,1370.72644 C180.118949,1370.65551 180.090807,1370.5643 180.090807,1370.48211 C180.090807,1370.46297 180.091932,1370.44833 180.094184,1370.43594 C180.554597,1370.12067 183.126829,1368.42496 183.60863,1368.11645 C183.659287,1368.11532 183.787617,1368.13334 183.971107,1368.22904 C184.166979,1368.33263 184.736585,1368.65128 185.534709,1369.10392 L186.154972,1369.45747 L186.740338,1369.04875 C187.175985,1368.74361 188.121576,1368.01623 189.559099,1366.58175 C191.005628,1365.14051 191.731707,1364.20032 192.034521,1363.76795 L192.445403,1363.18357 L192.091932,1362.56542 C191.748593,1361.96528 191.335459,1361.24015 191.212758,1361.00482 C191.111444,1360.81566 191.10469,1360.68617 191.10469,1360.65127 C191.10469,1360.64564 191.10469,1360.64114 191.10469,1360.63776 C191.374859,1360.20651 193.120825,1357.58526 193.439399,1357.12361 C193.483302,1357.11798 193.582364,1357.12361 193.702814,1357.20918 C194.692307,1357.92192 195.725703,1358.93191 195.87317,1359.32826 C195.774108,1361.43382 193.918949,1364.38836 190.6409,1367.65818 Z" id="Shape"></path>
        </g>
    </g>
</svg>