<?xml version="1.0" encoding="UTF-8" standalone="no"?>
<svg width="99px" height="106px" viewBox="0 0 99 106" version="1.1" xmlns="http://www.w3.org/2000/svg" xmlns:xlink="http://www.w3.org/1999/xlink">
    <!-- Generator: sketchtool 46.2 (44496) - http://www.bohemiancoding.com/sketch -->
    <title>886CBF38-4892-4298-9D60-E017A9D97866</title>
    <desc>Created with sketchtool.</desc>
    <defs></defs>
    <g id="M:-Public-Portal" stroke="none" stroke-width="1" fill="none" fill-rule="evenodd">
        <g id="Public-/-My-Applications-Step-4" transform="translate(-171.000000, -575.000000)" fill-rule="nonzero" fill="#000000">
            <g id="Group-23" transform="translate(171.000000, 575.000000)">
                <path d="M97.2631579,85.147541 L90.3157895,85.147541 C90.3123158,82.273377 87.9745263,79.9361639 85.1052632,79.9344262 L85.1052632,76.2713443 C85.1052632,72.669082 86.2793684,69.6211475 88.6901053,66.9468197 C90.8594211,64.5487869 92.0526316,61.4469836 92.0526316,58.2131148 C92.0526316,51.3196393 86.6718947,45.6738361 79.8947368,45.2237705 L79.8947368,21.7334754 L58.0313684,0 L0,0 L0,106 L79.8947368,106 L79.8947368,99.0491803 L93.1659474,99.0491803 C96.3808421,99.0491803 99,95.9265246 99,92.0914098 L99,86.8852459 C99,85.9242951 98.2236316,85.147541 97.2631579,85.147541 Z M88.5789474,58.2131148 C88.5789474,60.5833443 87.7035789,62.858 86.1161053,64.6182951 C83.1374211,67.9095082 81.6315789,71.8315082 81.6315789,76.2713443 L81.6315789,83.4098361 L85.0983158,83.4098361 C86.0587895,83.4098361 86.8386316,84.1865902 86.8421053,85.147541 L71.2105263,85.147541 C71.2105263,84.1865902 71.9903684,83.4098361 72.9508421,83.4098361 L76.4210526,83.4098361 L76.4210526,76.273082 C76.4210526,71.8332459 74.9117368,67.9112459 71.9365263,64.6165574 C70.3490526,62.8597377 69.4736842,60.5833443 69.4736842,58.2131148 C69.4736842,52.9426557 73.7584737,48.6557377 79.0263158,48.6557377 C84.2906842,48.6557377 88.5789474,52.9426557 88.5789474,58.2131148 Z M73.9616842,20.852459 L59.0526316,20.852459 L59.0526316,5.93252459 L73.9616842,20.852459 Z M76.4210526,102.52459 L3.47368421,102.52459 L3.47368421,3.47540984 L55.5789474,3.47540984 L55.5789474,22.5901639 C55.5789474,23.549377 56.3553158,24.3278689 57.3157895,24.3278689 L76.4210526,24.3278689 L76.4210526,45.4409836 C70.4810526,46.6521639 66,51.9174098 66,58.2131148 C66,61.4469836 67.1914737,64.5487869 69.3590526,66.945082 C71.7732632,69.6194098 72.9473684,72.6708197 72.9473684,76.273082 L72.9473684,79.9344262 C70.0746316,79.9361639 67.7368421,82.273377 67.7368421,85.147541 L59.0526316,85.147541 C58.0921579,85.147541 57.3157895,85.9242951 57.3157895,86.8852459 L57.3157895,92.0914098 C57.3157895,95.9265246 59.9314737,99.0491803 63.1498421,99.0491803 L76.4210526,99.0491803 L76.4210526,102.52459 Z M95.5263158,92.0914098 C95.5263158,93.945541 94.4234211,95.5737705 93.1659474,95.5737705 L63.1498421,95.5737705 C61.8923684,95.5737705 60.7894737,93.945541 60.7894737,92.0914098 L60.7894737,88.6229508 L67.7368421,88.6229508 L90.3157895,88.6229508 L95.5263158,88.6229508 L95.5263158,92.0914098 Z" id="Shape"></path>
                <rect id="Rectangle-path" x="12" y="76" width="26" height="5"></rect>
                <rect id="Rectangle-path" x="12" y="41" width="55" height="5"></rect>
                <rect id="Rectangle-path-Copy" x="12" y="30" width="55" height="5"></rect>
                <path d="M12,52 L57,52 L57,57 C40.6529498,57 29.5128574,57 23.5797229,57 C17.6465884,57 13.7866808,57 12,57 L12,52 Z" id="Rectangle-path"></path>
            </g>
        </g>
    </g>
</svg>