<?xml version="1.0" encoding="UTF-8" standalone="no"?>
<svg width="46px" height="46px" viewBox="0 0 46 46" version="1.1" xmlns="http://www.w3.org/2000/svg" xmlns:xlink="http://www.w3.org/1999/xlink">
    <!-- Generator: sketchtool 46.2 (44496) - http://www.bohemiancoding.com/sketch -->
    <title>1BB07176-6AF4-4D11-AD27-10C8F20C0F3E</title>
    <desc>Created with sketchtool.</desc>
    <defs></defs>
    <g id="M:-Public-Portal" stroke="none" stroke-width="1" fill="none" fill-rule="evenodd">
        <g id="Public-/-My-Applications-Step-1-4-(request-for-reply-sent)" transform="translate(-929.000000, -654.000000)" fill-rule="nonzero" fill="#3B435B">
            <g id="noun_1061038_cc" transform="translate(929.000000, 654.000000)">
                <path d="M30.6433262,30.7463998 C30.0667993,31.3234442 29.1319874,31.3234442 28.5554605,30.747422 L21.9535116,24.044711 C21.6749592,23.7656443 21.5211164,23.3945776 21.5211164,22.9999998 L21.5211164,10.1685555 C21.5211164,9.35282216 22.1819758,8.6919555 22.9971889,8.6919555 C23.8129132,8.6919555 24.4737725,9.35282216 24.4737725,10.1685555 L24.4737725,22.388711 L30.6428151,28.6595331 C31.219342,29.2350443 31.219342,30.1703776 30.6433262,30.7463998 Z M37.1752536,37.1751553 C33.541294,40.8065997 28.5401273,43.0467997 22.9971889,43.0478219 C17.4583394,43.0467997 12.4561505,40.8065997 8.82423529,37.1761775 C5.1938534,33.5447331 2.95265608,28.5424887 2.95214498,22.9999998 C2.95265608,17.4605777 5.1938534,12.4583333 8.82372418,8.82484439 C12.4556394,5.19442219 17.4583394,2.95319998 22.9966778,2.95217776 C23.8124021,2.95217776 24.4732614,2.2913111 24.4732614,1.47659999 C24.4737725,0.660866662 23.8129132,0 22.9971889,0 C10.2972411,0.00153333332 0.00204442173,10.2988888 0,22.9999998 C0.00102221086,35.7057109 10.29673,45.9989775 22.9971889,45.9999997 C29.3461406,46.0010219 35.1042544,43.4234886 39.2620971,39.2625331 C39.8391351,38.6854886 39.8391351,37.7511775 39.2620971,37.1751553 C38.6855702,36.5981109 37.7517805,36.5981109 37.1752536,37.1751553 Z M43.7818024,28.8138887 C44.550505,29.0873331 44.9517228,29.9311776 44.6787925,30.6993776 C44.4257953,31.4103331 44.1395762,32.1049331 43.8201353,32.7816442 C43.4730947,33.5191776 42.5945045,33.8355553 41.8559572,33.4895331 C41.1189431,33.1419776 40.8020578,32.2628665 41.1496094,31.5237998 C41.4271397,30.9349998 41.6765591,30.3298442 41.8963345,29.7098665 C42.1697759,28.9426887 43.013611,28.5414665 43.7818024,28.8138887 Z M44.4237508,20.4393332 C45.2374307,20.3984443 45.9304897,21.0260887 45.970867,21.8397776 C45.990289,22.2246443 46,22.6110443 46,22.9999998 C46,23.3659554 45.9908001,23.7288443 45.9744447,24.0901998 C45.9361118,24.9049109 45.2450973,25.5335776 44.4303952,25.4957554 C43.6167154,25.4579332 42.9870335,24.7669109 43.0248553,23.9521998 C43.0401884,23.6368443 43.0473439,23.3194443 43.0473439,22.9999998 C43.0473439,22.660111 43.0386551,22.3222665 43.0222998,21.9869776 C42.9824335,21.1727776 43.6090488,20.479711 44.4237508,20.4393332 Z M41.826313,12.4562888 C42.5623049,12.1066888 43.4424284,12.4215333 43.7925356,13.1570221 C44.1124876,13.832711 44.40024,14.5267999 44.6557927,15.2362221 C44.9307674,16.0028888 44.5315941,16.8482666 43.7639137,17.1237554 C42.9972556,17.3992443 42.1518872,17.0000666 41.8769125,16.2328888 C41.6550927,15.6144443 41.4036288,15.010311 41.1250764,14.4225332 C40.7749692,13.6860221 41.0898101,12.8058888 41.826313,12.4562888 Z M36.372307,6.07097774 C36.920212,5.46735552 37.8534905,5.42186663 38.4576171,5.97079996 C39.0131887,6.47526662 39.5437162,7.00631106 40.047155,7.56291106 C40.5945489,8.16704439 40.5485495,9.10033327 39.9449339,9.64824438 C39.3408073,10.1951333 38.4075288,10.1491333 37.8601349,9.54499994 C37.4205842,9.0599555 36.9575227,8.59637772 36.4724836,8.15579995 C35.8693792,7.60839995 35.8238908,6.67459996 36.372307,6.07097774 Z M28.8979011,2.24173332 C29.1738981,1.47455555 30.0192665,1.07742222 30.7869468,1.3529111 C31.4968723,1.60897777 32.1904423,1.89775554 32.8656126,2.22026665 C33.6021155,2.56986665 33.9154232,3.44999998 33.5648048,4.18702219 C33.2141865,4.92251108 32.334063,5.23582219 31.5980711,4.88571108 C31.0092777,4.60562219 30.4041288,4.35364442 29.7856913,4.13079997 C29.0195442,3.85428886 28.6219042,3.00891109 28.8979011,2.24173332 Z" id="Shape"></path>
            </g>
        </g>
    </g>
</svg>