<?xml version="1.0" encoding="UTF-8" standalone="no"?>
<svg width="40px" height="42px" viewBox="0 0 40 42" version="1.1" xmlns="http://www.w3.org/2000/svg" xmlns:xlink="http://www.w3.org/1999/xlink">
    <!-- Generator: sketchtool 46.2 (44496) - http://www.bohemiancoding.com/sketch -->
    <title>72D1D6BF-9249-4D1C-BC13-9EA34F4FD353</title>
    <desc>Created with sketchtool.</desc>
    <defs></defs>
    <g id="M:-Public-Portal" stroke="none" stroke-width="1" fill="none" fill-rule="evenodd">
        <g id="Public-/-My-Applications-Step-3-2" transform="translate(-936.000000, -782.000000)" fill-rule="nonzero" fill="#3B435B">
            <g id="Group-29" transform="translate(936.000000, 780.000000)">
                <g id="13-time---calendar-date" transform="translate(0.000000, 2.000000)">
                    <path d="M34.6634978,28.7798873 L26.6642291,28.7798873 L26.6642291,36.628234 L34.6634978,36.628234 L34.6634978,28.7798873 Z M31.9970749,34.0121184 L29.330652,34.0121184 L29.330652,31.3960029 L31.9970749,31.3960029 L31.9970749,34.0121184 Z M34.6634978,18.3154251 L26.6642291,18.3154251 L26.6642291,26.1637717 L34.6634978,26.1637717 L34.6634978,18.3154251 Z M31.9970749,23.5476562 L29.330652,23.5476562 L29.330652,20.9315406 L31.9970749,20.9315406 L31.9970749,23.5476562 Z M38.6631322,2.61873168 L29.330652,2.61873168 L29.330652,0 L26.6642291,0 L26.6642291,2.61873168 L13.3321146,2.61873168 L13.3321146,0 L10.6656916,0 L10.6656916,2.61873168 L2.66642291,2.61873168 C1.19455746,2.61873168 0,3.78813533 0,5.23484724 L0,10.4670784 L0,13.0831939 L0,39.2443496 C0,40.6910615 1.19455746,41.8604651 2.66642291,41.8604651 L37.3299208,41.8604651 C38.8044526,41.8604651 39.9963437,40.6910615 39.9963437,39.2443496 L39.9963437,13.0831939 L39.9963437,10.4670784 L39.9963437,5.23484724 C39.9963437,3.78813533 40.1376641,2.61873168 38.6631322,2.61873168 Z M37.3299208,37.9362918 C37.3299208,38.6583397 36.7299756,39.2443496 35.9967093,39.2443496 L3.99963437,39.2443496 C3.26370164,39.2443496 2.66642291,38.6583397 2.66642291,37.9362918 L2.66642291,13.0831939 L37.3299208,13.0831939 L37.3299208,37.9362918 Z M37.3299208,10.4670784 L2.66642291,10.4670784 L2.66642291,6.54290502 C2.66642291,5.82085713 3.26370164,5.23484724 3.99963437,5.23484724 L10.6656916,5.23484724 L10.6656916,7.8509628 L13.3321146,7.8509628 L13.3321146,5.23484724 L26.6642291,5.23484724 L26.6642291,7.8509628 L29.330652,7.8509628 L29.330652,5.23484724 L35.9967093,5.23484724 C36.7299756,5.23484724 37.3299208,5.82085713 37.3299208,6.54290502 L37.3299208,10.4670784 Z M13.3321146,28.7798873 L5.33284582,28.7798873 L5.33284582,36.628234 L13.3321146,36.628234 L13.3321146,28.7798873 Z M10.6656916,34.0121184 L7.99926873,34.0121184 L7.99926873,31.3960029 L10.6656916,31.3960029 L10.6656916,34.0121184 Z M23.9978062,28.7798873 L15.9985375,28.7798873 L15.9985375,36.628234 L23.9978062,36.628234 L23.9978062,28.7798873 Z M21.3313833,34.0121184 L18.6649604,34.0121184 L18.6649604,31.3960029 L21.3313833,31.3960029 L21.3313833,34.0121184 Z M13.3321146,18.3154251 L5.33284582,18.3154251 L5.33284582,26.1637717 L13.3321146,26.1637717 L13.3321146,18.3154251 Z M10.6656916,23.5476562 L7.99926873,23.5476562 L7.99926873,20.9315406 L10.6656916,20.9315406 L10.6656916,23.5476562 Z M23.9978062,18.3154251 L15.9985375,18.3154251 L15.9985375,26.1637717 L23.9978062,26.1637717 L23.9978062,18.3154251 Z M21.3313833,23.5476562 L18.6649604,23.5476562 L18.6649604,20.9315406 L21.3313833,20.9315406 L21.3313833,23.5476562 Z" id="Shape"></path>
                </g>
            </g>
        </g>
    </g>
</svg>