<?xml version="1.0" encoding="UTF-8" standalone="no"?>
<svg width="111px" height="111px" viewBox="0 0 111 111" version="1.1" xmlns="http://www.w3.org/2000/svg" xmlns:xlink="http://www.w3.org/1999/xlink">
    <!-- Generator: sketchtool 46.2 (44496) - http://www.bohemiancoding.com/sketch -->
    <title>EA15CB52-FFA9-4EA9-86E6-72E643E34A6A</title>
    <desc>Created with sketchtool.</desc>
    <defs></defs>
    <g id="M:-Public-Portal" stroke="none" stroke-width="1" fill="none" fill-rule="evenodd">
        <g id="Public-/-My-Applications-Step-1" transform="translate(-155.000000, -645.000000)" fill-rule="nonzero" fill="#3B435B">
            <g id="noun_1147125_cc" transform="translate(155.000000, 645.000000)">
                <path d="M5.35714286,63 L19.6428571,63 C22.5964286,63 25,60.564381 25,57.5714286 L25,41.2857143 C25,40.2868571 24.2,39.4761905 23.2142857,39.4761905 L23.2142857,35.8571429 C23.2142857,29.8694286 18.4089286,25 12.5,25 C6.59107143,25 1.78571429,29.8694286 1.78571429,35.8571429 L1.78571429,39.4761905 C0.8,39.4761905 0,40.2868571 0,41.2857143 L0,57.5714286 C0,60.564381 2.40357143,63 5.35714286,63 Z M22,57.2222222 C22,58.2017778 21.1918,59 20.2,59 L5.8,59 C4.8082,59 4,58.2017778 4,57.2222222 L4,43 L22,43 L22,57.2222222 Z M5,36.3333333 C5,32.289 8.1395,29 12,29 C15.8605,29 19,32.289 19,36.3333333 L19,40 L5,40 L5,36.3333333 Z" id="Shape"></path>
                <polygon id="Shape" points="11 56 15 56 15 50.6 17 50.6 17 47 9 47 9 50.6 11 50.6"></polygon>
                <rect id="Rectangle-path" x="41" y="39" width="41" height="2"></rect>
                <rect id="Rectangle-path" x="41" y="50" width="33" height="2"></rect>
                <rect id="Rectangle-path" x="41" y="61" width="28" height="2"></rect>
                <path d="M103.74213,86.590918 L103.74213,67.3278689 C103.74213,66.6818852 103.399302,66.0813934 102.842435,65.7556721 L92.858725,59.9145246 L92.858725,1.81967213 C92.858725,0.815213115 92.0460975,0 91.0448243,0 L34.8139008,0 C33.8126275,0 33,0.815213115 33,1.81967213 L33,87.3442623 C33,88.3487213 33.8126275,89.1639344 34.8139008,89.1639344 L68.586919,89.1639344 L84.396878,103.262754 C84.4222726,103.28459 84.4531089,103.291869 84.4785035,103.311885 L84.469434,103.322803 L93.5389378,110.601492 C93.8726956,110.868984 94.2735676,111 94.6726258,111 C95.1387983,111 95.6049708,110.819852 95.9568675,110.466836 L110.468074,95.909459 C111.177309,95.1979672 111.177309,94.0479344 110.468074,93.3364426 L103.74213,86.590918 Z M37,4 L90,4 L90,58.2275111 L86.2808621,56.0645333 C82.9400345,54.1238667 78.6068276,55.2317778 76.6165862,58.5354667 C75.6187241,60.1955111 75.3445862,62.1398222 75.8471724,64.0094222 C76.3497586,65.8772 77.5614483,67.4260889 79.2574483,68.3645333 L90,74.3159111 L90,86 L69.8965517,86 L37,86 L37,4 Z M74,88.7365902 L90.9533751,88.7365902 C91.9521225,88.7365902 92.7627001,87.9245083 92.7627001,86.9239074 L92.7627001,72.4224453 C92.7627001,71.7644415 92.406263,71.1571928 91.832707,70.8381606 L80.2656924,64.3995114 C79.4496868,63.9463407 78.8688935,63.1995154 78.6282533,62.2967994 C78.3876131,61.3940834 78.5178845,60.4569264 78.9973556,59.6557206 C79.9526792,58.0587471 82.0352122,57.5240057 83.6382742,58.4629754 L90.0414753,62.2043526 C90.0414753,62.2043526 90.0414753,62.2043526 90.0414753,62.2043526 L100,68.0248769 L100,86.1100129 L85.5254001,99 L74,88.7365902 Z M94.0538117,107 L88,102.057075 L101.289686,90 L106,94.8074521 L94.0538117,107 Z" id="Shape"></path>
                <rect id="Rectangle-path" x="13" y="17" width="2" height="2"></rect>
                <rect id="Rectangle-path" x="13" y="13" width="2" height="2"></rect>
                <rect id="Rectangle-path" x="17" y="13" width="2" height="2"></rect>
                <rect id="Rectangle-path" x="9" y="66" width="2" height="2"></rect>
                <rect id="Rectangle-path" x="9" y="73" width="2" height="2"></rect>
                <rect id="Rectangle-path" x="16" y="73" width="2" height="2"></rect>
                <rect id="Rectangle-path" x="25" y="13" width="2" height="2"></rect>
                <rect id="Rectangle-path" x="23" y="73" width="2" height="2"></rect>
                <rect id="Rectangle-path" x="41" y="73" width="39" height="2"></rect>
                <path d="M105.253439,13.9748441 L107.520637,16.2375588 L110,13.7630975 L104.739682,8.51317948 C104.054087,7.82894017 102.945913,7.82894017 102.260318,8.51317948 L97,13.7630975 L99.4793634,16.2375588 L101.746561,13.9748441 L101.746561,36 L105.253439,36 L105.253439,13.9748441 Z" id="Shape"></path>
                <rect id="Rectangle-path" x="102" y="39" width="2" height="2"></rect>
                <rect id="Rectangle-path" x="102" y="47" width="2" height="2"></rect>
                <rect id="Rectangle-path" x="102" y="53" width="2" height="2"></rect>
            </g>
        </g>
    </g>
</svg>