<?xml version="1.0" encoding="UTF-8" standalone="no"?>
<svg width="46px" height="46px" viewBox="0 0 46 46" version="1.1" xmlns="http://www.w3.org/2000/svg" xmlns:xlink="http://www.w3.org/1999/xlink">
    <!-- Generator: sketchtool 46.2 (44496) - http://www.bohemiancoding.com/sketch -->
    <title>6B477A0A-9D8E-431B-8E27-DBE3D9AFB91A</title>
    <desc>Created with sketchtool.</desc>
    <defs></defs>
    <g id="M:-Public-Portal" stroke="none" stroke-width="1" fill="none" fill-rule="evenodd">
        <g id="Public-/-My-Applications-Step-4" transform="translate(-929.000000, -687.000000)" fill-rule="nonzero" fill="#3B435B">
            <g id="reviews" transform="translate(929.000000, 687.000000)">
                <path d="M23.23,45.1588571 C10.7597259,45.1588571 0.650571429,35.0497026 0.650571429,22.5794286 C0.650571429,10.1091545 10.7597259,2.33464042e-15 23.23,0 C35.7002741,-2.33464042e-15 45.8094286,10.1091545 45.8094286,22.5794286 C45.7985588,35.0451975 35.6957689,45.1479874 23.23,45.1588571 Z M23.23,2.63514286 C15.1600336,2.63514329 7.88481175,7.49672492 4.79718357,14.9526561 C1.70955539,22.4085873 3.41767082,30.990322 9.12493863,36.6957099 C14.8322064,42.4010979 23.4145034,44.1063861 30.869417,41.0163018 C38.3243306,37.9262176 43.1835152,30.6493945 43.1808571,22.5794286 C43.1699898,11.565379 34.2440496,2.63943878 23.23,2.62857143 L23.23,2.63514286 Z M35.0585714,15.3245714 C35.0585714,14.5987115 34.4701457,14.0102857 33.7442857,14.0102857 L12.7157143,14.0102857 C11.9898543,14.0102857 11.4014286,14.5987115 11.4014286,15.3245714 C11.4014286,16.0504314 11.9898543,16.6388571 12.7157143,16.6388571 L33.7442857,16.6388571 C34.4701457,16.6388571 35.0585714,16.0504314 35.0585714,15.3245714 Z M35.0585714,22.4151429 C35.0585714,21.6892829 34.4701457,21.1008571 33.7442857,21.1008571 L12.7157143,21.1008571 C11.9898543,21.1008571 11.4014286,21.6892829 11.4014286,22.4151429 C11.4014286,23.1410028 11.9898543,23.7294286 12.7157143,23.7294286 L33.7442857,23.7294286 C34.4701457,23.7294286 35.0585714,23.1410028 35.0585714,22.4151429 Z M24.1302857,29.5057143 C24.1302857,28.7798543 23.54186,28.1914286 22.816,28.1914286 L12.7157143,28.1914286 C11.9898543,28.1914286 11.4014286,28.7798543 11.4014286,29.5057143 C11.4014286,30.2315742 11.9898543,30.82 12.7157143,30.82 L22.816,30.82 C23.54186,30.82 24.1302857,30.2315742 24.1302857,29.5057143 Z" id="Shape"></path>
            </g>
        </g>
    </g>
</svg>