<?xml version="1.0" encoding="UTF-8"?>
<svg width="275px" height="258px" viewBox="0 0 275 258" version="1.1" xmlns="http://www.w3.org/2000/svg" xmlns:xlink="http://www.w3.org/1999/xlink">
    <!-- Generator: sketchtool 49 (51002) - http://www.bohemiancoding.com/sketch -->
    <title>2CE3B9A5-4D58-420D-B2E7-A177526380D4</title>
    <desc>Created with sketchtool.</desc>
    <defs></defs>
    <g id="M:-Public-portal" stroke="none" stroke-width="1" fill="none" fill-rule="evenodd">
        <g id="Public-/-My-Actions" transform="translate(-291.000000, -712.000000)" fill="#FFFFFF" fill-rule="nonzero" stroke="#FFFFFF">
            <g id="noun_1268626_cc" transform="translate(294.000000, 715.000000)">
                <polygon id="Shape" stroke-width="4" points="71.3103627 129.430418 67 133.022433 108.941969 168 185 104.61749 180.689637 101 108.941969 160.790494"></polygon>
                <path d="M0,252 L269,252 L269,30.5704918 L201.75,30.5704918 L201.75,0 L195.345238,0 L195.345238,30.5704918 L73.6547619,30.5704918 L73.6547619,0 L67.25,0 L67.25,30.5704918 L0,30.5704918 L0,252 Z M6.4047619,37.1803279 L67.25,37.1803279 L67.25,60.3147541 L73.6547619,60.3147541 L73.6547619,37.1803279 L195.345238,37.1803279 L195.345238,60.3147541 L201.75,60.3147541 L201.75,37.1803279 L262.595238,37.1803279 L262.595238,245.390164 L6.4047619,245.390164 L6.4047619,37.1803279 Z" id="Shape" stroke-width="4.5"></path>
            </g>
        </g>
    </g>
</svg>