<?xml version="1.0" encoding="UTF-8"?>
<svg width="25px" height="30px" viewBox="0 0 25 30" version="1.1" xmlns="http://www.w3.org/2000/svg" xmlns:xlink="http://www.w3.org/1999/xlink">
    <!-- Generator: sketchtool 48 (47235) - http://www.bohemiancoding.com/sketch -->
    <title>A82BD814-F6D9-4E41-9D39-E5279B344496</title>
    <desc>Created with sketchtool.</desc>
    <defs></defs>
    <g id="Workers-/-Merit-Form-/-Step-5.3" stroke="none" stroke-width="1" fill="none" fill-rule="evenodd" transform="translate(-450.000000, -321.000000)">
        <g id="Group-5" transform="translate(425.000000, 291.000000)" fill="#3B435B" fill-rule="nonzero">
            <g id="Group-37-Copy" transform="translate(25.000000, 30.000000)">
                <g id="noun_1120946_cc">
                    <path d="M19.8006953,1.40825136 C19.4744738,1.0850848 19.0089532,0.750123841 18.4160396,0.475314321 C17.8255072,0.20522256 17.1040099,0 16.2991713,0 L4.20040004,0 C1.88113154,0 0,1.86705352 0,4.17285873 L0,25.3131413 C0,27.6189465 1.88113154,29.4871795 4.20040004,29.4871795 L20.7984094,29.4871795 C23.1200591,29.4871795 25,27.6189465 25,25.3131413 L25,8.62878305 C24.9988094,7.82676385 24.7856939,7.10966433 24.5106677,6.52112377 C24.228498,5.93258321 23.8891799,5.47142217 23.5653396,5.14825561 L19.8006953,1.40825136 M18.6136775,2.5888708 L22.3783217,6.32769561 C22.5461949,6.49163777 22.7997905,6.82423985 22.9902848,7.23232609 C23.1855415,7.64277121 23.3224593,8.12752105 23.3212687,8.62996249 L23.3212687,25.3131413 C23.3188875,26.6978039 22.1949709,27.8147336 20.8019811,27.8170924 L4.20397181,27.8170924 C2.810982,27.8147336 1.68587485,26.6978039 1.68349367,25.3131413 L1.68349367,4.17167929 C1.68587485,2.7893756 2.810982,1.67126648 4.20397181,1.66772816 L16.3003619,1.66772816 C16.8123155,1.66772816 17.3004572,1.80100488 17.7112106,1.98971528 C18.1183922,2.17724624 18.4505667,2.42610808 18.6136775,2.5888708 M6.21487761,17.8602599 C5.74102295,17.8602599 5.35765311,17.485198 5.35765311,17.0193192 C5.35765311,16.5546199 5.73983236,16.1783785 6.21487761,16.1783785 L18.7886942,16.1783785 C19.2613582,16.1783785 19.6471092,16.5546199 19.6471092,17.0193192 C19.6471092,17.485198 19.2637394,17.8602599 18.7886942,17.8602599 L6.21487761,17.8602599 M6.21487761,23.5062392 C5.74102295,23.5062392 5.35765311,23.1311773 5.35765311,22.666478 C5.35765311,22.2005992 5.73983236,21.8255372 6.21487761,21.8255372 L18.7886942,21.8255372 C19.2613582,21.8255372 19.6471092,22.2005992 19.6471092,22.666478 C19.6471092,23.1311773 19.2637394,23.5062392 18.7886942,23.5062392 L6.21487761,23.5062392 M6.21487761,12.2119218 C5.74102295,12.2119218 5.35765311,11.8356804 5.35765311,11.3721605 C5.35765311,10.9086406 5.73983236,10.5323992 6.21487761,10.5323992 L18.7886942,10.5323992 C19.2613582,10.5323992 19.6471092,10.9086406 19.6471092,11.3721605 C19.6471092,11.8368599 19.2637394,12.2119218 18.7886942,12.2119218 L6.21487761,12.2119218" id="Shape"></path>
                </g>
            </g>
        </g>
    </g>
</svg>