<?xml version="1.0" encoding="UTF-8"?>
<svg width="14px" height="18px" viewBox="0 0 14 18" version="1.1" xmlns="http://www.w3.org/2000/svg" xmlns:xlink="http://www.w3.org/1999/xlink">
    <!-- Generator: sketchtool 48.2 (47327) - http://www.bohemiancoding.com/sketch -->
    <title>1963F2B5-60B6-4353-9CC8-7F124B5B4621</title>
    <desc>Created with sketchtool.</desc>
    <defs></defs>
    <g id="Public-/-Review-Pop-up-1" stroke="none" stroke-width="1" fill="none" fill-rule="evenodd" transform="translate(-345.000000, -171.000000)">
        <g id="Group-3" transform="translate(345.000000, 148.000000)" fill="#FFFFFF" fill-rule="nonzero">
            <g id="Group-37" transform="translate(0.000000, 23.000000)">
                <g id="noun_1120946_cc">
                    <path d="M11.0883894,0.846910124 C10.9057053,0.652560564 10.6450138,0.451117955 10.3129822,0.285849899 C9.98228403,0.123419063 9.57824555,0 9.12753596,0 L2.35222402,0 C1.05343366,0 0,1.12282975 0,2.50952095 L0,15.2231031 C0,16.6097943 1.05343366,17.7333333 2.35222402,17.7333333 L11.6471092,17.7333333 C12.9472331,17.7333333 14,16.6097943 14,15.2231031 L14,5.1892751 C13.9993333,4.70694772 13.8799886,4.27569031 13.7259739,3.92174713 C13.5679589,3.56780395 13.3779408,3.29046571 13.1965902,3.09611616 L11.0883894,0.846910124 M10.4236594,1.55692439 L12.5318602,3.80542112 C12.6258691,3.90401451 12.7678827,4.10403851 12.8745595,4.34945802 C12.9839032,4.59629615 13.0605772,4.88782049 13.0599105,5.1899844 L13.0599105,15.2231031 C13.058577,16.0558271 12.4291837,16.7275389 11.6491094,16.7289575 L2.35422421,16.7289575 C1.57414992,16.7275389 0.944089913,16.0558271 0.942756453,15.2231031 L0.942756453,2.50881165 C0.944089913,1.67750623 1.57414992,1.00508513 2.35422421,1.00295722 L9.12820269,1.00295722 C9.41489666,1.00295722 9.68825602,1.08310868 9.91827793,1.19659747 C10.1462996,1.30937696 10.3323174,1.45904031 10.4236594,1.55692439 M3.48033146,10.741005 C3.21497285,10.741005 3.00028574,10.515446 3.00028574,10.2352706 C3.00028574,9.95580443 3.21430612,9.72953615 3.48033146,9.72953615 L10.5216687,9.72953615 C10.7863606,9.72953615 11.0023812,9.95580443 11.0023812,10.2352706 C11.0023812,10.515446 10.7876941,10.741005 10.5216687,10.741005 L3.48033146,10.741005 M3.48033146,14.1364479 C3.21497285,14.1364479 3.00028574,13.9108889 3.00028574,13.6314227 C3.00028574,13.3512473 3.21430612,13.1256883 3.48033146,13.1256883 L10.5216687,13.1256883 C10.7863606,13.1256883 11.0023812,13.3512473 11.0023812,13.6314227 C11.0023812,13.9108889 10.7876941,14.1364479 10.5216687,14.1364479 L3.48033146,14.1364479 M3.48033146,7.34414357 C3.21497285,7.34414357 3.00028574,7.11787528 3.00028574,6.83911844 C3.00028574,6.56036159 3.21430612,6.3340933 3.48033146,6.3340933 L10.5216687,6.3340933 C10.7863606,6.3340933 11.0023812,6.56036159 11.0023812,6.83911844 C11.0023812,7.11858459 10.7876941,7.34414357 10.5216687,7.34414357 L3.48033146,7.34414357" id="Shape"></path>
                </g>
            </g>
        </g>
    </g>
</svg>