<?xml version="1.0" encoding="UTF-8"?>
<svg width="101px" height="101px" viewBox="0 0 101 101" version="1.1" xmlns="http://www.w3.org/2000/svg" xmlns:xlink="http://www.w3.org/1999/xlink">
    <!-- Generator: sketchtool 48.2 (47327) - http://www.bohemiancoding.com/sketch -->
    <title>92AC81D1-E003-4A31-B697-99DB3E7D0832</title>
    <desc>Created with sketchtool.</desc>
    <defs></defs>
    <g id="4-Registration---Confirmation" stroke="none" stroke-width="1" fill="none" fill-rule="evenodd" transform="translate(-958.000000, -154.000000)">
        <g id="Page-1" transform="translate(960.000000, 156.000000)" fill="#C9C9C9" stroke="#FAFAFA">
            <path d="M48.5,8.81818182 C26.6220909,8.81818182 8.81818182,26.6220909 8.81818182,48.5 C8.81818182,70.3779091 26.6220909,88.1818182 48.5,88.1818182 C70.3779091,88.1818182 88.1818182,70.3779091 88.1818182,48.5 C88.1818182,26.6220909 70.3779091,8.81818182 48.5,8.81818182 M48.5,97 C21.7632727,97 0,75.2455455 0,48.5 C0,21.7544545 21.7632727,0 48.5,0 C75.2367273,0 97,21.7544545 97,48.5 C97,75.2455455 75.2367273,97 48.5,97" id="Fill-1" stroke-width="4"></path>
            <path d="M39.0574909,66.6619273 C39.9128545,67.4732 40.9798545,67.9052909 42.0821273,67.9052909 C43.1932182,67.9052909 44.2602182,67.4732 45.1155818,66.6619273 L74.9474909,36.8300182 C76.6053091,35.1722 76.6053091,32.4826545 74.9474909,30.8248364 C73.2808545,29.1582 70.6001273,29.1582 68.9334909,30.8248364 L42.0821273,57.6321091 L28.0612182,43.6112 C26.4034,41.9445636 23.7138545,41.9445636 22.0560364,43.6112 C20.3894,45.2690182 20.3894,47.9585636 22.0560364,49.6163818 L39.0574909,66.6619273 Z" id="Fill-3"></path>
        </g>
    </g>
</svg>