<?xml version="1.0" encoding="UTF-8"?>
<svg width="85px" height="97px" viewBox="0 0 85 97" version="1.1" xmlns="http://www.w3.org/2000/svg" xmlns:xlink="http://www.w3.org/1999/xlink">
    <!-- Generator: sketchtool 48.2 (47327) - http://www.bohemiancoding.com/sketch -->
    <title>FCE73EEB-F3E6-4ADE-AD99-8FD0AABA0AAB</title>
    <desc>Created with sketchtool.</desc>
    <defs></defs>
    <g id="1-Registration---Declaration-first" stroke="none" stroke-width="1" fill="none" fill-rule="evenodd" transform="translate(-970.000000, -250.000000)">
        <g id="noun_241664" transform="translate(970.000000, 250.000000)" fill="#C9C9C9" fill-rule="nonzero">
            <path d="M19.7321429,21.21875 L47.0535714,21.21875 C47.9642857,21.21875 48.5714286,20.6125 48.5714286,19.703125 C48.5714286,18.79375 47.9642857,18.1875 47.0535714,18.1875 L19.7321429,18.1875 C18.8214286,18.1875 18.2142857,18.79375 18.2142857,19.703125 C18.2142857,20.6125 18.8214286,21.21875 19.7321429,21.21875 Z" id="Shape"></path>
            <path d="M54.6428571,27.28125 L19.7321429,27.28125 C18.8214286,27.28125 18.2142857,27.8875 18.2142857,28.796875 C18.2142857,29.70625 18.8214286,30.3125 19.7321429,30.3125 L54.6428571,30.3125 C55.5535714,30.3125 56.1607143,29.70625 56.1607143,28.796875 C56.1607143,27.8875 55.5535714,27.28125 54.6428571,27.28125 Z" id="Shape"></path>
            <path d="M54.6428571,36.375 L19.7321429,36.375 C18.8214286,36.375 18.2142857,36.98125 18.2142857,37.890625 C18.2142857,38.8 18.8214286,39.40625 19.7321429,39.40625 L54.6428571,39.40625 C55.5535714,39.40625 56.1607143,38.8 56.1607143,37.890625 C56.1607143,36.98125 55.5535714,36.375 54.6428571,36.375 Z" id="Shape"></path>
            <path d="M65.2678571,93.96875 L6.07142857,93.96875 C4.40178571,93.96875 3.03571429,92.6046875 3.03571429,90.9375 L3.03571429,6.0625 C3.03571429,4.3953125 4.40178571,3.03125 6.07142857,3.03125 L69.8214286,3.03125 C71.4910714,3.03125 72.8571429,4.3953125 72.8571429,6.0625 L72.8571429,34.859375 C72.8571429,35.76875 73.4642857,36.375 74.375,36.375 C75.2857143,36.375 75.8928571,35.76875 75.8928571,34.859375 L75.8928571,6.0625 C75.8928571,2.728125 73.1607143,0 69.8214286,0 L6.07142857,0 C2.73214286,0 0,2.728125 0,6.0625 L0,90.9375 C0,94.271875 2.73214286,97 6.07142857,97 L65.2678571,97 C66.1785714,97 66.7857143,96.39375 66.7857143,95.484375 C66.7857143,94.575 66.1785714,93.96875 65.2678571,93.96875 Z" id="Shape"></path>
            <path d="M81.9642857,48.5 L80.4464286,48.5 L80.4464286,45.46875 C80.4464286,42.134375 77.7142857,39.40625 74.375,39.40625 L69.8214286,39.40625 C66.4821429,39.40625 63.75,42.134375 63.75,45.46875 L63.75,48.5 L62.2321429,48.5 C60.5625,48.5 59.1964286,49.8640625 59.1964286,51.53125 L59.1964286,54.5625 C59.1964286,56.2296875 60.5625,57.59375 62.2321429,57.59375 L63.75,57.59375 L63.75,83.359375 L72.0982143,97 L80.4464286,83.359375 L80.4464286,57.59375 L81.9642857,57.59375 C83.6339286,57.59375 85,56.2296875 85,54.5625 L85,51.53125 C85,49.8640625 83.6339286,48.5 81.9642857,48.5 Z M66.7857143,45.46875 C66.7857143,43.8015625 68.1517857,42.4375 69.8214286,42.4375 L74.375,42.4375 C76.0446429,42.4375 77.4107143,43.8015625 77.4107143,45.46875 L77.4107143,48.5 L66.7857143,48.5 L66.7857143,45.46875 Z M72.0982143,92.453125 L68.4553571,86.390625 L75.8928571,86.390625 L72.0982143,92.453125 Z M77.4107143,83.359375 L66.7857143,83.359375 L66.7857143,57.59375 L77.4107143,57.59375 L77.4107143,83.359375 Z M81.2053571,54.5625 L62.9910714,54.5625 C62.5357143,54.5625 62.2321429,53.5015625 62.2321429,53.046875 C62.2321429,52.5921875 62.5357143,51.53125 62.9910714,51.53125 L81.2053571,51.53125 C81.6607143,51.53125 81.9642857,52.5921875 81.9642857,53.046875 C81.9642857,53.5015625 81.6607143,54.5625 81.2053571,54.5625 Z" id="Shape"></path>
        </g>
    </g>
</svg>