<?xml version="1.0" encoding="UTF-8"?>
<svg width="25px" height="25px" viewBox="0 0 25 25" version="1.1" xmlns="http://www.w3.org/2000/svg" xmlns:xlink="http://www.w3.org/1999/xlink">
    <!-- Generator: sketchtool 48.2 (47327) - http://www.bohemiancoding.com/sketch -->
    <title>FEC1D559-043C-4BDD-8D5E-A01CBCEC4937</title>
    <desc>Created with sketchtool.</desc>
    <defs></defs>
    <g id="Application-submited" stroke="none" stroke-width="1" fill="none" fill-rule="evenodd" transform="translate(-34.000000, -414.000000)">
        <g id="Group-94" transform="translate(4.000000, 5.000000)" fill="#3B435B" fill-rule="nonzero">
            <g id="Group-10" transform="translate(30.000000, 401.000000)">
                <g id="34-web---link-url" transform="translate(0.000000, 8.000000)">
                    <path d="M10.3088907,20.4653122 L8.59695912,22.1516305 L8.02683879,22.7132208 C7.08292055,23.6430165 5.54689388,23.6430165 4.60297564,22.7132208 L2.32092374,20.4653122 C1.37700551,19.5355165 1.37700551,18.0240184 2.32092374,17.0926756 L9.73877036,9.78735923 C10.6826886,8.85601648 12.2171447,8.85601648 13.1626335,9.78735923 L14.3028742,10.9120871 L14.8729945,11.4736775 C15.0300524,11.6299327 15.2373689,11.7057397 15.4431148,11.7057397 C15.6488607,11.7057397 15.8577478,11.6283856 16.0132352,11.4736775 C16.3289216,11.1642613 16.3289216,10.66146 16.0132352,10.3489496 L15.4431148,9.78735923 L14.3013036,8.66263136 C12.7291536,7.11245621 10.1691091,7.11245621 8.59695912,8.66263136 L1.1791125,15.9694948 C-0.393037501,17.51967 -0.393037501,20.041412 1.1791125,21.5900401 L3.4611644,23.8379487 C5.03331441,25.3881239 7.59335887,25.3865768 9.16707945,23.8379487 L9.73877036,23.2763583 L11.4491313,21.5900401 C11.7648178,21.2790768 11.7648178,20.7762755 11.4491313,20.4653122 C11.1350155,20.155896 10.6245772,20.155896 10.3088907,20.4653122 Z M23.7755702,3.31438536 L21.670864,1.21818041 C20.070279,-0.376315054 17.4000118,-0.409239739 15.8403866,1.14135615 L15.2827025,1.69637227 L13.5655395,3.40688805 C13.2504637,3.72045648 13.2504637,4.23000518 13.5655395,4.54514145 C13.7262281,4.7034935 13.9310274,4.78188561 14.1389774,4.78188561 C14.345352,4.78188561 14.5548774,4.70192566 14.71084,4.54514145 L16.428003,2.83619351 L16.9856871,2.28117739 C17.9088591,1.36398973 19.5645824,1.39848226 20.5271389,2.35800165 L22.6349959,4.4542066 C23.5975524,5.413726 23.6322107,7.05996025 22.7090387,7.97714791 L17.5575496,13.1039917 L15.5473662,15.1029905 C14.5659051,16.0797561 12.6549705,16.1691231 11.7585799,15.2754531 L10.794448,14.3175016 C10.7645158,14.2877126 10.7440359,14.2469487 10.7172544,14.214024 L10.7046514,14.2265667 L10.1327888,13.6590079 C9.81613768,13.3438716 9.30413953,13.3438716 8.98748837,13.6590079 C8.67083721,13.9725763 8.67083721,14.482125 8.98748837,14.7988291 L9.64914751,15.4573228 L10.6132794,16.4152743 L10.703076,16.507777 C10.748762,16.5501088 10.8039003,16.5751942 10.8558878,16.6081189 C12.3540731,17.8482821 14.8132396,17.7855684 16.3980708,16.4795559 L16.4264276,16.507777 C16.4815658,16.4497669 16.5304026,16.388621 16.5839655,16.329043 C16.6170484,16.2976862 16.6580083,16.2757364 16.6910912,16.2428117 L23.8511884,9.11696915 C25.4123889,7.56323758 25.3777306,4.90888083 23.7755702,3.31438536 Z" id="Shape"></path>
                </g>
            </g>
        </g>
    </g>
</svg>