<?xml version="1.0" encoding="UTF-8"?>
<svg width="24px" height="24px" viewBox="0 0 24 24" version="1.1" xmlns="http://www.w3.org/2000/svg" xmlns:xlink="http://www.w3.org/1999/xlink">
    <!-- Generator: sketchtool 48.2 (47327) - http://www.bohemiancoding.com/sketch -->
    <title>BAA1C9D0-5505-4F59-A324-325711103BA8</title>
    <desc>Created with sketchtool.</desc>
    <defs></defs>
    <g id="Public-/-My-Applications-/-Additional-information---Contact-DRO-Step4" stroke="none" stroke-width="1" fill="none" fill-rule="evenodd" transform="translate(-456.000000, -105.000000)">
        <path d="M463.784606,119.423862 L458.479877,116.894855 L475.219695,108.589812 L463.784606,119.423862 Z M468.067984,126.59432 L464.850951,120.483083 L476.644113,109.309332 L468.067984,126.59432 Z M479.759535,105.240048 C479.574312,105.044702 479.295727,104.951715 479.020517,105.025954 L456.578904,116.160337 C456.314567,116.219203 456.093349,116.415674 456.022859,116.697633 C455.95087,116.982217 456.05398,117.273175 456.26095,117.464022 C456.268824,117.471896 456.276697,117.47977 456.284946,117.487269 C456.310817,117.50939 456.339313,117.528138 456.368184,117.546885 C456.381307,117.555884 456.394055,117.564882 456.407928,117.572756 C456.439424,117.590379 456.472794,117.605002 456.507289,117.618875 C456.517038,117.622624 456.527161,117.627123 456.537285,117.630498 C456.553032,117.635747 456.56728,117.643996 456.583778,117.64887 L463.390914,120.894024 L467.350713,128.417305 C467.355588,128.435303 467.364586,128.451425 467.370585,128.468673 C467.372085,128.473172 467.374335,128.477297 467.375835,128.481796 C467.391207,128.52154 467.40808,128.559785 467.429077,128.595779 C467.434701,128.605903 467.441825,128.615652 467.448199,128.6254 C467.468071,128.657271 467.489818,128.688391 467.514189,128.716887 C467.520189,128.723636 467.526563,128.729635 467.532937,128.736384 C467.724159,128.945229 468.016616,129.049464 468.303075,128.977099 C468.585034,128.906234 468.78113,128.684642 468.839622,128.419555 L479.973629,105.979441 C480.047868,105.703856 479.954882,105.424897 479.759535,105.240048 Z" id="Page-1" fill="#04844B"></path>
    </g>
</svg>