<?xml version="1.0" encoding="UTF-8"?>
<svg width="35px" height="35px" viewBox="0 0 35 35" version="1.1" xmlns="http://www.w3.org/2000/svg" xmlns:xlink="http://www.w3.org/1999/xlink">
    <!-- Generator: sketchtool 48.2 (47327) - http://www.bohemiancoding.com/sketch -->
    <title>E09FEDD9-6EAE-41FE-A826-FA0900B5D4E4</title>
    <desc>Created with sketchtool.</desc>
    <defs></defs>
    <g id="Public-/-Review-Pop-up-1" stroke="none" stroke-width="1" fill="none" fill-rule="evenodd" transform="translate(-355.000000, -381.000000)">
        <g id="Group-5" transform="translate(355.000000, 381.000000)">
            <circle id="Oval-5" fill="#E8007F" cx="17.5" cy="17.5" r="17.5"></circle>
            <g id="Group-3" transform="translate(7.000000, 8.000000)">
                <g id="5-communication---bubble-chat-talk-conversation-line">
                    <path d="M17.875,0 L4.125,0 C1.846625,0 0,1.846625 0,4.125 L0,13.0625 C0,15.3395 1.846625,16.5 4.125,16.5 L11.825,16.5 L17.875,22 L17.875,16.5 C20.152,16.5 22,14.652 22,12.375 L22,4.125 C22,1.846625 20.152,0 17.875,0 Z" id="Shape" fill="#FFFFFF" fill-rule="nonzero"></path>
                    <path d="M14.4375,9.625 L7.5625,9.625 C7.183,9.625 6.875,9.933 6.875,10.3125 C6.875,10.690625 7.183,11 7.5625,11 L14.4375,11 C14.815625,11 15.125,10.690625 15.125,10.3125 C15.125,9.933 14.815625,9.625 14.4375,9.625 Z" id="Path" fill="#E8007F"></path>
                    <path d="M15.8125,5.5 L6.1875,5.5 C5.808,5.5 5.5,5.808 5.5,6.1875 C5.5,6.565625 5.808,6.875 6.1875,6.875 L15.8125,6.875 C16.190625,6.875 16.5,6.565625 16.5,6.1875 C16.5,5.808 16.190625,5.5 15.8125,5.5 Z" id="Path" fill="#E8007F"></path>
                </g>
            </g>
        </g>
    </g>
</svg>