<svg xmlns="http://www.w3.org/2000/svg" width="17" height="21" viewBox="0 0 17 21">
    <g fill="none" fill-rule="nonzero" stroke="#0086DB">
        <path d="M15.73 9.288a1.1 1.1 0 0 0-.847-.33l-3.83.213 2.108-2.401c.3-.342.386-.798.27-1.206a1.094 1.094 0 0 0-.49-.695c-.008-.006-5.037-2.929-5.037-2.929a1.098 1.098 0 0 0-1.282.13L4.165 4.263a1.1 1.1 0 0 0 1.462 1.64L7.49 4.24l1.54.894-2.718 3.097a5.598 5.598 0 0 0-2.937 1.452l1.42 1.42a3.596 3.596 0 0 1 2.426-.94c1.99 0 3.61 1.621 3.61 3.613a3.6 3.6 0 0 1-.939 2.428l1.42 1.42a5.599 5.599 0 0 0 1.525-3.848c0-.887-.206-1.726-.572-2.473l1.482-.082-.36 4.424a1.099 1.099 0 1 0 2.188.179l.463-5.681a1.099 1.099 0 0 0-.308-.856z"/>
        <path d="M13.27 4.958A1.98 1.98 0 1 0 13.272 1a1.98 1.98 0 0 0 0 3.958zM6.878 18.076c-2.084 0-3.78-1.554-3.78-3.464 0-.72.242-1.39.654-1.944L2.25 11.292c-.782.915-1.25 2.067-1.25 3.32C1 17.588 3.632 20 6.878 20a6.196 6.196 0 0 0 3.622-1.146l-1.501-1.376a4.002 4.002 0 0 1-2.12.598z"/>
    </g>
</svg>
