<svg xmlns="http://www.w3.org/2000/svg" width="84" height="98" viewBox="0 0 84 98">
    <g fill="#C1C6D0" fill-rule="evenodd">
        <path d="M63.988 17.582c0-1.113-.978-2.017-2.184-2.017h-48.09c-1.207 0-2.185.904-2.185 2.017 0 1.114.978 2.018 2.185 2.018h48.09c1.206 0 2.184-.904 2.184-2.018M49 28.535c0-1.113-.7-2.017-1.563-2.017H13.092c-.862 0-1.563.904-1.563 2.017 0 1.114.701 2.018 1.563 2.018h34.345c.862 0 1.563-.904 1.563-2.018M12.466 38.047c-.517 0-.937.904-.937 2.018 0 1.113.42 2.017.937 2.017h20.609c.517 0 .937-.904.937-2.017 0-1.114-.42-2.018-.937-2.018H12.466z"/>
        <path d="M35.597 94.136H7.494a3.749 3.749 0 0 1-3.747-3.757V7.709A3.751 3.751 0 0 1 7.494 3.95h59.953a3.751 3.751 0 0 1 3.747 3.757V73.47c0 1.037.84 1.879 1.874 1.879a1.877 1.877 0 0 0 1.873-1.88V7.709c0-4.148-3.357-7.515-7.494-7.515H7.494C3.357.193 0 3.56 0 7.708v82.67c0 4.15 3.357 7.516 7.494 7.516h28.103a1.877 1.877 0 0 0 1.874-1.879c0-1.037-.84-1.879-1.874-1.879"/>
        <path d="M75.7 94.147H48.223c-1.448 0-2.352-1.457-1.636-2.623l13.965-22.726c.731-1.184 2.574-1.172 3.287.023l13.509 22.726c.697 1.165-.212 2.6-1.648 2.6m6.853-1.82L65.429 65.882c-1.572-2.424-5.363-2.424-6.935 0L41.37 92.326c-1.617 2.5.328 5.673 3.468 5.673h34.247c3.144 0 5.085-3.174 3.468-5.673"/>
        <path d="M61.97 91.082a2.018 2.018 0 1 1 .002-4.036 2.018 2.018 0 0 1-.001 4.036M63.988 84c0 1.046-.904 1.894-2.017 1.894-1.114 0-2.018-.848-2.018-1.894v-9.47c0-1.046.904-1.895 2.018-1.895 1.113 0 2.017.849 2.017 1.894V84z"/>
    </g>
</svg>
