<svg xmlns="http://www.w3.org/2000/svg" width="113" height="96" viewBox="0 0 113 96">
    <g fill="#C1C6D0" fill-rule="evenodd">
        <path d="M24.565 6.391A6.4 6.4 0 0 1 30.956 0H94.87a6.4 6.4 0 0 1 6.391 6.391v34.087H97V6.391c0-1.176-.96-2.13-2.13-2.13H30.955c-1.172 0-2.13.954-2.13 2.13"/>
        <path d="M51.012 36.217h39.596V12.783c0-1.176-.954-2.13-2.13-2.13H24.565c-1.176 0-2.13.954-2.13 2.13v14.913H42.49l8.522 8.521zm43.857 4.261H49.248l-8.522-8.521H18.173V12.783a6.39 6.39 0 0 1 6.392-6.392h63.913a6.39 6.39 0 0 1 6.391 6.392v27.695z"/>
        <path d="M4.3 39.043l6.626 46.86a6.384 6.384 0 0 0 6.353 5.706h78.588a6.405 6.405 0 0 0 6.344-5.599l6.391-38.369a6.39 6.39 0 0 0-1.55-5.002 6.406 6.406 0 0 0-4.794-2.16h-55.14l-8.522-8.522H10.65A6.388 6.388 0 0 0 4.3 39.043M95.867 95.87H17.279a10.638 10.638 0 0 1-10.584-9.48L.065 39.524a10.66 10.66 0 0 1 2.65-8.279 10.665 10.665 0 0 1 7.934-3.549H40.36l8.522 8.522h53.376c3.055 0 5.97 1.312 7.985 3.605a10.64 10.64 0 0 1 2.586 8.368l-6.395 38.369c-.665 5.3-5.207 9.31-10.567 9.31"/>
        <path d="M50.13 31.957h29.826a2.131 2.131 0 0 0 0-4.261H50.13a2.131 2.131 0 0 0 0 4.26M79.956 23.435h-46.87a2.131 2.131 0 0 1 0-4.261h46.87a2.131 2.131 0 0 1 0 4.26"/>
    </g>
</svg>
