<svg xmlns="http://www.w3.org/2000/svg" width="27" height="26" viewBox="0 0 27 26">
    <path fill="#FFF" fill-rule="nonzero" d="M22.592.613c-1.004-.7-2.104-.445-2.553.192-.273.387-3.099 4.625-3.415 5.144-.14.229-.208.503-.208.803 0 .387.112.818.335 1.235.215.408.92 1.643 1.265 2.249-.374.532-1.336 1.782-3.312 3.754-1.963 1.958-3.227 2.926-3.765 3.303a133.381 133.381 0 0 0-2.252-1.262c-.77-.405-1.54-.45-2.056-.12-.49.307-4.707 3.115-5.108 3.404-.378.273-.583.762-.583 1.293 0 .42.127.862.395 1.248.027.036 2.684 3.761 4.225 3.71 4.325-.136 9.408-4.328 12.91-7.82 3.502-3.491 7.704-8.56 7.843-12.892v-.035c.002-1.516-3.686-4.18-3.72-4.206zM17.35 16.628c-4.626 4.609-8.796 7.218-11.764 7.355-.561-.2-1.999-1.653-2.997-3.03a.613.613 0 0 1-.106-.41c.649-.444 4.275-2.835 4.954-3.27.071-.001.252.024.51.16.277.145 1.08.595 2.205 1.233l.874.498.825-.576c.614-.43 1.947-1.456 3.974-3.478 2.039-2.031 3.062-3.357 3.489-3.966l.58-.824-.5-.871a110.823 110.823 0 0 1-1.238-2.2c-.143-.267-.153-.45-.153-.498v-.02c.381-.607 2.842-4.302 3.291-4.953.062-.008.202 0 .372.12 1.394 1.005 2.851 2.429 3.059 2.988-.14 2.968-2.755 7.132-7.375 11.742z"/>
</svg>
