<svg xmlns="http://www.w3.org/2000/svg" width="40" height="40" viewBox="0 0 40 40">
    <g fill="#FFF" fill-rule="evenodd" transform="translate(1 1)">
        <circle cx="19" cy="19" r="19" fill-opacity=".252" stroke="#FFF"/>
        <path fill-rule="nonzero" d="M30.317 14.286c-.045-.067-1.713-2.13-5.841-2.126-3.192-.004-4.86 1.3-5.475 1.93-.613-.63-2.28-1.934-5.472-1.929-4.13-.005-5.798 2.059-5.842 2.127a.408.408 0 0 0-.087.252v10.767a.407.407 0 1 0 .73.251s.01-.013.05-.057c.296-.315 1.78-1.75 5.148-1.754 1.92.002 3.19.5 3.98.986.396.243.672.484.845.659.087.087.148.16.187.206.037.047.046.062.047.062.076.112.202.18.337.18h.152a.406.406 0 0 0 .337-.18s.009-.015.047-.062c.276-.33 1.654-1.844 5.013-1.85 1.927 0 3.232.473 4.056.932.412.23.704.458.89.625a2.946 2.946 0 0 1 .25.253.408.408 0 0 0 .73-.252V14.539a.4.4 0 0 0-.082-.253zM18.24 24.32c-.785-.661-2.326-1.557-4.9-1.557h-.015c-2.556-.003-4.14.824-4.965 1.442v-9.587c.356-.37 1.807-1.694 4.965-1.698 1.867.001 3.103.494 3.876.972.387.239.658.475.828.649a3.257 3.257 0 0 1 .211.239v9.54zm11.4-.12c-.824-.617-2.408-1.445-4.96-1.441-2.59-.004-4.136.9-4.92 1.561v-9.535c.007-.01.016-.022.033-.042.27-.325 1.626-1.818 4.887-1.823 1.869 0 3.136.468 3.936.922.4.229.683.453.863.618.067.062.12.115.161.156v9.585z"/>
    </g>
</svg>
