<svg xmlns="http://www.w3.org/2000/svg" width="18" height="18" viewBox="0 0 18 18">
    <path fill="#0086DB" fill-rule="nonzero" d="M7.802 2.395h-2.23v2.23h2.23v-2.23zM4.458 9.082H2.23v2.23h2.23v-2.23zM7.802 5.74h-2.23v2.229h2.23v-2.23zm-5.573 8.916h2.23v-2.229h-2.23v2.23zm3.344 0h2.229v-2.229h-2.23v2.23zM1.115 1.838c0-.308.25-.557.557-.557h6.687c.308 0 .557.25.557.557V15.77h1.115V1.28c0-.616-.498-1.114-1.115-1.114H1.115C.499.166 0 .664 0 1.281V15.77h1.115V1.838zm6.687 7.244h-2.23v2.23h2.23v-2.23zM4.458 2.395H2.23v2.23h2.23v-2.23zm8.917 10.031h2.229v-2.23h-2.23v2.23zm3.343-11.145H12.26c-.616 0-1.114.498-1.114 1.114V15.77h1.114V2.952c0-.307.25-.557.557-.557h3.344c.306 0 .557.25.557.557V15.77h1.115V2.395c0-.616-.498-1.114-1.115-1.114zM15.604 3.51h-2.23v2.229h2.23v-2.23zm1.672 13.374H.557a.557.557 0 0 0 0 1.115h16.719a.558.558 0 0 0 0-1.115zm-3.901-7.802h2.229V6.853h-2.23v2.23zM4.458 5.74H2.23v2.229h2.23v-2.23z"/>
</svg>
