<svg xmlns="http://www.w3.org/2000/svg" width="43" height="32" viewBox="0 0 43 32">
    <g fill="#1589EE" fill-rule="nonzero" stroke="#C1C6D0" stroke-width=".4">
        <path d="M5 17h13v1H5zM5 20h13v1H5z"/>
        <path d="M40.1 1.31a3.268 3.268 0 0 0-2.516-.11 3.27 3.27 0 0 0-1.858 1.705l-3.855 8.28a4.003 4.003 0 0 0-.67-.058H4.705C2.662 11.127 1 12.613 1 14.44v13.248C1 29.514 2.662 31 4.705 31H31.2c2.043 0 3.705-1.486 3.705-3.312v-7.422l6.786-14.575a3.303 3.303 0 0 0-1.592-4.38zm-6.287 26.378c0 1.223-1.172 2.218-2.612 2.218H4.705c-1.44 0-2.612-.996-2.612-2.218V14.44c0-1.223 1.171-2.218 2.612-2.218H31.2c.062 0 .122.007.182.011l-2.732 5.87.499 5.864h-6.234v1.094h7.163v-.976l3.734-2.63v6.233zm-.065-7.526l-3.61 2.543-.374-4.404.602-1.293 3.984 1.861-.602 1.293zm1.065-2.285l-3.985-1.861 4.625-9.935 3.984 1.862-4.624 9.934zM40.7 5.228L39.9 6.951l-3.985-1.862.801-1.722a2.187 2.187 0 0 1 1.241-1.139 2.18 2.18 0 0 1 1.682.074A2.206 2.206 0 0 1 40.7 5.228z"/>
    </g>
</svg>
