<svg xmlns="http://www.w3.org/2000/svg" width="43" height="31" viewBox="0 0 43 31">
    <g fill="#C1C6D0" fill-rule="nonzero" stroke="#C1C6D0" stroke-width=".4">
        <path d="M4.814 17.283h12.872v1H4.814zM4.814 20.156h12.872v1H4.814z"/>
        <path d="M40.1 1.307a3.3 3.3 0 0 0-2.516-.109 3.257 3.257 0 0 0-1.858 1.687l-3.855 8.196a4.043 4.043 0 0 0-.67-.057H4.705C2.662 11.024 1 12.494 1 14.302v13.112c0 1.808 1.662 3.279 3.705 3.279H31.2c2.043 0 3.705-1.471 3.705-3.279V20.07l6.786-14.426A3.255 3.255 0 0 0 40.1 1.307zm-6.287 26.107c0 1.21-1.172 2.195-2.612 2.195H4.705c-1.44 0-2.612-.985-2.612-2.195V14.302c0-1.21 1.171-2.195 2.612-2.195H31.2c.062 0 .122.007.182.01l-2.732 5.81.499 5.805h-6.234v1.083h7.163v-.966l3.734-2.604v6.17zm-.065-7.449l-3.61 2.518-.374-4.36.602-1.28 3.984 1.843-.602 1.28zm1.065-2.261l-3.985-1.842 4.625-9.833 3.984 1.842-4.624 9.833zM40.7 5.185L39.9 6.89l-3.985-1.842.801-1.705a2.179 2.179 0 0 1 1.241-1.127c.552-.2 1.15-.174 1.682.073A2.174 2.174 0 0 1 40.7 5.185z"/>
    </g>
</svg>
