<svg xmlns="http://www.w3.org/2000/svg" width="26" height="33" viewBox="0 0 26 33">
    <path fill="#3B435B" fill-rule="nonzero" d="M20.593 1.576a5.11 5.11 0 0 0-1.44-1.044A4.993 4.993 0 0 0 16.95 0H4.368C1.956 0 0 2.09 0 4.67v23.659C0 30.909 1.956 33 4.368 33H21.63c2.415 0 4.37-2.09 4.37-4.671V9.657a5.948 5.948 0 0 0-.509-2.359c-.293-.659-.646-1.175-.983-1.536l-3.915-4.186m-.597 1.446l4.002 4.146c.178.182.448.55.65 1.003.208.455.353.993.352 1.55v18.502c-.003 1.536-1.197 2.774-2.678 2.777H4.68C3.2 30.997 2.003 29.759 2 28.223V4.777C2.003 3.244 3.198 2.004 4.68 2h12.857c.544 0 1.063.148 1.5.357.433.208.786.484.959.665M6.9 20c-.498 0-.9-.446-.9-1 0-.553.401-1 .9-1h13.199c.496 0 .901.447.901 1 0 .554-.402 1-.901 1h-13.2m0 6C6.403 26 6 25.554 6 25s.401-1 .9-1h13.199c.496 0 .901.446.901 1s-.402 1-.901 1h-13.2m0-12C6.403 14 6 13.552 6 13s.401-1 .9-1h13.199c.496 0 .901.448.901 1 0 .553-.402 1-.901 1h-13.2"/>
</svg>
