<svg xmlns="http://www.w3.org/2000/svg" width="76" height="98" viewBox="0 0 76 98">
    <g fill="#C1C6D0" fill-rule="evenodd">
        <path d="M13.192 22.615c-1.04 0-1.884.845-1.884 1.885v3.77a1.885 1.885 0 0 0 3.769 0V24.5c0-1.04-.844-1.885-1.885-1.885M20.73 30.154h41.462a1.885 1.885 0 0 0 0-3.77H20.731a1.885 1.885 0 0 0 0 3.77M13.192 37.692c-1.04 0-1.884.845-1.884 1.885v3.77a1.885 1.885 0 0 0 3.769 0v-3.77c0-1.04-.844-1.885-1.885-1.885M20.73 45.23h41.462a1.885 1.885 0 0 0 0-3.768H20.731a1.885 1.885 0 0 0 0 3.769M13.192 52.77c-1.04 0-1.884.844-1.884 1.884v3.77a1.885 1.885 0 0 0 3.769 0v-3.77c0-1.04-.844-1.885-1.885-1.885M64.077 58.423c0-1.04-.844-1.885-1.885-1.885H20.731a1.885 1.885 0 0 0 0 3.77h41.461c1.04 0 1.885-.845 1.885-1.885"/>
        <path d="M55.63 94.408V82.42c0-2.352 1.842-4.199 4.187-4.199h11.952L55.63 94.408zm-2.963-11.61l-.162 11.432H7.538a3.768 3.768 0 0 1-3.77-3.769V7.538a3.77 3.77 0 0 1 3.77-3.77h60.307a3.768 3.768 0 0 1 3.77 3.77v67.846H60.183a7.515 7.515 0 0 0-7.516 7.414zM67.845 0H7.538A7.541 7.541 0 0 0-.001 7.538v82.923A7.539 7.539 0 0 0 7.538 98h49.098l18.748-18.847V7.538A7.539 7.539 0 0 0 67.845 0z"/>
    </g>
</svg>
