<svg xmlns="http://www.w3.org/2000/svg" width="76" height="64" viewBox="0 0 76 64">
    <g fill="#3B435B" fill-rule="nonzero">
        <path d="M2.542 61.104h3.782v-25.46H2.542v25.46zm5.043 2.546H1.28c-.697 0-1.26-.569-1.26-1.273V34.371c0-.703.563-1.273 1.26-1.273h6.304c.697 0 1.26.57 1.26 1.273v28.006c0 .704-.563 1.273-1.26 1.273z"/>
        <path d="M74.98 35.626c-2.21-3.109-4.45-3.159-10.06-.178l-10.871 6.71c-1.611.866-4.918 1.126-8.126 1.18.57-1.197.316-2.627-.761-4.25-1.977-2.976-5.363-4.753-9.062-4.753h-4.917c-2.672 0-5.237-.833-7.225-2.345-6.034-4.595-16.691 3.568-17.141 3.918a1.28 1.28 0 0 0-.232 1.785 1.252 1.252 0 0 0 1.767.234c2.647-2.054 10.333-6.76 14.089-3.905 2.422 1.843 5.526 2.859 8.742 2.859H36.1c2.857 0 5.46 1.354 6.967 3.624.529.798.738 1.462.562 1.772-.337.588-1.899.95-3.484 1.02a98.402 98.402 0 0 0-1.398-.014H26.495c-3.947 0-6.303 1.903-6.303 5.092 0 .703.563 1.273 1.26 1.273.698 0 1.261-.57 1.261-1.273 0-.63 0-2.546 3.782-2.546h12.22c.287.018.837.043 1.53.016l.67.012c5.917.11 11.466.08 14.384-1.488l10.865-6.709c5.2-2.759 5.722-2.02 6.767-.549.35.493.257 1.19-.184 1.56l-19.16 15.064a1.25 1.25 0 0 0-.097.085c-.844.817-1.819 1.323-2.942 1.486-.526.119-1.053.096-1.548.17l-16.434 2.523c-2.42.371-4.887.56-7.331.56H7.585c-.698 0-1.261.569-1.261 1.273 0 .703.563 1.273 1.26 1.273h17.65c2.573 0 5.167-.199 7.711-.59l16.343-2.507a8.457 8.457 0 0 0 1.735-.201c1.505-.214 2.944-.94 4.163-2.102l19.138-15.05c1.489-1.245 1.776-3.453.655-5.03M45.406 5.092c-2.78 0-5.042 2.284-5.042 5.092 0 2.809 2.261 5.092 5.042 5.092 2.782 0 5.043-2.283 5.043-5.092 0-2.808-2.261-5.092-5.043-5.092m0 12.73c-4.171 0-7.564-3.425-7.564-7.638 0-4.212 3.393-7.638 7.564-7.638 4.172 0 7.565 3.426 7.565 7.638 0 4.213-3.393 7.638-7.565 7.638"/>
        <path d="M52.763 11.895a4.94 4.94 0 0 0 2.73.835c2.78 0 5.042-2.284 5.042-5.092 0-2.807-2.262-5.092-5.043-5.092-1.835 0-3.519 1.035-4.396 2.64a7.644 7.644 0 0 1 1.875 4.998c0 .563-.07 1.136-.208 1.711m2.73 3.381c-1.841 0-3.627-.696-5.027-1.963a1.283 1.283 0 0 1-.345-1.386c.221-.607.328-1.176.328-1.743 0-1.447-.602-2.789-1.698-3.778a1.28 1.28 0 0 1-.343-1.385C49.498 2.018 52.344 0 55.492 0c4.172 0 7.565 3.426 7.565 7.637 0 4.212-3.393 7.638-7.565 7.638M35.32 2.546c-2.78 0-5.042 2.284-5.042 5.092 0 2.809 2.261 5.092 5.043 5.092a4.94 4.94 0 0 0 2.73-.835 7.365 7.365 0 0 1-.209-1.71c0-1.836.673-3.612 1.875-4.998-.878-1.606-2.56-2.64-4.396-2.64m0 12.73c-4.172 0-7.565-3.426-7.565-7.639C27.756 3.426 31.15 0 35.321 0c3.148 0 5.994 2.017 7.084 5.02.177.49.04 1.039-.343 1.386-1.095.99-1.698 2.331-1.698 3.778 0 .566.107 1.136.327 1.743.177.49.04 1.039-.344 1.386-1.4 1.267-3.186 1.963-5.026 1.963M52.97 29.28H37.843c-.697 0-1.26-.57-1.26-1.274v-6.365a8.87 8.87 0 0 1 4.238-7.603l1.312 2.173a6.336 6.336 0 0 0-3.03 5.43v5.092H51.71v-5.092a6.336 6.336 0 0 0-3.03-5.43l1.313-2.173a8.87 8.87 0 0 1 4.239 7.603v6.365c0 .703-.564 1.273-1.261 1.273"/>
        <path d="M37.842 26.733H27.756c-.697 0-1.26-.57-1.26-1.273v-6.365a8.87 8.87 0 0 1 4.238-7.603l1.312 2.173a6.336 6.336 0 0 0-3.03 5.43v5.092h8.826v2.546zM63.057 26.733H52.97v-2.546h8.825v-5.092a6.336 6.336 0 0 0-3.03-5.43l1.313-2.173a8.87 8.87 0 0 1 4.238 7.603v6.365c0 .703-.563 1.273-1.26 1.273"/>
    </g>
</svg>
