<svg xmlns="http://www.w3.org/2000/svg" width="74" height="96" viewBox="0 0 74 96">
    <g fill="#C1C6D0" fill-rule="evenodd">
        <path d="M54.47 92.487V80.771c0-2.298 1.804-4.104 4.1-4.104h11.698L54.47 92.487zm-2.9-11.347l-.158 11.174H7.4a3.683 3.683 0 0 1-3.69-3.684V7.577A3.686 3.686 0 0 1 7.4 3.893h59.027c2.04 0 3.69 1.65 3.69 3.684v66.316h-11.19a7.351 7.351 0 0 0-7.356 7.247zM66.428.209H7.4C3.327.209.022 3.509.022 7.577V88.63c0 4.07 3.305 7.368 7.378 7.368h48.055l18.35-18.42v-70c0-4.068-3.301-7.37-7.378-7.37z"/>
        <path d="M36.914 18.63c-9.153 0-16.601 7.439-16.601 16.58 0 9.14 7.448 16.578 16.601 16.578 9.153 0 16.602-7.438 16.602-16.579 0-9.14-7.449-16.579-16.602-16.579m0 36.842c-11.185 0-20.29-9.089-20.29-20.263 0-11.174 9.105-20.263 20.29-20.263 11.186 0 20.29 9.089 20.29 20.263 0 11.174-9.104 20.263-20.29 20.263M46.137 81.262H27.691a1.844 1.844 0 0 1-1.844-1.842c0-1.017.826-1.842 1.844-1.842h18.446c1.018 0 1.845.825 1.845 1.842a1.844 1.844 0 0 1-1.845 1.842M53.516 70.21H20.313a1.844 1.844 0 0 1-1.845-1.843c0-1.017.827-1.842 1.845-1.842h33.203c1.018 0 1.844.825 1.844 1.842a1.844 1.844 0 0 1-1.844 1.842"/>
        <path d="M32.966 42.8c.358.338.8.515 1.265.515.465 0 .911-.177 1.27-.516l12.476-12.464a1.77 1.77 0 0 0 0-2.512 1.779 1.779 0 0 0-2.512 0l-11.234 11.2-5.866-5.858a1.783 1.783 0 0 0-2.516 0 1.773 1.773 0 0 0 0 2.509l7.117 7.125z"/>
    </g>
</svg>
