<svg xmlns="http://www.w3.org/2000/svg" xmlns:xlink="http://www.w3.org/1999/xlink" width="24" height="24" viewBox="0 0 24 24">
    <defs>
        <path id="a" d="M23.986 0v23.98H0V0z"/>
    </defs>
    <g fill="none" fill-rule="evenodd">
        <mask id="b" fill="#fff">
            <use xlink:href="#a"/>
        </mask>
        <path fill="#3B435B" d="M15.51 15.53c-4.37 4.357-8.314 6.822-11.117 6.952-.531-.19-1.89-1.562-2.834-2.864a.588.588 0 0 1-.106-.326c0-.025.002-.045.005-.062.613-.42 4.042-2.678 4.683-3.089.067 0 .238.022.483.151.26.136 1.02.562 2.083 1.166l.827.47.78-.545c.578-.407 1.838-1.375 3.756-3.287 1.926-1.92 2.894-3.171 3.3-3.747l.547-.778-.473-.823c-.457-.799-1.006-1.764-1.172-2.079-.133-.252-.143-.424-.143-.47V6.18c.36-.573 2.686-4.065 3.11-4.682.06-.01.19 0 .354.113 1.318.949 2.694 2.295 2.891 2.822-.132 2.805-2.605 6.742-6.974 11.097M20.467.396c-.947-.661-1.99-.42-2.413.181-.257.367-2.929 4.371-3.23 4.863a1.439 1.439 0 0 0-.195.76c0 .364.107.77.315 1.166.204.385.87 1.552 1.198 2.124-.355.503-1.263 1.685-3.133 3.548-1.856 1.851-3.051 2.766-3.558 3.12-.573-.324-1.745-.99-2.13-1.19-.726-.383-1.452-.427-1.941-.116A374.83 374.83 0 0 0 .55 18.069c-.358.26-.55.72-.55 1.223 0 .396.12.814.373 1.18.025.035 2.537 3.554 3.993 3.507 4.088-.13 8.893-4.09 12.203-7.391 3.31-3.3 7.285-8.09 7.416-12.183v-.033c0-1.433-3.485-3.953-3.52-3.976" mask="url(#b)"/>
    </g>
</svg>
