<svg xmlns="http://www.w3.org/2000/svg" xmlns:xlink="http://www.w3.org/1999/xlink" width="110" height="130" viewBox="0 0 110 130">
    <defs>
        <path id="a" d="M.001.077h67.691v72.205H.001z"/>
        <path id="c" d="M23.27 0h23.268v41.27H0V0z"/>
    </defs>
    <g fill="none" fill-rule="evenodd">
        <g fill="#FFF">
            <path d="M10.83 61.118c-.747 0-1.353.766-1.353 1.709v3.417c0 .943.606 1.709 1.354 1.709.747 0 1.354-.766 1.354-1.709v-3.417c0-.943-.607-1.709-1.354-1.709M19.292 67.953h37.231c.934 0 1.692-.613 1.692-1.367 0-.755-.758-1.367-1.692-1.367h-37.23c-.935 0-1.693.612-1.693 1.367 0 .754.758 1.367 1.692 1.367M10.83 74.787c-.747 0-1.353.765-1.353 1.709v3.417c0 .943.606 1.708 1.354 1.708.747 0 1.354-.765 1.354-1.708v-3.417c0-.944-.607-1.709-1.354-1.709M39.6 80.254c.934 0 1.692-.612 1.692-1.366 0-.755-.758-1.367-1.692-1.367H19.292c-.934 0-1.692.612-1.692 1.367 0 .754.758 1.366 1.692 1.366H39.6zM10.83 88.456c-.747 0-1.353.765-1.353 1.708v3.417c0 .943.606 1.709 1.354 1.709.747 0 1.354-.766 1.354-1.709v-3.417c0-.943-.607-1.708-1.354-1.708M58.215 93.923c0-.754-.758-1.367-1.692-1.367h-37.23c-.935 0-1.693.613-1.693 1.367 0 .755.758 1.367 1.692 1.367h37.231c.934 0 1.692-.612 1.692-1.367"/>
            <path d="M49.954 126.205v-10.867c0-2.132 1.655-3.806 3.76-3.806h10.732l-14.492 14.673zm-2.66-10.525l-.146 10.364H6.769c-1.868 0-3.384-1.527-3.384-3.417V47.45c0-1.887 1.516-3.417 3.384-3.417h54.154c1.872 0 3.385 1.53 3.385 3.417v61.509H54.042c-3.692 0-6.698 2.993-6.749 6.721zm13.63-75.065H6.768C3.033 40.615 0 43.677 0 47.45v75.177c0 3.776 3.033 6.835 6.77 6.835h44.087l16.835-17.086V47.45c0-3.773-3.029-6.835-6.769-6.835z"/>
        </g>
        <circle cx="71.923" cy="34.692" r="34.692" fill="#106EA3"/>
        <g transform="translate(42.308)">
            <mask id="b" fill="#fff">
                <use xlink:href="#a"/>
            </mask>
            <path fill="#FFF" d="M51.654 38.348L34.907 53.951a1.45 1.45 0 0 1-1.053.433c-.372 0-.745-.185-1.053-.433L16.054 38.348c-4.9-4.854-4.9-12.78 0-17.631 2.417-2.397 5.642-3.624 8.868-3.624 3.165 0 6.326 2.273 8.932 4.606 0 .06.06.06.06.06l.065-.06c2.664-2.578 6.262-4.053 9.799-4.053 2.914 0 5.706.982 7.876 3.131a12.363 12.363 0 0 1 3.662 8.787 12.35 12.35 0 0 1-3.662 8.784M33.847.075C15.154.075.001 15.088.001 33.601c0 9.012 3.608 17.175 9.446 23.196l-5.06 15.486 14.916-7.55-.392-1.08c4.508 2.203 9.565 3.474 14.936 3.474 18.693 0 33.846-15.01 33.846-33.526C67.693 15.088 52.54.075 33.847.075" mask="url(#b)"/>
        </g>
        <path fill="#FFF" d="M82.773 34.518h-4.964V29.65c0-.895-.742-1.622-1.655-1.622-.914 0-1.655.727-1.655 1.622v4.868h-4.964c-.913 0-1.655.727-1.655 1.623s.742 1.622 1.655 1.622h4.964v4.868c0 .896.741 1.623 1.655 1.623.913 0 1.655-.727 1.655-1.623v-4.868h4.964c.913 0 1.654-.726 1.654-1.622 0-.896-.741-1.623-1.654-1.623"/>
        <g transform="translate(54.154 15.23)">
            <mask id="d" fill="#fff">
                <use xlink:href="#c"/>
            </mask>
            <path fill="#E8007F" d="M13.597 0a13.513 13.513 0 0 0-9.616 4.01c-5.308 5.373-5.308 14.145 0 19.513l18.153 17.272c.334.27.741.475 1.145.475.403 0 .803-.137 1.14-.475l18.154-17.272c2.619-2.652 3.965-6.185 3.965-9.72 0-3.537-1.346-7.072-3.965-9.722C40.217 1.7 37.194.612 34.032.612c-3.83 0-7.73 1.629-10.621 4.486l-.066.07s-.066 0-.066-.07C20.454 2.516 17.027 0 13.597 0" mask="url(#d)"/>
        </g>
        <g stroke="#FFF" stroke-linecap="round" stroke-width="4">
            <path d="M77.846 27.077v14.385M84.615 33.846H71.077"/>
        </g>
    </g>
</svg>
