<svg xmlns="http://www.w3.org/2000/svg" xmlns:xlink="http://www.w3.org/1999/xlink" width="19" height="19" viewBox="0 0 19 19">
    <defs>
        <path id="a" d="M19 19V0H0v19z"/>
    </defs>
    <g fill="none" fill-rule="evenodd">
        <mask id="b" fill="#fff">
            <use xlink:href="#a"/>
        </mask>
        <path fill="#0086DB" d="M9.695 12.83v-2.808c.912.259 1.654.591 1.654 1.392 0 .592-.417 1.294-1.654 1.417zm-.794-4.126c-.885-.246-1.575-.542-1.575-1.219 0-.714.65-1.231 1.575-1.293v2.512zm.794.198V6.217c.73.098 1.407.406 1.928.947l.65-.75c-.638-.629-1.497-1.047-2.578-1.134V4.147h-.794v1.12c-1.562.112-2.695 1.01-2.695 2.28 0 1.515 1.367 1.933 2.695 2.278v2.993a3.62 3.62 0 0 1-2.317-1.157l-.652.787c.652.703 1.654 1.22 2.969 1.294v1.096h.794v-1.096c2.019-.135 2.774-1.294 2.774-2.402 0-1.613-1.432-2.081-2.774-2.438zm-.195 8.91a8.313 8.313 0 1 1 0-16.625 8.313 8.313 0 0 1 0 16.625zM9.5 0A9.5 9.5 0 0 0 0 9.5C0 14.748 4.253 19 9.5 19S19 14.747 19 9.5A9.5 9.5 0 0 0 9.5 0z" mask="url(#b)"/>
    </g>
</svg>
