<svg xmlns="http://www.w3.org/2000/svg" width="60" height="60" viewBox="0 0 60 60">
    <g fill="none" fill-rule="evenodd">
        <circle cx="30" cy="30" r="30" fill="#C1C6D0" opacity=".106"/>
        <g fill="#3B435B">
            <path d="M21.5 19c-.276 0-.5.336-.5.75v1.5c0 .414.224.75.5.75s.5-.336.5-.75v-1.5c0-.414-.224-.75-.5-.75M24.708 22h15.584c.39 0 .708-.224.708-.5s-.317-.5-.708-.5H24.708c-.39 0-.708.224-.708.5s.317.5.708.5M21.5 25c-.276 0-.5.336-.5.75v1.5c0 .414.224.75.5.75s.5-.336.5-.75v-1.5c0-.414-.224-.75-.5-.75M24.708 27h15.584c.39 0 .708-.224.708-.5s-.317-.5-.708-.5H24.708c-.39 0-.708.224-.708.5s.317.5.708.5M21.5 30c-.276 0-.5.336-.5.75v1.5c0 .414.224.75.5.75s.5-.336.5-.75v-1.5c0-.414-.224-.75-.5-.75M41 32.5c0-.276-.317-.5-.708-.5H24.708c-.39 0-.708.224-.708.5s.317.5.708.5h15.584c.39 0 .708-.224.708-.5"/>
            <path d="M37.435 45.68v-4.403c0-.864.677-1.542 1.539-1.542h4.39l-5.929 5.945zm-1.088-4.264l-.06 4.2H19.77a1.384 1.384 0 0 1-1.385-1.385V13.769c0-.764.62-1.385 1.385-1.385h22.154c.765 0 1.384.62 1.384 1.385v24.923h-4.2a2.76 2.76 0 0 0-2.76 2.724zM41.923 11H19.769a2.77 2.77 0 0 0-2.77 2.77v30.46A2.77 2.77 0 0 0 19.77 47h18.036l6.887-6.923V13.769a2.77 2.77 0 0 0-2.77-2.77z"/>
        </g>
    </g>
</svg>
