<svg xmlns="http://www.w3.org/2000/svg" width="60" height="60" viewBox="0 0 60 60">
    <g fill="none" fill-rule="evenodd">
        <circle cx="30" cy="30" r="30" fill="#C1C6D0" opacity=".106"/>
        <path fill="#3B435B" d="M37.698 45.68v-4.403c0-.864.674-1.542 1.53-1.542h4.369l-5.899 5.945zm-1.082-4.264l-.06 4.2H20.122a1.38 1.38 0 0 1-1.377-1.385V13.769a1.38 1.38 0 0 1 1.377-1.385h22.041c.762 0 1.378.62 1.378 1.385v24.923h-4.179a2.754 2.754 0 0 0-2.746 2.724zM42.163 11h-22.04a2.763 2.763 0 0 0-2.756 2.77v30.46c0 1.53 1.234 2.77 2.755 2.77h17.944l6.852-6.923V13.769A2.762 2.762 0 0 0 42.163 11z"/>
        <path fill="#3B435B" d="M31.143 15.846c-3.418 0-6.2 2.796-6.2 6.23 0 3.436 2.782 6.232 6.2 6.232s6.199-2.796 6.199-6.231-2.781-6.23-6.2-6.23m0 13.845c-4.176 0-7.576-3.416-7.576-7.615 0-4.2 3.4-7.615 7.577-7.615s7.576 3.415 7.576 7.615-3.4 7.615-7.576 7.615M29.077 41.462h-6.888a.69.69 0 0 1-.689-.693.69.69 0 0 1 .689-.692h6.888c.38 0 .688.31.688.692a.69.69 0 0 1-.688.693M34.587 37.308H22.189a.69.69 0 0 1-.689-.693.69.69 0 0 1 .689-.692h12.398c.38 0 .689.31.689.692a.69.69 0 0 1-.69.693M40.097 33.154H22.189a.69.69 0 0 1-.689-.692.69.69 0 0 1 .689-.693h17.908c.38 0 .689.31.689.693a.69.69 0 0 1-.69.692"/>
        <path fill="#3B435B" d="M31.143 19.135c-.854 0-1.55.699-1.55 1.557 0 .859.696 1.558 1.55 1.558.854 0 1.55-.7 1.55-1.558 0-.858-.696-1.557-1.55-1.557m0 4.153a2.592 2.592 0 0 1-2.583-2.596 2.592 2.592 0 0 1 2.583-2.596 2.592 2.592 0 0 1 2.583 2.596 2.592 2.592 0 0 1-2.583 2.596"/>
        <path fill="#3B435B" d="M29.078 24.327c-.475 0-.862.403-.862.897v2.29c0 .495.387.898.862.898h4.13c.475 0 .862-.403.862-.898v-2.29c0-.494-.387-.897-.862-.897h-4.13zm4.13 4.915h-4.13a1.902 1.902 0 0 1-1.896-1.905v-2.213c0-1.05.85-1.905 1.896-1.905h4.13c1.045 0 1.895.855 1.895 1.905v2.213c0 1.051-.85 1.905-1.895 1.905z"/>
    </g>
</svg>
