<svg xmlns="http://www.w3.org/2000/svg" width="41" height="34" viewBox="0 0 41 34">
    <g fill="#0086DB" fill-rule="nonzero">
        <path d="M37.052 17.917l-9.49 6.25c-.38.229-.456.686-.229 1.067.228.381.684.458 1.063.229l9.491-6.25c.532-.305 1.139 0 1.443.533.303.686.076 1.525-.532 1.83L23.006 31.788c-.912.534-1.975.687-2.886.305l-8.2-2.972c-.076 0-.151-.077-.303-.077l-2.582.077v-10.9c1.519-.382 5.695-1.068 7.517 1.22.38.457.987.761 1.67.761h7.061c.608 0 1.063.61 1.063 1.296 0 .762-.455 1.296-1.063 1.296h-6.757c-.76 0-1.443.457-1.746 1.143-.38.763-.38 1.677.151 2.363.228.305.684.381 1.063.153.304-.229.38-.762.152-1.067a.695.695 0 0 1 0-.763c.076-.076.152-.304.456-.304h6.757c1.443 0 2.582-1.296 2.582-2.82 0-1.525-1.14-2.821-2.582-2.821h-7.137c-.076 0-.303 0-.455-.229-2.278-2.896-6.758-2.286-8.732-1.905v-1.067c0-.458-.304-.763-.76-.763H.836c-.455 0-.76.305-.76.763v16.007c0 .457.305.762.76.762H8.2c.456 0 .76-.305.76-.762v-.763l2.505-.076 8.048 2.897c1.443.533 2.961.305 4.252-.458 8.58-5.412 3.72-2.286 15.716-10.138 1.291-.762 1.747-2.362 1.14-3.81-.608-1.297-2.202-1.983-3.57-1.22zM7.44 30.799H1.594V16.316h5.847v14.483z"/>
        <path d="M23.537 17.46c4.783 0 8.656-3.888 8.656-8.766 0-4.879-3.873-8.69-8.656-8.69s-8.656 3.887-8.656 8.766c0 4.878 3.873 8.69 8.656 8.69zm0-15.932c3.948 0 7.137 3.202 7.137 7.242s-3.189 7.241-7.137 7.241c-3.948 0-7.137-3.201-7.137-7.241 0-4.04 3.189-7.242 7.137-7.242z"/>
        <path d="M20.728 10.828l-1.063 1.296c1.063.914 2.202 1.448 3.492 1.6v1.068h.912v-1.068c.987-.076 1.746-.305 2.353-.838.608-.534.911-1.22.911-2.058 0-.839-.227-1.525-.759-1.906-.531-.457-1.29-.762-2.43-1.067h-.075v-2.82c.759.076 1.442.38 2.05.838l.91-1.296c-.91-.61-1.898-.99-2.96-1.067v-.762h-.912v.686c-.91.076-1.67.305-2.277.839-.608.533-.836 1.22-.836 2.058 0 .838.228 1.448.76 1.905.531.458 1.29.762 2.353.991v2.82c-.759-.076-1.594-.533-2.43-1.22zm3.416-1.296c.608.152.987.381 1.14.534.227.228.303.457.303.838 0 .305-.152.61-.38.839-.303.228-.607.38-1.063.38V9.533zM22.17 6.94c-.227-.152-.303-.457-.303-.762s.152-.61.38-.838c.227-.229.607-.381.986-.381v2.515c-.531-.152-.91-.305-1.063-.534z"/>
    </g>
</svg>
