<svg xmlns="http://www.w3.org/2000/svg" xmlns:xlink="http://www.w3.org/1999/xlink" width="110" height="129" viewBox="0 0 110 129">
    <defs>
        <path id="a" d="M.001.077h67.175V71.73H0z"/>
    </defs>
    <g fill="none" fill-rule="evenodd">
        <g fill="#FFF">
            <path d="M10.748 60.652c-.742 0-1.343.76-1.343 1.695v3.391c0 .936.601 1.696 1.343 1.696s1.344-.76 1.344-1.696v-3.39c0-.937-.602-1.696-1.344-1.696M19.145 67.434h36.947c.927 0 1.679-.608 1.679-1.356 0-.75-.752-1.357-1.68-1.357H19.146c-.927 0-1.68.608-1.68 1.357 0 .748.753 1.356 1.68 1.356M10.748 74.216c-.742 0-1.343.76-1.343 1.696v3.39c0 .937.601 1.696 1.343 1.696s1.344-.76 1.344-1.695v-3.391c0-.936-.602-1.696-1.344-1.696M39.298 79.642c.927 0 1.68-.608 1.68-1.357 0-.748-.753-1.356-1.68-1.356H19.145c-.927 0-1.68.608-1.68 1.356 0 .75.753 1.357 1.68 1.357h20.153zM10.748 87.78c-.742 0-1.343.76-1.343 1.696v3.391c0 .936.601 1.696 1.343 1.696s1.344-.76 1.344-1.696v-3.391c0-.936-.602-1.696-1.344-1.696M57.771 93.206c0-.749-.752-1.356-1.68-1.356H19.146c-.927 0-1.68.607-1.68 1.356 0 .749.753 1.357 1.68 1.357h36.947c.927 0 1.679-.608 1.679-1.357"/>
            <path d="M49.572 125.242v-10.784c0-2.116 1.643-3.778 3.732-3.778h10.65l-14.382 14.562zm-2.64-10.445l-.144 10.285H6.718c-1.854 0-3.36-1.516-3.36-3.39V47.086c0-1.871 1.506-3.39 3.36-3.39h53.74c1.857 0 3.359 1.519 3.359 3.39v61.04H53.63c-3.665 0-6.647 2.97-6.698 6.67zm13.526-74.492H6.718C3.009 40.305 0 43.344 0 47.087v74.604c0 3.747 3.01 6.782 6.718 6.782h43.751l16.707-16.955v-64.43c0-3.744-3.007-6.783-6.718-6.783z"/>
        </g>
        <g transform="translate(42.824)">
            <mask id="b" fill="#fff">
                <use xlink:href="#a"/>
            </mask>
            <path fill="#FFF" d="M51.26 38.055L34.64 53.54c-.306.306-.675.43-1.044.43-.37 0-.74-.184-1.045-.43L15.93 38.055c-4.863-4.817-4.863-12.682 0-17.496 2.399-2.379 5.6-3.597 8.8-3.597 3.141 0 6.278 2.256 8.865 4.572 0 .06.06.06.06.06l.064-.06c2.643-2.559 6.214-4.023 9.723-4.023 2.892 0 5.663.975 7.816 3.108a12.27 12.27 0 0 1 3.635 8.72c0 3.17-1.233 6.34-3.635 8.716M33.59.075C15.039.075 0 14.973 0 33.345c0 8.942 3.58 17.044 9.374 23.019L4.354 71.73l14.802-7.492-.39-1.071c4.474 2.185 9.492 3.446 14.823 3.446 18.55 0 33.588-14.895 33.588-33.27 0-18.371-15.038-33.27-33.588-33.27l-2.484 18.663" mask="url(#b)"/>
            <circle cx="34.008" cy="35.687" r="23.931" fill="#FFF" mask="url(#b)"/>
        </g>
        <g fill="#E8007F" transform="translate(52.061 27.71)">
            <circle cx="5.878" cy="5.878" r="5.878"/>
            <circle cx="23.511" cy="5.878" r="5.878"/>
            <circle cx="42.824" cy="5.878" r="5.878"/>
        </g>
    </g>
</svg>
