<svg xmlns="http://www.w3.org/2000/svg" width="23" height="23" viewBox="0 0 23 23">
    <g fill="#1B436F" fill-rule="nonzero">
        <path d="M21.722 10.861c-.766 0-1.278.511-1.278 1.278v7.667H2.556v-7.667c0-.767-.512-1.278-1.278-1.278C.51 10.861 0 11.372 0 12.14v8.944c0 .767.511 1.278 1.278 1.278h20.444c.767 0 1.278-.511 1.278-1.278V12.14c0-.767-.511-1.278-1.278-1.278z"/>
        <path d="M11.5.639c-.767 0-1.278.511-1.278 1.278v8.177L8.817 8.69a1.235 1.235 0 0 0-1.79 0 1.235 1.235 0 0 0 0 1.789l3.579 3.578c.255.255.638.383.894.383.383 0 .639-.128.894-.383l3.578-3.578a1.235 1.235 0 0 0 0-1.79 1.235 1.235 0 0 0-1.789 0l-1.405 1.534V1.917c0-.64-.64-1.278-1.278-1.278z"/>
    </g>
</svg>
