<svg xmlns="http://www.w3.org/2000/svg" xmlns:xlink="http://www.w3.org/1999/xlink" width="12" height="18" viewBox="0 0 12 18">
    <defs>
        <path id="a" d="M11.626 17.725H0V0h11.626v17.725z"/>
    </defs>
    <g fill="none" fill-rule="evenodd">
        <mask id="b" fill="#fff">
            <use xlink:href="#a"/>
        </mask>
        <path fill="#FFF" stroke="#FFF" stroke-width=".3" d="M10.319 3.562l-.272.475L7.22 2.393l.272-.475a1.626 1.626 0 0 1 2.23-.601 1.65 1.65 0 0 1 .597 2.245zM5.694 11.63l-1.089 1.897-2.827-1.643 1.088-1.898 3.81-6.644 2.827 1.644-3.81 6.644zM4.06 14.476l-3.046 2.027.219-3.67 2.827 1.643zM10.266.368A2.71 2.71 0 0 0 6.549 1.37l-.272.475-.43.75-4.74 8.266v.002l-.815 1.421 2.302 1.34.003.001-2.305-1.34L0 17.177l.943.548 4.06-2.702-2.304-1.34.002.001 2.303 1.34 1.632-2.847 3.81-6.644.113-.198.702-1.226a2.75 2.75 0 0 0-.995-3.742z" mask="url(#b)"/>
    </g>
</svg>
