<svg xmlns="http://www.w3.org/2000/svg" width="16" height="13" viewBox="0 0 16 13">
    <path fill="#0086DB" fill-rule="nonzero" d="M15.998.49c0-.006-.004-.011-.004-.018a.494.494 0 0 0-.125-.302c-.008-.009-.004-.023-.014-.032-.01-.011-.027-.007-.04-.017a.476.476 0 0 0-.27-.111c-.02-.002-.033-.01-.053-.01H.507C.487 0 .473.008.453.01a.498.498 0 0 0-.269.112c-.012.01-.03.006-.04.017C.135.147.138.162.13.171a.498.498 0 0 0-.125.302C.005.48.002.485.002.492L0 .502V12.5a.5.5 0 0 0 .5.5h14.999a.5.5 0 0 0 .501-.5V.5l-.002-.01zM14.084 1L8 5.87 1.916 1h12.168zM15 11.5a.5.5 0 0 1-.501.5H1.5a.5.5 0 0 1-.5-.5V1.52l6.63 5.307c.007.008.004.019.011.026.1.098.23.142.359.139.13.003.26-.041.358-.14.009-.007.005-.018.013-.026L15 1.519v9.98H15z"/>
</svg>
