<svg xmlns="http://www.w3.org/2000/svg" width="75" height="98" viewBox="0 0 75 98">
    <g fill="#C1C6D0" fill-rule="evenodd">
        <path d="M55.346 94.408V82.42c0-2.352 1.833-4.199 4.166-4.199h11.891L55.345 94.408zm-2.948-11.61l-.161 11.432H7.499a3.756 3.756 0 0 1-3.75-3.769V7.538c0-2.08 1.677-3.77 3.75-3.77h60c2.074 0 3.75 1.69 3.75 3.77v67.846H59.876c-4.092 0-7.422 3.302-7.478 7.414zM67.499 0h-60C3.36 0 0 3.377 0 7.538v82.923C0 94.626 3.36 98 7.5 98h48.848l18.652-18.847V7.538C75 3.377 71.643 0 67.5 0z"/>
        <path d="M37.5 13.192c-9.304 0-16.875 7.61-16.875 16.962 0 9.351 7.571 16.961 16.875 16.961s16.875-7.61 16.875-16.961c0-9.352-7.571-16.962-16.875-16.962m0 37.693c-11.37 0-20.625-9.3-20.625-20.731 0-11.432 9.255-20.73 20.625-20.73s20.625 9.298 20.625 20.73-9.255 20.73-20.625 20.73M31.875 82.923h-18.75a1.88 1.88 0 0 1-1.875-1.885c0-1.04.84-1.884 1.875-1.884h18.75a1.88 1.88 0 0 1 1.875 1.884 1.88 1.88 0 0 1-1.875 1.885M46.875 71.615h-33.75a1.88 1.88 0 0 1-1.875-1.884c0-1.04.84-1.885 1.875-1.885h33.75a1.88 1.88 0 0 1 1.875 1.885 1.88 1.88 0 0 1-1.875 1.884M61.875 60.308h-48.75a1.88 1.88 0 0 1-1.875-1.885c0-1.04.84-1.885 1.875-1.885h48.75a1.88 1.88 0 0 1 1.875 1.885 1.88 1.88 0 0 1-1.875 1.885"/>
        <path d="M37.5 22.144c-2.325 0-4.219 1.904-4.219 4.24 0 2.338 1.894 4.241 4.219 4.241s4.219-1.903 4.219-4.24-1.894-4.24-4.219-4.24m0 11.307c-3.877 0-7.031-3.17-7.031-7.067 0-3.898 3.154-7.068 7.031-7.068s7.031 3.17 7.031 7.068c0 3.897-3.154 7.067-7.031 7.067"/>
        <path d="M31.879 36.279c-1.294 0-2.348 1.097-2.348 2.442v6.235c0 1.345 1.054 2.442 2.348 2.442H43.12c1.294 0 2.348-1.097 2.348-2.442V38.72c0-1.345-1.054-2.442-2.348-2.442H31.88zm11.242 13.38H31.88c-2.847 0-5.16-2.325-5.16-5.186V38.45c0-2.86 2.313-5.187 5.16-5.187H43.12c2.846 0 5.16 2.326 5.16 5.187v6.023c0 2.861-2.313 5.187-5.16 5.187z"/>
    </g>
</svg>
