<svg xmlns="http://www.w3.org/2000/svg" width="19" height="19" viewBox="0 0 19 19">
    <g fill="#0086DB" fill-rule="nonzero" stroke="#0086DB" stroke-width=".3">
        <path d="M9.5 18C4.813 18 1 14.187 1 9.5 1 4.813 4.813 1 9.5 1 14.187 1 18 4.813 18 9.5c0 4.687-3.813 8.5-8.5 8.5zm0-16.37c-4.34 0-7.87 3.53-7.87 7.87s3.53 7.87 7.87 7.87 7.87-3.53 7.87-7.87-3.53-7.87-7.87-7.87z"/>
        <path d="M12.019 15.167a1.26 1.26 0 0 1-1.26-1.26v-1.259H8.241v1.26a1.26 1.26 0 0 1-1.26 1.259 1.26 1.26 0 0 1-1.259-1.26v-1.259h-.944a1.26 1.26 0 0 1-1.26-1.26c0-.694.565-1.258 1.26-1.258h.944V8.87h-.944a1.26 1.26 0 0 1-1.26-1.259c0-.694.565-1.26 1.26-1.26h.944V5.094a1.26 1.26 0 0 1 2.519 0v1.259h2.518v-1.26a1.26 1.26 0 0 1 2.519 0v1.26h.944a1.26 1.26 0 0 1 0 2.519h-.944v1.259h.944c.695 0 1.26.564 1.26 1.259a1.26 1.26 0 0 1-1.26 1.26h-.944v1.258a1.26 1.26 0 0 1-1.26 1.26zm-4.093-3.148h3.148c.174 0 .315.14.315.314v1.574a.63.63 0 0 0 1.26 0v-1.574c0-.173.14-.314.314-.314h1.26a.63.63 0 0 0 0-1.26h-1.26a.315.315 0 0 1-.315-.315V8.556c0-.174.14-.315.315-.315h1.26a.63.63 0 0 0 0-1.26h-1.26a.315.315 0 0 1-.315-.314V5.093a.63.63 0 0 0-1.26 0v1.574c0 .173-.14.314-.314.314H7.926a.315.315 0 0 1-.315-.314V5.093a.63.63 0 0 0-1.26 0v1.574c0 .173-.14.314-.314.314h-1.26a.63.63 0 0 0 0 1.26h1.26c.174 0 .315.14.315.315v1.888c0 .174-.14.315-.315.315h-1.26a.63.63 0 0 0 0 1.26h1.26c.174 0 .315.14.315.314v1.574a.63.63 0 0 0 1.26 0v-1.574c0-.173.14-.314.314-.314zm3.148-1.26H7.926a.315.315 0 0 1-.315-.315V8.556c0-.174.14-.315.315-.315h3.148c.174 0 .315.14.315.315v1.888c0 .174-.14.315-.315.315zm-2.833-.63h2.518V8.87H8.241v1.26z"/>
    </g>
</svg>
