<svg xmlns="http://www.w3.org/2000/svg" width="55" height="57" viewBox="0 0 55 57">
    <g fill="none" fill-rule="evenodd">
        <g fill="#FFF" fill-rule="nonzero">
            <path d="M28.932 52h-1.53a.068.068 0 0 1-.069-.068v-1.53c0-.038.03-.069.069-.069h1.53c.038 0 .068.03.068.069v1.53c0 .038-.03.068-.068.068zm0 1.667c.958 0 1.735-.777 1.735-1.735v-1.53c0-.959-.777-1.735-1.735-1.735h-1.53c-.959 0-1.735.776-1.735 1.735v1.53c0 .958.776 1.735 1.735 1.735h1.53zM14.833 13.667H21.5a.833.833 0 0 0 0-1.667h-6.667a.833.833 0 1 0 0 1.667z"/>
            <path d="M14 46.167v7.531A3.302 3.302 0 0 0 17.302 57h21.73a3.302 3.302 0 0 0 3.301-3.302v-7.531H14zm26.667 1.666v5.865c0 .903-.732 1.635-1.635 1.635h-21.73a1.635 1.635 0 0 1-1.635-1.635v-5.865h25zM46.475 18.465a.833.833 0 0 0-.808-.632h-8.334a.833.833 0 0 0-.808.632l-.676 2.702H29a.833.833 0 0 0-.833.833v16.667c0 .46.373.833.833.833h25c.46 0 .833-.373.833-.833V22a.833.833 0 0 0-.833-.833h-6.85l-.675-2.702zm6.692 19.368H29.833v-15H36.5c.382 0 .716-.26.808-.63l.676-2.703h7.032l.676 2.702a.833.833 0 0 0 .808.631h6.667v15z"/>
            <path d="M44.833 29.5a3.334 3.334 0 1 1-6.667 0 3.334 3.334 0 0 1 6.667 0zm1.667 0a5 5 0 1 0-10 0 5 5 0 0 0 10 0z"/>
            <path d="M29.833 22.833H36.5c.382 0 .716-.26.808-.63l.676-2.703H41.5c.46 0 .833-.373.833-.833v-7.855A3.812 3.812 0 0 0 38.522 7h-20.71A3.812 3.812 0 0 0 14 10.812v42.886A3.302 3.302 0 0 0 17.302 57h21.73a3.302 3.302 0 0 0 3.301-3.302V38.667a.833.833 0 0 0-.833-.834H29.833v-15zm10.834 30.865c0 .903-.732 1.635-1.635 1.635h-21.73a1.635 1.635 0 0 1-1.635-1.635V10.812c0-1.185.96-2.145 2.145-2.145h20.71c1.184 0 2.145.96 2.145 2.145v7.021h-3.334a.833.833 0 0 0-.808.632l-.676 2.702H29a.833.833 0 0 0-.833.833v16.667c0 .46.373.833.833.833h11.667v14.198z"/>
        </g>
        <g transform="translate(1 1)">
            <circle cx="12" cy="12" r="12" fill="#E8007F" stroke="#FFF" stroke-width="2"/>
            <text fill="#FFF" font-family="Roboto-Bold, Roboto" font-size="16" font-weight="bold">
                <tspan x="7.765" y="17">3</tspan>
            </text>
        </g>
    </g>
</svg>
