<svg xmlns="http://www.w3.org/2000/svg" width="67" height="61" viewBox="0 0 67 61">
    <g fill="none" fill-rule="evenodd">
        <g fill="#FFF" fill-rule="nonzero">
            <path d="M21.15 60.803H60.993a2.493 2.493 0 0 0 2.49-2.49V38.918l3.22-8.848a1.664 1.664 0 0 0-.993-2.127l-2.227-.81V18.47a2.493 2.493 0 0 0-2.49-2.49h-26.94l-.514-2.921a2.49 2.49 0 0 0-2.885-2.02l-1.635.287A2.491 2.491 0 0 0 27 14.212l.312 1.768H25.3v-.83a4.15 4.15 0 1 0-8.301 0v41.503a4.155 4.155 0 0 0 4.15 4.15zm-2.49-4.15a2.49 2.49 0 1 1 4.98 0 2.49 2.49 0 0 1-4.98 0zm43.163 1.66a.83.83 0 0 1-.83.83H56.12l5.702-15.665v14.835zm2.752-27.25a.83.83 0 1 0-.568 1.56l-.568 1.56a.83.83 0 1 0-.568 1.56l-.453 1.245-.115-.042a.83.83 0 1 0-.567 1.56l.115.042-.568 1.56-.115-.042a.83.83 0 0 0-.568 1.56l.115.042-.568 1.56-.115-.042a.83.83 0 1 0-.567 1.56l.115.042-.568 1.56-.116-.042a.83.83 0 0 0-.567 1.56l.115.042-.568 1.56-.115-.042a.83.83 0 0 0-.567 1.56l.114.041-.568 1.56-.114-.04a.83.83 0 1 0-.568 1.559l.115.041-.568 1.56-.115-.04a.83.83 0 1 0-.567 1.559l.114.041-.682 1.876-3.526-1.283c-8.093-2.946-12.574-11.831-9.988-19.806a15.737 15.737 0 0 1 20.402-9.97l3.9 1.42-.568 1.56zm-32.482 2.479l-2.739-15.533 3.27-.576 2.74 15.532-3.27.577zm3.136 1.132l-.714 3.043-1.711-2.615 2.425-.428zm-6.458-21.371a.823.823 0 0 1 .536-.342l1.635-.289a.83.83 0 0 1 .961.674l.433 2.452-3.27.577-.432-2.451a.82.82 0 0 1 .137-.621zm-1.168 4.337l3 17.007c.003.018.014.034.018.052.02.085.052.167.097.242.004.005.004.012.007.017l3.461 5.289a.83.83 0 0 0 1.503-.265l1.444-6.154v-.005a.822.822 0 0 0 .006-.2.844.844 0 0 0 .003-.128v-.001L34.346 17.64h26.647a.83.83 0 0 1 .83.83v8.058l-.013-.004a17.43 17.43 0 0 0-22.548 11.018c-2.786 8.593 1.843 18.117 10.342 21.6H24.45a4.11 4.11 0 0 0 .851-2.49V17.64h2.303zm-6.453-4.98a2.493 2.493 0 0 1 2.49 2.49v38.204a4.068 4.068 0 0 0-4.98 0V15.15a2.493 2.493 0 0 1 2.49-2.49z"/>
            <path d="M60.107 31.203c-6.462-2.351-13.607.98-15.958 7.442-2.352 6.461.98 13.606 7.441 15.958a.829.829 0 0 0 1.064-.496l7.949-21.84a.83.83 0 0 0-.496-1.064zM51.389 52.73a10.79 10.79 0 0 1 7.359-20.22l-7.36 20.22z"/>
        </g>
        <g transform="translate(1 1)">
            <circle cx="12" cy="12" r="12" fill="#E8007F" stroke="#FFF" stroke-width="2"/>
            <text fill="#FFF" font-family="Roboto-Bold, Roboto" font-size="16" font-weight="bold">
                <tspan x="7" y="18">1</tspan>
            </text>
        </g>
    </g>
</svg>
