<svg xmlns="http://www.w3.org/2000/svg" width="60" height="60" viewBox="0 0 60 60">
    <path fill="#FFF" fill-rule="nonzero" d="M34.327 8.099L7.072 35.339a.557.557 0 0 0-.131.164c-.044.098-1.2 3.916-3.47 11.452 0 .011-.612 2.03-1.834 6.054L0 58.588c.016.164.016.164.016.18.082.196.099.229.115.262.13.18.164.212.213.229.147.065.147.081.163.081.213.05.246.066.295.066.18-.016.197-.016.197-.033l11.377-3.436c.01 0 3.792-1.14 11.344-3.419.164-.065.196-.082.213-.082.087-.076 9.216-9.194 27.386-27.355l7.088-7.084c.655-.655.999-1.587.999-2.716 0-2.798-2.063-6.593-5.37-9.898-2.193-2.193-4.648-3.878-6.924-4.745-2.488-.949-4.501-.802-5.696.376L34.327 8.1zM22.656 51.144l-10.297 3.108-7.219-7.215 3.11-10.29h6.5v7.083c0 .459.36.819.818.819h7.104v6.495h-.016zM2.03 57.36l2.586-8.557 5.975 5.972L2.03 57.36zm14.356-14.349v-6.757l22.476-22.463 6.76 6.757-22.475 22.463h-6.76zM34.9 9.832l2.8 2.799-22.476 22.48H9.625L34.9 9.832zM24.293 44.175l22.492-22.463 2.8 2.797L24.292 49.77v-5.595zm11.77-35.503l3.47-3.468 14.684 14.675-3.47 3.469L36.062 8.67zM46.539 2.16c2.063.785 4.306 2.34 6.352 4.368 2.963 2.961 4.878 6.397 4.878 8.753 0 .687-.18 1.21-.524 1.554l-1.882 1.882L40.679 4.04 42.56 2.16c.72-.688 2.161-.704 3.978 0z"/>
</svg>
