<svg xmlns="http://www.w3.org/2000/svg" width="69" height="52" viewBox="0 0 69 52">
    <g fill="none" fill-rule="evenodd">
        <g fill="#FFF" fill-rule="nonzero" stroke="#FFF" stroke-width="1.2">
            <path d="M67.912 12.73H44.194l3.51-5.028.019-.015 2.205-3.158a.444.444 0 0 0-.11-.618l-3.213-2.243a.446.446 0 0 0-.617.11l-1.402 2.006c-.006.009-.016.014-.024.023l-6.228 8.923H14.965a.443.443 0 0 0-.443.443V49.97c0 .244.198.443.443.443h52.947a.444.444 0 0 0 .445-.443V13.173c0-.244-.2-.443-.445-.443zM46.462 2.65l2.484 1.735-.912 1.306-2.484-1.735.912-1.307zM44.464 5.5c.006-.01.016-.013.024-.023l.555-.794 2.478 1.731-17.487 25.043-1.65 1.03-1.145-.955c-.015-.012-.035-.012-.051-.022l.362-1.79L44.464 5.5zm23.005 44.026h-52.06V13.617h22.304l-5.109 7.315a8.119 8.119 0 0 0-5.503-2.156c-4.507 0-8.174 3.667-8.174 8.174 0 3.948 2.813 7.25 6.538 8.01l.137-.888c-3.3-.695-5.788-3.619-5.788-7.122 0-4.018 3.269-7.287 7.287-7.287 1.934 0 3.69.763 4.995 1.997l-5.326 7.628a.437.437 0 0 0-.07.165l-.882 4.352-.181 1.18c.1.019.202.033.303.047l1.414-.856 3.227-2.015a.456.456 0 0 0 .129-.123l3.67-5.255c.002.056.008.11.008.167 0 3.839-2.99 6.98-6.761 7.252l.004.008-1.425.863c.294.032.592.051.895.051 4.507 0 8.173-3.666 8.173-8.173 0-.44-.04-.869-.112-1.288l8.411-12.046H67.47v35.909z"/>
            <path d="M43.122 26.027a.392.392 0 0 0-.545.098l-7.79 11.17a.392.392 0 0 0 .097.544l13.004 9.068a.389.389 0 0 0 .544-.097l7.79-11.17a.387.387 0 0 0 .064-.291.388.388 0 0 0-.162-.253l-13.002-9.069zm4.893 20.015l-12.362-8.62 7.342-10.529 12.362 8.621-7.342 10.528zM54.143 27.51h4.878a.392.392 0 0 0 .391-.392v-5.183a.392.392 0 0 0-.391-.392h-4.878a.392.392 0 0 0-.392.392v5.183c0 .216.175.391.392.391zm.391-5.183h4.096v4.4h-4.096v-4.4z"/>
        </g>
        <g transform="translate(1 1)">
            <circle cx="12" cy="12" r="12" fill="#E8007F" stroke="#FFF" stroke-width="2"/>
            <text fill="#FFF" font-family="Roboto-Bold, Roboto" font-size="16" font-weight="bold">
                <tspan x="7" y="17">2</tspan>
            </text>
        </g>
    </g>
</svg>
