<svg xmlns="http://www.w3.org/2000/svg" width="76" height="64" viewBox="0 0 76 64">
    <path fill="#3B435B" fill-rule="nonzero" d="M65.858 20.987a1.65 1.65 0 0 1-1.647 1.655 1.65 1.65 0 0 1-1.646-1.655 1.65 1.65 0 0 1 1.646-1.655c.91 0 1.647.74 1.647 1.655m-3.713 16.156c-1.893 4.486-3.85 9.124-6.357 12.91-3.976 6.01-12.237 10.028-21.559 10.487-10.795.527-24.36-3.782-30.94-17.288 5.835-.535 10.848-1.19 15.2-1.978a39.369 39.369 0 0 0 5.578 3.214 1.316 1.316 0 0 0 1.754-.63c.31-.661.03-1.45-.628-1.763C14.65 37.081 8.935 28.946 8.211 17.918c-.383-5.85.782-11.03 1.6-13.83.226.26.46.518.7.773 5.767 6.096 13.485 9.003 22.243 11.915 6.067 2.018 13.33 5.19 15.66 11.863.24.69.991 1.052 1.679.81a1.326 1.326 0 0 0 .807-1.687 15.7 15.7 0 0 0-1.6-3.29c2.946-3.51 6.548-7.265 11.259-8.056 2.424-.406 5.006.121 7.674 1.571 1.639.892 3.107 2.611 4.084 3.888-4.433 1.671-7.124 8.048-10.172 15.268m13.356-15.407c-.086-.11-.234-.314-.368-.497-.985-1.35-3.035-4.16-5.647-5.58-3.195-1.737-6.344-2.361-9.361-1.854-5.362.9-9.378 4.9-12.464 8.518-3.7-4.138-9.242-6.45-14.08-8.06-8.414-2.798-15.814-5.575-21.16-11.226A19.3 19.3 0 0 1 10.44.585a1.317 1.317 0 0 0-.897-.567c-1.078-.16-1.417.777-1.641 1.396-.119.329-.306.871-.524 1.593-1.117 3.702-2.773 11.108-1.3 19.118 1.26 6.848 4.477 12.524 9.594 16.964-4.19.667-8.963 1.222-14.467 1.69-.42.035-.798.271-1.017.635a1.33 1.33 0 0 0-.085 1.2C3.07 49.652 8.111 55.263 14.682 58.84c5.306 2.888 11.39 4.393 17.706 4.393.654 0 1.311-.016 1.97-.048 10.295-.508 19.126-4.868 23.624-11.665 2.641-3.992 4.648-8.746 6.588-13.343 3.057-7.24 5.943-14.08 10.113-14.08A1.32 1.32 0 0 0 76 22.773c0-.42-.195-.795-.5-1.037"/>
</svg>
