<?xml version="1.0" encoding="UTF-8"?>
<svg width="16px" height="16px" viewBox="0 0 16 16" version="1.1" xmlns="http://www.w3.org/2000/svg" xmlns:xlink="http://www.w3.org/1999/xlink">
    <!-- Generator: sketchtool 48.2 (47327) - http://www.bohemiancoding.com/sketch -->
    <title>4E6A6108-C0C1-4A22-ACD0-6732D4C9356D</title>
    <desc>Created with sketchtool.</desc>
    <defs></defs>
    <g id="Claims-landing-/-Draft" stroke="none" stroke-width="1" fill="none" fill-rule="evenodd" transform="translate(-426.000000, -2445.000000)">
        <g id="Group-11" transform="translate(426.000000, 2445.000000)" fill="#0086DB">
            <path d="M5.31904256,10.4725863 L9.8352749,10.4725863 L11.025243,5.62657757 L6.5090107,5.62657757 L5.31904256,10.4725863 Z M9.57725676,11.4944168 L5.07540234,11.4944168 L4.06502737,15.6174714 C4.00986847,15.8429444 3.81798873,16 3.59839882,16 L3.17542684,16 C2.85989707,16 2.62932767,15.6842269 2.7087983,15.360421 L3.65591046,11.4944168 L0.482313536,11.4944168 C0.215930071,11.4944168 0,11.2656199 0,10.98364 C0,10.7013832 0.215930071,10.4725863 0.482313536,10.4725863 L3.89981211,10.4725863 L5.08978025,5.62657757 L1.57189772,5.62657757 C1.30551426,5.62657757 1.08958418,5.39778059 1.08958418,5.11552378 L1.08958418,5.0825615 C1.08958418,4.80030469 1.30551426,4.57150771 1.57189772,4.57150771 L5.34779838,4.57150771 L6.38588351,0.381143639 C6.44156523,0.156778561 6.63318356,0 6.85225063,0 L7.27443836,0 C7.59049097,0 7.82132179,0.316881048 7.74106691,0.640963939 L6.76729025,4.57150771 L11.2832612,4.57150771 L12.3213463,0.381143639 C12.377028,0.156778561 12.5686464,0 12.7877134,0 L13.2242791,0 C13.5403317,0 13.7711625,0.316881048 13.6906462,0.640963939 L12.7168695,4.57150771 L15.5179479,4.57150771 C15.7843313,4.57150771 16,4.80030469 16,5.0825615 L16,5.11552378 C16,5.39778059 15.7843313,5.62657757 15.5179479,5.62657757 L12.4588514,5.62657757 L11.2688833,10.4725863 L14.4424802,10.4725863 C14.7088637,10.4725863 14.9247937,10.7013832 14.9247937,10.98364 C14.9247937,11.2656199 14.7088637,11.4944168 14.4424802,11.4944168 L11.0108651,11.4944168 L10.0007516,15.6174714 C9.94559268,15.8429444 9.75345152,16 9.53412303,16 L9.09677314,16 C8.78124336,16 8.55067396,15.6842269 8.62988318,15.360421 L9.57725676,11.4944168 Z" id="Fill-1"></path>
        </g>
    </g>
</svg>