<svg xmlns="http://www.w3.org/2000/svg" width="76" height="98" viewBox="0 0 76 98">
    <g fill="#C1C6D0" fill-rule="evenodd">
        <path d="M71.615 90.462a3.766 3.766 0 0 1-3.769 3.769H7.538a3.766 3.766 0 0 1-3.769-3.77V18.847c0-2.08 1.685-3.77 3.77-3.77h60.307a3.768 3.768 0 0 1 3.77 3.77v71.616zm-3.769-79.154H7.538A7.541 7.541 0 0 0 0 18.846v71.616A7.541 7.541 0 0 0 7.538 98h60.308a7.541 7.541 0 0 0 7.539-7.538V18.846a7.541 7.541 0 0 0-7.539-7.538z"/>
        <path d="M27.64 15.077c0-5.552 4.5-10.053 10.052-10.053s10.053 4.5 10.053 10.053H27.64zM37.692 0c-8.326 0-15.077 6.75-15.077 15.077H52.77C52.77 6.75 46.02 0 37.692 0z"/>
        <path d="M52.77 11.308v7.538c0 2.08-1.686 3.77-3.77 3.77H26.385a3.768 3.768 0 0 1-3.77-3.77v-7.538h-3.769v7.538a7.541 7.541 0 0 0 7.539 7.539H49a7.541 7.541 0 0 0 7.538-7.539v-7.538H52.77zM32.138 68.457l-6.577-19.736-9.702 9.702h-4.55v-3.769h2.99L25.122 43.83c.958-.961 2.59-.573 3.02.712l5.944 17.829 5.627-14.078c.562-1.406 2.473-1.602 3.313-.343l6.269 9.4 2.695-2.695h12.087v3.77H53.551l-3.215 3.21a1.886 1.886 0 0 1-2.906-.286l-5.549-8.322-6.211 15.533c-.652 1.624-2.978 1.557-3.532-.102"/>
    </g>
</svg>
