<svg xmlns="http://www.w3.org/2000/svg" width="25" height="25" viewBox="0 0 25 25">
    <path fill="#E8007F" fill-rule="evenodd" d="M12.305 17.228a.976.976 0 1 0 0 1.952.976.976 0 0 0 0-1.952m.195 6.209c-6.04 0-10.937-4.897-10.937-10.938 0-6.04 4.896-10.937 10.937-10.937 6.04 0 10.938 4.897 10.938 10.937 0 6.041-4.897 10.938-10.938 10.938m0-23.438C5.597 0 0 5.597 0 12.5 0 19.403 5.597 25 12.5 25 19.404 25 25 19.403 25 12.5 25 5.596 19.404 0 12.5 0m-.195 15.625c.422 0 .763-.295.763-.66V6.13c0-.365-.341-.662-.763-.662-.421 0-.763.297-.763.662v8.833c0 .366.342.661.763.661"/>
</svg>
