<svg xmlns="http://www.w3.org/2000/svg" width="59" height="76" viewBox="0 0 59 76">
    <g fill="#3B435B" fill-rule="evenodd">
        <path d="M29.27 2.788c-9.606 0-17.423 7.816-17.423 17.422 0 9.607 7.817 17.423 17.423 17.423 9.606 0 17.423-7.816 17.423-17.423 0-9.606-7.817-17.422-17.423-17.422m0 37.633c-11.145 0-20.21-9.066-20.21-20.21C9.06 9.064 18.125 0 29.27 0c11.145 0 20.21 9.065 20.21 20.21 0 11.145-9.065 20.21-20.21 20.21"/>
        <path d="M2.804 72.479h52.932c-.55-22.597-14.493-30.664-26.466-30.664S3.353 49.882 2.804 72.479zm55.736 2.787H0v-1.393C0 48.15 15.767 39.027 29.27 39.027s29.27 9.124 29.27 34.846v1.393z"/>
        <path d="M21.465 75.266c-5.38 0-9.756-4.376-9.756-9.756s4.376-9.757 9.756-9.757h13.381v2.788h-13.38a6.975 6.975 0 0 0-6.97 6.969 6.975 6.975 0 0 0 6.97 6.969v2.787z"/>
        <path d="M31.157 72.482H49.48L39.185 46.378l-8.028 26.104zm20.372 2.787H29.27c-.44 0-.855-.209-1.12-.566a1.386 1.386 0 0 1-.209-1.235l9.751-31.71a1.394 1.394 0 0 1 1.277-.986c.702.003 1.135.332 1.35.881l12.505 31.71a1.392 1.392 0 0 1-1.294 1.906z"/>
        <path d="M46.693 58.54H45.3a1.394 1.394 0 0 1 0-2.787h1.394a1.394 1.394 0 0 1 0 2.788M45.996 16.132H12.887c-.672 0-1.249-.48-1.371-1.14a1.4 1.4 0 0 1 .875-1.555L38.74 3.396a1.39 1.39 0 0 1 1.798.805 1.385 1.385 0 0 1-.806 1.796L20.46 13.345h25.537a1.394 1.394 0 0 1 0 2.787"/>
        <path d="M27.876 9.757c-.147 0-.292-.023-.44-.07L19.073 6.9a1.398 1.398 0 0 1-.884-1.764 1.404 1.404 0 0 1 1.765-.884l8.363 2.788a1.398 1.398 0 0 1 .884 1.764 1.403 1.403 0 0 1-1.325.954"/>
    </g>
</svg>
