<svg xmlns="http://www.w3.org/2000/svg" width="63" height="76" viewBox="0 0 63 76">
    <path fill="#3B435B" fill-rule="nonzero" d="M15.597 27.636h24.262a1.73 1.73 0 0 0 1.733-1.727V15.545a1.73 1.73 0 0 0-1.733-1.727H15.597a1.73 1.73 0 0 0-1.733 1.727V25.91a1.73 1.73 0 0 0 1.733 1.727zm1.733-10.363h20.796v6.909H17.33v-6.91zm44.55 50.596l-6.424-6.403V1.727A1.73 1.73 0 0 0 53.723 0H1.733A1.73 1.73 0 0 0 0 1.727v69.09a1.73 1.73 0 0 0 1.733 1.728h49.54l2.957 2.948a1.735 1.735 0 0 0 2.45 0l5.2-5.181a1.721 1.721 0 0 0 0-2.443zM47.508 53.545l4.482-4.467v8.934l-4.482-4.467zm4.482-50.09v40.739l-7.44-7.415a1.735 1.735 0 0 0-2.45 0l-19.063 19a1.721 1.721 0 0 0 0 2.442l.507.506H3.466V3.455H51.99zM3.466 69.09v-6.91H27.01l4.692 4.676a1.735 1.735 0 0 0 2.45 0l5.707-5.688 7.947 7.922H3.466zm51.99 2.739L41.084 57.506a1.735 1.735 0 0 0-2.45 0l-5.707 5.688L26.712 57l16.613-16.558 6.214 6.194-5.706 5.688a1.721 1.721 0 0 0 0 2.442l14.371 14.325-2.748 2.739z"/>
</svg>
