<svg xmlns="http://www.w3.org/2000/svg" width="16" height="13" viewBox="0 0 16 13">
    <path fill="#1589EE" fill-rule="nonzero" d="M5.5 3a3.5 3.5 0 1 0 0 7 3.5 3.5 0 1 0 0-7zm0 6a2.5 2.5 0 1 1 .001-5.001 2.5 2.5 0 0 1 0 5zm8.001 0h-3a.5.5 0 0 0 0 1h3a.5.5 0 0 0 0-1zm-.5-9.001h-10a3 3 0 0 0-3.001 3v7a3 3 0 0 0 3 3h10.001a3 3 0 0 0 3-3V3a3 3 0 0 0-3-3zm2 10.5a1.5 1.5 0 0 1-1.5 1.5h-11A1.5 1.5 0 0 1 1 10.5v-8C1 1.67 1.67 1 2.5 1h11a1.5 1.5 0 0 1 1.5 1.5v8zm-1.5-7.5h-3a.5.5 0 0 0 0 1h3a.5.5 0 0 0 0-1zm0 2h-3a.5.5 0 0 0 0 1h3a.5.5 0 0 0 0-1zm0 2h-3a.502.502 0 0 0 0 1h3a.5.5 0 0 0 0-1z"/>
</svg>
