<svg xmlns="http://www.w3.org/2000/svg" width="16" height="16" viewBox="0 0 16 16">
    <path fill="#1589EE" fill-rule="nonzero" d="M8.533 6.436H7.467v2.125H5.333v1.062h2.134v2.126h1.066V9.623h2.134V8.56H8.533V6.436zm5.334-4.25h-2.134V.061H4.267v2.125H2.133A2.13 2.13 0 0 0 0 4.311v9.563a2.13 2.13 0 0 0 2.133 2.125h11.734A2.13 2.13 0 0 0 16 13.874V4.31a2.13 2.13 0 0 0-2.133-2.125zM5.333 1.124h5.334v1.062H5.333V1.124zm9.6 12.75c0 .586-.476 1.062-1.066 1.062H2.133a1.065 1.065 0 0 1-1.066-1.062V4.31c0-.587.478-1.062 1.066-1.062h11.734c.59 0 1.066.475 1.066 1.062v9.563z"/>
</svg>
