<svg xmlns="http://www.w3.org/2000/svg" width="12" height="20" viewBox="0 0 12 20">
    <path fill="#0086DB" fill-rule="nonzero" d="M6 17.527c.662 0 1.2-.552 1.2-1.234 0-.683-.536-1.235-1.2-1.235-.664 0-1.2.552-1.2 1.235 0 .682.538 1.234 1.2 1.234zM9.6.234H2.4C1.075.234 0 1.341 0 2.704V17.528c0 1.365 1.075 2.472 2.4 2.472h7.2c1.326 0 2.4-1.107 2.4-2.472V2.705C12 1.34 10.926.235 9.6.235zm1.2 17.293c0 .683-.536 1.236-1.2 1.236H2.4c-.662 0-1.2-.553-1.2-1.236v-3.705h9.6v3.705zm0-4.94H1.2V5.175h9.6v7.412zm0-8.647H1.2V2.705c0-.683.538-1.236 1.2-1.236h7.2c.664 0 1.2.553 1.2 1.236V3.94z"/>
</svg>
