<svg xmlns="http://www.w3.org/2000/svg" xmlns:xlink="http://www.w3.org/1999/xlink" width="19" height="18" viewBox="0 0 19 18">
    <defs>
        <path id="a" d="M9.5 18H19V0H0v18z"/>
    </defs>
    <g fill="none" fill-rule="evenodd">
        <mask id="b" fill="#fff">
            <use xlink:href="#a"/>
        </mask>
        <path fill="#0086DB" d="M17.813 7.8H1.188v-3c0-.662.531-1.2 1.187-1.2h14.25c.656 0 1.188.538 1.188 1.2v3zM7.719 11.4h3.562V9H7.72v2.4zm10.093 4.2c0 .663-.531 1.2-1.187 1.2H2.375a1.193 1.193 0 0 1-1.188-1.2V9h5.344v3.6h5.938V9h5.344v6.6zM7.126 2.398h4.75V1.2h-4.75v1.2zm9.5.002h-3.563V.6c0-.332-.265-.6-.593-.6H6.53a.597.597 0 0 0-.593.6v1.8H2.374C1.063 2.4 0 3.475 0 4.8v10.8C0 16.926 1.063 18 2.375 18h14.25C17.937 18 19 16.926 19 15.6V4.8c0-1.325-1.063-2.4-2.375-2.4z" mask="url(#b)"/>
    </g>
</svg>
