<svg xmlns="http://www.w3.org/2000/svg" width="50" height="58" viewBox="0 0 50 58">
    <g fill="none" fill-rule="evenodd">
        <g fill="#FFF" fill-rule="nonzero" stroke="#00629B" stroke-width=".5">
            <path d="M43.555 7.152H25.323a1.22 1.22 0 0 0-.244 0l-.152.05h-.073a1.22 1.22 0 0 0-.159.085h-.049a1.22 1.22 0 0 0-.183.152l-11.95 12.018a1.22 1.22 0 0 0-.153.183v.049a1.22 1.22 0 0 0-.086.159v.073c-.02.05-.035.1-.048.152a1.22 1.22 0 0 0 0 .244v30.427a6.098 6.098 0 0 0 6.097 6.097h25.305a6.098 6.098 0 0 0 6.098-6.097V13.25a6.098 6.098 0 0 0-6.171-6.098zm-19.451 4.165v6.567a1.22 1.22 0 0 1-1.22 1.22h-6.567l7.787-7.787zm23.11 39.433a3.659 3.659 0 0 1-3.66 3.659H18.25a3.659 3.659 0 0 1-3.659-3.659V21.543h8.293a3.659 3.659 0 0 0 3.659-3.659V9.591h17.012a3.659 3.659 0 0 1 3.658 3.659v37.5z"/>
            <path d="M31.689 28.622l-.055-.037-.085-.06-.116-.062-.085-.036-.14-.043h-.08a1.22 1.22 0 0 0-.457 0h-.086l-.134.043-.085.043-.116.06-.08.055-.06.043-7.53 6.311a1.22 1.22 0 1 0 1.566 1.872l5.537-4.64v16.006a1.22 1.22 0 1 0 2.439 0V32.17l5.537 4.64a1.22 1.22 0 0 0 1.567-1.866l-7.537-6.323z"/>
        </g>
        <g transform="translate(1 1)">
            <circle cx="12" cy="12" r="12" fill="#E8007F" stroke="#FFF" stroke-width="2"/>
            <text fill="#FFF" font-family="Roboto-Bold, Roboto" font-size="16" font-weight="bold">
                <tspan x="6.765" y="18">5</tspan>
            </text>
        </g>
    </g>
</svg>
