<svg xmlns="http://www.w3.org/2000/svg" width="60" height="60" viewBox="0 0 60 60">
    <g fill="#FFF" fill-rule="nonzero">
        <path d="M0 0v60h60V0H0zm58.065 1.935v5.807H1.935V1.935h56.13zm-56.13 56.13V9.677h56.13v48.388H1.935z"/>
        <path d="M3.871 3.871h1.935v1.935H3.871zM7.742 3.871h1.935v1.935H7.742zM11.613 3.871h1.935v1.935h-1.935zM3.871 56.129h52.258V11.613H3.871v44.516zm1.935-42.58h48.388v40.645H5.806V13.548z"/>
        <path d="M47.703 21.574L45 24.277l-2.703-2.703-1.368 1.368 2.703 2.703-2.703 2.703 1.368 1.368L45 27.014l2.703 2.702 1.368-1.368-2.703-2.703 2.703-2.703zM35.523 21.574l-1.368 1.368 2.287 2.288C11.818 26.642 7.792 50.89 7.754 51.143l1.913.294c.036-.235 3.776-22.763 26.625-24.259l-2.137 2.138 1.368 1.368 4.555-4.555-4.555-4.555zM16.452 23.226a3.875 3.875 0 0 0 3.87-3.871 3.875 3.875 0 0 0-3.87-3.871 3.875 3.875 0 0 0-3.871 3.87 3.875 3.875 0 0 0 3.87 3.872zm0-5.807c1.067 0 1.935.868 1.935 1.936a1.937 1.937 0 0 1-1.935 1.935 1.937 1.937 0 0 1-1.936-1.935c0-1.068.868-1.936 1.936-1.936zM39.677 35.806a3.875 3.875 0 0 0-3.87 3.871 3.875 3.875 0 0 0 3.87 3.871 3.875 3.875 0 0 0 3.871-3.87 3.875 3.875 0 0 0-3.87-3.872zm0 5.807a1.937 1.937 0 0 1-1.935-1.936c0-1.067.868-1.935 1.935-1.935 1.068 0 1.936.868 1.936 1.935a1.937 1.937 0 0 1-1.936 1.936zM23.226 44.516a3.875 3.875 0 0 0-3.871 3.871 3.875 3.875 0 0 0 3.87 3.871 3.875 3.875 0 0 0 3.872-3.87 3.875 3.875 0 0 0-3.871-3.872zm0 5.807a1.937 1.937 0 0 1-1.936-1.936c0-1.067.868-1.935 1.936-1.935 1.067 0 1.935.868 1.935 1.935a1.937 1.937 0 0 1-1.935 1.936z"/>
    </g>
</svg>
