<svg xmlns="http://www.w3.org/2000/svg" width="53" height="58" viewBox="0 0 53 58">
    <g fill="none" fill-rule="evenodd">
        <path fill="#FFF" fill-rule="nonzero" stroke="#00629B" stroke-width="1.8" d="M27.573 27.667c0-.92-.753-1.667-1.668-1.667h-6.334a2.368 2.368 0 0 0-2.356 2.271l-.572 14.89c-.015.368-.193.918-.394 1.22l-4.64 6.96c-.485.726-.71 1.782-.566 2.643l.115.69A2.809 2.809 0 0 0 13.908 57h35.33c1.345 0 2.53-1 2.75-2.326l.115-.69c.144-.862-.082-1.918-.566-2.643l-4.64-6.96a2.775 2.775 0 0 1-.394-1.22l-.572-14.89A2.366 2.366 0 0 0 43.575 26h-6.334c-.921 0-1.668.74-1.668 1.667 0 .92.743 1.666 1.665 1.666h4.733c.367 0 .676.293.69.666l.488 12.669a.634.634 0 0 1-.644.665H20.641a.634.634 0 0 1-.644-.665l.488-12.669a.701.701 0 0 1 .69-.666h4.733c.92 0 1.665-.74 1.665-1.666zM15.965 53c-.367 0-.503-.243-.295-.554l3.457-5.173a.682.682 0 0 1 .511-.273h23.87c.181 0 .412.125.51.273l3.448 5.172c.204.306.068.554-.295.554L15.965 53zM30.21 25.904l-6.684-6.824c-1.88-1.886.94-4.714 2.821-2.83l2.288 2.304c.521.525.943.35.943-.388v-9.17c0-1.097.893-1.996 1.995-1.996 1.099 0 1.994.893 1.994 1.995v9.17c0 .736.423.914.944.39l2.288-2.304c1.88-1.885 4.7.943 2.82 2.829l-6.615 6.814a1.939 1.939 0 0 1-2.794.01z"/>
        <g transform="translate(1 1)">
            <circle cx="12" cy="12" r="12" fill="#E8007F" stroke="#FFF" stroke-width="2"/>
            <text fill="#FFF" font-family="Roboto-Bold, Roboto" font-size="16" font-weight="bold">
                <tspan x="7.765" y="17">4</tspan>
            </text>
        </g>
    </g>
</svg>
