<svg xmlns="http://www.w3.org/2000/svg" width="64" height="52" viewBox="0 0 64 52">
    <g fill="none" fill-rule="evenodd">
        <g transform="translate(1 1)">
            <circle cx="12" cy="12" r="12" fill="#E8007F" stroke="#FFF" stroke-width="2"/>
            <text fill="#FFF" font-family="Roboto-Bold, Roboto" font-size="16" font-weight="bold">
                <tspan x="8" y="18">3</tspan>
            </text>
        </g>
        <g fill="#FFF" fill-rule="nonzero">
            <path d="M46.396 51.875H33.792a1.042 1.042 0 0 1-1.042-1.042 5.216 5.216 0 0 1 5.208-5.208h1.652l-7.964-7.965a3.232 3.232 0 0 1-.954-2.3c0-.868.34-1.685.954-2.3 1.227-1.225 3.369-1.229 4.598 0l1.866 1.867c.159-.356.382-.69.673-.98a3.271 3.271 0 0 1 2.755-.92 3.248 3.248 0 0 1 4.26-2.454c.152-.48.419-.931.798-1.313a3.257 3.257 0 0 1 4.598 0l3.229 3.23a11.287 11.287 0 0 1 3.327 8.03c0 6.261-5.094 11.355-11.354 11.355zM35.01 49.792h11.386c5.112 0 9.27-4.159 9.27-9.271a9.211 9.211 0 0 0-2.714-6.554l-3.23-3.23a1.168 1.168 0 1 0-1.651 1.653 1.046 1.046 0 0 1 0 1.475 1.042 1.042 0 0 1-1.473 0l-1.042-1.042a1.168 1.168 0 0 0-1.652 1.65l1.042 1.042a1.046 1.046 0 0 1 0 1.473 1.042 1.042 0 0 1-1.473 0l-1.563-1.563a1.196 1.196 0 0 0-1.652 0 1.16 1.16 0 0 0-.341.825c0 .31.12.606.341.825l2.605 2.604a1.046 1.046 0 0 1 0 1.475 1.042 1.042 0 0 1-1.473 0l-6.62-6.619c-.44-.441-1.21-.44-1.651 0a1.162 1.162 0 0 0 0 1.65l9.741 9.742a1.042 1.042 0 1 1-.737 1.78h-4.167a3.137 3.137 0 0 0-2.946 2.085zM21.292 44.583c-4.021 0-7.292-3.27-7.292-7.291C14 33.27 17.27 30 21.292 30c4.02 0 7.291 3.27 7.291 7.292 0 4.02-3.27 7.291-7.291 7.291zm0-12.5a5.216 5.216 0 0 0-5.209 5.209 5.216 5.216 0 0 0 5.209 5.208 5.216 5.216 0 0 0 5.208-5.208 5.216 5.216 0 0 0-5.208-5.209zM58.181 16.283a1.042 1.042 0 0 1-.244-2.054 5.187 5.187 0 0 0 1.588-.681 1.042 1.042 0 0 1 1.127 1.752c-.683.44-1.431.76-2.223.954a1.02 1.02 0 0 1-.248.03zm-4.073-.39c-.143 0-.291-.03-.433-.093a7.252 7.252 0 0 1-2.002-1.358 1.04 1.04 0 0 1-.033-1.473 1.039 1.039 0 0 1 1.472-.034c.421.403.903.73 1.432.97a1.043 1.043 0 1 1-.435 1.99zm8.509-3.64a1.042 1.042 0 0 1-.985-1.381c.189-.547.285-1.122.285-1.705 0-.5-.07-.994-.209-1.467a1.043 1.043 0 0 1 .707-1.294 1.046 1.046 0 0 1 1.293.707 7.364 7.364 0 0 1-.106 4.44c-.15.428-.554.7-.985.7zm-12.098-1.157c-.51 0-.954-.375-1.032-.894a7.425 7.425 0 0 1 .06-2.419 1.043 1.043 0 0 1 2.047.396 5.325 5.325 0 0 0-.042 1.727 1.041 1.041 0 0 1-1.033 1.19zm2.098-5.613a1.04 1.04 0 0 1-.684-1.827 7.283 7.283 0 0 1 2.063-1.258 1.04 1.04 0 1 1 .777 1.931 5.25 5.25 0 0 0-1.477.902 1.033 1.033 0 0 1-.68.252zm7.716-.366c-.21 0-.42-.063-.604-.194a5.157 5.157 0 0 0-1.552-.754 1.042 1.042 0 1 1 .588-2c.78.229 1.514.585 2.177 1.06a1.04 1.04 0 0 1-.609 1.888z"/>
            <path d="M24.417 32.083a1.039 1.039 0 0 1-1.015-1.285c.163-.673.448-1.402.848-2.17a1.042 1.042 0 1 1 1.848.964c-.323.616-.548 1.187-.67 1.693-.113.477-.54.798-1.011.798zm3.11-5.37a1.042 1.042 0 0 1-.804-1.702 36.79 36.79 0 0 1 1.412-1.62 1.043 1.043 0 0 1 1.532 1.415 32.83 32.83 0 0 0-1.332 1.525 1.05 1.05 0 0 1-.808.381zm4.331-4.513a1.043 1.043 0 0 1-.704-1.81 57.872 57.872 0 0 1 1.588-1.409 1.042 1.042 0 0 1 1.354 1.584c-.521.45-1.036.904-1.531 1.362a1.046 1.046 0 0 1-.707.273zm4.815-4c-.315 0-.627-.142-.831-.415a1.039 1.039 0 0 1 .204-1.458 67.52 67.52 0 0 1 1.71-1.252 1.04 1.04 0 0 1 1.452.25 1.04 1.04 0 0 1-.25 1.452c-.554.392-1.108.796-1.658 1.213-.187.141-.408.21-.627.21zm5.17-3.52a1.042 1.042 0 0 1-.539-1.934 41.582 41.582 0 0 1 1.852-1.065 1.043 1.043 0 0 1 .994 1.832c-.577.312-1.167.652-1.767 1.014a1.05 1.05 0 0 1-.54.152zm5.594-2.786c-.427 0-.827-.265-.98-.69a1.044 1.044 0 0 1 .628-1.333 13.2 13.2 0 0 1 2.186-.598 1.048 1.048 0 0 1 1.202.854 1.044 1.044 0 0 1-.854 1.202c-.534.09-1.15.26-1.83.504-.116.042-.235.06-.352.06z"/>
        </g>
    </g>
</svg>
