<svg xmlns="http://www.w3.org/2000/svg" width="63" height="55" viewBox="0 0 63 55">
    <g fill="none" fill-rule="evenodd">
        <g fill="#FFF" fill-rule="nonzero" stroke="#00629B" transform="translate(8 4)">
            <path d="M25.056 44.344a1.389 1.389 0 0 0 0-2.777H3.81a.756.756 0 0 1-.755-.756V13.283h42.738v7.545a1.389 1.389 0 0 0 2.778 0v-17.3A3.533 3.533 0 0 0 45.04 0H3.81A3.533 3.533 0 0 0 .278 3.528V40.81a3.533 3.533 0 0 0 3.533 3.533h21.245zM3.81 2.778H45.04c.417 0 .755.338.755.755v6.973H3.056V3.528a.756.756 0 0 1 .755-.75zM53.256 39.3l-12.662-4.65a1.389 1.389 0 0 0-1.783 1.783l4.65 12.661c.189.513.66.868 1.206.906h.1c.511 0 .98-.283 1.222-.733l1.917-3.567 3.427 3.428A1.39 1.39 0 0 0 53.3 47.16l-3.428-3.428 3.567-1.916a1.389 1.389 0 0 0-.178-2.528l-.005.011zM45 45.233l-2.55-6.944 6.944 2.55-2.488 1.339c-.235.128-.428.32-.556.555l-1.35 2.5zM50.267 27.906l-2.317 2.316a1.39 1.39 0 1 0 1.967 1.967l2.305-2.322a1.39 1.39 0 0 0-1.966-1.967l.01.006zM33.05 48.472c.369.001.723-.144.983-.405l2.317-2.317a1.39 1.39 0 1 0-1.967-1.967l-2.31 2.328a1.389 1.389 0 0 0 .983 2.372l-.006-.01z"/>
            <path d="M36.35 30.222l-2.317-2.316a1.39 1.39 0 1 0-1.966 1.966l2.316 2.317a1.39 1.39 0 0 0 1.967-1.967zM40.761 25.117v3.272a1.389 1.389 0 0 0 2.778 0v-3.272a1.389 1.389 0 1 0-2.778 0zM33.944 37.983c0-.767-.621-1.389-1.388-1.389h-3.273a1.389 1.389 0 0 0 0 2.778h3.273c.767 0 1.388-.622 1.388-1.389z"/>
            <path d="M40.744 18.95c0-.767-.621-1.389-1.388-1.389H8.922c-.767 0-1.389.622-1.389 1.389v17c0 .767.622 1.389 1.39 1.389H23.26a1.389 1.389 0 1 0 0-2.778h-12.95V20.34h29.045a1.389 1.389 0 0 0 1.388-1.389z"/>
            <circle cx="7.244" cy="6.839" r="1.55"/>
            <circle cx="12.539" cy="6.839" r="1.55"/>
            <circle cx="17.828" cy="6.839" r="1.55"/>
        </g>
        <g transform="translate(1 1)">
            <circle cx="12" cy="12" r="12" fill="#E8007F" stroke="#FFF" stroke-width="2"/>
            <text fill="#FFF" font-family="Roboto-Bold, Roboto" font-size="16" font-weight="bold">
                <tspan x="7.765" y="17">1</tspan>
            </text>
        </g>
    </g>
</svg>
