<svg xmlns="http://www.w3.org/2000/svg" width="20" height="18" viewBox="0 0 20 18">
    <g fill="none" fill-rule="nonzero">
        <path fill="#3B435B" d="M8.368 8.375a.979.979 0 0 0 0 1.4 1.02 1.02 0 0 0 1.424 0l6.685-6.572V5.4c0 .495.41.899.915.899a.908.908 0 0 0 .916-.9V.9a.889.889 0 0 0-.268-.636.92.92 0 0 0-.647-.264h-4.578a.908.908 0 0 0-.915.9c0 .496.41.9.915.9h2.24L8.368 8.375zm9.94-1.853v9.235c0 1.239-.908 2.243-2.03 2.243H2.03C.91 18 0 16.994 0 15.757V2.243C0 1.004.908 0 2.03 0h9.77-4.477c.506 0 .915.403.915.9s-.41.9-.915.9H2.352c-.291 0-.521.269-.521.6v13.2c0 .325.233.6.521.6h13.604c.29 0 .52-.269.52-.6v-4.8c0-.497.41-.9.916-.9s.916.403.916.9V6.522z"/>
        <path fill="#E8007F" d="M9.295 8.375a.979.979 0 0 0 0 1.4 1.02 1.02 0 0 0 1.424 0l6.685-6.572V5.4c0 .495.41.899.915.899a.908.908 0 0 0 .916-.9V.9a.889.889 0 0 0-.268-.636A.92.92 0 0 0 18.32 0h-4.578a.908.908 0 0 0-.915.9c0 .496.41.9.915.9h2.24L9.296 8.375z"/>
    </g>
</svg>
