<svg xmlns="http://www.w3.org/2000/svg" xmlns:xlink="http://www.w3.org/1999/xlink" width="61" height="61" viewBox="0 0 61 61">
    <defs>
        <path id="a" d="M0 33.87h25.13V0H0z"/>
    </defs>
    <g fill="none" fill-rule="evenodd" transform="translate(1 1)">
        <g transform="translate(16.389 11.472)">
            <path fill="#1B436F" d="M23.873 31.268c0 .72-.561 1.301-1.256 1.301H2.513c-.695 0-1.257-.581-1.257-1.3V6.548c0-.719.562-1.302 1.257-1.302h20.104c.695 0 1.256.583 1.256 1.301v24.72zM22.617 3.946H2.513C1.126 3.946 0 5.112 0 6.548v24.72c0 1.437 1.126 2.602 2.513 2.602h20.104c1.387 0 2.513-1.165 2.513-2.602V6.548c0-1.436-1.126-2.602-2.513-2.602z"/>
            <path fill="#1B436F" d="M9.33 5.261c0-1.937 1.52-3.508 3.394-3.508s3.393 1.57 3.393 3.508H9.33zM12.724 0c-2.81 0-5.09 2.356-5.09 5.261h10.18c0-2.905-2.28-5.261-5.09-5.261z"/>
            <path fill="#1B436F" d="M17.813 3.946v2.63c0 .727-.568 1.316-1.272 1.316H8.907c-.704 0-1.273-.59-1.273-1.315v-2.63H6.362v2.63c0 1.452 1.14 2.63 2.545 2.63h7.634c1.405 0 2.545-1.178 2.545-2.63v-2.63h-1.273z"/>
            <mask id="b" fill="#fff">
                <use xlink:href="#a"/>
            </mask>
            <path fill="#1B436F" d="M4.771 22.361h2.863v-2.96H4.771v2.96zm-.954.987H8.59v-4.933H3.817v4.933zM4.771 28.938h2.863v-2.96H4.771v2.96zm-.954.986H8.59v-4.932H3.817v4.932zM20.994 15.784H10.815a.647.647 0 0 1-.636-.657c0-.363.285-.658.636-.658h10.18c.35 0 .636.295.636.658a.647.647 0 0 1-.637.657M20.994 22.032H10.815a.647.647 0 0 1-.636-.657c0-.364.285-.658.636-.658h10.18c.35 0 .636.294.636.658a.647.647 0 0 1-.637.657M20.994 28.609H10.815a.647.647 0 0 1-.636-.658c0-.363.285-.657.636-.657h10.18c.35 0 .636.294.636.657a.647.647 0 0 1-.637.658" mask="url(#b)"/>
            <path fill="#E8007F" d="M6.12 16.262a.62.62 0 0 0 .434.18c.16 0 .313-.062.436-.18l4.282-4.352a.626.626 0 0 0 0-.877.603.603 0 0 0-.862 0l-3.856 3.91-2.013-2.045a.605.605 0 0 0-.863 0 .627.627 0 0 0 0 .876l2.442 2.488z" mask="url(#b)"/>
        </g>
        <circle cx="29.5" cy="29.5" r="29.5" stroke="#1B436F" stroke-width="2"/>
    </g>
</svg>
