<svg xmlns="http://www.w3.org/2000/svg" width="15" height="18" viewBox="0 0 15 18">
    <path fill="#005490" fill-rule="evenodd" d="M9.563 15.75h1.124V7.875H9.563v7.877zm-2.813 0h1.125V7.876H6.75v7.876zm-2.813 0h1.126V7.875H3.938v7.877zm9-11.25H1.688a.563.563 0 0 1 0-1.125h11.251a.563.563 0 0 1 0 1.125zm-.562 1.688v10.125c0 .31-.252.562-.563.562h-9a.563.563 0 0 1-.562-.563V5.626h10.125v.563zM5.625 2.25H9V1.125H5.625V2.25zm7.875 0h-3.375V.562A.563.563 0 0 0 9.562 0h-4.5A.563.563 0 0 0 4.5.563V2.25H1.125C.504 2.25 0 2.754 0 3.375V4.5c0 .621.504 1.125 1.125 1.125v11.25c0 .621.504 1.125 1.125 1.125h10.125c.621 0 1.125-.504 1.125-1.125V5.625c.621 0 1.125-.504 1.125-1.125V3.375c0-.621-.504-1.125-1.125-1.125z"/>
</svg>
