<svg xmlns="http://www.w3.org/2000/svg" width="22" height="22" viewBox="0 0 22 22">
    <g fill="none" fill-rule="nonzero" stroke="#921362">
        <path d="M10.942 5.334a3.27 3.27 0 0 0-3.263 3.263c0 1.81 1.478 3.237 3.263 3.237a3.27 3.27 0 0 0 3.263-3.263c0-1.81-1.479-3.237-3.263-3.237zm0 5.48a2.247 2.247 0 0 1-2.243-2.243c0-1.249 1.02-2.218 2.243-2.218 1.224 0 2.243.995 2.243 2.244s-1.02 2.217-2.243 2.217z"/>
        <path d="M10.942 1C5.462 1 1 5.461 1 10.942c0 5.48 4.461 9.942 9.942 9.942 5.48 0 9.942-4.461 9.942-9.942 0-5.48-4.461-9.942-9.942-9.942zm0 18.864a8.803 8.803 0 0 1-4.793-1.402c.077-2.651 2.27-4.945 4.793-4.945 2.524 0 4.716 2.294 4.792 4.945a8.803 8.803 0 0 1-4.792 1.402zm5.761-2.116c-.408-2.931-2.88-5.251-5.761-5.251-2.88 0-5.353 2.32-5.761 5.251a8.874 8.874 0 0 1-3.161-6.806c0-4.92 4.002-8.922 8.922-8.922 4.92 0 8.922 4.002 8.922 8.922a8.874 8.874 0 0 1-3.16 6.806z"/>
    </g>
</svg>
