<svg xmlns="http://www.w3.org/2000/svg" width="16" height="16" viewBox="0 0 16 16">
    <path fill="#0086DB" fill-rule="evenodd" d="M12.5 11a.5.5 0 1 1 0-1 .5.5 0 0 1 0 1zm0-2a1.5 1.5 0 1 0 0 3 1.5 1.5 0 0 0 0-3zm-9 2a.5.5 0 1 1 0-1 .5.5 0 0 1 0 1zm0-2a1.5 1.5 0 1 0 0 3 1.5 1.5 0 0 0 0-3zM15 9v3a1 1 0 0 1-1 1H2a1 1 0 0 1-1-1V9a1 1 0 0 1 1-1h12a1 1 0 0 1 1 1zm-1.5 5.5a.5.5 0 0 1-1 0V14h1v.5zM3 14.5a.5.5 0 0 1-1 0V14h1v.5zM3 3a2 2 0 0 1 2-2h6a2 2 0 0 1 2 2l.8 4H2.2L3 3zm13 3.5v-1a.5.5 0 0 0-.5-.5h-1a.507.507 0 0 0-.098.01L14 3a3 3 0 0 0-3-3H5a3 3 0 0 0-3 3l-.402 2.01A.507.507 0 0 0 1.5 5h-1a.5.5 0 0 0-.5.5v1a.5.5 0 0 0 .5.5h.7l-.037.185A1.998 1.998 0 0 0 0 9v5h1v1a1 1 0 0 0 1 1h1a1 1 0 0 0 1-1v-1h7.5v1a1 1 0 0 0 1 1h1a1 1 0 0 0 1-1v-1H16V9c0-.806-.477-1.498-1.163-1.815L14.8 7h.7a.5.5 0 0 0 .5-.5z"/>
</svg>
