<svg xmlns="http://www.w3.org/2000/svg" width="90" height="81" viewBox="0 0 90 81">
    <g fill="#C6007E" fill-rule="nonzero">
        <path d="M11.348 22.043l-9.652-8.217C.522 12.783.26 10.956 1.435 9.652c1.043-1.174 2.87-1.435 4.174-.26l4.956 4.304 9.522-12.261C21.13.13 22.957 0 24.261.913c1.304 1.044 1.435 2.87.522 4.174L11.348 22.043zM87.13 16.565H38.087c-1.565 0-2.87-1.304-2.87-2.87 0-1.565 1.305-2.869 2.87-2.869H87.13c1.566 0 2.87 1.304 2.87 2.87 0 1.565-1.304 2.87-2.87 2.87zM87.13 44.74H38.087c-1.565 0-2.87-1.305-2.87-2.87 0-1.566 1.305-2.87 2.87-2.87H87.13c1.566 0 2.87 1.304 2.87 2.87 0 1.565-1.304 2.87-2.87 2.87zM87.13 72.913H38.087c-1.565 0-2.87-1.304-2.87-2.87 0-1.565 1.305-2.87 2.87-2.87H87.13c1.566 0 2.87 1.305 2.87 2.87 0 1.566-1.304 2.87-2.87 2.87zM10.957 48.26c-4.957 0-8.87-4.043-8.87-8.869s4.043-8.87 8.87-8.87c4.826 0 8.87 4.044 8.87 8.87s-4.044 8.87-8.87 8.87zm0-11.869c-1.696 0-3 1.305-3 3 0 1.696 1.304 3 3 3 1.695 0 3-1.304 3-3 0-1.695-1.305-3-3-3zM10.957 80.217c-4.957 0-8.87-4.043-8.87-8.87 0-4.825 4.043-8.869 8.87-8.869 4.826 0 8.87 4.044 8.87 8.87s-4.044 8.87-8.87 8.87zm0-11.87c-1.696 0-3 1.305-3 3 0 1.696 1.304 3 3 3 1.695 0 3-1.304 3-3 0-1.695-1.305-3-3-3z"/>
    </g>
</svg>
