<?xml version="1.0" encoding="UTF-8"?>
<svg width="18px" height="22px" viewBox="0 0 18 22" version="1.1" xmlns="http://www.w3.org/2000/svg" xmlns:xlink="http://www.w3.org/1999/xlink">
    <!-- Generator: sketchtool 47 (45396) - http://www.bohemiancoding.com/sketch -->
    <title>B4ED3FD1-2109-4C41-84E9-123BC52D081A</title>
    <desc>Created with sketchtool.</desc>
    <defs></defs>
    <g id="M:-Public-Portal" stroke="none" stroke-width="1" fill="none" fill-rule="evenodd">
        <g id="Public-/-My-Profile-/-DCR-43" transform="translate(-161.000000, -1522.000000)" fill-rule="nonzero" fill="#0086DB">
            <g id="Accessibility-Icon_final" transform="translate(161.000000, 1522.000000)">
                <path d="M17.055905,9.59644252 C16.7993629,9.33307128 16.4409054,9.19401921 16.0746057,9.21408244 L11.6412546,9.46099918 L14.0810355,6.68078549 C14.4286065,6.28475195 14.5279078,5.75681759 14.3935318,5.2850669 C14.3226212,4.96180394 14.1269635,4.66767571 13.8263794,4.47975677 C13.8171475,4.47316835 7.99447164,1.08877341 7.99447164,1.08877341 C7.51901002,0.81242398 6.91989331,0.873308921 6.50958473,1.23947937 L3.66528594,3.77804043 C3.14124909,4.24571889 3.09535409,5.04990336 3.56280806,5.57426209 C4.03029513,6.09855461 4.83406979,6.14460733 5.35807355,5.67676333 L7.51444368,3.75218337 L9.29710211,4.78795575 L6.15043237,8.37367822 C4.84561799,8.58659342 3.67160602,9.18819227 2.75,10.0555792 L4.39321969,11.6997044 C5.13604367,11.0239113 6.12233947,10.6114233 7.2031055,10.6114233 C9.50834485,10.6114233 11.3838191,12.4879641 11.3838191,14.7945068 C11.3838191,15.8758684 10.9715582,16.8626415 10.2962035,17.6058748 L11.9393239,19.25 C13.0339213,18.0857369 13.7057024,16.5191498 13.7057024,14.7945068 C13.7057024,13.7670114 13.4672932,12.7953354 13.0433849,11.9312923 L14.7594344,11.8356443 L14.3419785,16.9590509 C14.2848993,17.6593437 14.8061235,18.2732585 15.5060636,18.3304354 C15.5411053,18.3332827 15.5760808,18.3346401 15.6107254,18.3346401 C16.2660941,18.3346401 16.8224924,17.830775 16.8766266,17.1657419 L17.4124433,10.5877513 C17.4423561,10.2212167 17.3123148,9.85974755 17.055905,9.59644252 Z" id="Shape"></path>
                <path d="M14.2084402,4.58333333 C15.4740944,4.58333333 16.5,3.5573607 16.5,2.29168448 C16.5,1.02607952 15.4740944,0 14.2084402,0 C12.9426436,0 11.9166667,1.02607952 11.9166667,2.29168448 C11.9166667,3.5573607 12.9426079,4.58333333 14.2084402,4.58333333 Z" id="Shape"></path>
                <path d="M6.8064182,19.7722303 C4.3934609,19.7722303 2.43034412,17.972718 2.43034412,15.7608544 C2.43034412,14.9272623 2.70936438,14.1524687 3.18597783,13.5102892 L1.44743496,11.9166667 C0.541554234,12.9763407 0,14.3102912 0,15.7608544 C0,19.206692 3.04729894,22 6.8064182,22 C8.38893,22 9.84401931,21.5035784 11,20.6731612 L9.26149176,19.0796022 C8.56096248,19.5163681 7.71572779,19.7722303 6.8064182,19.7722303 Z" id="Shape"></path>
            </g>
        </g>
    </g>
</svg>