<svg xmlns="http://www.w3.org/2000/svg" width="111" height="111" viewBox="0 0 111 111">
    <g fill="#3B435B" fill-rule="nonzero">
        <path d="M5.357 63h14.286C22.596 63 25 60.564 25 57.571V41.286c0-1-.8-1.81-1.786-1.81v-3.619C23.214 29.87 18.41 25 12.5 25 6.591 25 1.786 29.87 1.786 35.857v3.62C.8 39.476 0 40.286 0 41.285V57.57C0 60.564 2.404 63 5.357 63zm16.072-5.429c0 .997-.802 1.81-1.786 1.81H5.357c-.984 0-1.786-.813-1.786-1.81V43.095H21.43v14.476zM5.357 35.857c0-3.992 3.204-7.238 7.143-7.238 3.94 0 7.143 3.246 7.143 7.238v3.62H5.357v-3.62z"/>
        <path d="M11 56h4v-5.4h2V47H9v3.6h2zM41 39h41v2H41zM41 50h33v2H41zM41 61h28v2H41z"/>
        <path d="M103.742 86.59V67.329c0-.646-.343-1.247-.9-1.572l-9.983-5.841V1.82c0-1.005-.813-1.82-1.814-1.82H34.814A1.817 1.817 0 0 0 33 1.82v85.524c0 1.005.813 1.82 1.814 1.82h33.773l15.81 14.099c.025.022.056.029.082.049l-.01.01 9.07 7.28a1.812 1.812 0 0 0 2.418-.135l14.511-14.558c.71-.711.71-1.861 0-2.573l-6.726-6.745zM36.628 3.64H89.23V57.79l-3.691-2.16c-3.316-1.938-7.617-.832-9.592 2.467a7.034 7.034 0 0 0-.764 5.467 7.01 7.01 0 0 0 3.385 4.349l10.662 5.943v11.668H36.628V3.639zm37.42 85.524h16.997a1.817 1.817 0 0 0 1.814-1.82V72.787c0-.66-.358-1.27-.933-1.59L80.33 64.732a3.392 3.392 0 0 1-1.641-2.11 3.421 3.421 0 0 1 5.023-3.849l6.419 3.755 9.983 5.843v18.155l-14.51 12.94-11.555-10.303zm20.49 17.578l-6.122-4.913 13.44-11.985 4.763 4.779-12.08 12.119zM13 17h2v2h-2zM13 13h2v2h-2zM17 13h2v2h-2zM9 66h2v2H9zM9 73h2v2H9zM16 73h2v2h-2zM25 13h2v2h-2zM23 73h2v2h-2z"/>
        <path d="M41 73h39v2H41zM105.253 13.975l2.268 2.263L110 13.763l-5.26-5.25a1.754 1.754 0 0 0-2.48 0L97 13.763l2.48 2.475 2.267-2.263V36h3.506V13.975zM102 39h2v2h-2zM102 47h2v2h-2zM102 53h2v2h-2z"/>
    </g>
</svg>
