<?xml version="1.0" encoding="UTF-8" standalone="no"?>
<svg width="31px" height="38px" viewBox="0 0 31 38" version="1.1" xmlns="http://www.w3.org/2000/svg" xmlns:xlink="http://www.w3.org/1999/xlink">
    <!-- Generator: sketchtool 47 (45396) - http://www.bohemiancoding.com/sketch -->
    <title>99DB9B31-EC5C-46F8-9684-3DE88BA660F3</title>
    <desc>Created with sketchtool.</desc>
    <defs></defs>
    <g id="M:-Public-Portal" stroke="none" stroke-width="1" fill="none" fill-rule="evenodd">
        <g id="Public-/-Dispute-Icons" transform="translate(-274.000000, -41.000000)" fill-rule="nonzero" fill="#C1C6D0">
            <g id="noun_1120946_cc" transform="translate(274.000000, 41.000000)">
                <path d="M24.5528622,1.81480741 C24.1483475,1.39834407 23.571102,0.966681333 22.8358891,0.612535499 C22.1036289,0.264469421 21.2089723,0 20.2109725,0 L5.20849605,0 C2.33260311,0 0,2.40606376 0,5.3775449 L0,32.6209352 C0,35.5924163 2.33260311,38 5.20849605,38 L25.7900276,38 C28.6688732,38 31,35.5924163 31,32.6209352 L31,11.1198752 C30.9985237,10.0863165 30.7342604,9.16219351 30.3932279,8.40374385 C30.0433375,7.64529419 29.6225831,7.05099796 29.221021,6.63453462 L24.5528622,1.81480741 M23.0809601,3.33626655 L27.749119,8.15447382 C27.9572816,8.36574537 28.2717402,8.79436823 28.5079531,9.32026719 C28.7500714,9.84920603 28.9198495,10.473901 28.9183732,11.1213951 L28.9183732,32.6209352 C28.9154205,34.4053438 27.521764,35.8447262 25.7944566,35.8477661 L5.21292504,35.8477661 C3.48561768,35.8447262 2.09048481,34.4053438 2.08753215,32.6209352 L2.08753215,5.37602496 C2.09048481,3.59465621 3.48561768,2.15375385 5.21292504,2.14919403 L20.2124488,2.14919403 C20.8472712,2.14919403 21.4525669,2.32094716 21.9619011,2.56413743 C22.4668064,2.80580777 22.8787027,3.12651494 23.0809601,3.33626655 M7.70644823,23.0164393 C7.11886846,23.0164393 6.64348986,22.5330987 6.64348986,21.9327227 C6.64348986,21.3338666 7.11739213,20.849006 7.70644823,20.849006 L23.2979808,20.849006 C23.8840842,20.849006 24.3624155,21.3338666 24.3624155,21.9327227 C24.3624155,22.5330987 23.8870369,23.0164393 23.2979808,23.0164393 L7.70644823,23.0164393 M7.70644823,30.2923883 C7.11886846,30.2923883 6.64348986,29.8090476 6.64348986,29.2101916 C6.64348986,28.6098156 7.11739213,28.1264749 7.70644823,28.1264749 L23.2979808,28.1264749 C23.8840842,28.1264749 24.3624155,28.6098156 24.3624155,29.2101916 C24.3624155,29.8090476 23.8870369,30.2923883 23.2979808,30.2923883 L7.70644823,30.2923883 M7.70644823,15.7374505 C7.11886846,15.7374505 6.64348986,15.2525899 6.64348986,14.6552538 C6.64348986,14.0579177 7.11739213,13.5730571 7.70644823,13.5730571 L23.2979808,13.5730571 C23.8840842,13.5730571 24.3624155,14.0579177 24.3624155,14.6552538 C24.3624155,15.2541098 23.8870369,15.7374505 23.2979808,15.7374505 L7.70644823,15.7374505" id="Shape"></path>
            </g>
        </g>
    </g>
</svg>