<svg xmlns="http://www.w3.org/2000/svg" width="31" height="38" viewBox="0 0 31 38">
    <path fill="#1589EE" fill-rule="nonzero" d="M24.553 1.815c-.405-.417-.982-.848-1.717-1.202A6.124 6.124 0 0 0 20.21 0H5.208C2.333 0 0 2.406 0 5.378V32.62C0 35.592 2.333 38 5.208 38H25.79c2.879 0 5.21-2.408 5.21-5.38v-21.5a6.653 6.653 0 0 0-.607-2.716c-.35-.759-.77-1.353-1.172-1.77l-4.668-4.82M23.08 3.337l4.668 4.818c.208.212.523.64.759 1.166.242.53.412 1.154.41 1.801v21.5c-.003 1.784-1.396 3.224-3.124 3.227H5.213c-1.727-.003-3.123-1.443-3.125-3.227V5.376c.002-1.781 1.398-3.222 3.125-3.227h15c.634 0 1.24.172 1.749.415.505.242.917.563 1.119.772M7.706 23.016a1.072 1.072 0 0 1-1.063-1.083c0-.6.474-1.084 1.063-1.084h15.592c.586 0 1.064.485 1.064 1.084 0 .6-.475 1.083-1.064 1.083H7.706m0 7.276a1.072 1.072 0 0 1-1.063-1.082c0-.6.474-1.084 1.063-1.084h15.592c.586 0 1.064.484 1.064 1.084 0 .599-.475 1.082-1.064 1.082H7.706m0-14.555a1.073 1.073 0 0 1-1.063-1.082c0-.597.474-1.082 1.063-1.082h15.592c.586 0 1.064.485 1.064 1.082 0 .6-.475 1.082-1.064 1.082H7.706"/>
</svg>
