<svg xmlns="http://www.w3.org/2000/svg" width="39" height="39" viewBox="0 0 39 39">
    <g fill="#6C5683" fill-rule="nonzero">
        <path d="M13.635 34.645h-2.196a1.075 1.075 0 0 1-1.075-1.079c0-.601.484-1.079 1.075-1.079h2.196a1.08 1.08 0 0 1 0 2.158zM14.71 3.715h-4.354a1.08 1.08 0 0 0 0 2.158h4.353c.6 0 1.075-.485 1.075-1.079 0-.593-.476-1.079-1.075-1.079z"/>
        <path d="M28.774.03a12.7 12.7 0 0 0-4.73.903 3.177 3.177 0 0 0-2.21-.902H3.232A3.244 3.244 0 0 0 0 3.276v32.448a3.244 3.244 0 0 0 3.232 3.245h18.602a3.244 3.244 0 0 0 3.232-3.245V16.132l1.136-.524c.837.17 1.704.254 2.572.254C34.409 15.862 39 12.31 39 7.946 39 3.584 34.417.031 28.774.031zm-5.858 35.694a1.08 1.08 0 0 1-1.074 1.08H3.232a1.08 1.08 0 0 1-1.075-1.08V3.276c0-.594.484-1.08 1.075-1.08h18.54c-1.98 1.442-3.224 3.484-3.224 5.75 0 1.843.806 3.592 2.296 5.003l-1.382 3.73c-.33.902.583 1.757 1.458 1.357l1.981-.918v18.606h.015zm5.858-22.028c-.806 0-1.597-.085-2.365-.254a1.426 1.426 0 0 0-.875.092l-3.147 1.45.721-1.95a1.146 1.146 0 0 0-.36-1.288c-1.321-1.063-2.05-2.412-2.05-3.8 0-3.175 3.623-5.75 8.068-5.75 4.453 0 8.069 2.583 8.069 5.75.008 3.168-3.608 5.75-8.061 5.75z"/>
        <path d="M32.267 6.497h-6.986a1.08 1.08 0 0 0 0 2.158h6.986c.599 0 1.075-.485 1.075-1.079 0-.593-.476-1.079-1.075-1.079zM19.439 23.639s-3.34-1.071-3.37-1.071a.47.47 0 0 1-.354-.455v-1.195c1.121-1.487 1.75-3.538 1.75-4.917 0-2.729-2.21-4.948-4.928-4.948S7.608 13.273 7.608 16c0 1.387.63 3.437 1.75 4.917v1.195a.47.47 0 0 1-.353.455l-3.37 1.07A2.623 2.623 0 0 0 3.67 26.19v2.497c0 .602.483 1.08 1.074 1.08H20.33c.599 0 1.075-.486 1.075-1.08V26.19c0-1.21-.806-2.25-1.965-2.551zM12.537 13.21a2.78 2.78 0 0 1 2.771 2.782c0 1.788-1.512 4.625-2.771 4.625-1.26 0-2.772-2.844-2.772-4.625a2.78 2.78 0 0 1 2.772-2.782zm6.71 14.39H5.819v-1.419c0-.215.146-.4.361-.454l3.37-1.072a2.626 2.626 0 0 0 1.92-2.065c.337.123.69.185 1.067.185.376 0 .73-.07 1.067-.185a2.626 2.626 0 0 0 1.92 2.065s3.339 1.072 3.37 1.072c.207.054.36.239.36.454v1.419h-.007z"/>
    </g>
</svg>
