<svg xmlns="http://www.w3.org/2000/svg" width="40" height="39" viewBox="0 0 40 39">
    <g fill="#6C5683" fill-rule="nonzero">
        <path d="M3.555 39h32.208c1.964 0 3.555-1.671 3.555-3.733V15.934c0-1.281-.636-2.451-1.591-3.12l-3.715-2.674V8.691c0-1.727-1.326-3.12-3.024-3.12H27.75l-.053-.055-6.102-4.457c-1.167-.78-2.6-.78-3.82.055l-5.89 4.29a.425.425 0 0 0-.213.223h-3.29c-1.644 0-3.024 1.393-3.024 3.12v1.449L1.698 12.87C.637 13.539.053 14.709.053 15.99v19.389C0 37.329 1.592 39 3.555 39zm.955-2.229l14.592-13.037c.265-.278.69-.278 1.008 0l14.645 13.037H4.51zm29.45-23.957l2.546 1.839c.372.223.584.613.637 1.058l-3.184 2.953v-5.85zm3.183 5.85v16.659c0 .223-.053.39-.106.613l-9.392-8.357 9.498-8.915zM18.89 2.953c.477-.279 1.061-.279 1.486-.056l3.66 2.674H15.23l3.66-2.618zM7.429 8.69c0-.501.371-.891.902-.891h22.657c.477 0 .902.39.902.891v11.923l-5.837 5.46-4.51-4.011c-1.061-.947-2.653-.947-3.767 0l-4.51 4.011-5.837-5.46V8.691zm-4.617 5.962l2.494-1.839v5.795l-3.13-2.953c.053-.39.265-.78.636-1.003zm-.69 4.011l9.498 8.859L2.23 35.88a2.092 2.092 0 0 1-.107-.613V18.664z"/>
        <path d="M12.735 13.929H26.53c.583 0 1.06-.502 1.06-1.115s-.477-1.114-1.06-1.114H12.735c-.584 0-1.062.501-1.062 1.114 0 .613.478 1.115 1.062 1.115zM27.592 17.829c0-.613-.478-1.115-1.061-1.115H12.735c-.584 0-1.062.502-1.062 1.115 0 .612.478 1.114 1.062 1.114H26.53c.583 0 1.06-.502 1.06-1.114z"/>
    </g>
</svg>
