<?xml version="1.0" encoding="UTF-8" standalone="no"?>
<svg width="100px" height="107px" viewBox="0 0 100 107" version="1.1" xmlns="http://www.w3.org/2000/svg" xmlns:xlink="http://www.w3.org/1999/xlink">
    <!-- Generator: sketchtool 46.2 (44496) - http://www.bohemiancoding.com/sketch -->
    <title>ED735859-FE54-4C7D-917A-551B4536E615</title>
    <desc>Created with sketchtool.</desc>
    <defs></defs>
    <g id="M:-Public-Portal" stroke="none" stroke-width="1" fill="none" fill-rule="evenodd">
        <g id="Public-/-My-Applications-Step-4" transform="translate(-170.000000, -649.000000)" fill-rule="nonzero" fill="#3B435B">
            <g id="Group-23" transform="translate(170.000000, 649.000000)">
                <path d="M98.245614,85.9508197 L91.2280702,85.9508197 C91.2245614,83.049541 88.8631579,80.6902787 85.9649123,80.6885246 L85.9649123,76.9908852 C85.9649123,73.3546393 87.1508772,70.2779508 89.5859649,67.5783934 C91.777193,65.1577377 92.9824561,62.0266721 92.9824561,58.7622951 C92.9824561,51.8037869 87.5473684,46.1047213 80.7017544,45.6504098 L80.7017544,21.9385082 L58.6175439,0 L0,0 L0,107 L80.7017544,107 L80.7017544,99.9836066 L94.1070175,99.9836066 C97.354386,99.9836066 100,96.8314918 100,92.9601967 L100,87.704918 C100,86.7349016 99.2157895,85.9508197 98.245614,85.9508197 Z M89.4736842,58.7622951 C89.4736842,61.1548852 88.5894737,63.451 86.9859649,65.2279016 C83.977193,68.5501639 82.4561404,72.5091639 82.4561404,76.9908852 L82.4561404,84.1967213 L85.9578947,84.1967213 C86.9280702,84.1967213 87.7157895,84.9808033 87.7192982,85.9508197 L71.9298246,85.9508197 C71.9298246,84.9808033 72.7175439,84.1967213 73.6877193,84.1967213 L77.1929825,84.1967213 L77.1929825,76.9926393 C77.1929825,72.510918 75.6684211,68.551918 72.6631579,65.2261475 C71.0596491,63.4527541 70.1754386,61.1548852 70.1754386,58.7622951 C70.1754386,53.4421148 74.5035088,49.1147541 79.8245614,49.1147541 C85.1421053,49.1147541 89.4736842,53.4421148 89.4736842,58.7622951 Z M74.7087719,21.0491803 L59.6491228,21.0491803 L59.6491228,5.9884918 L74.7087719,21.0491803 Z M77.1929825,103.491803 L3.50877193,103.491803 L3.50877193,3.50819672 L56.1403509,3.50819672 L56.1403509,22.8032787 C56.1403509,23.771541 56.9245614,24.557377 57.8947368,24.557377 L77.1929825,24.557377 L77.1929825,45.8696721 C71.1929825,47.0922787 66.6666667,52.4071967 66.6666667,58.7622951 C66.6666667,62.0266721 67.8701754,65.1577377 70.0596491,67.5766393 C72.4982456,70.2761967 73.6842105,73.3563934 73.6842105,76.9926393 L73.6842105,80.6885246 C70.7824561,80.6902787 68.4210526,83.049541 68.4210526,85.9508197 L59.6491228,85.9508197 C58.6789474,85.9508197 57.8947368,86.7349016 57.8947368,87.704918 L57.8947368,92.9601967 C57.8947368,96.8314918 60.5368421,99.9836066 63.7877193,99.9836066 L77.1929825,99.9836066 L77.1929825,103.491803 Z M96.4912281,92.9601967 C96.4912281,94.8318197 95.377193,96.4754098 94.1070175,96.4754098 L63.7877193,96.4754098 C62.5175439,96.4754098 61.4035088,94.8318197 61.4035088,92.9601967 L61.4035088,89.4590164 L68.4210526,89.4590164 L91.2280702,89.4590164 L96.4912281,89.4590164 L96.4912281,92.9601967 Z" id="Shape"></path>
                <rect id="Rectangle-path" x="12.4137931" y="76.6258065" width="26.2068966" height="4.83225806"></rect>
                <rect id="Rectangle-path" x="12.4137931" y="41.4193548" width="55.862069" height="4.83225806"></rect>
                <rect id="Rectangle-path-Copy" x="12.4137931" y="30.3741935" width="55.862069" height="4.83225806"></rect>
                <path d="M12.4137931,52.4645161 L57.9310345,52.4645161 L57.9310345,57.2967742 C41.3960871,57.2967742 30.1279477,57.2967742 24.1266163,57.2967742 C18.1252848,57.2967742 14.2210104,57.2967742 12.4137931,57.2967742 L12.4137931,52.4645161 Z" id="Rectangle-path"></path>
            </g>
        </g>
    </g>
</svg>