<?xml version="1.0" encoding="UTF-8" standalone="no"?>
<svg width="102px" height="91px" viewBox="0 0 102 91" version="1.1" xmlns="http://www.w3.org/2000/svg" xmlns:xlink="http://www.w3.org/1999/xlink">
    <!-- Generator: sketchtool 46.2 (44496) - http://www.bohemiancoding.com/sketch -->
    <title>2BF9A780-6767-44A6-BE56-9D21E4AD26C4</title>
    <desc>Created with sketchtool.</desc>
    <defs></defs>
    <g id="M:-Public-Portal" stroke="none" stroke-width="1" fill="none" fill-rule="evenodd">
        <g id="Public-/-My-Applications-Step-3-1" transform="translate(-169.000000, -633.000000)" fill-rule="nonzero" stroke="#FFFFFF" fill="#3B435B">
            <g id="noun_840335_cc" transform="translate(170.000000, 634.000000)">
                <g id="Group">
                    <path d="M49.5708189,0.377008861 C48.4041691,0.506005196 47.5287765,1.5104333 47.554019,2.69109114 L47.554019,7.17685063 C43.3289939,10.1341378 38.9322217,11.8050152 33.9671564,11.8050152 C29.0739532,11.8050152 23.8460274,11.1224734 18.292729,9.13492025 C17.7579377,8.94351646 17.2416392,8.74661013 16.7005186,8.52969873 C15.557339,8.06018814 14.2510611,8.5985991 13.7637748,9.74014177 L0.176912273,41.6388759 C0.0544700204,41.9316418 -0.00578975688,42.2469305 3.14256e-16,42.5645089 C3.14256e-16,51.3461165 7.12370414,58.5138759 15.8513397,58.5138759 C24.5789752,58.5138759 31.7026793,51.3461165 31.7026793,42.5645089 C31.7036226,42.2588966 31.6434586,41.9562158 31.5257671,41.6744772 L19.9910869,14.2615025 C24.8928057,15.6390038 29.6244804,16.3619772 33.9671564,16.3619772 C38.9069898,16.3619772 43.4140363,14.915659 47.554019,12.5170405 L47.554019,71.0455215 L24.9092481,71.0455215 C24.8385221,71.0421824 24.7676793,71.0421824 24.6969533,71.0455215 C23.5299424,71.1561891 22.6397166,72.1445821 22.644771,73.3240025 L22.644771,86.9948886 C22.644896,88.2532068 23.6586637,89.2732438 24.9092481,89.2733696 L74.7277442,89.2733696 C75.9783285,89.2732438 76.9920962,88.2532068 76.9922213,86.9948886 L76.9922213,73.3240025 C76.9920962,72.0656843 75.9783285,71.0456473 74.7277442,71.0455215 L52.0829732,71.0455215 L52.0829732,12.5170405 C56.2229559,14.915659 60.7300024,16.3619772 65.6698358,16.3619772 C70.0125118,16.3619772 74.7441865,15.6390038 79.6459054,14.2615025 L68.1112252,41.6744772 C67.9935337,41.9562158 67.9333696,42.2588966 67.9343129,42.5645089 C67.9343129,51.3461165 75.058017,58.5138759 83.7856525,58.5138759 C92.5132881,58.5138759 99.6369922,51.3461165 99.6369922,42.5645089 C99.642782,42.2469305 99.5825222,41.9316418 99.4600799,41.6388759 L85.8732174,9.74014177 C85.3859312,8.5985991 84.0796532,8.06018814 82.9364736,8.52969873 C82.3953531,8.74661013 81.8790545,8.94351646 81.3442632,9.13492025 C75.7909648,11.1224734 70.563039,11.8050152 65.6698358,11.8050152 C60.7047705,11.8050152 56.3079983,10.1341378 52.0829732,7.17685063 L52.0829732,2.69109114 C52.0970215,2.03489732 51.8291809,1.40447476 51.3480452,0.961274425 C50.8669095,0.518074089 50.2192088,0.305141591 49.5708189,0.377008861 Z M15.9221046,16.2907747 L27.1029602,42.8849203 C26.9238265,49.042857 22.0169322,53.9569139 15.8513397,53.9569139 C10.3559542,53.9569139 5.85124124,50.0518823 4.81201383,44.8429899 L20.3802939,44.8429899 C21.1969361,44.8545961 21.9565294,44.4228763 22.3682167,43.7131411 C22.7799039,43.0034059 22.7799039,42.1256118 22.3682167,41.4158766 C21.9565294,40.7061414 21.1969361,40.2744216 20.3802939,40.2860278 L5.69657519,40.2860278 L15.9221046,16.2907747 Z M83.7148876,16.2907747 L95.0372731,42.8849203 C94.8581394,49.042857 89.9512451,53.9569139 83.7856525,53.9569139 C78.2902671,53.9569139 73.7855541,50.0518823 72.7463267,44.8429899 L88.3146067,44.8429899 C89.1312585,44.8546108 89.890867,44.4228943 90.3025634,43.713153 C90.7142597,43.0034117 90.7142597,42.125606 90.3025634,41.4158647 C89.890867,40.7061235 89.1312585,40.2744069 88.3146067,40.2860278 L73.6308881,40.2860278 L83.7148876,16.2907747 Z M27.1737252,75.6024835 L72.4632671,75.6024835 L72.4632671,84.7164076 L27.1737252,84.7164076 L27.1737252,75.6024835 Z" id="Shape"></path>
                </g>
            </g>
        </g>
    </g>
</svg>