<svg xmlns="http://www.w3.org/2000/svg" width="54" height="42" viewBox="0 0 54 42">
    <g fill="#1589EE" fill-rule="nonzero">
        <path stroke="#1589EE" stroke-width=".5" d="M52.823 30.55l-24.95-12.913c-.238-.12-.954-.66-.298-1.922l2.567-5.045c.358-.06.716-.3.895-.6l1.253-2.043c.18-.3.24-.66.12-.96-.12-.301-.299-.601-.597-.782L21.786 1.12c-.18-.06-.418-.12-.597-.12-.478 0-.896.3-1.134.78l-.896 2.223c-.179.36-.119.78.06 1.081l-9.49 18.68c-.358.06-.716.3-.895.6L7.58 26.406c-.179.3-.239.661-.12.961.12.3.3.601.598.781l10.027 5.166c.18.06.358.12.537.12.478 0 .896-.3 1.134-.781l.896-2.222c.179-.36.119-.781-.06-1.082l2.686-5.285c.298-.66.716-.961 1.253-.961.299 0 .478.12.478.12l25.008 12.914c.24.12.478.18.717.18.597 0 1.134-.36 1.432-.901l1.373-2.703c.418-.78.12-1.742-.716-2.162zM21.308 2.442l9.73 4.986-1.135 1.802-1.373-.721-8.057-4.145.835-1.922zm-.955 3.484l8.416 4.325-9.192 18.018-8.416-4.324 9.192-18.019zm-1.85 26.067l-9.73-4.985 1.135-1.802 9.43 4.865-.835 1.922zm33.783.06l-1.373 2.703c-.06.12-.18.12-.299.06L25.665 21.962c-.06 0-.537-.24-1.134-.24h-.06l1.493-2.883.358-.721c.358.54.835.78.895.78l25.009 12.914c.12.06.12.18.06.24z"/>
        <path d="M24.113 39.8H.716c-.358 0-.716.3-.716.721 0 .42.298.72.716.72h23.397c.359 0 .717-.3.717-.72s-.358-.72-.717-.72z"/>
    </g>
</svg>
