<?xml version="1.0" encoding="UTF-8" standalone="no"?>
<svg width="54px" height="42px" viewBox="0 0 54 42" version="1.1" xmlns="http://www.w3.org/2000/svg" xmlns:xlink="http://www.w3.org/1999/xlink">
    <!-- Generator: sketchtool 47 (45396) - http://www.bohemiancoding.com/sketch -->
    <title>36F59485-1AAD-49DC-8B10-F06B14F87785</title>
    <desc>Created with sketchtool.</desc>
    <defs></defs>
    <g id="M:-Public-Portal" stroke="none" stroke-width="1" fill="none" fill-rule="evenodd">
        <g id="Public-/-Dispute-Icons" transform="translate(-360.000000, -38.000000)" fill-rule="nonzero" fill="#C1C6D0">
            <g id="noun_139850_cc" transform="translate(360.000000, 39.000000)">
                <g id="Group">
                    <path d="M52.8227021,29.5507102 L27.8736744,16.6372901 C27.6349278,16.5171652 26.9186877,15.9766035 27.5752411,14.7152927 L30.1417679,9.67004947 C30.4998879,9.60998705 30.8580079,9.36973737 31.0370679,9.06942528 L32.2904879,7.02730303 C32.4695479,6.72699093 32.5292346,6.36661642 32.4098613,6.06630432 C32.2904879,5.76599223 32.1114279,5.46568013 31.8129946,5.28549288 L21.7856342,0.120124838 C21.6065742,0.0600624191 21.3678275,0 21.1887675,0 C20.7112741,0 20.2934675,0.300312095 20.0547208,0.780811448 L19.1594208,3.00312095 C18.9803607,3.36349547 19.0400474,3.7839324 19.2191074,4.0842445 L9.72892705,22.7636568 C9.37080704,22.8237192 9.01268702,23.0639689 8.83362701,23.364281 L7.58020697,25.4064033 C7.40114696,25.7067154 7.34146029,26.0670899 7.46083363,26.367402 C7.58020697,26.6677141 7.75926697,26.9680262 8.05770032,27.1482134 L18.0850607,32.3135815 C18.2641207,32.3736439 18.4431807,32.4337063 18.6222407,32.4337063 C18.6222407,32.4337063 18.6222407,32.4337063 18.6222407,32.4337063 C19.0997341,32.4337063 19.5175408,32.1333942 19.7562874,31.6528948 L20.6515875,29.4305853 C20.8306475,29.0702108 20.7709608,28.6497739 20.5919008,28.3494618 L23.2778009,23.0639689 C23.5762343,22.4032823 23.9940409,22.1029702 24.531221,22.1029702 C24.8296543,22.1029702 25.0087143,22.2230951 25.0087143,22.2230951 C25.0087143,22.2230951 25.0087143,22.2230951 25.0087143,22.2230951 L50.0174286,35.1365151 C50.2561753,35.25664 50.494922,35.3167024 50.7336687,35.3167024 C51.3305354,35.3167024 51.8677154,34.9563279 52.1661487,34.4157661 L53.5389421,31.7129573 C53.9567488,30.9321458 53.6583154,29.9711471 52.8227021,29.5507102 Z M21.3081408,1.44149806 L31.0370679,6.42667884 L29.9030212,8.22855141 L28.5302278,7.50780238 L20.4725275,3.36349547 L21.3081408,1.44149806 Z M20.3531541,4.92511836 L28.7689745,9.24961253 L19.5772274,27.2683383 L11.1614071,22.9438441 L20.3531541,4.92511836 Z M18.5028674,30.9922082 L8.77394035,26.0070275 L9.90798706,24.2051549 L19.3384808,29.0702108 L18.5028674,30.9922082 Z M52.2855221,31.0522707 L50.9127287,33.7550795 C50.853042,33.8752043 50.7336687,33.8752043 50.6142953,33.8151419 L25.6652677,20.9617843 C25.605581,20.9617843 25.1280877,20.7215346 24.531221,20.7215346 C24.531221,20.7215346 24.531221,20.7215346 24.4715343,20.7215346 L25.963701,17.8385385 L26.321821,17.1177894 C26.6799411,17.6583512 27.1574344,17.8986009 27.2171211,17.8986009 L52.2258354,30.812021 C52.3452087,30.8720834 52.3452087,30.9922082 52.2855221,31.0522707 Z" id="Shape" stroke="#C1C6D0" stroke-width="0.5"></path>
                    <path d="M24.1134143,38.8003227 L0.716240028,38.8003227 C0.358120014,38.8003227 0,39.1006348 0,39.5210717 C0,39.9415087 0.298433345,40.2418208 0.716240028,40.2418208 L24.1134143,40.2418208 C24.4715343,40.2418208 24.8296543,39.9415087 24.8296543,39.5210717 C24.8296543,39.1006348 24.4715343,38.8003227 24.1134143,38.8003227 Z" id="Shape"></path>
                </g>
            </g>
        </g>
    </g>
</svg>