<svg xmlns="http://www.w3.org/2000/svg" width="39" height="40" viewBox="0 0 39 40">
    <path fill="#1589EE" fill-rule="nonzero" d="M21.348 19.677H18.07c-1.512 0-2.743-1.262-2.743-2.815 0-1.551 1.231-2.815 2.743-2.815h5.95c.57 0 1.033-.475 1.033-1.06 0-.587-.463-1.061-1.033-1.061h-3.278V9.738c0-.585-.463-1.061-1.034-1.061-.572 0-1.036.475-1.036 1.061v2.188h-.603c-2.654 0-4.811 2.215-4.811 4.936 0 2.678 2.088 4.864 4.681 4.936l.06.002h3.348c1.511 0 2.743 1.262 2.743 2.814s-1.232 2.815-2.743 2.815h-6.19a1.05 1.05 0 0 0-1.037 1.061 1.05 1.05 0 0 0 1.036 1.062h3.517v2.186c0 .587.463 1.06 1.036 1.06.57 0 1.034-.473 1.034-1.06v-2.186h.604c2.654 0 4.813-2.215 4.813-4.938 0-2.721-2.159-4.937-4.813-4.937zM19.5 0C8.748 0 0 8.972 0 20s8.748 20 19.5 20S39 31.028 39 20 30.252 0 19.5 0zm0 37.82C9.92 37.82 2.126 29.825 2.126 20S9.92 2.18 19.5 2.18c9.58 0 17.374 7.994 17.374 17.82S29.08 37.82 19.5 37.82z"/>
</svg>
