<?xml version="1.0" encoding="UTF-8" standalone="no"?>
<svg width="39px" height="40px" viewBox="0 0 39 40" version="1.1" xmlns="http://www.w3.org/2000/svg" xmlns:xlink="http://www.w3.org/1999/xlink">
    <!-- Generator: sketchtool 47 (45396) - http://www.bohemiancoding.com/sketch -->
    <title>7A8F7DAF-16CC-4383-9DCF-61020864B2D8</title>
    <desc>Created with sketchtool.</desc>
    <defs></defs>
    <g id="M:-Public-Portal" stroke="none" stroke-width="1" fill="none" fill-rule="evenodd">
        <g id="Public-/-Dispute-Icons" transform="translate(-69.000000, -39.000000)" fill-rule="nonzero" fill="#C1C6D0">
            <g id="noun_1083775_cc" transform="translate(69.000000, 39.000000)">
                <path d="M21.34791,19.6772857 L18.0709099,19.6772857 C16.5593315,19.6772857 15.3279584,18.4152112 15.3279584,16.8618216 C15.3279584,15.3106125 16.5593315,14.0472297 18.0709099,14.0472297 L24.0211291,14.0472297 C24.5908942,14.0472297 25.0543599,13.5718802 25.0543599,12.9866335 C25.0543599,12.3996424 24.5908942,11.9256013 24.0211291,11.9256013 L20.7432786,11.9256013 L20.7432786,9.73812172 C20.7432786,9.15287499 20.2798129,8.67665337 19.7091974,8.67665337 C19.136881,8.67665337 18.6734153,9.15243889 18.6734153,9.73812172 L18.6734153,11.9256013 L18.0704847,11.9256013 C15.4163996,11.9256013 13.2589455,14.1409913 13.2589455,16.8618216 C13.2589455,19.5399141 15.3466671,21.7256492 17.9403742,21.7976058 C17.9595081,21.7993502 17.9803428,21.8002224 18.0003271,21.8002224 L21.34791,21.8002224 C22.8594885,21.8002224 24.0908615,23.0618608 24.0908615,24.6139421 C24.0908615,26.1664595 22.8594885,27.428534 21.34791,27.428534 L15.157454,27.428534 C14.5868385,27.428534 14.1208216,27.9038835 14.1208216,28.4904385 C14.1208216,29.0761213 14.5868385,29.5519068 15.157454,29.5519068 L18.6738405,29.5519068 L18.6738405,31.737642 C18.6738405,32.3246331 19.1373062,32.7986743 19.7096226,32.7986743 C20.2802381,32.7986743 20.7437038,32.3246331 20.7437038,31.737642 L20.7437038,29.5519068 L21.3483352,29.5519068 C24.0024204,29.5519068 26.1607248,27.3365169 26.1607248,24.6139421 C26.1602996,21.8926757 24.0019952,19.6772857 21.34791,19.6772857 Z M19.5,0 C8.747596,0 0,8.97189333 0,20 C0,31.0281067 8.747596,40 19.5,40 C30.252404,40 39,31.0281067 39,20 C39,8.97189333 30.252404,0 19.5,0 Z M19.5,37.819498 C9.91986655,37.819498 2.1259894,29.8257779 2.1259894,20 C2.1259894,10.1742221 9.91986655,2.18050195 19.5,2.18050195 C29.0801334,2.18050195 36.8740106,10.1742221 36.8740106,20 C36.8740106,29.8257779 29.0801334,37.819498 19.5,37.819498 Z" id="Shape"></path>
            </g>
        </g>
    </g>
</svg>