<svg xmlns="http://www.w3.org/2000/svg" width="89" height="89" viewBox="0 0 89 89">
    <path fill="#C6007E" fill-rule="nonzero" d="M33.492 57.984c0-1.18-1.033-2.214-2.213-2.214H2.213C1.033 55.77 0 56.803 0 57.984c0 9.295 7.525 16.82 16.82 16.82 9.147 0 16.672-7.525 16.672-16.82zM4.574 60.197H28.77c-1.032 5.754-6.049 10.18-12.098 10.18S5.607 65.951 4.574 60.197zM86.31 55.77H57.246c-1.18 0-2.213 1.033-2.213 2.214 0 9.295 7.524 16.82 16.82 16.82 9.295 0 16.82-7.525 16.82-16.82-.148-1.18-1.181-2.214-2.362-2.214zM71.705 70.377c-6.05 0-11.066-4.426-12.098-10.18h24.196c-.885 5.754-6.049 10.18-12.098 10.18zm8.557 15.934c0 1.18-1.032 2.214-2.213 2.214H10.475c-1.18 0-2.213-1.033-2.213-2.214 0-1.18 1.033-2.213 2.213-2.213H42.05v-65.36H15.344c-1.18 0-2.213-1.033-2.213-2.213 0-1.18 1.033-2.214 2.213-2.214H42.05V2.213C42.05 1.033 43.082 0 44.262 0c1.18 0 2.213 1.033 2.213 2.213v12.098H73.18c1.18 0 2.213 1.033 2.213 2.214 0 1.18-1.032 2.213-2.213 2.213H46.475v65.36H78.05c1.18 0 2.213 1.033 2.213 2.213zM2.213 52.82h-.147l12.54-29.066c.296-.738 1.18-1.328 2.066-1.328.885 0 1.623.59 2.066 1.328l12.836 29.213H26.557l-9.885-22.721-9.885 22.721H2.213v-.147zM73.77 23.754l12.837 29.213h-4.869l-9.886-22.721-9.885 22.721h-4.721l12.54-29.213c.296-.738 1.181-1.328 2.066-1.328.738 0 1.476.443 1.918 1.328z"/>
</svg>
