<svg xmlns="http://www.w3.org/2000/svg" width="41" height="44" viewBox="0 0 41 44">
    <g fill="none" fill-rule="nonzero">
        <path fill="#174288" d="M37.116 26.076l-1.766 7.59-1.854-7.59h-2.55l-1.883 7.504-1.713-7.504h-2.785l3.082 11.852h2.742l1.81-7.496 1.839 7.496h2.693l.026-.1 3.105-11.752h-2.746zm-25.55 7.573l-6.45-7.573H2.384V37.93h2.66v-7.557l6.432 7.557h2.75V26.076h-2.66v7.573zM2.1 41.564v-.009c0-1.028.786-1.899 1.892-1.899.64 0 1.033.179 1.411.498l-.409.489c-.284-.242-.562-.395-1.027-.395-.677 0-1.19.593-1.19 1.297v.01c0 .755.497 1.31 1.247 1.31.346 0 .66-.111.886-.28V41.9H3.97v-.563h1.563v1.542a2.345 2.345 0 0 1-1.53.573c-1.149 0-1.904-.821-1.904-1.89M9.084 41.564v-.009c0-.714-.52-1.307-1.249-1.307-.728 0-1.235.582-1.235 1.297v.01c0 .713.518 1.305 1.246 1.305.73 0 1.238-.583 1.238-1.296m-3.16 0v-.009c0-1.034.797-1.899 1.922-1.899 1.128 0 1.913.854 1.913 1.89v.01c0 1.029-.795 1.897-1.924 1.897-1.125 0-1.912-.854-1.912-1.89M9.713 39.72h.713l1.105 2.82 1.101-2.82h.698l-1.526 3.696h-.566zM13.764 39.72h2.72v.576H14.41v.955h1.84v.577h-1.84v.984h2.102v.576h-2.747zM18.724 41.539c.462 0 .756-.242.756-.614v-.011c0-.393-.283-.607-.76-.607h-.94v1.232h.944zm-1.587-1.818h1.635c.462 0 .822.135 1.059.366a1.1 1.1 0 0 1 .303.79v.011c0 .603-.362.965-.876 1.113l.992 1.387h-.76l-.902-1.278h-.807v1.278h-.644v-3.667zM20.703 39.72h.595l1.966 2.536v-2.535h.636v3.667h-.54l-2.024-2.611v2.611h-.633zM24.554 39.72h.687l1.116 1.736 1.116-1.735h.688v3.667h-.645v-2.63l-1.159 1.73h-.022l-1.145-1.72v2.62h-.636zM28.775 39.72h2.72v.576H29.42v.955h1.839v.577h-1.84v.984h2.102v.576h-2.746zM32.156 39.72h.598l1.964 2.536v-2.535h.635v3.667h-.539l-2.023-2.611v2.611h-.635zM37.028 40.318h-1.165v-.597h2.978v.597h-1.162v3.07h-.65zM14.959 36.279l1.565-1.875c1.083.895 2.22 1.463 3.595 1.463 1.085 0 1.739-.43 1.739-1.136v-.035c0-.671-.413-1.013-2.426-1.53-2.427-.62-3.992-1.291-3.992-3.682v-.034c0-2.184 1.755-3.629 4.216-3.629 1.753 0 3.25.55 4.472 1.53l-1.375 1.996c-1.068-.74-2.117-1.188-3.133-1.188-1.015 0-1.547.465-1.547 1.05v.034c0 .792.515 1.05 2.597 1.583 2.443.637 3.819 1.513 3.819 3.613v.033c0 2.392-1.823 3.733-4.42 3.733a7.663 7.663 0 0 1-5.11-1.926"/>
        <path fill="#E41F4A" d="M8.722 3.58c-.25.008-.398.154-.452.443 0 0-.06.432-.128 1.166-.061.67-.136 1.737-.136 3.004 0 2.853.373 6.906 2.148 10.016 1.363 2.37 3.289 3.704 5.436 3.774a6.794 6.794 0 0 1-2.363-3.355c-.5-1.565-.753-3.418-.753-5.506 0-2.88.481-5.352.63-6.04.003-.02.006-.028.007-.033.087-.403.319-.722.629-.885A32.034 32.034 0 0 0 9.3 3.776c-.22-.1-.337-.143-.337-.143H8.96l-.003-.002a.603.603 0 0 0-.235-.051M27.382 6.913a.309.309 0 0 0-.185.078c-.002.001-.068.051-.192.158-.125.1-.303.253-.55.472-.327.292-.997.912-1.776 1.768-1.235 1.377-2.872 3.543-3.65 6.052-.449 1.465-.673 2.733-.665 3.77-.008.775.116 1.431.366 1.95.238.508.602.869 1.11 1.103.215.094.488.144.81.144h.016c1.497 0 3.996-1.252 4.86-4.03.463-1.499.698-3.267.698-5.255 0-2.47-.358-4.622-.512-5.432-.06-.298-.096-.46-.096-.46-.036-.143-.107-.318-.234-.318"/>
        <path fill="#E41F4A" d="M14.2 6.913c-.132 0-.212.173-.255.321l-.093.46a29.704 29.704 0 0 0-.521 5.43c0 2.02.238 3.784.706 5.243.88 2.787 3.443 4.041 4.982 4.041h.014c.325 0 .609-.053.846-.154.127-.052.248-.118.384-.208a3.241 3.241 0 0 1-.306-.517c-.298-.622-.45-1.38-.458-2.317.009-1.156.25-2.508.718-4.02.042-.14.09-.28.137-.418l.056-.162c-1.633-4.06-5.389-7.122-5.813-7.46a4.96 4.96 0 0 0-.204-.16.364.364 0 0 0-.194-.08M20.777.265c-.09 0-.185.071-.277.214-.004.003-.08.112-.203.32-.19.314-.368.62-.55.934a37.536 37.536 0 0 0-1.651 3.321 34.72 34.72 0 0 0-1.176 3.047c1.217 1.215 2.849 3.112 3.934 5.413.838-1.803 2.112-3.6 3.79-5.343C23.498 4.695 21.89 1.862 21.25.8c-.137-.214-.206-.326-.206-.326-.13-.194-.237-.21-.268-.21M32.816 3.58a.623.623 0 0 0-.227.051l-.003.001-.001.001c-.003 0-.12.043-.335.142-.21.086-.487.216-.838.38l-.124.058a32.171 32.171 0 0 0-3.13 1.736 7.182 7.182 0 0 0-.339.21c.309.155.545.479.633.884l.008.04c.145.687.621 3.16.621 6.04 0 2.076-.248 3.927-.734 5.505a6.752 6.752 0 0 1-2.314 3.351c2.117-.097 4.013-1.428 5.36-3.772 1.775-3.108 2.147-7.16 2.147-10.014a33.487 33.487 0 0 0-.264-4.175c-.054-.284-.205-.43-.46-.438M26.944 1.168a.482.482 0 0 0-.085.007h-.006a.442.442 0 0 0-.202.082l-.003.001-.004.002c-.003.004-.467.288-1.185.804a31.56 31.56 0 0 0-1.802 1.395 39.483 39.483 0 0 1 1.497 3.542 29.977 29.977 0 0 1 3.081-2.114 30.132 30.132 0 0 0-.843-3.327l-.011-.036c-.09-.236-.237-.356-.437-.356M14.603 1.168c-.2 0-.348.12-.437.356l-.011.036a30.682 30.682 0 0 0-.845 3.327c1.15.694 2.16 1.386 3.083 2.114a35.71 35.71 0 0 1 1.496-3.543 31.669 31.669 0 0 0-1.801-1.394c-.718-.516-1.183-.8-1.187-.804l-.003-.002-.004-.001a.433.433 0 0 0-.2-.082h-.005a.512.512 0 0 0-.086-.007M4.242 8.877c-.622 0-.983.02-.986.02a.81.81 0 0 0-.62.367.776.776 0 0 0-.127.457c.044.429.33 1.98 2.182 4.316.949-.47 1.892-.885 2.805-1.231a27.68 27.68 0 0 1-.336-3.782 32.152 32.152 0 0 0-2.918-.147M37.303 8.877c-.106 0-.217 0-.335.002-.556.008-1.448.037-2.582.145a28.88 28.88 0 0 1-.335 3.782c.912.346 1.855.76 2.806 1.231 1.856-2.342 2.139-3.896 2.182-4.32a.871.871 0 0 0-.126-.451.81.81 0 0 0-.621-.37c-.004 0-.372-.02-.989-.02"/>
        <path fill="#E41F4A" d="M33.896 13.67c-.379 1.91-.973 3.58-1.765 4.963-.825 1.452-1.856 2.552-3.072 3.277 8.816-.477 11.304-3.315 11.562-3.643h.002a.81.81 0 0 0-.18-1.08c0-.002-.103-.07-.288-.197l-.004-.001-.001-.001c-.14-.106-.342-.239-.597-.406l-.213-.14a30.841 30.841 0 0 0-2.89-1.641 26.85 26.85 0 0 0-2.554-1.131M7.65 13.67c-2.973 1.127-5.365 2.692-6.265 3.32a9.592 9.592 0 0 1-.286.2.806.806 0 0 0-.177 1.074l.016.022c.019.02.036.042.058.067.01.015.022.027.035.043.06.067.201.213.422.397.372.319 1.038.796 2.112 1.28 2.218 1.006 5.296 1.641 8.923 1.845-1.202-.723-2.258-1.848-3.074-3.285-.79-1.383-1.383-3.053-1.763-4.963M32.791 22.555c-.451 0-1.12.092-2.131.232-.148.02-.307.04-.47.064-.444.064-.983.09-1.698.09-.438 0-.892-.009-1.373-.02h-.042c-.457-.01-.975-.024-1.496-.024-1.079 0-2.476.045-3.707.388-.062.019-.106.086-.1.129.007.04.082.054.146.054.018 0 .037-.003.058-.003.488-.044.96-.065 1.405-.065 1.607 0 2.703.276 3.763.544.998.253 1.94.49 3.25.49 1.396 0 2.503-.298 2.958-.796.153-.167.223-.35.204-.542-.036-.374-.156-.541-.767-.541M8.752 22.555c-.609 0-.727.167-.764.542-.019.19.048.374.198.537.447.494 1.582.8 2.964.8 1.31 0 2.252-.237 3.25-.49 1.06-.268 2.158-.544 3.764-.544.444 0 .918.02 1.404.065.021 0 .041.003.059.003.063 0 .14-.014.145-.054.007-.043-.038-.11-.102-.129-1.228-.343-2.625-.388-3.704-.388h-.002c-.518 0-1.037.013-1.495.024h-.043c-.48.011-.933.02-1.372.02-.714 0-1.254-.026-1.697-.09-.168-.024-.33-.045-.482-.068-1.008-.137-1.673-.228-2.123-.228"/>
    </g>
</svg>
