<?xml version="1.0" encoding="UTF-8" standalone="no"?>
<svg width="31px" height="40px" viewBox="0 0 31 40" version="1.1" xmlns="http://www.w3.org/2000/svg" xmlns:xlink="http://www.w3.org/1999/xlink">
    <!-- Generator: sketchtool 47 (45396) - http://www.bohemiancoding.com/sketch -->
    <title>CCD27FDE-B3A1-448E-B5A0-E777FAEAB5F0</title>
    <desc>Created with sketchtool.</desc>
    <defs></defs>
    <g id="M:-Public-Portal" stroke="none" stroke-width="1" fill="none" fill-rule="evenodd">
        <g id="Public-/-Dispute-Icons" transform="translate(-179.000000, -41.000000)" fill-rule="nonzero" fill="#C1C6D0">
            <g id="noun_1122007_cc-copy" transform="translate(179.000000, 41.000000)">
                <path d="M4.45910665,0.000998826561 C3.98936917,0.0524475472 3.6369029,0.453051922 3.64706643,0.923943476 L3.64706643,1.37831623 L0.911773074,1.37831623 C0.883296101,1.37698446 0.85477213,1.37698446 0.826295157,1.37831623 C0.356412276,1.42245475 -0.00202640165,1.81666368 8.62202401e-06,2.28706173 L8.62202401e-06,16.2448246 C8.62202401e-06,21.7704467 4.2044171,26.3126202 9.57353537,26.7805928 L9.57353537,31.1397314 C9.57353537,36.0326016 13.5541139,40 18.4632388,40 C23.3723637,40 27.3529422,36.0326016 27.3529422,31.1397314 L27.3529422,26.7237962 C29.4247573,26.2985919 31,24.4657976 31,22.2794627 C31,19.7807952 28.9481461,17.7357352 26.4411777,17.7357352 C23.9342093,17.7357352 21.8823555,19.7807952 21.8823555,22.2794627 C21.8823555,24.4657976 23.4575982,26.2985919 25.5294133,26.7237962 L25.5294133,31.1397314 C25.5294133,35.0571487 22.3936702,38.182509 18.4632388,38.182509 C14.5328073,38.182509 11.3970643,35.0571487 11.3970643,31.1397314 L11.3970643,26.7805928 C16.7661848,26.3126202 20.970591,21.7704467 20.970591,16.2448246 L20.970591,2.28706173 C20.9705406,1.78519625 20.5623593,1.37836646 20.0588266,1.37831623 L17.3235332,1.37831623 L17.3235332,0.923943476 C17.3273944,0.678003758 17.2310732,0.441006552 17.0565685,0.267079621 C16.8820637,0.0931526895 16.6442792,-0.00284955542 16.3975224,0.000998826561 C16.1557058,0.0047594073 15.9252927,0.104111919 15.7569743,0.277198782 C15.5886559,0.450285644 15.4962206,0.682927644 15.5000043,0.923943476 L15.5000043,3.65017998 C15.4953517,3.97790778 15.6681083,4.28274475 15.9521216,4.44796192 C16.236135,4.61317908 16.5874025,4.61317908 16.8714159,4.44796192 C17.1554292,4.28274475 17.3281858,3.97790778 17.3235332,3.65017998 L17.3235332,3.19580723 L19.1470621,3.19580723 L19.1470621,16.2448246 C19.1470621,21.1179574 15.2933502,25.0056992 10.4852998,25.0056992 C5.67725359,25.0056992 1.82353753,21.1179574 1.82353753,16.2448246 L1.82353753,3.19580723 L3.64706643,3.19580723 L3.64706643,3.65017998 C3.64241382,3.97790778 3.81517041,4.28274475 4.09918377,4.44796192 C4.38319713,4.61317908 4.73446464,4.61317908 5.018478,4.44796192 C5.30249136,4.28274475 5.47524794,3.97790778 5.47059534,3.65017998 L5.47059534,0.923943476 C5.4744565,0.678003758 5.37813533,0.441006552 5.20363059,0.267079621 C5.02912586,0.0931526895 4.79134132,-0.00284955542 4.54458456,0.000998826561 C4.51610759,-0.000332942187 4.48758362,-0.000332942187 4.45910665,0.000998826561 Z M26.4411777,19.5532262 C27.9626377,19.5532262 29.1764711,20.76304 29.1764711,22.2794627 C29.1764711,23.795885 27.9626377,25.0056992 26.4411777,25.0056992 C24.9197173,25.0056992 23.7058844,23.795885 23.7058844,22.2794627 C23.7058844,20.76304 24.9197173,19.5532262 26.4411777,19.5532262 Z M26.4411777,21.3707172 C25.9376239,21.3707172 25.5294133,21.7775762 25.5294133,22.2794627 C25.5294133,22.7813492 25.9376239,23.1882082 26.4411777,23.1882082 C26.9447316,23.1882082 27.3529422,22.7813492 27.3529422,22.2794627 C27.3529422,21.7775762 26.9447316,21.3707172 26.4411777,21.3707172 Z" id="Shape"></path>
            </g>
        </g>
    </g>
</svg>