<svg xmlns="http://www.w3.org/2000/svg" width="31" height="40" viewBox="0 0 31 40">
    <path fill="#1589EE" fill-rule="nonzero" d="M4.46.001a.91.91 0 0 0-.813.923v.454H.912a.915.915 0 0 0-.086 0 .91.91 0 0 0-.826.91v13.957C0 21.77 4.204 26.313 9.574 26.78v4.359c0 4.893 3.98 8.86 8.89 8.86 4.908 0 8.889-3.967 8.889-8.86v-4.416C29.425 26.299 31 24.466 31 22.279c0-2.498-2.052-4.543-4.559-4.543s-4.559 2.045-4.559 4.543c0 2.187 1.576 4.02 3.647 4.445v4.416c0 3.917-3.135 7.043-7.066 7.043-3.93 0-7.066-3.126-7.066-7.043v-4.36c5.37-.467 9.574-5.01 9.574-10.535V2.287a.91.91 0 0 0-.912-.909h-2.735V.924A.907.907 0 0 0 16.398 0a.913.913 0 0 0-.898.923V3.65a.908.908 0 0 0 .452.798.914.914 0 0 0 .92 0 .908.908 0 0 0 .452-.798v-.454h1.823v13.049c0 4.873-3.854 8.76-8.662 8.76-4.808 0-8.661-3.887-8.661-8.76V3.195h1.823v.455a.908.908 0 0 0 .452.798.914.914 0 0 0 .92 0 .908.908 0 0 0 .452-.798V.924A.907.907 0 0 0 4.545 0a.915.915 0 0 0-.086 0zM26.44 19.553a2.717 2.717 0 0 1 2.735 2.726 2.717 2.717 0 0 1-2.735 2.727 2.717 2.717 0 0 1-2.735-2.727 2.717 2.717 0 0 1 2.735-2.726zm0 1.818a.91.91 0 0 0-.912.908.91.91 0 0 0 .912.91.91.91 0 0 0 .912-.91.91.91 0 0 0-.912-.908z"/>
</svg>
