<svg xmlns="http://www.w3.org/2000/svg" width="53" height="55" viewBox="0 0 53 55">
    <g fill="#007A33" fill-rule="evenodd">
        <path stroke="#007A33" d="M47.272 20.337h-5.516V5.657c0-2.587-2.352-4.614-4.892-4.614H15.647c-.366 0-.631.16-.864.432-.1.062-.196.13-.266.217L1.66 17.45a1.24 1.24 0 0 0-.243.528l-.299.37c-.183.222-.1.5-.1.788v30.141c0 2.5 1.838 4.614 4.444 4.614h31.401c2.54 0 4.892-2.027 4.892-4.614V37.115h5.517c2.578 0 4.667-2.066 4.667-4.614v-7.55c0-2.548-2.09-4.614-4.668-4.614zm2.122 12.164c0 1.158-.95 2.097-2.122 2.097H31.147c-1.172 0-2.122-.939-2.122-2.097v-7.55c0-1.158.95-2.097 2.122-2.097h16.125c1.172 0 2.122.939 2.122 2.097v7.55zM14.597 6.047v8.434c0 1.169-1.66 2.5-2.8 2.5H5.624l4.32-5.451 4.653-5.483zM39.21 49.278c0 1.196-1.214 2.097-2.345 2.097H5.463c-1.205 0-1.899-.98-1.899-2.097V19.582l.066-.083h8.167c2.563 0 5.347-2.438 5.347-5.018V3.56h19.72c1.131 0 2.345.902 2.345 2.097v14.68h-8.062c-2.578 0-4.668 2.067-4.668 4.614v7.55c0 2.548 2.09 4.614 4.668 4.614h8.062v12.163z"/>
        <path d="M35.17 26.761a1.41 1.41 0 0 0-.554-.278c-.216-.058-.524-.087-.924-.087h-1.356c-.232 0-.402.047-.509.14-.107.094-.16.25-.16.468v3.775c0 .197.049.345.146.447a.506.506 0 0 0 .384.152.505.505 0 0 0 .377-.154c.1-.103.15-.252.15-.451v-1.386h.968c.646 0 1.134-.13 1.46-.387.329-.257.492-.634.492-1.134 0-.234-.04-.443-.121-.63a1.244 1.244 0 0 0-.354-.475zm-.728 1.563a.742.742 0 0 1-.383.24 2.265 2.265 0 0 1-.624.075h-.712v-1.497h.712c.472 0 .783.072.936.216a.716.716 0 0 1 .202.528c0 .18-.043.326-.131.438zM41.07 26.841a1.733 1.733 0 0 0-.696-.351 3.99 3.99 0 0 0-.922-.094h-1.376c-.228 0-.393.049-.495.144-.102.096-.153.25-.153.464v3.592c0 .158.015.286.044.385.03.1.093.176.19.231.098.055.243.082.435.082h1.376c.24 0 .455-.015.646-.043.191-.03.369-.079.536-.15a1.83 1.83 0 0 0 .458-.285c.179-.153.324-.328.438-.523.114-.194.198-.413.253-.656.054-.242.081-.51.081-.805 0-.891-.271-1.555-.814-1.99zm-.785 3.434a.857.857 0 0 1-.278.15c-.107.036-.21.059-.31.067-.099.01-.237.013-.412.013h-.8v-3.323h.697c.322 0 .597.032.825.098.228.066.42.219.574.46.156.24.234.602.234 1.085 0 .686-.178 1.17-.53 1.45zM46.825 26.396h-2.49a.978.978 0 0 0-.369.061.408.408 0 0 0-.21.198.767.767 0 0 0-.069.35v3.768c0 .203.05.354.147.454.1.1.227.15.384.15.154 0 .28-.049.378-.149.099-.1.148-.25.148-.455V29.16h1.74c.158 0 .278-.034.359-.1a.334.334 0 0 0 .12-.272.34.34 0 0 0-.119-.273c-.079-.066-.2-.1-.36-.1h-1.74v-1.253h2.081c.167 0 .293-.036.375-.106a.35.35 0 0 0 .123-.28.342.342 0 0 0-.123-.274c-.082-.071-.207-.106-.375-.106z"/>
    </g>
</svg>
