<svg xmlns="http://www.w3.org/2000/svg" xmlns:xlink="http://www.w3.org/1999/xlink" width="40" height="38" viewBox="0 0 40 38">
    <defs>
        <path id="a" d="M.024.08v37.516h39.748V.081H.024z"/>
    </defs>
    <g fill="none" fill-rule="evenodd">
        <mask id="b" fill="#fff">
            <use xlink:href="#a"/>
        </mask>
        <path fill="#FFF" d="M19.82 21.134c5.878 0 10.646-4.722 10.646-10.543 0-5.82-4.768-10.51-10.646-10.51-5.877 0-10.644 4.722-10.644 10.51 0 5.79 4.767 10.543 10.644 10.543zm0-18.304c4.311 0 7.838 3.493 7.838 7.761 0 4.269-3.527 7.762-7.838 7.762-4.31 0-7.837-3.493-7.837-7.762 0-4.268 3.527-7.76 7.837-7.76zM1.404 37.596h36.963c.785 0 1.405-.614 1.405-1.391 0-7.277-5.976-13.227-13.356-13.227H13.355C6.008 22.978 0 28.897 0 36.205c0 .777.62 1.391 1.404 1.391zm11.95-11.837h13.062c5.355 0 9.764 3.946 10.45 9.056H2.905c.686-5.078 5.095-9.056 10.449-9.056z" mask="url(#b)"/>
    </g>
</svg>
