<?xml version="1.0" encoding="UTF-8" standalone="no"?>
<svg width="94px" height="93px" viewBox="0 0 94 93" version="1.1" xmlns="http://www.w3.org/2000/svg" xmlns:xlink="http://www.w3.org/1999/xlink">
    <!-- Generator: sketchtool 46.2 (44496) - http://www.bohemiancoding.com/sketch -->
    <title>52FB8027-9C2C-435F-9E6E-324A4892FCCD</title>
    <desc>Created with sketchtool.</desc>
    <defs></defs>
    <g id="M:-Public-Portal" stroke="none" stroke-width="1" fill="none" fill-rule="evenodd">
        <g id="Public-/-My-Applications-Step-2-Dec-1" transform="translate(-174.000000, -637.000000)" fill-rule="nonzero" fill="#3B435B">
            <g id="noun_1038906_cc" transform="translate(174.000000, 637.000000)">
                <path d="M93.4715803,37.8429821 L86.1128461,31.8004998 L86.1128461,14.2927947 C86.1128461,13.5181175 85.4865709,12.7434402 84.547158,12.7434402 L63.0972309,12.7434402 L48.066625,0.348604748 C47.4403498,-0.116201583 46.6575057,-0.116201583 46.0312305,0.348604748 L31.0006246,12.7434402 L9.55069748,12.7434402 C8.76785342,12.7434402 7.98500937,13.363182 7.98500937,14.2927947 L7.98500937,31.8004998 L0.626275245,37.8429821 C0.313137622,38.152853 0,38.6176593 0,39.0824656 L0,91.4506456 C0,92.2253228 0.626275245,93 1.56568811,93 L92.3755986,93 C93.1584426,93 93.9412867,92.3802582 93.9412867,91.4506456 L93.9412867,39.0824656 C94.0978555,38.6176593 93.9412867,38.152853 93.4715803,37.8429821 Z M47.1272122,3.60224906 L58.4001666,12.8983757 L35.8542578,12.8983757 L47.1272122,3.60224906 Z M8.14157818,35.8288213 L8.14157818,38.3077884 L11.2729544,39.547272 L11.2729544,15.8421491 L83.2946075,15.8421491 L83.2946075,39.547272 L86.4259838,38.3077884 L86.4259838,35.8288213 L89.8704976,38.7725948 L47.1272122,56.7451062 L4.54049552,38.6176593 L8.14157818,35.8288213 Z M90.9664793,89.9012911 L3.28794503,89.9012911 L3.28794503,41.4064973 L46.5009369,59.8438151 C46.6575057,59.9987505 46.9706433,59.9987505 47.1272122,59.9987505 C47.283781,59.9987505 47.5969186,59.9987505 47.7534874,59.8438151 L90.9664793,41.4064973 L90.9664793,89.9012911 Z M73.5873412,28.39192 L20.6670831,28.39192 L20.6670831,25.2932112 L73.5873412,25.2932112 L73.5873412,28.39192 Z M73.5873412,40.7867555 L20.6670831,40.7867555 L20.6670831,37.6880466 L73.5873412,37.6880466 L73.5873412,40.7867555 Z" id="Shape"></path>
            </g>
        </g>
    </g>
</svg>