<?xml version="1.0" encoding="utf-8"?>
<!-- Generator: Adobe Illustrator 21.0.0, SVG Export Plug-In . SVG Version: 6.00 Build 0)  -->
<svg version="1.1" id="Layer_1" xmlns="http://www.w3.org/2000/svg" xmlns:xlink="http://www.w3.org/1999/xlink" x="0px" y="0px"
	 viewBox="0 0 300 70" style="enable-background:new 0 0 300 70;" xml:space="preserve">
<style type="text/css">
	.st0{fill:#15397F;}
	.st1{fill:#E3173E;}
	.st2{fill:none;stroke:#15397F;stroke-width:1.2452;stroke-linecap:round;}
</style>
<g>
	<g>
		<path class="st0" d="M19.8,51.3l-9.5-11.1h-4v17.4h3.9V46.5l9.5,11.1h4V40.2h-3.9V51.3z M57.4,40.2l-2.6,11.2l-2.7-11.2h-3.8
			l-2.8,11l-2.5-11H39l4.5,17.4h4l2.7-11l2.7,11h4l0-0.1l4.6-17.3H57.4z"/>
		<g>
			<g>
				<path class="st0" d="M5.9,63L5.9,63c0-1.5,1.2-2.8,2.8-2.8c0.9,0,1.5,0.3,2.1,0.7l-0.6,0.7C9.8,61.2,9.4,61,8.7,61
					c-1,0-1.7,0.9-1.7,1.9v0c0,1.1,0.7,1.9,1.8,1.9c0.5,0,1-0.2,1.3-0.4v-1H8.7v-0.8H11v2.3c-0.5,0.5-1.3,0.8-2.3,0.8
					C7,65.7,5.9,64.5,5.9,63"/>
				<path class="st0" d="M11.5,63L11.5,63c0-1.5,1.2-2.8,2.8-2.8c1.7,0,2.8,1.3,2.8,2.8v0c0,1.5-1.2,2.8-2.8,2.8
					C12.7,65.7,11.5,64.5,11.5,63 M16.2,63L16.2,63c0-1.1-0.8-1.9-1.8-1.9c-1.1,0-1.8,0.9-1.8,1.9v0c0,1,0.8,1.9,1.8,1.9
					C15.4,64.9,16.2,64,16.2,63"/>
				<polygon class="st0" points="17.1,60.2 18.2,60.2 19.8,64.4 21.4,60.2 22.4,60.2 20.2,65.7 19.4,65.7 				"/>
				<polygon class="st0" points="23.1,60.2 27.1,60.2 27.1,61.1 24,61.1 24,62.5 26.7,62.5 26.7,63.3 24,63.3 24,64.8 27.1,64.8 
					27.1,65.6 23.1,65.6 				"/>
				<path class="st0" d="M28,60.2h2.4c0.7,0,1.2,0.2,1.6,0.5c0.3,0.3,0.4,0.7,0.4,1.2v0c0,0.9-0.5,1.4-1.3,1.6l1.5,2h-1.1l-1.3-1.9
					H29v1.9H28V60.2z M30.4,62.9c0.7,0,1.1-0.4,1.1-0.9v0c0-0.6-0.4-0.9-1.1-0.9H29v1.8H30.4z"/>
				<polygon class="st0" points="33.3,60.2 34.2,60.2 37.1,64 37.1,60.2 38,60.2 38,65.6 37.2,65.6 34.2,61.8 34.2,65.6 33.3,65.6 
									"/>
				<polygon class="st0" points="39,60.2 40,60.2 41.6,62.8 43.2,60.2 44.3,60.2 44.3,65.6 43.3,65.6 43.3,61.8 41.6,64.3 
					41.6,64.3 39.9,61.8 39.9,65.6 39,65.6 				"/>
				<polygon class="st0" points="45.2,60.2 49.2,60.2 49.2,61.1 46.1,61.1 46.1,62.5 48.8,62.5 48.8,63.3 46.1,63.3 46.1,64.8 
					49.2,64.8 49.2,65.6 45.2,65.6 				"/>
				<polygon class="st0" points="50.1,60.2 51,60.2 53.9,64 53.9,60.2 54.8,60.2 54.8,65.6 54,65.6 51.1,61.8 51.1,65.6 50.1,65.6 
									"/>
				<polygon class="st0" points="57.3,61.1 55.6,61.1 55.6,60.2 60,60.2 60,61.1 58.3,61.1 58.3,65.6 57.3,65.6 				"/>
			</g>
		</g>
		<path class="st0" d="M24.8,55.2l2.3-2.8c1.6,1.3,3.3,2.2,5.3,2.2c1.6,0,2.6-0.6,2.6-1.7v-0.1c0-1-0.6-1.5-3.6-2.3
			c-3.6-0.9-5.9-1.9-5.9-5.4v-0.1c0-3.2,2.6-5.3,6.2-5.3c2.6,0,4.8,0.8,6.6,2.3l-2,2.9c-1.6-1.1-3.1-1.7-4.6-1.7
			c-1.5,0-2.3,0.7-2.3,1.5v0.1c0,1.2,0.8,1.5,3.8,2.3c3.6,0.9,5.6,2.2,5.6,5.3v0c0,3.5-2.7,5.5-6.5,5.5C29.7,58,27,57.1,24.8,55.2z"
			/>
	</g>
	<path class="st1" d="M15.7,7.1c-0.4,0-0.6,0.2-0.7,0.7c0,0-0.1,0.6-0.2,1.7c-0.1,1-0.2,2.6-0.2,4.4c0,4.2,0.5,10.2,3.2,14.7
		c2,3.5,4.8,5.5,8,5.6c-1.2-0.9-2.7-2.5-3.5-4.9c-0.7-2.3-1.1-5-1.1-8.1c0-4.2,0.7-7.9,0.9-8.9c0,0,0,0,0,0c0.1-0.6,0.5-1.1,0.9-1.3
		c-3.2-2.1-6-3.3-6.5-3.5C16.2,7.2,16,7.1,16,7.1l0,0l0,0C15.9,7.1,15.8,7.1,15.7,7.1L15.7,7.1z"/>
	<path class="st1" d="M43.1,12c-0.1,0-0.2,0-0.3,0.1c0,0-0.1,0.1-0.3,0.2c-0.2,0.1-0.4,0.4-0.8,0.7c-0.5,0.4-1.5,1.3-2.6,2.6
		c-1.8,2-4.2,5.2-5.4,8.9c-0.7,2.2-1,4-1,5.5c0,1.1,0.2,2.1,0.5,2.9c0.4,0.7,0.9,1.3,1.6,1.6c0.3,0.1,0.7,0.2,1.2,0.2h0
		c2.2,0,5.9-1.8,7.2-5.9c0.7-2.2,1-4.8,1-7.7c0-3.6-0.5-6.8-0.8-8c-0.1-0.4-0.1-0.7-0.1-0.7C43.4,12.2,43.3,12,43.1,12L43.1,12z"/>
	<path class="st1" d="M23.7,12c-0.2,0-0.3,0.3-0.4,0.5c0,0-0.1,0.3-0.1,0.7c-0.1,0.3-0.2,1-0.3,1.9c-0.2,1.4-0.5,3.7-0.5,6.1
		c0,3,0.4,5.6,1,7.7c1.3,4.1,5.1,5.9,7.3,5.9h0c0.5,0,0.9-0.1,1.2-0.2c0.2-0.1,0.4-0.2,0.6-0.3c-0.2-0.2-0.3-0.5-0.4-0.8
		c-0.4-0.9-0.7-2-0.7-3.4c0-1.7,0.4-3.7,1.1-5.9c0.1-0.2,0.1-0.4,0.2-0.6c0-0.1,0.1-0.2,0.1-0.2c-2.4-6-7.9-10.5-8.6-11
		c-0.2-0.2-0.3-0.2-0.3-0.2C23.9,12,23.8,12,23.7,12L23.7,12z"/>
	<path class="st1" d="M33.4,2.2c-0.1,0-0.3,0.1-0.4,0.3c0,0-0.1,0.2-0.3,0.5c-0.3,0.5-0.5,0.9-0.8,1.4c-0.6,1.1-1.5,2.8-2.4,4.9
		c-0.6,1.4-1.2,3-1.7,4.5c1.8,1.8,4.2,4.6,5.8,8c1.2-2.7,3.1-5.3,5.6-7.9c-1.7-5.1-4-9.3-5-10.8c-0.2-0.3-0.3-0.5-0.3-0.5
		C33.6,2.2,33.4,2.2,33.4,2.2L33.4,2.2z"/>
	<path class="st1" d="M51.1,7.1c-0.1,0-0.2,0-0.3,0.1l0,0l0,0c0,0-0.2,0.1-0.5,0.2C50,7.5,49.6,7.7,49,7.9L48.9,8
		c-1.6,0.8-3.1,1.6-4.6,2.6c-0.2,0.1-0.3,0.2-0.5,0.3c0.5,0.2,0.8,0.7,0.9,1.3c0,0,0,0,0,0.1c0.2,1,0.9,4.6,0.9,8.9
		c0,3.1-0.4,5.8-1.1,8.1c-0.8,2.4-2.2,4-3.4,4.9C44.2,34,47,32,49,28.6c2.6-4.6,3.2-10.5,3.2-14.7c0-1.5-0.1-3-0.2-4.4
		c-0.1-1.1-0.2-1.7-0.2-1.7C51.7,7.3,51.5,7.1,51.1,7.1L51.1,7.1z"/>
	<path class="st1" d="M42.5,3.5c0,0-0.1,0-0.1,0h0h0c-0.1,0-0.2,0.1-0.3,0.1l0,0l0,0c0,0-0.7,0.4-1.7,1.2c-0.6,0.4-1.5,1.1-2.7,2.1
		c0.8,1.7,1.6,3.5,2.2,5.2C41.2,11,42.7,10,44.4,9c-0.5-2.4-1-4.2-1.2-4.9c0,0,0,0,0-0.1C43,3.7,42.8,3.5,42.5,3.5L42.5,3.5z"/>
	<path class="st1" d="M24.3,3.5c-0.3,0-0.5,0.2-0.6,0.5c0,0,0,0,0,0.1c-0.2,0.7-0.8,2.5-1.2,4.9c1.7,1,3.2,2,4.5,3.1
		c0.6-1.7,1.3-3.4,2.2-5.2c-0.9-0.7-1.8-1.4-2.7-2.1c-1.1-0.8-1.7-1.2-1.7-1.2l0,0l0,0c-0.1-0.1-0.2-0.1-0.3-0.1h0h0
		C24.4,3.5,24.4,3.5,24.3,3.5L24.3,3.5z"/>
	<path class="st1" d="M9.1,14.9c-0.9,0-1.4,0-1.5,0c-0.4,0-0.7,0.2-0.9,0.5c-0.1,0.2-0.2,0.4-0.2,0.7C6.6,16.7,7,19,9.7,22.5
		c1.4-0.7,2.8-1.3,4.1-1.8c-0.3-1.7-0.4-3.6-0.5-5.6c-1.7-0.2-3-0.2-3.8-0.2C9.4,14.9,9.2,14.9,9.1,14.9L9.1,14.9z"/>
	<path class="st1" d="M57.7,14.9c-0.2,0-0.3,0-0.5,0c-0.8,0-2.1,0.1-3.8,0.2c0,1.9-0.2,3.8-0.5,5.6c1.3,0.5,2.7,1.1,4.1,1.8
		c2.7-3.4,3.1-5.7,3.2-6.4c0-0.2-0.1-0.5-0.2-0.7c-0.2-0.3-0.6-0.5-0.9-0.5C59.2,14.9,58.6,14.9,57.7,14.9L57.7,14.9z"/>
	<path class="st1" d="M52.7,21.9c-0.6,2.8-1.4,5.3-2.6,7.3c-1.2,2.1-2.7,3.8-4.5,4.8c13-0.7,16.6-4.9,17-5.4l0,0
		c0.1-0.2,0.2-0.4,0.2-0.6c0-0.4-0.2-0.7-0.5-0.9c0,0-0.2-0.1-0.4-0.3l0,0l0,0c-0.2-0.2-0.5-0.4-0.9-0.6c-0.1-0.1-0.2-0.1-0.3-0.2
		c-0.9-0.6-2.4-1.5-4.3-2.4C55.2,22.9,53.9,22.4,52.7,21.9L52.7,21.9z"/>
	<path class="st1" d="M14.1,21.9c-4.4,1.7-7.9,4-9.2,4.9c-0.3,0.2-0.4,0.3-0.4,0.3C4.2,27.3,4,27.7,4,28c0,0.2,0.1,0.4,0.2,0.6
		c0,0,0,0,0,0c0,0,0.1,0.1,0.1,0.1c0,0,0,0,0.1,0.1C4.4,29,4.6,29.2,5,29.5c0.5,0.5,1.5,1.2,3.1,1.9c3.3,1.5,7.8,2.4,13.1,2.7
		c-1.8-1.1-3.3-2.7-4.5-4.8C15.5,27.2,14.6,24.7,14.1,21.9L14.1,21.9z"/>
	<path class="st1" d="M51.1,35c-0.7,0-1.6,0.1-3.1,0.3c-0.2,0-0.5,0.1-0.7,0.1c-0.7,0.1-1.4,0.1-2.5,0.1c-0.6,0-1.3,0-2,0l-0.1,0
		c-0.7,0-1.4,0-2.2,0c-1.6,0-3.6,0.1-5.5,0.6c-0.1,0-0.2,0.1-0.1,0.2c0,0.1,0.1,0.1,0.2,0.1c0,0,0.1,0,0.1,0
		c0.7-0.1,1.4-0.1,2.1-0.1c2.4,0,4,0.4,5.5,0.8c1.5,0.4,2.9,0.7,4.8,0.7c2.1,0,3.7-0.4,4.4-1.2c0.2-0.2,0.3-0.5,0.3-0.8
		C52.1,35.2,52,35,51.1,35L51.1,35z"/>
	<path class="st1" d="M15.7,35c-0.9,0-1.1,0.2-1.1,0.8c0,0.3,0.1,0.5,0.3,0.8c0.7,0.7,2.3,1.2,4.4,1.2c1.9,0,3.3-0.4,4.8-0.7
		c1.6-0.4,3.2-0.8,5.5-0.8c0.7,0,1.3,0,2.1,0.1c0,0,0.1,0,0.1,0c0.1,0,0.2,0,0.2-0.1c0-0.1-0.1-0.2-0.2-0.2
		c-1.8-0.5-3.9-0.6-5.4-0.6h0c-0.8,0-1.5,0-2.2,0l-0.1,0c-0.7,0-1.4,0-2,0c-1.1,0-1.8,0-2.5-0.1c-0.2,0-0.5-0.1-0.7-0.1
		C17.3,35.1,16.4,35,15.7,35L15.7,35z"/>
</g>
<g id="Layer_9">
	<line class="st2" x1="71.5" y1="8.6" x2="71.5" y2="65"/>
</g>
<g>
	<path class="st0" d="M79.3,42.2l1.7-2c1.5,1.3,3,2,5,2c1.7,0,2.8-0.8,2.8-2v0c0-1.1-0.6-1.7-3.5-2.4c-3.3-0.8-5.2-1.8-5.2-4.7v0
		c0-2.7,2.2-4.6,5.4-4.6c2.3,0,4.1,0.7,5.7,2l-1.5,2.1c-1.4-1.1-2.8-1.6-4.3-1.6c-1.6,0-2.6,0.8-2.6,1.9v0c0,1.2,0.7,1.7,3.7,2.5
		c3.3,0.8,5,2,5,4.6v0c0,2.9-2.3,4.7-5.6,4.7C83.5,44.7,81.2,43.9,79.3,42.2z"/>
	<path class="st0" d="M93.7,41.2V35h-1.5v-2.3h1.5v-3.3h2.7v3.3h3.2V35h-3.2v5.8c0,1.1,0.5,1.5,1.5,1.5c0.6,0,1.1-0.1,1.7-0.4v2.2
		c-0.7,0.4-1.4,0.6-2.4,0.6C95.1,44.7,93.7,43.8,93.7,41.2z"/>
	<path class="st0" d="M108.5,44.5V43c-0.8,1-2,1.7-3.8,1.7c-2.2,0-4.2-1.3-4.2-3.7v0c0-2.6,2-3.9,4.8-3.9c1.4,0,2.4,0.2,3.3,0.5
		v-0.2c0-1.6-1-2.5-2.9-2.5c-1.3,0-2.3,0.3-3.4,0.7l-0.7-2.2c1.3-0.6,2.6-1,4.5-1c3.5,0,5.2,1.8,5.2,5v7H108.5z M108.5,39.6
		c-0.7-0.3-1.7-0.5-2.7-0.5c-1.7,0-2.7,0.7-2.7,1.8v0c0,1.1,1,1.7,2.3,1.7c1.8,0,3.1-1,3.1-2.5V39.6z"/>
	<path class="st0" d="M113.7,41.2V35h-1.5v-2.3h1.5v-3.3h2.7v3.3h3.2V35h-3.2v5.8c0,1.1,0.5,1.5,1.5,1.5c0.6,0,1.1-0.1,1.7-0.4v2.2
		c-0.7,0.4-1.4,0.6-2.4,0.6C115.1,44.7,113.7,43.8,113.7,41.2z"/>
	<path class="st0" d="M120.3,38.6L120.3,38.6c0-3.4,2.4-6.2,5.8-6.2c3.8,0,5.7,3,5.7,6.4c0,0.2,0,0.5,0,0.8H123c0.3,1.9,1.7,3,3.4,3
		c1.3,0,2.3-0.5,3.2-1.4l1.6,1.4c-1.1,1.3-2.7,2.2-4.8,2.2C122.9,44.8,120.3,42.3,120.3,38.6z M129,37.8c-0.2-1.7-1.2-3.1-3-3.1
		c-1.7,0-2.8,1.3-3.1,3.1H129z"/>
	<path class="st0" d="M139.5,28.8h2.8v15.7h-2.8V28.8z"/>
	<path class="st0" d="M145.1,32.7h2.7v1.8c0.8-1.1,1.9-2.1,3.7-2.1c2.7,0,4.2,1.8,4.2,4.6v7.5H153v-6.7c0-1.8-0.9-2.9-2.5-2.9
		c-1.6,0-2.7,1.1-2.7,2.9v6.7h-2.7V32.7z"/>
	<path class="st0" d="M157,43l1.2-1.8c1.3,1,2.7,1.5,3.9,1.5c1.2,0,1.8-0.5,1.8-1.3v0c0-0.9-1.3-1.2-2.6-1.7
		c-1.7-0.5-3.7-1.2-3.7-3.5v0c0-2.2,1.9-3.6,4.2-3.6c1.5,0,3.1,0.5,4.3,1.3l-1.1,1.9c-1.1-0.7-2.4-1.1-3.3-1.1
		c-1.1,0-1.7,0.5-1.7,1.2v0c0,0.9,1.3,1.2,2.7,1.7c1.7,0.5,3.7,1.3,3.7,3.5v0c0,2.5-1.9,3.7-4.4,3.7C160.3,44.7,158.4,44.1,157,43z"
		/>
	<path class="st0" d="M167.9,40.2v-7.5h2.7v6.7c0,1.8,0.9,2.9,2.5,2.9c1.6,0,2.7-1.1,2.7-2.9v-6.7h2.7v11.8h-2.7v-1.8
		c-0.8,1.1-1.9,2.1-3.7,2.1C169.4,44.8,167.9,43,167.9,40.2z"/>
	<path class="st0" d="M180.9,32.7h2.7v2.7c0.7-1.8,2.1-3,4.2-2.9v2.9h-0.2c-2.4,0-4,1.5-4,4.7v4.5h-2.7V32.7z"/>
	<path class="st0" d="M196,44.5V43c-0.8,1-2,1.7-3.8,1.7c-2.2,0-4.2-1.3-4.2-3.7v0c0-2.6,2-3.9,4.8-3.9c1.4,0,2.4,0.2,3.3,0.5v-0.2
		c0-1.6-1-2.5-2.9-2.5c-1.3,0-2.3,0.3-3.4,0.7l-0.7-2.2c1.3-0.6,2.6-1,4.5-1c3.5,0,5.2,1.8,5.2,5v7H196z M196.1,39.6
		c-0.7-0.3-1.7-0.5-2.7-0.5c-1.7,0-2.7,0.7-2.7,1.8v0c0,1.1,1,1.7,2.3,1.7c1.8,0,3.1-1,3.1-2.5V39.6z"/>
	<path class="st0" d="M200.9,32.7h2.7v1.8c0.8-1.1,1.9-2.1,3.7-2.1c2.7,0,4.2,1.8,4.2,4.6v7.5h-2.7v-6.7c0-1.8-0.9-2.9-2.5-2.9
		c-1.6,0-2.7,1.1-2.7,2.9v6.7h-2.7V32.7z"/>
	<path class="st0" d="M213.1,38.7L213.1,38.7c0-3.4,2.6-6.2,6.1-6.2c2.2,0,3.6,0.8,4.7,2l-1.7,1.8c-0.8-0.9-1.7-1.5-3.1-1.5
		c-2,0-3.4,1.7-3.4,3.8v0c0,2.1,1.5,3.8,3.5,3.8c1.3,0,2.2-0.6,3.1-1.5l1.6,1.6c-1.2,1.3-2.5,2.2-4.8,2.2
		C215.7,44.8,213.1,42,213.1,38.7z"/>
	<path class="st0" d="M224.5,38.6L224.5,38.6c0-3.4,2.4-6.2,5.8-6.2c3.8,0,5.7,3,5.7,6.4c0,0.2,0,0.5,0,0.8h-8.7
		c0.3,1.9,1.7,3,3.4,3c1.3,0,2.3-0.5,3.2-1.4l1.6,1.4c-1.1,1.3-2.7,2.2-4.8,2.2C227.1,44.8,224.5,42.3,224.5,38.6z M233.2,37.8
		c-0.2-1.7-1.2-3.1-3-3.1c-1.7,0-2.8,1.3-3.1,3.1H233.2z"/>
	<path class="st0" d="M80.4,49.7h7c2,0,3.5,0.6,4.5,1.6c0.8,0.9,1.3,2,1.3,3.4v0c0,2.6-1.5,4.1-3.7,4.8l4.2,5.9h-3.3l-3.9-5.5h-3.5
		v5.5h-2.8V49.7z M87.2,57.5c2,0,3.2-1,3.2-2.6v0c0-1.7-1.2-2.6-3.3-2.6h-4v5.3H87.2z"/>
	<path class="st0" d="M94.4,59.5L94.4,59.5c0-3.4,2.4-6.2,5.8-6.2c3.8,0,5.7,3,5.7,6.4c0,0.2,0,0.5,0,0.8h-8.7c0.3,1.9,1.7,3,3.4,3
		c1.3,0,2.3-0.5,3.2-1.4l1.6,1.4c-1.1,1.3-2.7,2.2-4.8,2.2C97.1,65.7,94.4,63.2,94.4,59.5z M103.2,58.6c-0.2-1.7-1.2-3.1-3-3.1
		c-1.7,0-2.8,1.3-3.1,3.1H103.2z"/>
	<path class="st0" d="M107.5,67.6l1-2c1.3,0.8,2.6,1.3,4.2,1.3c2.4,0,3.7-1.3,3.7-3.6v-0.9c-1,1.3-2.2,2.2-4.2,2.2
		c-2.8,0-5.4-2.1-5.4-5.5v0c0-3.5,2.6-5.6,5.4-5.6c2,0,3.2,0.9,4.1,2v-1.8h2.7V63c0,2-0.5,3.5-1.5,4.5c-1.1,1.1-2.7,1.6-4.9,1.6
		C110.8,69,109,68.5,107.5,67.6z M116.5,58.9L116.5,58.9c0-2-1.6-3.3-3.5-3.3c-1.9,0-3.4,1.3-3.4,3.3v0c0,2,1.5,3.3,3.4,3.3
		C114.9,62.2,116.5,60.8,116.5,58.9z"/>
	<path class="st0" d="M121.4,61.1v-7.5h2.7v6.7c0,1.8,0.9,2.9,2.5,2.9c1.6,0,2.7-1.1,2.7-2.9v-6.7h2.7v11.8h-2.7v-1.8
		c-0.8,1.1-1.9,2.1-3.7,2.1C122.9,65.6,121.4,63.8,121.4,61.1z"/>
	<path class="st0" d="M134.4,49h2.7v16.4h-2.7V49z"/>
	<path class="st0" d="M146.8,65.4v-1.5c-0.8,1-2,1.7-3.8,1.7c-2.2,0-4.2-1.3-4.2-3.7v0c0-2.6,2-3.9,4.8-3.9c1.4,0,2.4,0.2,3.3,0.5
		v-0.2c0-1.6-1-2.5-2.9-2.5c-1.3,0-2.3,0.3-3.4,0.7l-0.7-2.2c1.3-0.6,2.6-1,4.5-1c3.5,0,5.2,1.8,5.2,5v7H146.8z M146.9,60.4
		c-0.7-0.3-1.7-0.5-2.7-0.5c-1.7,0-2.7,0.7-2.7,1.8v0c0,1.1,1,1.7,2.3,1.7c1.8,0,3.1-1,3.1-2.5V60.4z"/>
	<path class="st0" d="M152,62.1v-6.2h-1.5v-2.3h1.5v-3.2h2.7v3.2h3.2v2.3h-3.2v5.8c0,1.1,0.5,1.5,1.5,1.5c0.6,0,1.1-0.1,1.7-0.4V65
		c-0.7,0.4-1.4,0.6-2.4,0.6C153.4,65.6,152,64.7,152,62.1z"/>
	<path class="st0" d="M158.5,59.5L158.5,59.5c0-3.4,2.7-6.2,6.3-6.2c3.6,0,6.3,2.8,6.3,6.1v0c0,3.4-2.7,6.2-6.3,6.2
		C161.2,65.7,158.5,62.9,158.5,59.5z M168.4,59.5L168.4,59.5c0-2.1-1.5-3.9-3.6-3.9c-2.2,0-3.6,1.7-3.6,3.8v0c0,2.1,1.5,3.8,3.6,3.8
		C167,63.3,168.4,61.6,168.4,59.5z"/>
	<path class="st0" d="M172.8,53.5h2.7v2.7c0.7-1.8,2.1-3,4.2-2.9v2.9h-0.2c-2.4,0-4,1.5-4,4.7v4.5h-2.7V53.5z"/>
	<path class="st0" d="M181,68.3l0.9-2c0.5,0.3,1,0.4,1.6,0.4c0.8,0,1.2-0.3,1.7-1.4l-4.9-11.8h2.9l3.4,8.8l3.1-8.8h2.8l-4.7,12.2
		c-0.9,2.4-2,3.3-3.9,3.3C182.7,69,181.8,68.8,181,68.3z"/>
	<path class="st0" d="M205.2,49.6h2.6l6.9,15.8h-2.9l-1.6-3.8h-7.4l-1.6,3.8h-2.8L205.2,49.6z M209.2,59.2l-2.7-6.3l-2.7,6.3H209.2z
		"/>
	<path class="st0" d="M215.4,61.1v-7.5h2.7v6.7c0,1.8,0.9,2.9,2.5,2.9c1.6,0,2.7-1.1,2.7-2.9v-6.7h2.7v11.8h-2.7v-1.8
		c-0.8,1.1-1.9,2.1-3.7,2.1C217,65.6,215.4,63.8,215.4,61.1z"/>
	<path class="st0" d="M228.9,62.1v-6.2h-1.5v-2.3h1.5v-3.2h2.7v3.2h3.2v2.3h-3.2v5.8c0,1.1,0.5,1.5,1.5,1.5c0.6,0,1.1-0.1,1.7-0.4
		V65c-0.7,0.4-1.4,0.6-2.4,0.6C230.3,65.6,228.9,64.7,228.9,62.1z"/>
	<path class="st0" d="M236.5,49h2.7v6.4c0.8-1.1,1.9-2.1,3.7-2.1c2.7,0,4.2,1.8,4.2,4.6v7.5h-2.7v-6.7c0-1.8-0.9-2.9-2.5-2.9
		c-1.6,0-2.7,1.1-2.7,2.9v6.7h-2.7V49z"/>
	<path class="st0" d="M248.6,59.5L248.6,59.5c0-3.4,2.7-6.2,6.3-6.2c3.6,0,6.3,2.8,6.3,6.1v0c0,3.4-2.7,6.2-6.3,6.2
		C251.3,65.7,248.6,62.9,248.6,59.5z M258.5,59.5L258.5,59.5c0-2.1-1.5-3.9-3.6-3.9c-2.2,0-3.6,1.7-3.6,3.8v0c0,2.1,1.5,3.8,3.6,3.8
		C257.2,63.3,258.5,61.6,258.5,59.5z"/>
	<path class="st0" d="M262.9,53.5h2.7v2.7c0.7-1.8,2.1-3,4.2-2.9v2.9h-0.2c-2.4,0-4,1.5-4,4.7v4.5h-2.7V53.5z"/>
	<path class="st0" d="M270.9,49.2h2.9v2.6h-2.9V49.2z M271,53.5h2.7v11.8H271V53.5z"/>
	<path class="st0" d="M276.6,62.1v-6.2h-1.5v-2.3h1.5v-3.2h2.7v3.2h3.2v2.3h-3.2v5.8c0,1.1,0.5,1.5,1.5,1.5c0.6,0,1.1-0.1,1.7-0.4
		V65c-0.7,0.4-1.4,0.6-2.4,0.6C278,65.6,276.6,64.7,276.6,62.1z"/>
	<path class="st0" d="M284,68.3l0.9-2c0.5,0.3,1,0.4,1.6,0.4c0.8,0,1.2-0.3,1.7-1.4l-4.9-11.8h2.9l3.4,8.8l3.1-8.8h2.8l-4.7,12.2
		c-0.9,2.4-2,3.3-3.9,3.3C285.6,69,284.8,68.8,284,68.3z"/>
</g>
</svg>
