<svg xmlns="http://www.w3.org/2000/svg" width="22" height="38" viewBox="0 0 22 38">
    <g fill="#1589EE" fill-rule="nonzero">
        <path d="M10.993 32A3.004 3.004 0 0 0 8 35.008 2.996 2.996 0 0 0 10.993 38 3.002 3.002 0 0 0 14 35.008 3.01 3.01 0 0 0 10.993 32zm0 3.851a.844.844 0 0 1-.844-.842c0-.474.379-.859.844-.859a.86.86 0 0 1 .858.859.851.851 0 0 1-.858.842zM10.993 0C4.93 0 0 4.708 0 10.495c0 1.062.9 1.922 2.012 1.922 1.11 0 2.012-.86 2.012-1.922 0-3.667 3.127-6.652 6.97-6.652 3.85 0 6.982 2.985 6.982 6.652 0 3.679-3.132 6.671-6.983 6.671-1.11 0-2.012.86-2.012 1.922v5.99c0 1.061.9 1.922 2.012 1.922s2.013-.86 2.013-1.922v-4.253c5.11-.907 8.994-5.19 8.994-10.33C21.999 4.708 17.062 0 10.993 0z"/>
    </g>
</svg>
