<?xml version="1.0" encoding="UTF-8" standalone="no"?>
<svg width="22px" height="38px" viewBox="0 0 22 38" version="1.1" xmlns="http://www.w3.org/2000/svg" xmlns:xlink="http://www.w3.org/1999/xlink">
    <!-- Generator: sketchtool 47 (45396) - http://www.bohemiancoding.com/sketch -->
    <title>E347D974-75C9-403E-8EBD-E51FC4ED60D0</title>
    <desc>Created with sketchtool.</desc>
    <defs></defs>
    <g id="M:-Public-Portal" stroke="none" stroke-width="1" fill="none" fill-rule="evenodd">
        <g id="Public-/-Dispute-Icons" transform="translate(-478.000000, -41.000000)" fill-rule="nonzero" fill="#C1C6D0">
            <g id="noun_858313_cc-copy" transform="translate(478.000000, 41.000000)">
                <path d="M10.9930469,32 C9.34248529,32 8,33.3494384 8,35.0080228 C8,36.6580496 9.34248529,38 10.9930469,38 C12.6516313,38 14,36.6580496 14,35.0080228 C14,33.3499733 12.6516313,32 10.9930469,32 Z M10.9930469,35.8514887 C10.5277233,35.8514887 10.1490462,35.4733464 10.1490462,35.0085577 C10.1490462,34.5352113 10.5277233,34.1501159 10.9930469,34.1501159 C11.4663933,34.1501159 11.8509538,34.5357461 11.8509538,35.0085577 C11.8514887,35.4733464 11.4663933,35.8514887 10.9930469,35.8514887 Z" id="Shape"></path>
                <path d="M10.9927348,0 C4.93136209,0 0,4.70774432 0,10.4954032 C0,11.5566342 0.900878931,12.4171494 2.01244729,12.4171494 C3.12289793,12.4171494 4.02433572,11.557168 4.02433572,10.4954032 C4.02433572,6.82753712 7.15114566,3.84349236 10.9932937,3.84349236 C14.8438246,3.84349236 17.9762231,6.82753712 17.9762231,10.4954032 C17.9762231,14.1739457 14.8438246,17.1659977 10.9932937,17.1659977 C9.8822842,17.1659977 8.98140527,18.026513 8.98140527,19.0882777 L8.98140527,25.0782538 C8.98140527,26.1394848 9.88172535,27 10.9932937,27 C12.1048621,27 13.005741,26.1400186 13.005741,25.0782538 L13.005741,20.8247889 C18.1159376,19.9183653 22,15.6350066 22,10.4948694 C21.9988823,4.70774432 17.0624905,0 10.9927348,0 Z" id="Shape"></path>
            </g>
        </g>
    </g>
</svg>